;TYPE=PLATED
;Layer: PTH_Through
;EasyEDA Pro v2.1.40, 2023-11-27 11:39:21
;Gerber Generator version 0.3
M48
METRIC,LZ,000.00000
;Hole size 1 = 0.30500 METRIC
T01C0.30500
;Hole size 2 = 0.55001 METRIC
T02C0.55001
;Hole size 3 = 0.70002 METRIC
T03C0.70002
;Hole size 4 = 1.10002 METRIC
T04C1.10002
;Hole size 5 = 2.54000 METRIC
T05C2.54000
;Hole size 6 = 3.10000 METRIC
T06C3.10000
%
G05
G90
T01
X01082040Y-01879941
X00993140Y-02016760
X02880360Y-01968500
X01310640Y-01358900
X02931160Y-01864360
X01651000Y-01358900
X01727200Y-00949960
X01889760Y-01226820
X02578100Y-01574800
X01915160Y-02633980
X02547620Y-02077720
X02870200Y-01209040
X02669540Y-01290320
X00858520Y-02128520
X02085340Y-01851660
X00889000Y-02506980
X02133600Y-01917700
X03647440Y-01874520
X03327400Y-01851660
X03634740Y-01965960
X03309620Y-01960880
X03779520Y-01920240
X02710180Y-02098040
X03827780Y-02085340
X03329940Y-02159000
X02720340Y-01028700
X01399540Y-00734060
X00647700Y-02573020
X00647700Y-02438400
X01198880Y-03281680
X00901700Y-01671320
X01544320Y-01544320
X01107440Y-00612140
X01630680Y-01793240
X02410460Y-01714500
X02339340Y-01452880
X03111500Y-01546860
X04691380Y-03108960
X04777070Y-03108960
X04427220Y-01910000
X04536440Y-01910000
X04640580Y-01910000
X05057140Y-03368040
X04899660Y-01615440
X04739640Y-01386840
X04371340Y-00728980
X03622040Y-01407160
X03573780Y-01137920
X04524632Y-01407160
X03570993Y-00924128
X02676912Y-01138877
X01894840Y-02288540
X02811780Y-02159000
X03093720Y-02268220
X02943860Y-01681480
X01445260Y-00901700
X01214120Y-00911860
X01572260Y-01358900
X01587500Y-00922020
X01744980Y-00802640
X02954020Y-00990600
X02199640Y-00647700
X03025140Y-00937260
X02697480Y-00645160
X04389120Y-03444240
X00736600Y-03909060
X00162560Y-03413760
X00797560Y-00279400
X00144780Y-00683260
X03454562Y-00683260
X03825240Y-00688340
X06362700Y-00779780
X06245860Y-03312160
X05824220Y-03525520
X05875020Y-00149860
X02733040Y-03881120
X03939540Y-03530600
X00741680Y-01437640
X00195580Y-02524760
X00195580Y-01573076
X03865347Y-03041661
X04968240Y-02766060
X01288094Y-02415799
X01366247Y-03857954
X02251640Y-03857954
X02661920Y-03423920
X01816100Y-03520440
X00764540Y-03373120
X03718560Y-01645920
X01744980Y-01557020
X01795780Y-03863340
X06245860Y-02473427
X06245860Y-01618094
T02
X01487505Y-00462688
X01362512Y-00462690
X01237493Y-00462690
X01112499Y-00462690
X00451124Y-01856517
X00451127Y-01981511
X00451127Y-02106529
X00451127Y-02231523
T03
X04969202Y-03906258G85X04969202Y-03986256
X04105221Y-03906258G85X04105221Y-03986256
X04969202Y-03526248G85X04969202Y-03606248
X04105221Y-03526249G85X04105221Y-03606246
T04
X05566000Y-01454000
X05566000Y-01200000
X05566000Y-00946000
X05566040Y-03154001
X05566040Y-02900001
X05566040Y-02646001
X05566040Y-02304000
X05566040Y-02050000
X05566040Y-01796000
T05
X03149988Y-03775000
X03649987Y-03775000
X03149988Y-00325000
X03649987Y-00325000
T06
X00400000Y-00400000
X06200000Y-00400000
X00400000Y-03700000
X06200000Y-03700000
M30