G04 Layer: TopSilkscreenLayer*
G04 EasyEDA Pro v2.1.40, 2023-11-27 11:39:20*
G04 Gerber Generator version 0.3*
G04 Scale: 100 percent, Rotated: No, Reflected: No*
G04 Dimensions in millimeters*
G04 Leading zeros omitted, absolute positions, 3 integers and 5 decimals*
%FSLAX35Y35*%
%MOMM*%
%ADD10C,0.152*%
%ADD11C,0.1524*%
%ADD12C,0.254*%
%ADD13C,0.2*%
%ADD14C,0.25*%
%ADD15C,0.4*%
%ADD16C,0.3017*%
%ADD17C,0.3*%
G75*


G04 Image Start*
G36*
G01X4085539Y-982980D02*
G01X4082847Y-983031D01*
G01X4080561Y-983132D01*
G01X4078884Y-983386D01*
G01X4075328Y-984453D01*
G01X4073144Y-985368D01*
G01X4071163Y-986333D01*
G01X4069283Y-987603D01*
G01X4067404Y-989228D01*
G01X4065727Y-991006D01*
G01X4064356Y-992784D01*
G01X4063340Y-994562D01*
G01X4062476Y-996290D01*
G01X4061866Y-998068D01*
G01X4061358Y-999846D01*
G01X4060901Y-1001624D01*
G01Y-1005027D01*
G01X4060749Y-1008126D01*
G01X4060444Y-1010869D01*
G01X4059631Y-1014324D01*
G01X4059123Y-1015644D01*
G01X4058412Y-1017270D01*
G01X4057701Y-1018642D01*
G01X4057345Y-1019251D01*
G01X4056024Y-1020877D01*
G01X4054907Y-1022198D01*
G01X4053789Y-1023315D01*
G01X4052519Y-1024331D01*
G01X4051097Y-1025398D01*
G01X4049319Y-1026414D01*
G01X4047338Y-1027379D01*
G01X4045255Y-1028090D01*
G01X4043375Y-1028649D01*
G01X4041597Y-1029106D01*
G01X4038346Y-1029056D01*
G01X4035095D01*
G01X4033164Y-1028497D01*
G01X4031082Y-1027786D01*
G01X4028796Y-1026820D01*
G01X4026357Y-1025652D01*
G01X4023766Y-1023010D01*
G01X4021176Y-1020420D01*
G01X4019550Y-1017676D01*
G01X4017924Y-1015187D01*
G01X4016350Y-1013054D01*
G01X4014775Y-1011377D01*
G01X4013048Y-1009853D01*
G01X4011219Y-1008634D01*
G01X4009238Y-1007567D01*
G01X4007256Y-1006754D01*
G01X4005377Y-1006145D01*
G01X4003497Y-1005688D01*
G01X3996842D01*
G01X3994353Y-1006297D01*
G01X3993185Y-1006653D01*
G01X3990442Y-1007720D01*
G01X3989172Y-1008329D01*
G01X3986530Y-1009701D01*
G01X3980942Y-1015289D01*
G01X3979723Y-1017626D01*
G01X3979215Y-1018743D01*
G01X3978250Y-1021334D01*
G01X3977945Y-1022452D01*
G01X3977284Y-1024941D01*
G01Y-1027278D01*
G01X3977386Y-1029411D01*
G01X3977640Y-1031189D01*
G01X3978707Y-1035304D01*
G01X3979367Y-1037895D01*
G01Y-1045058D01*
G01X3978605Y-1047496D01*
G01X3977792Y-1049630D01*
G01X3977030Y-1051357D01*
G01X3976116Y-1052881D01*
G01X3974998Y-1054456D01*
G01X3973830Y-1055878D01*
G01X3972763Y-1056996D01*
G01X3969715Y-1059282D01*
G01X3968090Y-1060348D01*
G01X3966921Y-1061009D01*
G01X3964178Y-1062025D01*
G01X3961994Y-1062584D01*
G01X3959555Y-1063041D01*
G01X3956914Y-1063447D01*
G01X3954526Y-1063041D01*
G01X3952138Y-1062482D01*
G01X3949700Y-1061669D01*
G01X3948582Y-1061212D01*
G01X3947414Y-1060602D01*
G01X3946246Y-1059942D01*
G01X3945331Y-1059332D01*
G01X3943147Y-1057605D01*
G01X3940658Y-1055319D01*
G01X3938067Y-1053186D01*
G01X3936797Y-1052220D01*
G01X3935781Y-1051611D01*
G01X3933749Y-1050595D01*
G01X3931666Y-1049782D01*
G01X3929482Y-1049274D01*
G01X3926992Y-1048918D01*
G01X3924300Y-1048715D01*
G01X3922370Y-1049020D01*
G01X3918610Y-1049833D01*
G01X3916934Y-1050392D01*
G01X3915562Y-1051052D01*
G01X3912565Y-1052830D01*
G01X3910889Y-1054151D01*
G01X3909263Y-1055675D01*
G01X3906571Y-1058824D01*
G01X3905555Y-1060348D01*
G01X3904640Y-1062076D01*
G01X3903878Y-1063955D01*
G01X3903269Y-1065936D01*
G01X3902710Y-1068070D01*
G01X3903015Y-1075487D01*
G01X3903675Y-1077620D01*
G01X3904082Y-1078687D01*
G01X3905402Y-1081532D01*
G01X3906164Y-1082954D01*
G01X3907587Y-1085698D01*
G01X3908501Y-1087679D01*
G01X3909416Y-1090879D01*
G01X3909771Y-1092810D01*
G01X3909873Y-1094943D01*
G01Y-1097229D01*
G01X3909263Y-1099769D01*
G01X3908450Y-1102258D01*
G01X3907384Y-1104798D01*
G01X3906164Y-1107288D01*
G01X3903116Y-1110386D01*
G01X3900018Y-1113485D01*
G01X3894836Y-1115924D01*
G01X3891737Y-1116584D01*
G01X3888689Y-1117244D01*
G01X3885743Y-1116889D01*
G01X3883152Y-1116432D01*
G01X3881882Y-1116127D01*
G01X3880917Y-1115822D01*
G01X3879444Y-1115263D01*
G01X3878631Y-1114857D01*
G01X3875075Y-1112977D01*
G01X3871824Y-1111352D01*
G01X3866642Y-1110031D01*
G01X3861003D01*
G01X3859276Y-1110488D01*
G01X3857650Y-1110945D01*
G01X3856126Y-1111504D01*
G01X3854755Y-1112114D01*
G01X3853536Y-1112723D01*
G01X3852316Y-1113434D01*
G01X3851097Y-1114349D01*
G01X3849776Y-1115416D01*
G01X3848456Y-1116736D01*
G01X3847236Y-1118006D01*
G01X3846271Y-1119175D01*
G01X3845509Y-1120343D01*
G01X3844696Y-1121664D01*
G01X3843934Y-1123239D01*
G01X3843274Y-1124915D01*
G01X3842664Y-1126693D01*
G01X3842156Y-1128522D01*
G01X3841801Y-1130300D01*
G01X3841953Y-1133704D01*
G01X3842055Y-1137056D01*
G01X3842664Y-1138682D01*
G01X3843325Y-1140409D01*
G01X3844188Y-1142238D01*
G01X3845255Y-1144118D01*
G01X3846525Y-1145946D01*
G01X3848100Y-1147775D01*
G01X3849776Y-1149553D01*
G01X3851402Y-1151230D01*
G01X3852672Y-1152804D01*
G01X3853739Y-1154379D01*
G01X3854755Y-1156208D01*
G01X3855669Y-1158189D01*
G01X3856330Y-1160120D01*
G01X3856838Y-1162050D01*
G01Y-1169162D01*
G01X3856025Y-1171702D01*
G01X3855060Y-1174140D01*
G01X3853993Y-1176376D01*
G01X3852824Y-1178306D01*
G01X3851656Y-1179830D01*
G01X3850335Y-1181202D01*
G01X3848862Y-1182522D01*
G01X3847084Y-1183894D01*
G01X3845154Y-1185113D01*
G01X3843376Y-1185977D01*
G01X3841902Y-1186536D01*
G01X3838346Y-1187399D01*
G01X3835908Y-1187907D01*
G01X3832657Y-1187348D01*
G01X3828745Y-1186637D01*
G01X3827932Y-1186434D01*
G01X3825900Y-1186129D01*
G01X3823056Y-1185926D01*
G01X3819652Y-1185774D01*
G01X3817874Y-1186180D01*
G01X3816452Y-1186536D01*
G01X3815436Y-1186840D01*
G01X3812540Y-1188161D01*
G01X3810254Y-1189228D01*
G01X3804717Y-1194765D01*
G01X3803548Y-1196848D01*
G01X3802583Y-1198829D01*
G01X3801821Y-1200607D01*
G01X3800856Y-1204316D01*
G01X3800500Y-1206398D01*
G01X3800399Y-1208430D01*
G01X3800500Y-1210361D01*
G01X3800704Y-1212190D01*
G01X3801415Y-1215187D01*
G01X3801974Y-1216609D01*
G01X3802786Y-1218235D01*
G01X3803752Y-1219962D01*
G01X3804818Y-1221588D01*
G01X3806190Y-1223112D01*
G01X3807866Y-1224737D01*
G01X3809949Y-1226261D01*
G01X3812134Y-1227734D01*
G01X3814420Y-1229055D01*
G01X3816706Y-1231392D01*
G01X3819042Y-1233729D01*
G01X3820058Y-1235608D01*
G01X3820973Y-1237590D01*
G01X3821786Y-1239622D01*
G01X3822548Y-1241755D01*
G01Y-1250493D01*
G01X3821836Y-1252728D01*
G01X3820973Y-1254963D01*
G01X3819957Y-1257249D01*
G01X3818788Y-1259535D01*
G01X3816452Y-1261872D01*
G01X3814267Y-1263853D01*
G01X3813150Y-1264717D01*
G01X3812184Y-1265326D01*
G01X3810457Y-1266292D01*
G01X3808984Y-1266952D01*
G01X3806393Y-1267816D01*
G01X3803904Y-1268120D01*
G01X3799738Y-1268476D01*
G01X3794404Y-1268781D01*
G01X3792423Y-1269390D01*
G01X3789528Y-1270457D01*
G01X3788156Y-1271219D01*
G01X3786226Y-1272438D01*
G01X3785210Y-1273150D01*
G01X3783178Y-1274877D01*
G01X3782416Y-1275690D01*
G01X3780892Y-1277417D01*
G01X3779317Y-1280617D01*
G01X3777742Y-1283868D01*
G01X3777386Y-1286154D01*
G01X3776980Y-1288440D01*
G01X3777285Y-1295857D01*
G01X3778148Y-1298296D01*
G01X3779063Y-1300531D01*
G01X3780079Y-1302512D01*
G01X3781501Y-1304442D01*
G01X3783432Y-1306576D01*
G01X3785718Y-1308862D01*
G01X3788461Y-1310183D01*
G01X3790798Y-1311250D01*
G01X3791814Y-1311656D01*
G01X3792626Y-1311910D01*
G01X3796030Y-1312977D01*
G01X3797960Y-1313688D01*
G01X3799992Y-1314602D01*
G01X3801974Y-1315771D01*
G01X3803955Y-1317295D01*
G01X3805733Y-1318971D01*
G01X3807206Y-1320698D01*
G01X3808374Y-1322426D01*
G01X3809289Y-1324051D01*
G01X3809949Y-1325728D01*
G01X3810610Y-1327455D01*
G01X3811168Y-1329233D01*
G01X3811321Y-1332789D01*
G01X3811372Y-1334110D01*
G01X3849878D01*
G01X3850081Y-1322629D01*
G01X3850538Y-1308354D01*
G01X3850589Y-1307389D01*
G01X3851300Y-1300226D01*
G01X3851910Y-1294232D01*
G01X3852570Y-1289406D01*
G01X3853231Y-1285189D01*
G01X3853840Y-1281633D01*
G01X3854501Y-1277874D01*
G01X3855517Y-1272692D01*
G01X3856482Y-1268171D01*
G01X3857904Y-1262329D01*
G01X3859479Y-1256030D01*
G01X3861003Y-1250848D01*
G01X3863594Y-1242568D01*
G01X3866185Y-1235050D01*
G01X3868115Y-1229868D01*
G01X3869436Y-1226515D01*
G01X3871214Y-1222299D01*
G01X3873500Y-1216965D01*
G01X3875634Y-1212240D01*
G01X3879393Y-1204671D01*
G01X3882949Y-1197864D01*
G01X3885032Y-1194206D01*
G01X3885641Y-1193038D01*
G01X3885946Y-1192530D01*
G01X3888537Y-1188060D01*
G01X3892093Y-1182268D01*
G01X3894988Y-1177747D01*
G01X3899814Y-1170788D01*
G01X3904742Y-1163980D01*
G01X3909974Y-1157224D01*
G01X3918153Y-1147572D01*
G01X3928466Y-1136548D01*
G01X3929939Y-1135075D01*
G01X3940708Y-1124814D01*
G01X3941928Y-1123747D01*
G01X3950513Y-1116381D01*
G01X3957218Y-1111098D01*
G01X3964026Y-1106068D01*
G01X3971798Y-1100734D01*
G01X3979723Y-1095604D01*
G01X3984498Y-1092657D01*
G01X3985412Y-1092098D01*
G01X3985920Y-1091844D01*
G01X3986276Y-1091692D01*
G01X3986936Y-1091286D01*
G01X3991051Y-1088949D01*
G01X3994252Y-1087222D01*
G01X3994607Y-1087018D01*
G01X4000449Y-1083970D01*
G01X4007561Y-1080516D01*
G01X4011168Y-1078890D01*
G01X4014724Y-1077265D01*
G01X4017315Y-1076147D01*
G01X4020058Y-1075030D01*
G01X4022496Y-1074014D01*
G01X4025900Y-1072744D01*
G01X4029304Y-1071423D01*
G01X4034333Y-1069645D01*
G01X4039667Y-1067867D01*
G01X4042258Y-1067105D01*
G01X4044848Y-1066292D01*
G01X4049370Y-1064971D01*
G01X4054145Y-1063650D01*
G01X4056583Y-1063041D01*
G01X4060698Y-1062076D01*
G01X4064914Y-1061110D01*
G01X4068013Y-1060450D01*
G01X4073042Y-1059485D01*
G01X4077259Y-1058723D01*
G01X4078427Y-1058520D01*
G01X4078935Y-1058926D01*
G01X4079748Y-1059891D01*
G01X4083202Y-1064666D01*
G01X4086809Y-1069848D01*
G01X4090568Y-1075182D01*
G01X4090873Y-1075588D01*
G01X4110126D01*
G01Y-1068680D01*
G01X4110634Y-1067308D01*
G01X4111244Y-1065835D01*
G01X4111955Y-1064209D01*
G01X4113124Y-1062482D01*
G01X4114800Y-1060552D01*
G01X4116781Y-1058570D01*
G01X4118559Y-1057656D01*
G01X4120388Y-1056843D01*
G01X4122268Y-1056183D01*
G01X4124249Y-1055776D01*
G01X4126179Y-1055624D01*
G01X4128059Y-1055726D01*
G01X4129888Y-1056030D01*
G01X4131716Y-1056691D01*
G01X4133596Y-1057504D01*
G01X4135526Y-1058621D01*
G01X4137355Y-1060044D01*
G01X4138930Y-1061720D01*
G01X4140251Y-1063498D01*
G01X4141165Y-1065327D01*
G01X4141927Y-1067156D01*
G01X4142537Y-1068984D01*
G01Y-1072083D01*
G01X4142435Y-1074623D01*
G01X4142334Y-1075690D01*
G01X4142181Y-1076350D01*
G01X4141673Y-1077722D01*
G01X4140860Y-1079398D01*
G01X4139946Y-1081380D01*
G01X4138117Y-1083259D01*
G01X4136492Y-1084783D01*
G01X4135120Y-1085850D01*
G01X4133799Y-1086561D01*
G01X4132174Y-1087222D01*
G01X4130345Y-1087831D01*
G01X4128414Y-1088288D01*
G01X4126484Y-1088644D01*
G01X4124554Y-1088288D01*
G01X4121302Y-1087577D01*
G01X4119982Y-1087069D01*
G01X4118559Y-1086409D01*
G01X4117188Y-1085596D01*
G01X4115918Y-1084682D01*
G01X4114698Y-1083513D01*
G01X4113378Y-1081989D01*
G01X4112158Y-1080059D01*
G01X4111092Y-1077925D01*
G01X4110126Y-1075588D01*
G01X4090873D01*
G01X4095750Y-1082650D01*
G01X4099357Y-1087831D01*
G01X4102202Y-1091692D01*
G01X4104030Y-1093927D01*
G01X4105656Y-1095604D01*
G01X4107078Y-1096823D01*
G01X4108552Y-1097940D01*
G01X4110380Y-1099058D01*
G01X4112616Y-1100277D01*
G01X4115003Y-1101344D01*
G01X4117086Y-1102157D01*
G01X4120845Y-1103224D01*
G01X4122623Y-1103630D01*
G01X4131361D01*
G01X4133952Y-1102970D01*
G01X4136339Y-1102258D01*
G01X4138473Y-1101395D01*
G01X4140200Y-1100531D01*
G01X4141724Y-1099668D01*
G01X4143451Y-1098499D01*
G01X4145788Y-1096315D01*
G01X4147515Y-1094435D01*
G01X4148988Y-1092556D01*
G01X4149903Y-1091133D01*
G01X4150309Y-1090422D01*
G01X4151884Y-1087577D01*
G01X4156862Y-1078890D01*
G01X4161079Y-1071474D01*
G01X4162857Y-1068375D01*
G01X4165041Y-1064463D01*
G01X4167378Y-1060501D01*
G01X4168445Y-1058824D01*
G01X4169258D01*
G01X4170324Y-1058926D01*
G01X4171747Y-1059180D01*
G01X4175252Y-1059840D01*
G01X4178351Y-1060450D01*
G01X4182720Y-1061415D01*
G01X4187749Y-1062584D01*
G01X4192118Y-1063701D01*
G01X4198112Y-1065276D01*
G01X4202633Y-1066597D01*
G01X4205732Y-1067511D01*
G01X4212336Y-1069797D01*
G01X4218686Y-1072032D01*
G01X4226103Y-1074928D01*
G01X4235044Y-1078738D01*
G01X4240073Y-1081075D01*
G01X4245254Y-1083615D01*
G01X4251554Y-1086815D01*
G01X4258666Y-1090828D01*
G01X4263898Y-1093826D01*
G01X4267606Y-1096112D01*
G01X4275684Y-1101395D01*
G01X4280713Y-1104798D01*
G01X4281221Y-1105154D01*
G01X4281780Y-1105611D01*
G01X4282999Y-1106475D01*
G01X4287825Y-1109980D01*
G01X4295597Y-1116178D01*
G01X4302252Y-1121664D01*
G01X4306113Y-1125068D01*
G01X4311650Y-1130249D01*
G01X4317492Y-1135990D01*
G01X4322216Y-1140866D01*
G01X4326230Y-1145184D01*
G01X4329633Y-1149045D01*
G01X4331767Y-1151484D01*
G01X4335374Y-1155852D01*
G01X4341317Y-1163472D01*
G01X4345889Y-1169670D01*
G01X4351426Y-1177747D01*
G01X4357319Y-1186942D01*
G01X4359453Y-1190549D01*
G01X4359605Y-1190904D01*
G01X4360875Y-1193038D01*
G01X4363872Y-1198474D01*
G01X4367327Y-1205128D01*
G01X4370832Y-1212240D01*
G01X4374591Y-1220673D01*
G01X4377334Y-1227328D01*
G01X4379874Y-1233983D01*
G01X4383176Y-1243533D01*
G01X4385462Y-1250848D01*
G01X4386682Y-1255065D01*
G01X4387799Y-1259230D01*
G01X4388561Y-1262177D01*
G01X4389425Y-1265580D01*
G01X4390593Y-1270914D01*
G01X4391406Y-1274826D01*
G01X4391965Y-1277976D01*
G01X4392676Y-1281684D01*
G01X4393336Y-1285494D01*
G01X4393997Y-1290015D01*
G01X4394606Y-1294892D01*
G01X4395368Y-1303020D01*
G01X4396283Y-1313536D01*
G01X4396638Y-1318260D01*
G01X4396435Y-1330706D01*
G01X4395978Y-1347368D01*
G01X4395927Y-1347876D01*
G01X4395267Y-1355649D01*
G01X4394657Y-1361338D01*
G01X4393946Y-1366520D01*
G01X4393336Y-1371041D01*
G01X4392676Y-1374851D01*
G01X4391965Y-1378610D01*
G01X4391355Y-1381912D01*
G01X4390441Y-1386434D01*
G01X4388612Y-1394206D01*
G01X4386834Y-1401216D01*
G01X4385564Y-1405433D01*
G01X4384548Y-1408836D01*
G01X4383380Y-1412545D01*
G01X4381957Y-1416761D01*
G01X4380433Y-1421282D01*
G01X4378604Y-1425956D01*
G01X4377995Y-1427582D01*
G01X4377741Y-1428445D01*
G01X4377538Y-1428902D01*
G01X4377030Y-1429360D01*
G01X4376318Y-1429817D01*
G01X4371950Y-1430172D01*
G01X4363974Y-1430884D01*
G01X4356557Y-1431493D01*
G01X4349090Y-1432154D01*
G01X4342282Y-1432763D01*
G01X4339387Y-1433170D01*
G01X4336948Y-1433627D01*
G01X4334662Y-1434389D01*
G01X4332173Y-1435405D01*
G01X4329633Y-1436726D01*
G01X4327144Y-1438250D01*
G01X4326026Y-1439062D01*
G01X4323385Y-1441399D01*
G01X4322216Y-1442568D01*
G01X4319981Y-1445158D01*
G01X4319016Y-1446479D01*
G01X4318305Y-1447546D01*
G01X4317086Y-1449832D01*
G01X4316070Y-1452067D01*
G01X4314647Y-1456131D01*
G01X4314190Y-1457909D01*
G01Y-1462075D01*
G01X4314241Y-1465732D01*
G01X4331767D01*
G01X4331868Y-1463345D01*
G01X4332122Y-1461668D01*
G01X4333291Y-1458417D01*
G01X4334205Y-1456436D01*
G01X4335323Y-1454607D01*
G01X4336644Y-1453032D01*
G01X4337914Y-1451712D01*
G01X4339133Y-1450645D01*
G01X4340250Y-1449832D01*
G01X4341724Y-1449019D01*
G01X4343756Y-1448105D01*
G01X4345940Y-1447292D01*
G01X4347769Y-1446784D01*
G01X4349293Y-1446581D01*
G01X4350563Y-1446479D01*
G01X4352087Y-1446581D01*
G01X4354119Y-1446886D01*
G01X4356100Y-1447292D01*
G01X4357522Y-1447698D01*
G01X4360215Y-1448918D01*
G01X4361993Y-1449781D01*
G01X4364482Y-1452220D01*
G01X4366412Y-1454302D01*
G01X4367124Y-1455166D01*
G01X4367530Y-1455826D01*
G01X4368749Y-1458214D01*
G01X4369359Y-1459738D01*
G01X4369867Y-1461770D01*
G01X4370375Y-1464056D01*
G01X4370172Y-1467155D01*
G01X4369918Y-1469746D01*
G01X4369714Y-1470863D01*
G01X4369460Y-1471676D01*
G01X4368444Y-1474267D01*
G01X4367835Y-1475384D01*
G01X4367174Y-1476502D01*
G01X4366209Y-1477721D01*
G01X4365041Y-1479093D01*
G01X4363669Y-1480414D01*
G01X4362450Y-1481480D01*
G01X4360977Y-1482446D01*
G01X4359148Y-1483411D01*
G01X4357014Y-1484224D01*
G01X4354830Y-1484833D01*
G01X4352747Y-1485138D01*
G01X4350715Y-1485290D01*
G01X4348836Y-1485138D01*
G01X4347007Y-1484833D01*
G01X4344568Y-1484173D01*
G01X4343095Y-1483563D01*
G01X4341927Y-1482954D01*
G01X4340352Y-1481938D01*
G01X4338625Y-1480668D01*
G01X4337152Y-1479347D01*
G01X4336034Y-1478026D01*
G01X4335018Y-1476705D01*
G01X4334154Y-1475334D01*
G01X4333392Y-1473810D01*
G01X4332732Y-1472133D01*
G01X4332224Y-1470406D01*
G01X4331919Y-1468272D01*
G01X4331767Y-1465732D01*
G01X4314241D01*
G01Y-1466190D01*
G01X4315054Y-1468882D01*
G01X4315968Y-1471422D01*
G01X4317035Y-1473810D01*
G01X4321962Y-1482395D01*
G01X4326433Y-1489913D01*
G01X4326992Y-1490828D01*
G01X4327195Y-1491285D01*
G01X4327500Y-1491894D01*
G01X4328211Y-1493164D01*
G01X4329786Y-1495806D01*
G01X4332021Y-1499667D01*
G01X4333697Y-1502715D01*
G01X4333291Y-1503324D01*
G01X4332326Y-1504544D01*
G01X4329633Y-1507642D01*
G01X4324452Y-1513332D01*
G01X4316374Y-1521765D01*
G01X4309567Y-1528420D01*
G01X4305351Y-1532280D01*
G01X4301642Y-1535532D01*
G01X4299356Y-1537513D01*
G01X4294327Y-1541577D01*
G01X4286402Y-1547724D01*
G01X4281932Y-1550924D01*
G01X4280560Y-1551838D01*
G01X4279849Y-1551229D01*
G01X4278884Y-1550111D01*
G01X4277462Y-1548333D01*
G01X4274515Y-1544625D01*
G01X4271467Y-1540713D01*
G01X4268876Y-1537564D01*
G01X4268216Y-1536802D01*
G01X4266997Y-1535379D01*
G01X4265981Y-1533957D01*
G01X4264914Y-1532534D01*
G01X4259326Y-1525829D01*
G01X4255110Y-1520444D01*
G01X4252468Y-1516837D01*
G01X4248252Y-1511351D01*
G01X4242816Y-1504594D01*
G01X4238752Y-1499413D01*
G01X4235704Y-1495196D01*
G01X4232859Y-1491590D01*
G01X4231996Y-1490523D01*
G01X4231640Y-1489862D01*
G01Y-1489507D01*
G01X4267657Y-1489405D01*
G01X4303725Y-1489354D01*
G01X4303928Y-1488135D01*
G01X4302658Y-1486814D01*
G01X4300017Y-1483665D01*
G01X4296410Y-1479601D01*
G01X4294327Y-1477264D01*
G01X4292346Y-1474775D01*
G01X4287622Y-1468425D01*
G01X4282999Y-1462430D01*
G01X4279849Y-1458214D01*
G01X4277106Y-1454658D01*
G01X4276039Y-1453388D01*
G01X4273448Y-1450289D01*
G01X4272483Y-1449019D01*
G01X4270248Y-1445768D01*
G01X4267505Y-1442110D01*
G01X4266489Y-1440891D01*
G01X4262679Y-1436522D01*
G01X4260139Y-1433627D01*
G01X4259326Y-1432662D01*
G01X4258869Y-1432154D01*
G01X4256532Y-1429410D01*
G01X4253027Y-1424686D01*
G01X4250030Y-1420470D01*
G01X4247794Y-1417574D01*
G01X4243832Y-1412545D01*
G01X4238447Y-1405687D01*
G01X4236009Y-1402486D01*
G01X4235501Y-1401826D01*
G01X4232148Y-1397152D01*
G01X4228490Y-1392276D01*
G01X4227424Y-1390904D01*
G01X4226306Y-1389685D01*
G01X4225138Y-1388567D01*
G01X4216451Y-1388364D01*
G01X4169105Y-1388059D01*
G01X4130091Y-1388212D01*
G01X4129837D01*
G01X4129430Y-1388567D01*
G01X4129278Y-1388974D01*
G01X4129786Y-1389939D01*
G01X4130954Y-1391514D01*
G01X4137254Y-1399184D01*
G01X4141826Y-1405077D01*
G01X4142181Y-1405585D01*
G01X4142384Y-1405890D01*
G01X4143350Y-1407363D01*
G01X4144924Y-1409395D01*
G01X4149649Y-1415136D01*
G01X4152341Y-1418184D01*
G01X4152849Y-1418692D01*
G01X4152900Y-1418996D01*
G01X4153205Y-1419708D01*
G01X4154018Y-1420978D01*
G01X4157726Y-1425600D01*
G01X4159504Y-1427734D01*
G01X4163162Y-1432154D01*
G01X4163822Y-1433017D01*
G01X4163924Y-1433220D01*
G01X4164533Y-1434236D01*
G01X4165956Y-1436167D01*
G01X4170528Y-1441856D01*
G01X4172560Y-1444396D01*
G01X4173322Y-1445412D01*
G01X4173779Y-1446073D01*
G01X4174490Y-1447241D01*
G01X4175404Y-1448359D01*
G01X4176573Y-1449832D01*
G01X4177894Y-1451610D01*
G01X4179722Y-1453998D01*
G01X4182313Y-1456842D01*
G01X4184396Y-1459230D01*
G01X4185056Y-1460043D01*
G01X4185310Y-1460449D01*
G01X4185158Y-1460906D01*
G01X4184853Y-1461262D01*
G01X4184396Y-1461668D01*
G01X4146601Y-1461618D01*
G01X4108704Y-1461770D01*
G01X4108552Y-1461821D01*
G01X4108501D01*
G01X4108298Y-1462075D01*
G01X4108196Y-1462481D01*
G01Y-1462938D01*
G01X4110228Y-1463954D01*
G01X4113428Y-1465631D01*
G01X4117492Y-1468018D01*
G01X4119677Y-1469238D01*
G01X4120744Y-1469746D01*
G01X4121048Y-1469796D01*
G01X4121201Y-1470000D01*
G01X4121556Y-1470355D01*
G01X4122166Y-1470762D01*
G01X4125265Y-1472489D01*
G01X4126890Y-1473403D01*
G01X4127652Y-1473911D01*
G01X4127957Y-1474165D01*
G01X4128618Y-1474521D01*
G01X4130700Y-1475740D01*
G01X4132478Y-1476756D01*
G01X4134714Y-1477975D01*
G01X4137203Y-1479448D01*
G01X4140657Y-1481582D01*
G01X4144010Y-1483512D01*
G01X4146601Y-1484986D01*
G01X4150970Y-1487526D01*
G01X4154373Y-1489507D01*
G01X4163111Y-1494587D01*
G01X4178351Y-1503426D01*
G01X4188155Y-1509116D01*
G01X4190086Y-1510182D01*
G01X4191457Y-1510741D01*
G01X4192168Y-1510995D01*
G01X4192626Y-1511249D01*
G01X4193032Y-1511605D01*
G01X4193845Y-1512011D01*
G01X4195826Y-1513129D01*
G01X4198112Y-1514450D01*
G01X4200195Y-1515669D01*
G01X4202328Y-1516939D01*
G01X4204411Y-1518107D01*
G01X4205021Y-1518463D01*
G01X4205376Y-1518717D01*
G01X4206138Y-1519225D01*
G01X4207764Y-1520139D01*
G01X4211168Y-1522120D01*
G01X4213047Y-1523187D01*
G01X4213962Y-1523695D01*
G01X4215181Y-1524406D01*
G01X4217365Y-1525727D01*
G01X4219397Y-1526845D01*
G01X4222750Y-1528877D01*
G01X4226103Y-1530756D01*
G01X4229049Y-1532382D01*
G01X4230421Y-1533195D01*
G01X4231335Y-1533754D01*
G01X4233570Y-1535176D01*
G01X4235856Y-1536497D01*
G01X4239362Y-1538529D01*
G01X4243375Y-1540815D01*
G01X4245407Y-1542034D01*
G01X4246321Y-1542542D01*
G01X4247185Y-1542999D01*
G01X4247896Y-1543355D01*
G01X4248506Y-1543761D01*
G01X4249268Y-1544320D01*
G01X4250436Y-1544980D01*
G01X4252722Y-1546250D01*
G01X4258869Y-1549857D01*
G01X4268013Y-1555140D01*
G01X4271823Y-1557325D01*
G01X4271721Y-1557680D01*
G01X4270451Y-1558696D01*
G01X4267556Y-1560525D01*
G01X4263644Y-1563014D01*
G01X4263136Y-1563370D01*
G01X4262831Y-1563624D01*
G01X4262577Y-1563726D01*
G01X4261866Y-1564030D01*
G01X4260494Y-1564792D01*
G01X4257091Y-1566824D01*
G01X4252874Y-1569110D01*
G01X4243781Y-1573733D01*
G01X4234891Y-1578000D01*
G01X4231488Y-1579474D01*
G01X4226916Y-1581404D01*
G01X4221582Y-1583538D01*
G01X4216248Y-1585468D01*
G01X4208475Y-1588160D01*
G01X4201363Y-1590446D01*
G01X4196182Y-1591920D01*
G01X4189527Y-1593596D01*
G01X4183177Y-1595171D01*
G01X4180281Y-1595780D01*
G01X4177538Y-1596390D01*
G01X4172204Y-1597406D01*
G01X4166210Y-1598371D01*
G01X4161790Y-1599032D01*
G01X4157116Y-1599641D01*
G01X4151427Y-1600302D01*
G01X4144010Y-1600962D01*
G01X4130853Y-1601622D01*
G01X4122268Y-1601978D01*
G01X4112260Y-1601470D01*
G01X4098950Y-1600657D01*
G01X4092499Y-1600048D01*
G01X4086809Y-1599387D01*
G01X4083558Y-1598930D01*
G01X4080307Y-1598422D01*
G01X4076090Y-1597711D01*
G01X4071722Y-1596898D01*
G01X4064914Y-1595476D01*
G01X4058463Y-1594053D01*
G01X4055059Y-1593240D01*
G01X4051503Y-1592224D01*
G01X4047744Y-1591208D01*
G01X4045661Y-1590599D01*
G01X4039514Y-1588668D01*
G01X4031742Y-1586078D01*
G01X4024935Y-1583487D01*
G01X4019550Y-1581353D01*
G01X4016807Y-1580236D01*
G01X4012946Y-1578559D01*
G01X4008577Y-1576578D01*
G01X3999484Y-1572108D01*
G01X3989121Y-1566621D01*
G01X3982009Y-1562456D01*
G01X3972103Y-1556156D01*
G01X3960266Y-1547825D01*
G01X3952799Y-1542085D01*
G01X3946804Y-1537157D01*
G01X3941166Y-1532280D01*
G01X3937711Y-1529182D01*
G01X3930244Y-1521917D01*
G01X3921354Y-1512672D01*
G01X3916578Y-1507338D01*
G01X3915512Y-1505966D01*
G01X3915105Y-1505204D01*
G01X3915512Y-1503985D01*
G01X3916578Y-1501597D01*
G01X3920084Y-1494028D01*
G01X3923589Y-1486611D01*
G01X3925875Y-1481633D01*
G01X3927856Y-1477416D01*
G01X3930040Y-1472641D01*
G01X3931869Y-1468272D01*
G01X3932428Y-1466393D01*
G01X3932885Y-1464615D01*
G01X3933139Y-1462126D01*
G01X3933241Y-1458620D01*
G01Y-1454353D01*
G01X3932733Y-1452016D01*
G01X3932174Y-1449680D01*
G01X3931412Y-1447343D01*
G01X3930548Y-1445260D01*
G01X3929634Y-1443431D01*
G01X3927399Y-1439926D01*
G01X3926688Y-1439012D01*
G01X3924706Y-1436776D01*
G01X3923589Y-1435710D01*
G01X3921100Y-1433373D01*
G01X3917848Y-1431849D01*
G01X3915054Y-1430579D01*
G01X3913835Y-1430122D01*
G01X3912972Y-1429817D01*
G01X3911346Y-1429410D01*
G01X3890416D01*
G01X3869690Y-1429207D01*
G01X3869334Y-1429156D01*
G01X3869233D01*
G01X3868674Y-1428039D01*
G01X3867709Y-1425753D01*
G01X3864000Y-1415288D01*
G01X3861308Y-1407008D01*
G01X3860495Y-1404214D01*
G01X3859479Y-1400454D01*
G01X3858311Y-1396187D01*
G01X3857396Y-1392631D01*
G01X3856736Y-1389685D01*
G01X3856076Y-1386637D01*
G01X3855466Y-1383792D01*
G01X3854806Y-1380541D01*
G01X3854145Y-1377036D01*
G01X3853536Y-1373175D01*
G01X3852875Y-1368958D01*
G01X3852215Y-1364437D01*
G01X3851554Y-1358900D01*
G01X3850945Y-1352906D01*
G01X3850284Y-1342034D01*
G01X3849878Y-1334110D01*
G01X3811372D01*
G01X3811473Y-1336294D01*
G01X3811067Y-1338275D01*
G01X3810508Y-1340307D01*
G01X3809746Y-1342441D01*
G01X3808832Y-1344422D01*
G01X3807816Y-1346200D01*
G01X3806698Y-1347673D01*
G01X3805428Y-1349146D01*
G01X3803955Y-1350467D01*
G01X3802329Y-1351737D01*
G01X3800653Y-1352804D01*
G01X3799078Y-1353617D01*
G01X3797351Y-1354328D01*
G01X3795217Y-1354988D01*
G01X3791001Y-1356411D01*
G01X3789172Y-1357224D01*
G01X3787242Y-1358240D01*
G01X3785311Y-1359611D01*
G01X3783330Y-1361338D01*
G01X3782466Y-1362304D01*
G01X3780790Y-1364437D01*
G01X3780180Y-1365352D01*
G01X3779164Y-1367333D01*
G01X3778352Y-1369365D01*
G01X3777793Y-1371346D01*
G01X3777386Y-1373327D01*
G01X3777132Y-1375156D01*
G01X3777082Y-1376883D01*
G01X3777183Y-1378763D01*
G01X3777539Y-1380998D01*
G01X3778098Y-1383386D01*
G01X3778860Y-1385621D01*
G01X3779825Y-1387704D01*
G01X3780942Y-1389634D01*
G01X3782111Y-1391260D01*
G01X3783228Y-1392631D01*
G01X3784397Y-1393749D01*
G01X3785616Y-1394765D01*
G01X3787089Y-1395730D01*
G01X3788715Y-1396695D01*
G01X3790340Y-1397508D01*
G01X3791814Y-1398067D01*
G01X3794404Y-1398778D01*
G01X3796284Y-1398981D01*
G01X3799078Y-1399083D01*
G01X3802228Y-1399235D01*
G01X3804971Y-1399591D01*
G01X3807308Y-1400099D01*
G01X3809340Y-1400708D01*
G01X3811219Y-1401521D01*
G01X3813200Y-1402690D01*
G01X3815080Y-1404061D01*
G01X3816706Y-1405534D01*
G01X3818026Y-1406906D01*
G01X3819042Y-1408176D01*
G01X3819906Y-1409497D01*
G01X3820820Y-1411122D01*
G01X3821684Y-1413154D01*
G01X3822395Y-1415339D01*
G01X3823056Y-1417726D01*
G01Y-1425296D01*
G01X3822395Y-1427480D01*
G01X3821633Y-1429563D01*
G01X3820770Y-1431442D01*
G01X3819296Y-1433881D01*
G01X3818484Y-1434897D01*
G01X3817163Y-1436319D01*
G01X3815385Y-1437894D01*
G01X3813607Y-1439316D01*
G01X3812235Y-1440180D01*
G01X3811575Y-1440586D01*
G01X3810711Y-1441044D01*
G01X3808984Y-1442161D01*
G01X3807968Y-1442923D01*
G01X3806901Y-1443838D01*
G01X3805936Y-1444701D01*
G01X3805174Y-1445514D01*
G01X3802786Y-1448664D01*
G01X3801974Y-1449934D01*
G01X3801466Y-1450950D01*
G01X3800500Y-1453388D01*
G01X3799942Y-1455014D01*
G01X3799789Y-1459027D01*
G01X3799738Y-1460906D01*
G01X3878123D01*
G01Y-1457757D01*
G01X3878631Y-1455928D01*
G01X3879291Y-1453998D01*
G01X3880155Y-1451966D01*
G01X3881222Y-1449832D01*
G01X3883660Y-1447343D01*
G01X3886149Y-1444854D01*
G01X3888130Y-1443838D01*
G01X3889959Y-1442974D01*
G01X3891483Y-1442364D01*
G01X3893718Y-1441755D01*
G01X3895344Y-1441653D01*
G01X3898240Y-1441704D01*
G01X3901948Y-1441806D01*
G01X3902913Y-1442212D01*
G01X3906266Y-1443736D01*
G01X3908603Y-1444904D01*
G01X3913327Y-1449629D01*
G01X3914394Y-1451762D01*
G01X3915258Y-1453591D01*
G01X3915766Y-1455064D01*
G01X3916426Y-1457909D01*
G01X3916731Y-1459535D01*
G01X3916528Y-1462126D01*
G01X3916274Y-1464412D01*
G01X3915918Y-1466190D01*
G01X3915410Y-1467663D01*
G01X3914800Y-1469136D01*
G01X3913988Y-1470660D01*
G01X3912921Y-1472235D01*
G01X3911651Y-1473759D01*
G01X3910228Y-1475181D01*
G01X3908755Y-1476553D01*
G01X3905860Y-1477975D01*
G01X3903523Y-1479042D01*
G01X3902558Y-1479448D01*
G01X3901948Y-1479652D01*
G01X3900424Y-1479855D01*
G01X3898087Y-1480007D01*
G01X3895141Y-1480160D01*
G01X3893363Y-1479753D01*
G01X3891585Y-1479245D01*
G01X3889807Y-1478585D01*
G01X3888080Y-1477721D01*
G01X3886403Y-1476705D01*
G01X3884879Y-1475537D01*
G01X3883457Y-1474216D01*
G01X3882238Y-1472794D01*
G01X3881120Y-1471320D01*
G01X3880409Y-1470152D01*
G01X3880104Y-1469593D01*
G01X3879901Y-1469085D01*
G01X3879494Y-1468018D01*
G01X3878936Y-1466698D01*
G01X3878529Y-1465326D01*
G01X3878275Y-1463497D01*
G01X3878123Y-1460906D01*
G01X3799738D01*
G01X3799688Y-1463091D01*
G01X3800399Y-1465682D01*
G01X3801161Y-1468069D01*
G01X3802075Y-1470203D01*
G01X3802990Y-1471981D01*
G01X3803955Y-1473505D01*
G01X3805276Y-1475080D01*
G01X3807206Y-1476959D01*
G01X3809238Y-1478686D01*
G01X3810152Y-1479398D01*
G01X3810864Y-1479855D01*
G01X3812235Y-1480566D01*
G01X3813556Y-1481176D01*
G01X3815232Y-1481684D01*
G01X3817315Y-1482192D01*
G01X3819550Y-1482547D01*
G01X3821582Y-1482700D01*
G01X3824021Y-1482446D01*
G01X3827120Y-1481887D01*
G01X3831895Y-1480922D01*
G01X3833114Y-1480769D01*
G01X3835400Y-1480566D01*
G01X3837483Y-1480617D01*
G01X3839312Y-1480922D01*
G01X3841039Y-1481226D01*
G01X3842664Y-1481785D01*
G01X3844290Y-1482446D01*
G01X3846678Y-1483716D01*
G01X3848303Y-1484782D01*
G01X3850945Y-1487272D01*
G01X3852570Y-1489202D01*
G01X3853993Y-1491285D01*
G01X3855110Y-1493418D01*
G01X3855974Y-1495450D01*
G01X3856584Y-1497635D01*
G01X3857092Y-1499972D01*
G01X3857498Y-1502512D01*
G01X3856685Y-1508100D01*
G01X3855771Y-1510284D01*
G01X3854806Y-1512367D01*
G01X3853688Y-1514246D01*
G01X3852012Y-1516431D01*
G01X3849472Y-1519326D01*
G01X3846373Y-1522730D01*
G01X3845103Y-1525321D01*
G01X3844087Y-1527556D01*
G01X3843426Y-1529385D01*
G01X3843020Y-1530807D01*
G01Y-1538630D01*
G01X3843782Y-1541018D01*
G01X3844544Y-1543101D01*
G01X3845204Y-1544625D01*
G01X3846525Y-1547012D01*
G01X3847846Y-1548689D01*
G01X3850132Y-1551076D01*
G01X3853078Y-1553870D01*
G01X3855161Y-1554886D01*
G01X3857142Y-1555750D01*
G01X3859022Y-1556461D01*
G01X3860800Y-1557071D01*
G01X3869233D01*
G01X3871163Y-1556461D01*
G01X3874567Y-1555140D01*
G01X3877513Y-1553566D01*
G01X3879190Y-1552702D01*
G01X3881120Y-1551838D01*
G01X3883203Y-1551127D01*
G01X3885286Y-1550568D01*
G01X3887267Y-1550264D01*
G01X3889146Y-1550111D01*
G01X3891026Y-1550264D01*
G01X3893109Y-1550568D01*
G01X3895192Y-1551127D01*
G01X3897274Y-1551940D01*
G01X3899306Y-1552905D01*
G01X3901135Y-1554023D01*
G01X3902913Y-1555394D01*
G01X3904640Y-1556969D01*
G01X3906063Y-1558544D01*
G01X3907130Y-1559865D01*
G01X3908552Y-1562151D01*
G01X3909162Y-1563472D01*
G01X3909822Y-1565199D01*
G01X3910432Y-1567383D01*
G01X3910940Y-1569923D01*
G01X3911295Y-1572768D01*
G01X3910889Y-1574952D01*
G01X3910432Y-1577086D01*
G01X3909822Y-1579118D01*
G01X3908908Y-1581302D01*
G01X3907688Y-1583792D01*
G01X3905860Y-1587348D01*
G01X3905504Y-1588211D01*
G01X3904894Y-1589888D01*
G01X3904437Y-1591767D01*
G01X3904031Y-1593698D01*
G01X3904183Y-1596796D01*
G01X3904336Y-1599336D01*
G01X3904488Y-1600403D01*
G01X3904640Y-1601165D01*
G01X3905047Y-1602486D01*
G01X3905555Y-1603908D01*
G01X3906266Y-1605483D01*
G01X3907180Y-1607160D01*
G01X3908501Y-1609039D01*
G01X3910228Y-1610970D01*
G01X3912159Y-1612798D01*
G01X3914140Y-1614322D01*
G01X3916121Y-1615491D01*
G01X3918102Y-1616456D01*
G01X3920033Y-1617167D01*
G01X3921862Y-1617726D01*
G01X3924046Y-1618031D01*
G01X3926738Y-1618132D01*
G01X3929177Y-1618082D01*
G01X3930752Y-1617878D01*
G01X3933241Y-1617167D01*
G01X3934765Y-1616558D01*
G01X3936441Y-1615796D01*
G01X3938118Y-1614830D01*
G01X3939540Y-1613865D01*
G01X3943452Y-1610411D01*
G01X3945839Y-1608277D01*
G01X3947058Y-1607363D01*
G01X3948074Y-1606702D01*
G01X3950005Y-1605636D01*
G01X3951935Y-1604823D01*
G01X3954018Y-1604264D01*
G01X3956406Y-1603908D01*
G01X3958996Y-1603654D01*
G01X3961435Y-1603908D01*
G01X3963518Y-1604213D01*
G01X3965143Y-1604569D01*
G01X3966820Y-1605229D01*
G01X3968953Y-1606245D01*
G01X3971188Y-1607566D01*
G01X3972255Y-1608226D01*
G01X3973017Y-1608836D01*
G01X3974592Y-1610309D01*
G01X3976268Y-1612087D01*
G01X3977691Y-1614018D01*
G01X3978758Y-1615796D01*
G01X3979469Y-1617370D01*
G01X3980028Y-1618844D01*
G01X3980434Y-1620723D01*
G01X3980840Y-1623212D01*
G01X3981247Y-1626108D01*
G01X3980739Y-1628699D01*
G01X3979875Y-1632763D01*
G01X3979215Y-1636471D01*
G01X3979062Y-1638757D01*
G01Y-1640992D01*
G01X3979418Y-1643228D01*
G01X3979926Y-1645412D01*
G01X3980637Y-1647342D01*
G01X3981399Y-1649120D01*
G01X3982314Y-1650695D01*
G01X3983380Y-1652168D01*
G01X3985514Y-1654658D01*
G01X3986733Y-1655724D01*
G01X3988308Y-1656842D01*
G01X3990035Y-1657960D01*
G01X3991813Y-1658874D01*
G01X3993744Y-1659585D01*
G01X3995928Y-1660296D01*
G01X3998316Y-1660957D01*
G01X4005123D01*
G01X4006952Y-1660449D01*
G01X4008780Y-1659890D01*
G01X4010508Y-1659179D01*
G01X4012184Y-1658366D01*
G01X4013657Y-1657452D01*
G01X4015130Y-1656283D01*
G01X4016705Y-1654861D01*
G01X4018178Y-1653184D01*
G01X4019448Y-1651508D01*
G01X4022496Y-1646885D01*
G01X4024478Y-1643939D01*
G01X4026408Y-1642364D01*
G01X4028135Y-1641043D01*
G01X4029659Y-1640027D01*
G01X4031285Y-1639214D01*
G01X4033368Y-1638351D01*
G01X4035755Y-1637436D01*
G01X4044544D01*
G01X4046779Y-1638198D01*
G01X4048862Y-1638960D01*
G01X4050690Y-1639773D01*
G01X4052316Y-1640738D01*
G01X4053942Y-1641856D01*
G01X4055415Y-1643075D01*
G01X4056685Y-1644294D01*
G01X4057802Y-1645615D01*
G01X4058869Y-1646987D01*
G01X4059682Y-1648409D01*
G01X4060393Y-1649781D01*
G01X4061206Y-1651711D01*
G01X4061816Y-1653692D01*
G01X4062171Y-1656182D01*
G01X4062476Y-1660195D01*
G01X4062781Y-1665326D01*
G01X4063289Y-1667256D01*
G01X4064000Y-1669339D01*
G01X4065016Y-1671625D01*
G01X4066184Y-1674063D01*
G01X4068674Y-1676502D01*
G01X4071112Y-1678940D01*
G01X4073246Y-1680108D01*
G01X4075328Y-1681124D01*
G01X4077310Y-1681836D01*
G01X4079951Y-1682699D01*
G01X4081678Y-1682902D01*
G01X4084777Y-1683004D01*
G01X4088841D01*
G01X4090010Y-1682598D01*
G01X4092956Y-1681582D01*
G01X4094734Y-1680820D01*
G01X4096512Y-1679956D01*
G01X4098392Y-1678584D01*
G01X4100576Y-1676654D01*
G01X4102862Y-1674368D01*
G01X4104234Y-1671625D01*
G01X4105351Y-1668932D01*
G01X4106215Y-1666392D01*
G01X4107231Y-1662989D01*
G01X4108602Y-1660042D01*
G01X4109669Y-1658163D01*
G01X4110888Y-1656486D01*
G01X4112311Y-1654962D01*
G01X4113886Y-1653438D01*
G01X4115765Y-1652118D01*
G01X4117746Y-1650949D01*
G01X4119880Y-1650035D01*
G01X4122166Y-1649273D01*
G01X4124554Y-1648612D01*
G01X4127805Y-1648663D01*
G01X4131056D01*
G01X4132834Y-1649070D01*
G01X4135222Y-1649781D01*
G01X4137812Y-1650949D01*
G01X4139641Y-1651965D01*
G01X4141318Y-1653032D01*
G01X4142892Y-1654454D01*
G01X4144620Y-1656283D01*
G01X4145382Y-1657299D01*
G01X4146855Y-1659484D01*
G01X4147312Y-1660449D01*
G01X4148125Y-1662227D01*
G01X4148684Y-1663852D01*
G01X4149750Y-1667256D01*
G01X4150512Y-1669288D01*
G01X4151528Y-1671523D01*
G01X4152646Y-1673809D01*
G01X4154424Y-1675790D01*
G01X4156151Y-1677518D01*
G01X4157726Y-1678838D01*
G01X4159301Y-1679804D01*
G01X4160977Y-1680718D01*
G01X4162755Y-1681480D01*
G01X4164584Y-1681988D01*
G01X4167276Y-1682699D01*
G01X4168851Y-1682902D01*
G01X4171239Y-1683004D01*
G01X4174236D01*
G01X4174439Y-1682648D01*
G01X4174846Y-1682445D01*
G01X4175608Y-1682344D01*
G01X4176878Y-1682090D01*
G01X4178656Y-1681531D01*
G01X4180586Y-1680718D01*
G01X4182262Y-1679905D01*
G01X4183685Y-1679042D01*
G01X4184853Y-1678280D01*
G01X4185971Y-1677314D01*
G01X4187241Y-1676095D01*
G01X4188511Y-1674724D01*
G01X4189578Y-1673301D01*
G01X4190492Y-1671726D01*
G01X4191356Y-1669898D01*
G01X4192067Y-1667967D01*
G01X4192626Y-1666138D01*
G01X4192930Y-1663903D01*
G01X4193083Y-1661109D01*
G01X4193235Y-1658061D01*
G01X4193540Y-1655267D01*
G01X4194353Y-1651660D01*
G01X4194708Y-1650594D01*
G01X4195216Y-1649374D01*
G01X4195978Y-1648003D01*
G01X4196994Y-1646377D01*
G01X4198315Y-1644650D01*
G01X4199788Y-1643075D01*
G01X4201414Y-1641653D01*
G01X4203141Y-1640434D01*
G01X4204716Y-1639519D01*
G01X4206037Y-1638808D01*
G01X4209288Y-1637640D01*
G01X4211371Y-1636928D01*
G01X4214927D01*
G01X4217975Y-1637030D01*
G01X4219346Y-1637132D01*
G01X4220312Y-1637284D01*
G01X4222293Y-1637944D01*
G01X4224680Y-1638910D01*
G01X4227271Y-1640180D01*
G01X4229202Y-1641907D01*
G01X4230116Y-1642720D01*
G01X4231996Y-1644802D01*
G01X4232808Y-1645818D01*
G01X4233977Y-1647495D01*
G01X4234536Y-1648409D01*
G01X4234993Y-1649222D01*
G01X4235856Y-1650594D01*
G01X4237431Y-1652524D01*
G01X4239463Y-1654658D01*
G01X4240530Y-1655623D01*
G01X4241597Y-1656537D01*
G01X4242664Y-1657299D01*
G01X4243476Y-1657807D01*
G01X4246220Y-1659077D01*
G01X4247540Y-1659534D01*
G01X4249064Y-1659941D01*
G01X4251198Y-1660195D01*
G01X4253789Y-1660296D01*
G01X4256481Y-1660195D01*
G01X4257751Y-1660093D01*
G01X4258716Y-1659941D01*
G01X4260647Y-1659585D01*
G01X4264203Y-1657858D01*
G01X4267810Y-1656131D01*
G01X4273296Y-1650340D01*
G01X4274312Y-1648206D01*
G01X4275125Y-1646326D01*
G01X4275684Y-1644752D01*
G01X4276344Y-1642212D01*
G01X4276598Y-1640688D01*
G01X4276649Y-1638859D01*
G01X4276547Y-1636725D01*
G01X4276192Y-1634541D01*
G01X4275226Y-1630324D01*
G01X4274668Y-1628394D01*
G01X4274617Y-1624635D01*
G01Y-1620926D01*
G01X4275328Y-1618539D01*
G01X4276090Y-1616405D01*
G01X4276903Y-1614678D01*
G01X4277868Y-1613103D01*
G01X4278986Y-1611528D01*
G01X4280459Y-1609903D01*
G01X4282237Y-1608226D01*
G01X4284269Y-1606702D01*
G01X4285386Y-1605991D01*
G01X4286352Y-1605382D01*
G01X4288536Y-1604416D01*
G01X4290822Y-1603654D01*
G01X4293108Y-1603096D01*
G01X4295292Y-1602740D01*
G01X4297426Y-1602537D01*
G01X4299458Y-1602943D01*
G01X4301541Y-1603451D01*
G01X4303674Y-1604112D01*
G01X4305757Y-1604975D01*
G01X4307586Y-1605940D01*
G01X4309720Y-1607566D01*
G01X4312615Y-1610004D01*
G01X4315663Y-1612494D01*
G01X4317035Y-1613560D01*
G01X4318152Y-1614272D01*
G01X4320286Y-1615389D01*
G01X4322521Y-1616253D01*
G01X4324807Y-1617015D01*
G01X4332580D01*
G01X4334459Y-1616405D01*
G01X4338066Y-1615084D01*
G01X4339996Y-1613967D01*
G01X4342384Y-1612341D01*
G01X4343502Y-1611427D01*
G01X4345686Y-1609395D01*
G01X4346499Y-1608531D01*
G01X4347769Y-1606652D01*
G01X4348886Y-1604721D01*
G01X4350410Y-1601165D01*
G01X4350969Y-1599540D01*
G01X4351274Y-1592428D01*
G01X4350868Y-1590650D01*
G01X4350563Y-1589176D01*
G01X4350258Y-1588211D01*
G01X4347972Y-1583487D01*
G01X4345788Y-1578966D01*
G01X4345432Y-1578153D01*
G01X4344975Y-1576629D01*
G01X4344518Y-1574749D01*
G01X4344213Y-1572717D01*
G01X4344060Y-1570787D01*
G01X4344162Y-1569009D01*
G01X4344416Y-1567383D01*
G01X4345432Y-1563878D01*
G01X4346296Y-1561846D01*
G01X4347413Y-1559763D01*
G01X4348074Y-1558747D01*
G01X4349750Y-1556614D01*
G01X4350563Y-1555750D01*
G01X4352341Y-1554124D01*
G01X4354119Y-1552702D01*
G01X4355694Y-1551737D01*
G01X4357014Y-1551026D01*
G01X4359097Y-1550111D01*
G01X4360418Y-1549756D01*
G01X4362298Y-1549298D01*
G01X4364380Y-1548943D01*
G01X4366108Y-1548790D01*
G01X4367733Y-1548943D01*
G01X4369664Y-1549248D01*
G01X4373321Y-1550264D01*
G01X4374845Y-1550873D01*
G01X4376318Y-1551584D01*
G01X4379214Y-1553159D01*
G01X4380992Y-1554023D01*
G01X4383176Y-1554836D01*
G01X4385716Y-1555750D01*
G01X4389120Y-1555852D01*
G01X4392574Y-1556004D01*
G01X4395114Y-1555293D01*
G01X4397502Y-1554531D01*
G01X4399636Y-1553616D01*
G01X4401363Y-1552600D01*
G01X4402887Y-1551635D01*
G01X4404258Y-1550416D01*
G01X4405732Y-1548994D01*
G01X4407154Y-1547368D01*
G01X4408373Y-1545742D01*
G01X4409288Y-1544168D01*
G01X4410100Y-1542593D01*
G01X4410812Y-1540815D01*
G01X4411472Y-1538732D01*
G01X4412132Y-1536344D01*
G01Y-1530706D01*
G01X4411574Y-1528521D01*
G01X4410913Y-1526286D01*
G01X4409948Y-1524051D01*
G01X4408881Y-1522070D01*
G01X4407814Y-1520495D01*
G01X4404360Y-1516583D01*
G01X4402226Y-1514145D01*
G01X4401312Y-1512926D01*
G01X4400652Y-1511960D01*
G01X4399585Y-1509979D01*
G01X4398772Y-1508100D01*
G01X4398264Y-1506068D01*
G01X4397807Y-1503680D01*
G01X4397654Y-1501242D01*
G01X4397705Y-1499057D01*
G01X4398010Y-1497076D01*
G01X4398518Y-1495044D01*
G01X4399178Y-1493164D01*
G01X4399890Y-1491488D01*
G01X4400804Y-1489812D01*
G01X4402176Y-1487780D01*
G01X4402938Y-1486814D01*
G01X4404868Y-1484732D01*
G01X4405782Y-1483919D01*
G01X4407662Y-1482496D01*
G01X4409237Y-1481531D01*
G01X4411828Y-1480363D01*
G01X4413504Y-1479855D01*
G01X4415841Y-1479296D01*
G01X4418736Y-1478737D01*
G01X4420718Y-1478940D01*
G01X4423054Y-1479347D01*
G01X4426052Y-1480007D01*
G01X4429455Y-1480871D01*
G01X4437228D01*
G01X4439310Y-1480109D01*
G01X4443019Y-1478585D01*
G01X4444594Y-1477721D01*
G01X4446118Y-1476705D01*
G01X4447438Y-1475638D01*
G01X4448556Y-1474572D01*
G01X4450385Y-1472336D01*
G01X4451350Y-1470812D01*
G01X4452417Y-1468882D01*
G01X4453230Y-1467155D01*
G01X4453585Y-1466190D01*
G01X4453687Y-1465783D01*
G01X4453890Y-1465275D01*
G01X4454195Y-1464412D01*
G01X4454550Y-1463192D01*
G01X4454754Y-1461059D01*
G01X4454855Y-1458163D01*
G01X4454804Y-1455369D01*
G01X4454703Y-1454302D01*
G01X4454601Y-1453642D01*
G01X4453890Y-1451254D01*
G01X4453179Y-1449578D01*
G01X4452163Y-1447546D01*
G01X4450893Y-1445260D01*
G01X4448708Y-1443177D01*
G01X4446575Y-1441044D01*
G01X4443171Y-1439012D01*
G01X4440326Y-1437132D01*
G01X4439056Y-1436218D01*
G01X4438142Y-1435456D01*
G01X4436618Y-1433830D01*
G01X4435196Y-1432154D01*
G01X4434027Y-1430376D01*
G01X4433113Y-1428598D01*
G01X4431843Y-1425499D01*
G01X4431386Y-1424229D01*
G01Y-1415440D01*
G01X4432148Y-1413205D01*
G01X4432910Y-1411173D01*
G01X4433722Y-1409344D01*
G01X4434738Y-1407617D01*
G01X4435958Y-1405890D01*
G01X4437278Y-1404264D01*
G01X4438548Y-1402994D01*
G01X4439971Y-1401877D01*
G01X4441698Y-1400658D01*
G01X4443578Y-1399489D01*
G01X4448861Y-1397864D01*
G01X4459732Y-1397152D01*
G01X4462170Y-1396340D01*
G01X4464355Y-1395527D01*
G01X4466285Y-1394663D01*
G01X4468012Y-1393749D01*
G01X4470451Y-1391260D01*
G01X4472889Y-1388821D01*
G01X4474312Y-1385926D01*
G01X4475937Y-1382420D01*
G01X4476547Y-1380033D01*
G01X4476801Y-1377798D01*
G01X4476902Y-1374953D01*
G01Y-1371600D01*
G01X4476445Y-1369873D01*
G01X4475480Y-1366672D01*
G01X4474718Y-1364996D01*
G01X4473600Y-1363015D01*
G01X4472280Y-1360830D01*
G01X4470298Y-1359002D01*
G01X4468317Y-1357427D01*
G01X4466387Y-1356157D01*
G01X4464456Y-1355192D01*
G01X4462475Y-1354430D01*
G01X4458259Y-1353109D01*
G01X4456227Y-1352398D01*
G01X4454550Y-1351686D01*
G01X4453128Y-1350924D01*
G01X4451756Y-1350112D01*
G01X4450385Y-1349045D01*
G01X4448912Y-1347724D01*
G01X4447591Y-1346251D01*
G01X4446473Y-1344879D01*
G01X4444797Y-1342034D01*
G01X4444136Y-1340663D01*
G01X4443628Y-1339291D01*
G01X4442917Y-1336650D01*
G01X4442663Y-1334770D01*
G01X4442562Y-1332078D01*
G01Y-1328776D01*
G01X4443019Y-1327099D01*
G01X4444136Y-1323696D01*
G01X4445254Y-1321257D01*
G01X4447388Y-1318311D01*
G01X4448200Y-1317346D01*
G01X4449166Y-1316330D01*
G01X4450131Y-1315415D01*
G01X4450994Y-1314704D01*
G01X4452772Y-1313485D01*
G01X4454601Y-1312469D01*
G01X4456532Y-1311656D01*
G01X4458767Y-1310945D01*
G01X4462983Y-1309573D01*
G01X4464710Y-1308811D01*
G01X4466387Y-1307948D01*
G01X4468012Y-1306830D01*
G01X4469689Y-1305560D01*
G01X4471162Y-1304087D01*
G01X4472483Y-1302614D01*
G01X4473448Y-1301140D01*
G01X4474210Y-1299769D01*
G01X4475226Y-1297635D01*
G01X4476090Y-1295044D01*
G01X4476496Y-1293012D01*
G01X4476801Y-1290523D01*
G01X4477004Y-1287780D01*
G01X4476445Y-1285088D01*
G01X4475836Y-1282548D01*
G01X4475074Y-1280211D01*
G01X4474108Y-1278128D01*
G01X4472940Y-1276147D01*
G01X4471568Y-1274318D01*
G01X4470044Y-1272692D01*
G01X4468368Y-1271219D01*
G01X4466590Y-1270000D01*
G01X4464558Y-1268933D01*
G01X4462170Y-1267968D01*
G01X4459580Y-1267104D01*
G01X4454550Y-1266850D01*
G01X4450385Y-1266495D01*
G01X4447337Y-1266088D01*
G01X4445203Y-1265428D01*
G01X4443120Y-1264564D01*
G01X4441342Y-1263599D01*
G01X4439768Y-1262634D01*
G01X4438294Y-1261364D01*
G01X4436567Y-1259688D01*
G01X4434942Y-1257605D01*
G01X4434180Y-1256538D01*
G01X4433570Y-1255573D01*
G01X4432554Y-1253388D01*
G01X4431690Y-1251052D01*
G01X4430878Y-1248562D01*
G01Y-1240384D01*
G01X4431589Y-1238301D01*
G01X4432249Y-1236523D01*
G01X4432859Y-1235050D01*
G01X4434434Y-1232408D01*
G01X4435754Y-1230833D01*
G01X4437532Y-1229004D01*
G01X4439463Y-1227379D01*
G01X4440428Y-1226668D01*
G01X4441190Y-1226160D01*
G01X4445000Y-1223721D01*
G01X4446930Y-1222299D01*
G01X4448454Y-1220978D01*
G01X4449623Y-1219505D01*
G01X4450893Y-1217778D01*
G01X4451960Y-1215949D01*
G01X4452772Y-1214374D01*
G01X4453788Y-1211174D01*
G01X4454246Y-1209497D01*
G01Y-1202538D01*
G01X4453585Y-1200150D01*
G01X4452772Y-1197813D01*
G01X4451858Y-1195629D01*
G01X4450740Y-1193597D01*
G01X4449420Y-1191717D01*
G01X4447997Y-1190041D01*
G01X4446626Y-1188669D01*
G01X4445152Y-1187450D01*
G01X4443527Y-1186332D01*
G01X4441647Y-1185418D01*
G01X4439768Y-1184605D01*
G01X4437837Y-1184046D01*
G01X4435805Y-1183538D01*
G01X4433773Y-1183183D01*
G01X4431284Y-1183386D01*
G01X4428592Y-1183742D01*
G01X4425544Y-1184402D01*
G01X4422292Y-1185266D01*
G01X4414876D01*
G01X4412894Y-1184707D01*
G01X4411066Y-1184097D01*
G01X4409338Y-1183335D01*
G01X4407764Y-1182472D01*
G01X4406290Y-1181557D01*
G01X4404716Y-1180287D01*
G01X4402988Y-1178611D01*
G01X4401312Y-1176630D01*
G01X4400499Y-1175512D01*
G01X4399839Y-1174496D01*
G01X4398772Y-1172515D01*
G01X4398010Y-1170737D01*
G01X4397502Y-1168756D01*
G01X4396994Y-1166266D01*
G01X4396486Y-1163320D01*
G01X4396892Y-1160577D01*
G01X4397146Y-1159358D01*
G01X4397807Y-1156716D01*
G01X4398213Y-1155649D01*
G01X4399229Y-1153566D01*
G01X4400398Y-1151585D01*
G01X4402125Y-1149350D01*
G01X4404512Y-1146607D01*
G01X4406798Y-1143914D01*
G01X4407764Y-1142644D01*
G01X4408373Y-1141628D01*
G01X4409389Y-1139596D01*
G01X4410202Y-1137412D01*
G01X4410964Y-1135126D01*
G01Y-1127354D01*
G01X4410050Y-1124610D01*
G01X4409084Y-1122121D01*
G01X4408576Y-1120953D01*
G01X4408119Y-1120038D01*
G01X4407510Y-1119175D01*
G01X4405579Y-1116736D01*
G01X4404462Y-1115517D01*
G01X4401820Y-1112774D01*
G01X4399432Y-1111402D01*
G01X4397045Y-1110082D01*
G01X4394556Y-1109370D01*
G01X4392016Y-1108710D01*
G01X4385869D01*
G01X4383430Y-1109370D01*
G01X4381195Y-1110082D01*
G01X4379163Y-1110945D01*
G01X4375404Y-1112876D01*
G01X4373728Y-1113790D01*
G01X4372204Y-1114450D01*
G01X4370578Y-1114908D01*
G01X4368698Y-1115416D01*
G01X4366717Y-1115720D01*
G01X4364990Y-1115873D01*
G01X4363161Y-1115720D01*
G01X4361078Y-1115416D01*
G01X4359046Y-1114908D01*
G01X4357370Y-1114349D01*
G01X4355795Y-1113638D01*
G01X4354170Y-1112774D01*
G01X4352442Y-1111606D01*
G01X4350563Y-1110183D01*
G01X4348886Y-1108507D01*
G01X4347413Y-1106830D01*
G01X4345483Y-1103884D01*
G01X4344822Y-1102563D01*
G01X4344213Y-1101039D01*
G01X4343197Y-1097382D01*
G01X4342892Y-1095451D01*
G01X4342790Y-1093826D01*
G01X4342892Y-1092149D01*
G01X4343197Y-1090270D01*
G01X4344213Y-1086561D01*
G01X4344822Y-1085037D01*
G01X4345584Y-1083513D01*
G01X4347007Y-1081024D01*
G01X4347616Y-1079805D01*
G01X4348277Y-1078281D01*
G01X4348937Y-1076401D01*
G01X4349445Y-1074369D01*
G01X4349750Y-1072083D01*
G01X4349902Y-1069543D01*
G01X4349801Y-1067308D01*
G01X4349598Y-1065733D01*
G01X4348886Y-1063447D01*
G01X4348378Y-1062025D01*
G01X4347566Y-1060298D01*
G01X4346499Y-1058418D01*
G01X4345229Y-1056538D01*
G01X4343806Y-1054913D01*
G01X4342384Y-1053592D01*
G01X4338879Y-1051052D01*
G01X4336796Y-1049731D01*
G01X4333748Y-1048766D01*
G01X4330649Y-1047801D01*
G01X4324350D01*
G01X4322623Y-1048258D01*
G01X4319626Y-1049172D01*
G01X4318305Y-1049731D01*
G01X4317035Y-1050392D01*
G01X4315714Y-1051204D01*
G01X4314444Y-1052119D01*
G01X4310939Y-1055218D01*
G01X4308958Y-1056996D01*
G01X4307281Y-1058367D01*
G01X4305706Y-1059332D01*
G01X4304081Y-1060247D01*
G01X4302303Y-1061009D01*
G01X4300423Y-1061618D01*
G01X4298544Y-1062126D01*
G01X4291076D01*
G01X4288993Y-1061415D01*
G01X4286961Y-1060602D01*
G01X4284929Y-1059688D01*
G01X4282999Y-1058570D01*
G01X4281018Y-1057148D01*
G01X4279290Y-1055624D01*
G01X4277868Y-1054202D01*
G01X4276700Y-1052576D01*
G01X4275582Y-1050646D01*
G01X4274617Y-1048715D01*
G01X4273956Y-1046937D01*
G01X4273093Y-1042924D01*
G01X4272686Y-1040486D01*
G01X4273194Y-1037590D01*
G01X4274007Y-1033628D01*
G01X4274261Y-1032561D01*
G01X4274820Y-1030478D01*
G01Y-1023010D01*
G01X4274312Y-1021080D01*
G01X4273601Y-1019099D01*
G01X4272788Y-1017118D01*
G01X4271569Y-1015187D01*
G01X4270146Y-1013206D01*
G01X4268470Y-1011428D01*
G01X4266743Y-1009904D01*
G01X4264914Y-1008634D01*
G01X4262984Y-1007466D01*
G01X4260799Y-1006500D01*
G01X4258361Y-1005738D01*
G01X4255719Y-1005027D01*
G01X4248658D01*
G01X4246931Y-1005484D01*
G01X4245102Y-1006094D01*
G01X4243172Y-1006907D01*
G01X4241190Y-1007974D01*
G01X4239362Y-1009142D01*
G01X4237685Y-1010564D01*
G01X4236161Y-1012139D01*
G01X4234739Y-1014070D01*
G01X4233316Y-1016305D01*
G01X4231335Y-1019505D01*
G01X4230827Y-1020267D01*
G01X4229659Y-1021690D01*
G01X4228440Y-1022909D01*
G01X4226509Y-1024534D01*
G01X4225493Y-1025195D01*
G01X4224122Y-1026058D01*
G01X4222242Y-1026973D01*
G01X4220159Y-1027735D01*
G01X4217873Y-1028497D01*
G01X4209440D01*
G01X4207104Y-1027786D01*
G01X4204970Y-1026973D01*
G01X4203192Y-1026160D01*
G01X4200347Y-1024433D01*
G01X4198874Y-1023214D01*
G01X4197096Y-1021486D01*
G01X4195166Y-1019404D01*
G01X4193845Y-1016660D01*
G01X4192829Y-1014222D01*
G01X4192422Y-1013054D01*
G01X4192168Y-1012139D01*
G01X4191813Y-1009345D01*
G01X4191457Y-1005129D01*
G01X4191051Y-1001014D01*
G01X4190848Y-999388D01*
G01X4190644Y-998372D01*
G01X4189933Y-996544D01*
G01X4188968Y-994359D01*
G01X4187800Y-991972D01*
G01X4185463Y-989635D01*
G01X4183177Y-987298D01*
G01X4181196Y-986130D01*
G01X4179214Y-985114D01*
G01X4177182Y-984301D01*
G01X4174084Y-983285D01*
G01X4172153Y-983082D01*
G01X4168851Y-982980D01*
G01X4165651Y-983082D01*
G01X4164533Y-983183D01*
G01X4163974Y-983285D01*
G01X4163060Y-983640D01*
G01X4161688Y-984098D01*
G01X4159809Y-984809D01*
G01X4157777Y-985774D01*
G01X4155643Y-986993D01*
G01X4153408Y-989279D01*
G01X4151122Y-991565D01*
G01X4150106Y-993496D01*
G01X4149192Y-995477D01*
G01X4148430Y-997407D01*
G01X4147109Y-1001573D01*
G01X4146398Y-1003605D01*
G01X4145686Y-1005281D01*
G01X4145026Y-1006653D01*
G01X4144315Y-1007770D01*
G01X4143807Y-1008482D01*
G01X4143400Y-1008837D01*
G01X4143248Y-1009040D01*
G01X4143197Y-1009294D01*
G01X4142689Y-1010006D01*
G01X4141470Y-1011225D01*
G01X4139794Y-1012647D01*
G01X4138168Y-1013866D01*
G01X4136492Y-1014832D01*
G01X4134764Y-1015695D01*
G01X4133037Y-1016356D01*
G01X4131310Y-1016864D01*
G01X4129532Y-1017321D01*
G01X4122826D01*
G01X4121099Y-1016864D01*
G01X4118712Y-1016203D01*
G01X4115714Y-1014832D01*
G01X4113378Y-1013663D01*
G01X4111447Y-1011936D01*
G01X4110584Y-1011072D01*
G01X4108704Y-1008837D01*
G01X4107942Y-1007821D01*
G01X4106367Y-1005434D01*
G01X4105300Y-1002081D01*
G01X4103472Y-996645D01*
G01X4102557Y-994664D01*
G01X4101490Y-992734D01*
G01X4100119Y-990905D01*
G01X4098341Y-988974D01*
G01X4096309Y-987044D01*
G01X4093769Y-985672D01*
G01X4091178Y-984352D01*
G01X4088384Y-983640D01*
G37*
G36*
G01X4156151Y-1156868D02*
G01X4013708Y-1156919D01*
G01X3931056Y-1157021D01*
G01X3931006Y-1163422D01*
G01X3930904Y-1169873D01*
G01X3932174Y-1170076D01*
G01X3938727Y-1170788D01*
G01X3947973Y-1171753D01*
G01X3954272Y-1172616D01*
G01X3958844Y-1173226D01*
G01X3961333Y-1173785D01*
G01X3964330Y-1174598D01*
G01X3967277Y-1175614D01*
G01X3968648Y-1176172D01*
G01X3969614Y-1176680D01*
G01X3971036Y-1177442D01*
G01X3971798Y-1177747D01*
G01X3972001Y-1177900D01*
G01X3972204Y-1178255D01*
G01X3972458Y-1178560D01*
G01X3972865Y-1178712D01*
G01X3973474Y-1179068D01*
G01X3974440Y-1179932D01*
G01X3975608Y-1181303D01*
G01X3976776Y-1182929D01*
G01X3977792Y-1184504D01*
G01X3978453Y-1185824D01*
G01X3979367Y-1188263D01*
G01X3980282Y-1191362D01*
G01X3980739Y-1193394D01*
G01X3981145Y-1195730D01*
G01X3981856Y-1201268D01*
G01X3982415Y-1216812D01*
G01Y-1320343D01*
G01X3982212Y-1374496D01*
G01X3990238D01*
G01X3990391Y-1292911D01*
G01X3990696Y-1208380D01*
G01X3990899Y-1205230D01*
G01X3990950Y-1205027D01*
G01X3991051Y-1204976D01*
G01X3991407Y-1205433D01*
G01X3992067Y-1206500D01*
G01X3993744Y-1209345D01*
G01X3995268Y-1211936D01*
G01X3996944Y-1215085D01*
G01X3997858Y-1216609D01*
G01X3998620Y-1217778D01*
G01X3999128Y-1218540D01*
G01X3999332Y-1219048D01*
G01X3999586Y-1219657D01*
G01X4000144Y-1220521D01*
G01X4000906Y-1221689D01*
G01X4001618Y-1222959D01*
G01X4003396Y-1226210D01*
G01X4005174Y-1229614D01*
G01X4005885Y-1230884D01*
G01X4006494Y-1231849D01*
G01X4007104Y-1232662D01*
G01Y-1299413D01*
G01X4044848D01*
G01Y-1282649D01*
G01X4045153Y-1282548D01*
G01X4045864Y-1283056D01*
G01X4047134Y-1284427D01*
G01X4049979Y-1287882D01*
G01X4051046Y-1289050D01*
G01X4051808Y-1289812D01*
G01X4052367Y-1290168D01*
G01X4099763Y-1290218D01*
G01X4147160D01*
G01X4147668Y-1289761D01*
G01X4148125Y-1289253D01*
G01X4147668Y-1288542D01*
G01X4146956Y-1287628D01*
G01X4146042Y-1286612D01*
G01X4144162Y-1284478D01*
G01X4143400Y-1283462D01*
G01X4142689Y-1282395D01*
G01X4139692Y-1278230D01*
G01X4138117Y-1276096D01*
G01X4133037Y-1269441D01*
G01X4130700Y-1266241D01*
G01X4129176Y-1264260D01*
G01X4127195Y-1262024D01*
G01X4125366Y-1259891D01*
G01X4124604Y-1258976D01*
G01X4124096Y-1258265D01*
G01X4122115Y-1255522D01*
G01X4119372Y-1252118D01*
G01X4117594Y-1250036D01*
G01X4115968Y-1247750D01*
G01X4111701Y-1242009D01*
G01X4108704Y-1238250D01*
G01X4108196Y-1237742D01*
G01X4107739Y-1237183D01*
G01X4107536Y-1236777D01*
G01X4107586Y-1236523D01*
G01X4107790Y-1236269D01*
G01X4119321Y-1236116D01*
G01X4146753D01*
G01X4197807Y-1236370D01*
G01X4210152Y-1236624D01*
G01X4211015Y-1237132D01*
G01X4211726Y-1237539D01*
G01X4212336Y-1237691D01*
G01X4213098Y-1237945D01*
G01X4214368Y-1238504D01*
G01X4215587Y-1239266D01*
G01X4216400Y-1239825D01*
G01X4216908Y-1240130D01*
G01X4217365Y-1240282D01*
G01X4218178Y-1240841D01*
G01X4219550Y-1242162D01*
G01X4222852Y-1245972D01*
G01X4224020Y-1247496D01*
G01X4225950Y-1250036D01*
G01X4226560Y-1250899D01*
G01X4226763Y-1251306D01*
G01X4226916Y-1251864D01*
G01X4227220Y-1252576D01*
G01X4228389Y-1254811D01*
G01X4228846Y-1256030D01*
G01X4229049Y-1256995D01*
G01X4229151Y-1257859D01*
G01X4229506Y-1258722D01*
G01X4229913Y-1259586D01*
G01X4230167Y-1264107D01*
G01X4230370Y-1268628D01*
G01X4230065Y-1272489D01*
G01X4229659Y-1275639D01*
G01X4229405Y-1276960D01*
G01X4229202Y-1277823D01*
G01X4227728Y-1281379D01*
G01X4227068Y-1282954D01*
G01X4226763Y-1283818D01*
G01X4226306Y-1284732D01*
G01X4225188Y-1286307D01*
G01X4222191Y-1289964D01*
G01X4221074Y-1291234D01*
G01X4218889Y-1293368D01*
G01X4217924Y-1294232D01*
G01X4217213Y-1294689D01*
G01X4215435Y-1295705D01*
G01X4212946Y-1297178D01*
G01X4210964Y-1298296D01*
G01X4208526D01*
G01X4207916Y-1298854D01*
G01X4207256Y-1299413D01*
G01X4044848D01*
G01X4007104D01*
G01Y-1305255D01*
G01X4006799Y-1306576D01*
G01X4006545Y-1307948D01*
G01X4006444Y-1309370D01*
G01Y-1310843D01*
G01X4005986Y-1311250D01*
G01X4005478Y-1311656D01*
G01Y-1313028D01*
G01X4005326Y-1314196D01*
G01X4004970Y-1315161D01*
G01X4004666Y-1316177D01*
G01X4004513Y-1317498D01*
G01Y-1319022D01*
G01X4003192Y-1321460D01*
G01X4003396Y-1322019D01*
G01X4003345Y-1322832D01*
G01X4002888Y-1324051D01*
G01X4002227Y-1325474D01*
G01Y-1328268D01*
G01X4001719Y-1328928D01*
G01X4001262Y-1329538D01*
G01Y-1332738D01*
G01X4000602Y-1333805D01*
G01X3999941Y-1334922D01*
G01X4000144Y-1335583D01*
G01X4000348Y-1336192D01*
G01X3999840Y-1337259D01*
G01X3999382Y-1338580D01*
G01X3999027Y-1340206D01*
G01X3998722Y-1341679D01*
G01X3998112Y-1343508D01*
G01X3997909Y-1344930D01*
G01X3997604Y-1346403D01*
G01X3997249Y-1347521D01*
G01X3996842Y-1348740D01*
G01X3996436Y-1350467D01*
G01X3995776Y-1354277D01*
G01X3995522Y-1355547D01*
G01X3995217Y-1356360D01*
G01X3994861Y-1357274D01*
G01X3994150Y-1360424D01*
G01X3993540Y-1362151D01*
G01X3993185Y-1363675D01*
G01X3992880Y-1365250D01*
G01X3992626Y-1366114D01*
G01X3992372Y-1366876D01*
G01X3992118Y-1368146D01*
G01X3991610Y-1372006D01*
G01X3991407Y-1374292D01*
G01X3990797Y-1374394D01*
G01X3990238Y-1374496D01*
G01X3982212D01*
G01X3982110Y-1412697D01*
G01X3981856Y-1413967D01*
G01X3981399Y-1414983D01*
G01X3980840Y-1415745D01*
G01Y-1419047D01*
G01X3980383Y-1419708D01*
G01X3980028Y-1420470D01*
G01X3979875Y-1421435D01*
G01X3979723Y-1422552D01*
G01X3979367Y-1423568D01*
G01X3978961Y-1424737D01*
G01X3978758Y-1426159D01*
G01X3978554Y-1427632D01*
G01X3977742Y-1429969D01*
G01X3977589Y-1431239D01*
G01X3977437Y-1432458D01*
G01X3977132Y-1433424D01*
G01X3976776Y-1434287D01*
G01X3976675Y-1435252D01*
G01X3976472Y-1436421D01*
G01X3975964Y-1437742D01*
G01X3975303Y-1439266D01*
G01X3975506Y-1439977D01*
G01X3975710Y-1440739D01*
G01X3974998Y-1442314D01*
G01X3974338Y-1443838D01*
G01X3974744Y-1445768D01*
G01X3974084Y-1446835D01*
G01X3973424Y-1447952D01*
G01Y-1449222D01*
G01X3973271Y-1450289D01*
G01X3972916Y-1451102D01*
G01X3972458Y-1451762D01*
G01Y-1453388D01*
G01X3972408Y-1455014D01*
G01X3971950Y-1455674D01*
G01X3971595Y-1456436D01*
G01X3971493Y-1457452D01*
G01X3971290Y-1458722D01*
G01X3970833Y-1460043D01*
G01X3970376Y-1461465D01*
G01X3970172Y-1462786D01*
G01X3970020Y-1463904D01*
G01X3969664Y-1464716D01*
G01X3969360Y-1465529D01*
G01X3969207Y-1466596D01*
G01X3969055Y-1467815D01*
G01X3968699Y-1468984D01*
G01X3968344Y-1470101D01*
G01X3968242Y-1471066D01*
G01X3968090Y-1472032D01*
G01X3967734Y-1472997D01*
G01X3967328Y-1474267D01*
G01X3967124Y-1475943D01*
G01X3966972Y-1477874D01*
G01X3966464Y-1478483D01*
G01X3965956Y-1479042D01*
G01Y-1480312D01*
G01X3965804Y-1481430D01*
G01X3965448Y-1482395D01*
G01X3965143Y-1483360D01*
G01X3964991Y-1484630D01*
G01Y-1486103D01*
G01X3964330Y-1487322D01*
G01X3963873Y-1488440D01*
G01X3963670Y-1489354D01*
G01Y-1490167D01*
G01X3962502Y-1490624D01*
G01X3960673Y-1491234D01*
G01X3957879Y-1491945D01*
G01X3953408Y-1492910D01*
G01X3952342Y-1493063D01*
G01X3944417Y-1493876D01*
G01X3934765Y-1494536D01*
G01X3930955Y-1494739D01*
G01Y-1507642D01*
G01X3939642Y-1507795D01*
G01X3997046Y-1507998D01*
G01X4071112Y-1507795D01*
G01X4096461Y-1507642D01*
G01X4096512Y-1501343D01*
G01X4096563Y-1494993D01*
G01X4095801Y-1494739D01*
G01X4093870Y-1494434D01*
G01X4090213Y-1494079D01*
G01X4080815Y-1493215D01*
G01X4073042Y-1492199D01*
G01X4068267Y-1491285D01*
G01X4066845Y-1490929D01*
G01X4064254Y-1490218D01*
G01X4062171Y-1489456D01*
G01X4060444Y-1488643D01*
G01X4058768Y-1487780D01*
G01X4055364Y-1485392D01*
G01X4053942Y-1484173D01*
G01X4053078Y-1483157D01*
G01X4052672Y-1482344D01*
G01X4053383Y-1480261D01*
G01X4053891Y-1478636D01*
G01X4053942Y-1477620D01*
G01X4053992Y-1476858D01*
G01X4054399Y-1475638D01*
G01X4055059Y-1474216D01*
G01Y-1470812D01*
G01X4055516Y-1470406D01*
G01X4056024Y-1470000D01*
G01Y-1468933D01*
G01X4056228Y-1467764D01*
G01X4056685Y-1466342D01*
G01X4057345Y-1464869D01*
G01X4057193Y-1463954D01*
G01X4056990Y-1463091D01*
G01X4057650Y-1461872D01*
G01X4058107Y-1460703D01*
G01X4058310Y-1459636D01*
G01X4058463Y-1458620D01*
G01X4058768Y-1457757D01*
G01X4059225Y-1456944D01*
G01X4059276Y-1455318D01*
G01Y-1453642D01*
G01X4059733Y-1453032D01*
G01X4060241Y-1452423D01*
G01Y-1448816D01*
G01X4060901Y-1447851D01*
G01X4061358Y-1446886D01*
G01X4061511Y-1445870D01*
G01X4061663Y-1444904D01*
G01X4062019Y-1443939D01*
G01X4062374Y-1442822D01*
G01X4062527Y-1441552D01*
G01X4062628Y-1440332D01*
G01X4062933Y-1439418D01*
G01X4063289Y-1438402D01*
G01X4063543Y-1436776D01*
G01X4063695Y-1434744D01*
G01X4064203Y-1434135D01*
G01X4064762Y-1433576D01*
G01Y-1432408D01*
G01X4064914Y-1431239D01*
G01X4065270Y-1430071D01*
G01X4065626Y-1428852D01*
G01X4065727Y-1427480D01*
G01Y-1426058D01*
G01X4066235Y-1425651D01*
G01X4066692Y-1425245D01*
G01Y-1421790D01*
G01X4067404Y-1420470D01*
G01X4068064Y-1419200D01*
G01X4067912Y-1418692D01*
G01X4067962Y-1417879D01*
G01X4068318Y-1416761D01*
G01X4068978Y-1415339D01*
G01Y-1412494D01*
G01X4069436Y-1411884D01*
G01X4069791Y-1411072D01*
G01X4069944Y-1410005D01*
G01X4070096Y-1408887D01*
G01X4070502Y-1407973D01*
G01X4071010Y-1407160D01*
G01Y-1405636D01*
G01X4070960Y-1404112D01*
G01X4071620Y-1403096D01*
G01X4072230Y-1402080D01*
G01Y-1398524D01*
G01X4072687Y-1398118D01*
G01X4073195Y-1397711D01*
G01Y-1394612D01*
G01X4073703Y-1394206D01*
G01X4074160Y-1393850D01*
G01Y-1390650D01*
G01X4074820Y-1389482D01*
G01X4075430Y-1388262D01*
G01X4075125Y-1386942D01*
G01X4075735Y-1385468D01*
G01X4076344Y-1383792D01*
G01X4076954Y-1381760D01*
G01X4077411Y-1380084D01*
G01X4077767Y-1379169D01*
G01X4078783Y-1378966D01*
G01X4080866Y-1378814D01*
G01X4149903Y-1378712D01*
G01X4216095D01*
G01X4218889Y-1378153D01*
G01X4221734Y-1377493D01*
G01X4224630Y-1376680D01*
G01X4228846Y-1375105D01*
G01X4230014Y-1374546D01*
G01X4233723Y-1372819D01*
G01X4236822Y-1371549D01*
G01X4240022Y-1370127D01*
G01X4244594Y-1367739D01*
G01X4248150Y-1365707D01*
G01X4249623Y-1364844D01*
G01X4253687Y-1362050D01*
G01X4257243Y-1359357D01*
G01X4260240Y-1356716D01*
G01X4264304Y-1353058D01*
G01X4267657Y-1349502D01*
G01X4272788Y-1343508D01*
G01X4276547Y-1338834D01*
G01X4277258Y-1337818D01*
G01X4279544Y-1334364D01*
G01X4281729Y-1330960D01*
G01X4284574Y-1325778D01*
G01X4286707Y-1321714D01*
G01X4287672Y-1319530D01*
G01X4288841Y-1316939D01*
G01X4289603Y-1315161D01*
G01X4290771Y-1312215D01*
G01X4292092Y-1309116D01*
G01X4292549Y-1307897D01*
G01X4292752Y-1307287D01*
G01X4293210Y-1306220D01*
G01X4294226Y-1303884D01*
G01X4295851Y-1299312D01*
G01X4297070Y-1295654D01*
G01X4298391Y-1286815D01*
G01X4298747Y-1277722D01*
G01X4298950Y-1263650D01*
G01X4298899Y-1262177D01*
G01X4298391Y-1250696D01*
G01X4298036Y-1245718D01*
G01X4297223Y-1242365D01*
G01X4295597Y-1236320D01*
G01X4293819Y-1231240D01*
G01X4292549Y-1227328D01*
G01X4291228Y-1223264D01*
G01X4289958Y-1220064D01*
G01X4289044Y-1217778D01*
G01X4287977Y-1215034D01*
G01X4287368Y-1213815D01*
G01X4286555Y-1212444D01*
G01X4285640Y-1210920D01*
G01X4284828Y-1209396D01*
G01X4284320Y-1208176D01*
G01X4284116Y-1207516D01*
G01X4283710Y-1206602D01*
G01X4282694Y-1204874D01*
G01X4279900Y-1200252D01*
G01X4278579Y-1198270D01*
G01X4277360Y-1196696D01*
G01X4272788Y-1191362D01*
G01X4269232Y-1187145D01*
G01X4267454Y-1185062D01*
G01X4264355Y-1181456D01*
G01X4261561Y-1178712D01*
G01X4258513Y-1176122D01*
G01X4256735Y-1174699D01*
G01X4254856Y-1173429D01*
G01X4253484Y-1172566D01*
G01X4252722Y-1172261D01*
G01X4252316Y-1172007D01*
G01X4251706Y-1171397D01*
G01X4250792Y-1170635D01*
G01X4249776Y-1169924D01*
G01X4247693Y-1168705D01*
G01X4245407Y-1167435D01*
G01X4242664Y-1165962D01*
G01X4238447Y-1163879D01*
G01X4234180Y-1162050D01*
G01X4233570Y-1161694D01*
G01X4232808Y-1161339D01*
G01X4231691Y-1161085D01*
G01X4230472Y-1160780D01*
G01X4229557Y-1160424D01*
G01X4228846Y-1160069D01*
G01X4227982Y-1159916D01*
G01X4227017Y-1159713D01*
G01X4225900Y-1159256D01*
G01X4224680Y-1158646D01*
G01X4221582D01*
G01X4220718Y-1158088D01*
G01X4219550Y-1157580D01*
G01X4217873Y-1157224D01*
G01X4215943Y-1156919D01*
G37*
G04 Image End*
G04 Image End*

G04 Text Start*
G54D10*
G01X5355770Y-1846287D02*
G01X5355770Y-1812251D01*
G01X5380408Y-1830793D01*
G01Y-1821395D01*
G01X5383456Y-1815299D01*
G01X5386758Y-1812251D01*
G01X5395902Y-1808949D01*
G01X5402252D01*
G01X5411396Y-1812251D01*
G01X5417746Y-1818347D01*
G01X5420794Y-1827745D01*
G01Y-1836889D01*
G01X5417746Y-1846287D01*
G01X5414444Y-1849335D01*
G01X5408348Y-1852383D01*
G01X5355770Y-1778977D02*
G01X5420794Y-1754085D01*
G01X5355770Y-1729447D02*
G01X5420794Y-1754085D01*
G01X5355770Y-1699475D02*
G01X5420794Y-1699475D01*
G01X5355770Y-2416287D02*
G01X5355770Y-2382251D01*
G01X5380408Y-2400793D01*
G01Y-2391395D01*
G01X5383456Y-2385299D01*
G01X5386758Y-2382251D01*
G01X5395902Y-2378949D01*
G01X5402252D01*
G01X5411396Y-2382251D01*
G01X5417746Y-2388347D01*
G01X5420794Y-2397745D01*
G01Y-2406889D01*
G01X5417746Y-2416287D01*
G01X5414444Y-2419335D01*
G01X5408348Y-2422383D01*
G01X5355770Y-2348977D02*
G01X5420794Y-2324085D01*
G01X5355770Y-2299447D02*
G01X5420794Y-2324085D01*
G01X5355770Y-2269475D02*
G01X5420794Y-2269475D01*
G01X5355770Y-2269475D02*
G01X5355770Y-2229089D01*
G01X5386758Y-2269475D02*
G01X5386758Y-2244583D01*
G01X5420794Y-2269475D02*
G01X5420794Y-2229089D01*
G01X5375771Y-3245300D02*
G01X5375771Y-3276288D01*
G01X5403457Y-3279336D01*
G01X5400409Y-3276288D01*
G01X5397361Y-3266890D01*
G01Y-3257746D01*
G01X5400409Y-3248348D01*
G01X5406759Y-3242252D01*
G01X5415903Y-3238950D01*
G01X5422253D01*
G01X5431397Y-3242252D01*
G01X5437747Y-3248348D01*
G01X5440795Y-3257746D01*
G01Y-3266890D01*
G01X5437747Y-3276288D01*
G01X5434445Y-3279336D01*
G01X5428349Y-3282384D01*
G01X5375771Y-3208978D02*
G01X5440795Y-3184086D01*
G01X5375771Y-3159448D02*
G01X5440795Y-3184086D01*
G01X5375771Y-3129476D02*
G01X5440795Y-3129476D01*
G01X5375771Y-3129476D02*
G01X5375771Y-3089090D01*
G01X5406759Y-3129476D02*
G01X5406759Y-3104584D01*
G01X5440795Y-3129476D02*
G01X5440795Y-3089090D01*
G01X5375771Y-2675299D02*
G01X5375771Y-2706287D01*
G01X5403457Y-2709335D01*
G01X5400409Y-2706287D01*
G01X5397361Y-2696889D01*
G01Y-2687745D01*
G01X5400409Y-2678347D01*
G01X5406759Y-2672251D01*
G01X5415903Y-2668949D01*
G01X5422253D01*
G01X5431397Y-2672251D01*
G01X5437747Y-2678347D01*
G01X5440795Y-2687745D01*
G01Y-2696889D01*
G01X5437747Y-2706287D01*
G01X5434445Y-2709335D01*
G01X5428349Y-2712383D01*
G01X5375771Y-2638977D02*
G01X5440795Y-2614085D01*
G01X5375771Y-2589447D02*
G01X5440795Y-2614085D01*
G01X5375771Y-2559475D02*
G01X5440795Y-2559475D01*
G54D11*
G01X686360Y-1074102D02*
G01X692710Y-1071054D01*
G01X698806Y-1064704D01*
G01X701854Y-1058608D01*
G01Y-1046162D01*
G01X698806Y-1040066D01*
G01X692710Y-1033716D01*
G01X686360Y-1030668D01*
G01X677216Y-1027620D01*
G01X661722D01*
G01X652324Y-1030668D01*
G01X646228Y-1033716D01*
G01X639878Y-1040066D01*
G01X636830Y-1046162D01*
G01Y-1058608D01*
G01X639878Y-1064704D01*
G01X646228Y-1071054D01*
G01X652324Y-1074102D01*
G01X701854Y-1128966D02*
G01X636830Y-1104328D01*
G01X701854Y-1128966D02*
G01X636830Y-1153858D01*
G01X658674Y-1113472D02*
G01X658674Y-1144460D01*
G01X701854Y-1184084D02*
G01X636830Y-1184084D01*
G01X701854Y-1184084D02*
G01X636830Y-1227264D01*
G01X701854Y-1227264D02*
G01X636830Y-1227264D01*
G01X703478Y-2925379D02*
G01X709828Y-2922331D01*
G01X715924Y-2915981D01*
G01X718972Y-2909885D01*
G01Y-2897439D01*
G01X715924Y-2891343D01*
G01X709828Y-2884993D01*
G01X703478Y-2881945D01*
G01X694334Y-2878897D01*
G01X678840D01*
G01X669442Y-2881945D01*
G01X663346Y-2884993D01*
G01X656996Y-2891343D01*
G01X653948Y-2897439D01*
G01Y-2909885D01*
G01X656996Y-2915981D01*
G01X663346Y-2922331D01*
G01X669442Y-2925379D01*
G01X718972Y-2980243D02*
G01X653948Y-2955605D01*
G01X718972Y-2980243D02*
G01X653948Y-3005135D01*
G01X675792Y-2964749D02*
G01X675792Y-2995737D01*
G01X718972Y-3035361D02*
G01X653948Y-3035361D01*
G01X718972Y-3035361D02*
G01X653948Y-3078541D01*
G01X718972Y-3078541D02*
G01X653948Y-3078541D01*
G54D10*
G01X5275326Y-1361440D02*
G01X5340350Y-1361440D01*
G01X5275326Y-1361440D02*
G01X5275326Y-1339850D01*
G01X5278374Y-1330452D01*
G01X5284470Y-1324356D01*
G01X5290820Y-1321308D01*
G01X5299964Y-1318006D01*
G01X5315458D01*
G01X5324856Y-1321308D01*
G01X5330952Y-1324356D01*
G01X5337302Y-1330452D01*
G01X5340350Y-1339850D01*
G01Y-1361440D01*
G01X5275326Y-1288034D02*
G01X5340350Y-1288034D01*
G01X5275326Y-1288034D02*
G01X5275326Y-1260094D01*
G01X5278374Y-1250696D01*
G01X5281422Y-1247648D01*
G01X5287518Y-1244600D01*
G01X5293868D01*
G01X5299964Y-1247648D01*
G01X5303012Y-1250696D01*
G01X5306314Y-1260094D01*
G01X5306314Y-1288034D02*
G01X5306314Y-1260094D01*
G01X5309362Y-1250696D01*
G01X5312410Y-1247648D01*
G01X5318506Y-1244600D01*
G01X5327904D01*
G01X5334000Y-1247648D01*
G01X5337302Y-1250696D01*
G01X5340350Y-1260094D01*
G01Y-1288034D01*
G01X5275326Y-1214628D02*
G01X5321808Y-1214628D01*
G01X5330952Y-1211326D01*
G01X5337302Y-1205230D01*
G01X5340350Y-1195832D01*
G01Y-1189736D01*
G01X5337302Y-1180592D01*
G01X5330952Y-1174242D01*
G01X5321808Y-1171194D01*
G01X5275326D01*
G01X5284470Y-1097788D02*
G01X5278374Y-1103884D01*
G01X5275326Y-1113282D01*
G01Y-1125728D01*
G01X5278374Y-1134872D01*
G01X5284470Y-1141222D01*
G01X5290820D01*
G01X5296916Y-1137920D01*
G01X5299964Y-1134872D01*
G01X5303012Y-1128776D01*
G01X5309362Y-1110234D01*
G01X5312410Y-1103884D01*
G01X5315458Y-1100836D01*
G01X5321808Y-1097788D01*
G01X5330952D01*
G01X5337302Y-1103884D01*
G01X5340350Y-1113282D01*
G01Y-1125728D01*
G01X5337302Y-1134872D01*
G01X5330952Y-1141222D01*
G54D11*
G01X3967622Y-2005767D02*
G01X3967622Y-2070791D01*
G01X3967622Y-2005767D02*
G01X3995562Y-2005767D01*
G01X4004706Y-2008815D01*
G01X4007754Y-2011863D01*
G01X4011056Y-2018213D01*
G01Y-2027357D01*
G01X4007754Y-2033453D01*
G01X4004706Y-2036755D01*
G01X3995562Y-2039803D01*
G01X3967622D01*
G01X4041282Y-2005767D02*
G01X4056522Y-2070791D01*
G01X4072016Y-2005767D02*
G01X4056522Y-2070791D01*
G01X4072016Y-2005767D02*
G01X4087510Y-2070791D01*
G01X4103004Y-2005767D02*
G01X4087510Y-2070791D01*
G01X4133230Y-2005767D02*
G01X4133230Y-2070791D01*
G01X4133230Y-2005767D02*
G01X4160916Y-2005767D01*
G01X4170314Y-2008815D01*
G01X4173362Y-2011863D01*
G01X4176410Y-2018213D01*
G01Y-2024309D01*
G01X4173362Y-2030405D01*
G01X4170314Y-2033453D01*
G01X4160916Y-2036755D01*
G01X4133230D01*
G01X4154820Y-2036755D02*
G01X4176410Y-2070791D01*
G01X4231640Y-604774D02*
G01X4231640Y-558292D01*
G01X4228592Y-549148D01*
G01X4222242Y-542798D01*
G01X4213098Y-539750D01*
G01X4206748D01*
G01X4197604Y-542798D01*
G01X4191508Y-549148D01*
G01X4188206Y-558292D01*
G01Y-604774D01*
G01X4133342Y-604774D02*
G01X4157980Y-539750D01*
G01X4133342Y-604774D02*
G01X4108450Y-539750D01*
G01X4148836Y-561594D02*
G01X4117848Y-561594D01*
G01X4078224Y-604774D02*
G01X4078224Y-539750D01*
G01X4078224Y-604774D02*
G01X4050538Y-604774D01*
G01X4041140Y-601726D01*
G01X4038092Y-598678D01*
G01X4035044Y-592328D01*
G01Y-586232D01*
G01X4038092Y-580136D01*
G01X4041140Y-577088D01*
G01X4050538Y-573786D01*
G01X4078224D01*
G01X4056634Y-573786D02*
G01X4035044Y-539750D01*
G01X3983228Y-604774D02*
G01X3983228Y-539750D01*
G01X4004818Y-604774D02*
G01X3961638Y-604774D01*
G01X3931412Y-592328D02*
G01X3925316Y-595630D01*
G01X3916172Y-604774D01*
G01Y-539750D01*
G01X893826Y-638810D02*
G01X900176Y-644906D01*
G01X909320Y-647954D01*
G01X921766D01*
G01X931164Y-644906D01*
G01X937260Y-638810D01*
G01Y-632460D01*
G01X934212Y-626364D01*
G01X931164Y-623316D01*
G01X924814Y-620268D01*
G01X906272Y-613918D01*
G01X900176Y-610870D01*
G01X897128Y-607822D01*
G01X893826Y-601472D01*
G01Y-592328D01*
G01X900176Y-585978D01*
G01X909320Y-582930D01*
G01X921766D01*
G01X931164Y-585978D01*
G01X937260Y-592328D01*
G01X863600Y-647954D02*
G01X848360Y-582930D01*
G01X832866Y-647954D02*
G01X848360Y-582930D01*
G01X832866Y-647954D02*
G01X817372Y-582930D01*
G01X801878Y-647954D02*
G01X817372Y-582930D01*
G01X771652Y-647954D02*
G01X771652Y-582930D01*
G01X771652Y-647954D02*
G01X750062Y-647954D01*
G01X740918Y-644906D01*
G01X734568Y-638810D01*
G01X731520Y-632460D01*
G01X728472Y-623316D01*
G01Y-607822D01*
G01X731520Y-598424D01*
G01X734568Y-592328D01*
G01X740918Y-585978D01*
G01X750062Y-582930D01*
G01X771652D01*
G01X1315303Y-3401260D02*
G01X1312255Y-3394910D01*
G01X1305905Y-3388814D01*
G01X1299809Y-3385766D01*
G01X1287363D01*
G01X1281267Y-3388814D01*
G01X1274917Y-3394910D01*
G01X1271869Y-3401260D01*
G01X1268821Y-3410404D01*
G01Y-3425898D01*
G01X1271869Y-3435296D01*
G01X1274917Y-3441392D01*
G01X1281267Y-3447742D01*
G01X1287363Y-3450790D01*
G01X1299809D01*
G01X1305905Y-3447742D01*
G01X1312255Y-3441392D01*
G01X1315303Y-3435296D01*
G01X1370167Y-3385766D02*
G01X1345529Y-3450790D01*
G01X1370167Y-3385766D02*
G01X1395059Y-3450790D01*
G01X1354673Y-3428946D02*
G01X1385661Y-3428946D01*
G01X1425285Y-3385766D02*
G01X1425285Y-3450790D01*
G01X1425285Y-3385766D02*
G01X1468465Y-3450790D01*
G01X1468465Y-3385766D02*
G01X1468465Y-3450790D01*
G01X5428742Y-3401260D02*
G01X5425694Y-3394910D01*
G01X5419344Y-3388814D01*
G01X5413248Y-3385766D01*
G01X5400802D01*
G01X5394706Y-3388814D01*
G01X5388356Y-3394910D01*
G01X5385308Y-3401260D01*
G01X5382260Y-3410404D01*
G01Y-3425898D01*
G01X5385308Y-3435296D01*
G01X5388356Y-3441392D01*
G01X5394706Y-3447742D01*
G01X5400802Y-3450790D01*
G01X5413248D01*
G01X5419344Y-3447742D01*
G01X5425694Y-3441392D01*
G01X5428742Y-3435296D01*
G01X5483606Y-3385766D02*
G01X5458968Y-3450790D01*
G01X5483606Y-3385766D02*
G01X5508498Y-3450790D01*
G01X5468112Y-3428946D02*
G01X5499100Y-3428946D01*
G01X5538724Y-3385766D02*
G01X5538724Y-3450790D01*
G01X5538724Y-3385766D02*
G01X5581904Y-3450790D01*
G01X5581904Y-3385766D02*
G01X5581904Y-3450790D01*
G54D10*
G01X5378450Y-926846D02*
G01X5372354Y-933196D01*
G01X5369306Y-942340D01*
G01Y-954786D01*
G01X5372354Y-964184D01*
G01X5378450Y-970280D01*
G01X5384800D01*
G01X5390896Y-967232D01*
G01X5393944Y-964184D01*
G01X5396992Y-957834D01*
G01X5403342Y-939292D01*
G01X5406390Y-933196D01*
G01X5409438Y-930148D01*
G01X5415788Y-926846D01*
G01X5424932D01*
G01X5431282Y-933196D01*
G01X5434330Y-942340D01*
G01Y-954786D01*
G01X5431282Y-964184D01*
G01X5424932Y-970280D01*
G01X5378410Y-1201420D02*
G01X5434290Y-1201420D01*
G01X5406350Y-1229360D02*
G01X5406350Y-1173734D01*
G01X5406390Y-1478280D02*
G01X5406390Y-1422654D01*
G54D11*
G01X1511300Y-627634D02*
G01X1511300Y-562610D01*
G01X1511300Y-627634D02*
G01X1489710Y-627634D01*
G01X1480312Y-624586D01*
G01X1474216Y-618490D01*
G01X1471168Y-612140D01*
G01X1467866Y-602996D01*
G01Y-587502D01*
G01X1471168Y-578104D01*
G01X1474216Y-572008D01*
G01X1480312Y-565658D01*
G01X1489710Y-562610D01*
G01X1511300D01*
G01X1342898Y-612140D02*
G01X1345946Y-618490D01*
G01X1352296Y-624586D01*
G01X1358392Y-627634D01*
G01X1370838D01*
G01X1376934Y-624586D01*
G01X1383284Y-618490D01*
G01X1386332Y-612140D01*
G01X1389380Y-602996D01*
G01Y-587502D01*
G01X1386332Y-578104D01*
G01X1383284Y-572008D01*
G01X1376934Y-565658D01*
G01X1370838Y-562610D01*
G01X1358392D01*
G01X1352296Y-565658D01*
G01X1345946Y-572008D01*
G01X1342898Y-578104D01*
G01X1264920Y-590550D02*
G01X1209294Y-590550D01*
G01X1033780Y-618490D02*
G01X1033780Y-562610D01*
G01X1061720Y-590550D02*
G01X1006094Y-590550D01*
G01X4777740Y-711434D02*
G01X4777740Y-646410D01*
G01X4777740Y-711434D02*
G01X4749800Y-711434D01*
G01X4740656Y-708386D01*
G01X4737608Y-705338D01*
G01X4734306Y-698988D01*
G01Y-692892D01*
G01X4737608Y-686796D01*
G01X4740656Y-683748D01*
G01X4749800Y-680446D01*
G01X4777740D01*
G01X4756150Y-680446D02*
G01X4734306Y-646410D01*
G01X4704080Y-711434D02*
G01X4660900Y-646410D01*
G01X4660900Y-711434D02*
G01X4704080Y-646410D01*
G01X4606290Y-711434D02*
G01X4606290Y-646410D01*
G01X4627880Y-711434D02*
G01X4584446Y-711434D01*
G01X4554220Y-711434D02*
G01X4511040Y-646410D01*
G01X4511040Y-711434D02*
G01X4554220Y-646410D01*
G01X4467860Y-674350D02*
G01X4412234Y-674350D01*
G01X4315460Y-702310D02*
G01X4315460Y-646430D01*
G01X4343400Y-674370D02*
G01X4287774Y-674370D01*
G01X1065834Y-3020779D02*
G01X1000810Y-3020779D01*
G01X1065834Y-3020779D02*
G01X1065834Y-3048719D01*
G01X1062786Y-3057863D01*
G01X1059738Y-3060911D01*
G01X1053388Y-3064213D01*
G01X1044244D01*
G01X1038148Y-3060911D01*
G01X1034846Y-3057863D01*
G01X1031798Y-3048719D01*
G01Y-3020779D01*
G01X1065834Y-3094439D02*
G01X1000810Y-3094439D01*
G01X1065834Y-3094439D02*
G01X1065834Y-3122125D01*
G01X1062786Y-3131523D01*
G01X1059738Y-3134571D01*
G01X1053388Y-3137619D01*
G01X1047292D01*
G01X1041196Y-3134571D01*
G01X1038148Y-3131523D01*
G01X1034846Y-3122125D01*
G01X1034846Y-3094439D02*
G01X1034846Y-3122125D01*
G01X1031798Y-3131523D01*
G01X1028750Y-3134571D01*
G01X1022654Y-3137619D01*
G01X1013256D01*
G01X1007160Y-3134571D01*
G01X1003858Y-3131523D01*
G01X1000810Y-3122125D01*
G01Y-3094439D01*
G01X1053388Y-3167845D02*
G01X1056690Y-3173941D01*
G01X1065834Y-3183085D01*
G01X1000810D01*
G01X1065784Y-2763647D02*
G01X1000760Y-2763647D01*
G01X1065784Y-2763647D02*
G01X1065784Y-2791587D01*
G01X1062736Y-2800731D01*
G01X1059688Y-2803779D01*
G01X1053338Y-2807081D01*
G01X1044194D01*
G01X1038098Y-2803779D01*
G01X1034796Y-2800731D01*
G01X1031748Y-2791587D01*
G01Y-2763647D01*
G01X1065784Y-2837307D02*
G01X1000760Y-2837307D01*
G01X1065784Y-2837307D02*
G01X1065784Y-2864993D01*
G01X1062736Y-2874391D01*
G01X1059688Y-2877439D01*
G01X1053338Y-2880487D01*
G01X1047242D01*
G01X1041146Y-2877439D01*
G01X1038098Y-2874391D01*
G01X1034796Y-2864993D01*
G01X1034796Y-2837307D02*
G01X1034796Y-2864993D01*
G01X1031748Y-2874391D01*
G01X1028700Y-2877439D01*
G01X1022604Y-2880487D01*
G01X1013206D01*
G01X1007110Y-2877439D01*
G01X1003808Y-2874391D01*
G01X1000760Y-2864993D01*
G01Y-2837307D01*
G01X1065784Y-2929255D02*
G01X1062736Y-2919857D01*
G01X1053338Y-2913761D01*
G01X1038098Y-2910713D01*
G01X1028700D01*
G01X1013206Y-2913761D01*
G01X1003808Y-2919857D01*
G01X1000760Y-2929255D01*
G01Y-2935351D01*
G01X1003808Y-2944749D01*
G01X1013206Y-2950845D01*
G01X1028700Y-2953893D01*
G01X1038098D01*
G01X1053338Y-2950845D01*
G01X1062736Y-2944749D01*
G01X1065784Y-2935351D01*
G01Y-2929255D01*
G01X5407660Y-142494D02*
G01X5407660Y-77470D01*
G01X5407660Y-142494D02*
G01X5379720Y-142494D01*
G01X5370576Y-139446D01*
G01X5367528Y-136398D01*
G01X5364226Y-130048D01*
G01Y-123952D01*
G01X5367528Y-117856D01*
G01X5370576Y-114808D01*
G01X5379720Y-111506D01*
G01X5407660D01*
G01X5386070Y-111506D02*
G01X5364226Y-77470D01*
G01X5290820Y-133350D02*
G01X5296916Y-139446D01*
G01X5306314Y-142494D01*
G01X5318760D01*
G01X5327904Y-139446D01*
G01X5334000Y-133350D01*
G01Y-127000D01*
G01X5330952Y-120904D01*
G01X5327904Y-117856D01*
G01X5321808Y-114808D01*
G01X5303266Y-108458D01*
G01X5296916Y-105410D01*
G01X5293868Y-102362D01*
G01X5290820Y-96012D01*
G01Y-86868D01*
G01X5296916Y-80518D01*
G01X5306314Y-77470D01*
G01X5318760D01*
G01X5327904Y-80518D01*
G01X5334000Y-86868D01*
G01X5239004Y-142494D02*
G01X5239004Y-77470D01*
G01X5260594Y-142494D02*
G01X5217414Y-142494D01*
G01X2392680Y-690626D02*
G01X2392680Y-755650D01*
G01X2392680Y-690626D02*
G01X2420620Y-690626D01*
G01X2429764Y-693674D01*
G01X2432812Y-696722D01*
G01X2436114Y-703072D01*
G01Y-712216D01*
G01X2432812Y-718312D01*
G01X2429764Y-721614D01*
G01X2420620Y-724662D01*
G01X2392680D01*
G01X2466340Y-690626D02*
G01X2466340Y-755650D01*
G01X2466340Y-690626D02*
G01X2494026Y-690626D01*
G01X2503424Y-693674D01*
G01X2506472Y-696722D01*
G01X2509520Y-703072D01*
G01Y-709168D01*
G01X2506472Y-715264D01*
G01X2503424Y-718312D01*
G01X2494026Y-721614D01*
G01X2466340Y-721614D02*
G01X2494026Y-721614D01*
G01X2503424Y-724662D01*
G01X2506472Y-727710D01*
G01X2509520Y-733806D01*
G01Y-743204D01*
G01X2506472Y-749300D01*
G01X2503424Y-752602D01*
G01X2494026Y-755650D01*
G01X2466340D01*
G01X2539746Y-703072D02*
G01X2545842Y-699770D01*
G01X2554986Y-690626D01*
G01Y-755650D01*
G01X2588260Y-706120D02*
G01X2588260Y-703072D01*
G01X2591308Y-696722D01*
G01X2594356Y-693674D01*
G01X2600452Y-690626D01*
G01X2612898D01*
G01X2619248Y-693674D01*
G01X2622296Y-696722D01*
G01X2625344Y-703072D01*
G01Y-709168D01*
G01X2622296Y-715264D01*
G01X2615946Y-724662D01*
G01X2585212Y-755650D01*
G01X2628392D01*
G01X408940Y-2473833D02*
G01X464820Y-2473833D01*
G01X436880Y-2501773D02*
G01X436880Y-2446147D01*
G01X451127Y-1594248D02*
G01X451127Y-1649874D01*
G01X1917799Y-690666D02*
G01X1917799Y-755690D01*
G01X1917799Y-690666D02*
G01X1945739Y-690666D01*
G01X1954883Y-693714D01*
G01X1957931Y-696762D01*
G01X1961233Y-703112D01*
G01Y-712256D01*
G01X1957931Y-718352D01*
G01X1954883Y-721654D01*
G01X1945739Y-724702D01*
G01X1917799D01*
G01X1991459Y-690666D02*
G01X1991459Y-755690D01*
G01X1991459Y-690666D02*
G01X2019145Y-690666D01*
G01X2028543Y-693714D01*
G01X2031591Y-696762D01*
G01X2034639Y-703112D01*
G01Y-709208D01*
G01X2031591Y-715304D01*
G01X2028543Y-718352D01*
G01X2019145Y-721654D01*
G01X1991459Y-721654D02*
G01X2019145Y-721654D01*
G01X2028543Y-724702D01*
G01X2031591Y-727750D01*
G01X2034639Y-733846D01*
G01Y-743244D01*
G01X2031591Y-749340D01*
G01X2028543Y-752642D01*
G01X2019145Y-755690D01*
G01X1991459D01*
G01X2064865Y-703112D02*
G01X2070961Y-699810D01*
G01X2080105Y-690666D01*
G01Y-755690D01*
G01X2116427Y-690666D02*
G01X2150463Y-690666D01*
G01X2131921Y-715304D01*
G01X2141065D01*
G01X2147415Y-718352D01*
G01X2150463Y-721654D01*
G01X2153511Y-730798D01*
G01Y-737148D01*
G01X2150463Y-746292D01*
G01X2144367Y-752642D01*
G01X2134969Y-755690D01*
G01X2125571D01*
G01X2116427Y-752642D01*
G01X2113379Y-749340D01*
G01X2110331Y-743244D01*
G01X2197100Y-3401260D02*
G01X2194052Y-3394910D01*
G01X2187702Y-3388814D01*
G01X2181606Y-3385766D01*
G01X2169160D01*
G01X2163064Y-3388814D01*
G01X2156714Y-3394910D01*
G01X2153666Y-3401260D01*
G01X2150618Y-3410404D01*
G01Y-3425898D01*
G01X2153666Y-3435296D01*
G01X2156714Y-3441392D01*
G01X2163064Y-3447742D01*
G01X2169160Y-3450790D01*
G01X2181606D01*
G01X2187702Y-3447742D01*
G01X2194052Y-3441392D01*
G01X2197100Y-3435296D01*
G01X2251964Y-3385766D02*
G01X2227326Y-3450790D01*
G01X2251964Y-3385766D02*
G01X2276856Y-3450790D01*
G01X2236470Y-3428946D02*
G01X2267458Y-3428946D01*
G01X2307082Y-3385766D02*
G01X2307082Y-3450790D01*
G01X2307082Y-3385766D02*
G01X2350262Y-3450790D01*
G01X2350262Y-3385766D02*
G01X2350262Y-3450790D01*
G01X3107944Y-3390646D02*
G01X3076956Y-3390646D01*
G01X3073908Y-3418332D01*
G01X3076956Y-3415284D01*
G01X3086354Y-3412236D01*
G01X3095752D01*
G01X3104896Y-3415284D01*
G01X3110992Y-3421634D01*
G01X3114294Y-3430778D01*
G01Y-3437128D01*
G01X3110992Y-3446272D01*
G01X3104896Y-3452622D01*
G01X3095752Y-3455670D01*
G01X3086354D01*
G01X3076956Y-3452622D01*
G01X3073908Y-3449320D01*
G01X3070860Y-3443224D01*
G01X3144520Y-3390646D02*
G01X3169158Y-3455670D01*
G01X3194050Y-3390646D02*
G01X3169158Y-3455670D01*
G01X3584067Y-3406160D02*
G01X3581019Y-3399810D01*
G01X3574669Y-3393714D01*
G01X3568573Y-3390666D01*
G01X3556127D01*
G01X3550031Y-3393714D01*
G01X3543681Y-3399810D01*
G01X3540633Y-3406160D01*
G01X3537585Y-3415304D01*
G01Y-3430798D01*
G01X3540633Y-3440196D01*
G01X3543681Y-3446292D01*
G01X3550031Y-3452642D01*
G01X3556127Y-3455690D01*
G01X3568573D01*
G01X3574669Y-3452642D01*
G01X3581019Y-3446292D01*
G01X3584067Y-3440196D01*
G01Y-3430798D01*
G01X3568573Y-3430798D02*
G01X3584067Y-3430798D01*
G01X3614293Y-3390666D02*
G01X3614293Y-3455690D01*
G01X3614293Y-3390666D02*
G01X3657473Y-3455690D01*
G01X3657473Y-3390666D02*
G01X3657473Y-3455690D01*
G01X3687699Y-3390666D02*
G01X3687699Y-3455690D01*
G01X3687699Y-3390666D02*
G01X3709289Y-3390666D01*
G01X3718433Y-3393714D01*
G01X3724783Y-3399810D01*
G01X3727831Y-3406160D01*
G01X3730879Y-3415304D01*
G01Y-3430798D01*
G01X3727831Y-3440196D01*
G01X3724783Y-3446292D01*
G01X3718433Y-3452642D01*
G01X3709289Y-3455690D01*
G01X3687699D01*
G01X3245104Y-705134D02*
G01X3211068Y-705134D01*
G01X3229610Y-680496D01*
G01X3220212D01*
G01X3214116Y-677448D01*
G01X3211068Y-674146D01*
G01X3207766Y-665002D01*
G01Y-658652D01*
G01X3211068Y-649508D01*
G01X3217164Y-643158D01*
G01X3226308Y-640110D01*
G01X3235706D01*
G01X3245104Y-643158D01*
G01X3248152Y-646460D01*
G01X3251200Y-652556D01*
G01X3177540Y-705134D02*
G01X3152902Y-640110D01*
G01X3128010Y-705134D02*
G01X3152902Y-640110D01*
G01X3091688Y-705134D02*
G01X3057652Y-705134D01*
G01X3076194Y-680496D01*
G01X3067050D01*
G01X3060700Y-677448D01*
G01X3057652Y-674146D01*
G01X3054604Y-665002D01*
G01Y-658652D01*
G01X3057652Y-649508D01*
G01X3063748Y-643158D01*
G01X3073146Y-640110D01*
G01X3082544D01*
G01X3091688Y-643158D01*
G01X3094736Y-646460D01*
G01X3097784Y-652556D01*
G01X3689096Y-689610D02*
G01X3692144Y-695960D01*
G01X3698494Y-702056D01*
G01X3704590Y-705104D01*
G01X3717036D01*
G01X3723132Y-702056D01*
G01X3729482Y-695960D01*
G01X3732530Y-689610D01*
G01X3735578Y-680466D01*
G01Y-664972D01*
G01X3732530Y-655574D01*
G01X3729482Y-649478D01*
G01X3723132Y-643128D01*
G01X3717036Y-640080D01*
G01X3704590D01*
G01X3698494Y-643128D01*
G01X3692144Y-649478D01*
G01X3689096Y-655574D01*
G01Y-664972D01*
G01X3704590Y-664972D02*
G01X3689096Y-664972D01*
G01X3658870Y-705104D02*
G01X3658870Y-640080D01*
G01X3658870Y-705104D02*
G01X3615690Y-640080D01*
G01X3615690Y-705104D02*
G01X3615690Y-640080D01*
G01X3585464Y-705104D02*
G01X3585464Y-640080D01*
G01X3585464Y-705104D02*
G01X3563874Y-705104D01*
G01X3554730Y-702056D01*
G01X3548380Y-695960D01*
G01X3545332Y-689610D01*
G01X3542284Y-680466D01*
G01Y-664972D01*
G01X3545332Y-655574D01*
G01X3548380Y-649478D01*
G01X3554730Y-643128D01*
G01X3563874Y-640080D01*
G01X3585464D01*
G01X3437540Y-2823326D02*
G01X3437540Y-2888350D01*
G01X3437540Y-2823326D02*
G01X3477672Y-2823326D01*
G01X3437540Y-2854314D02*
G01X3462432Y-2854314D01*
G01X3507898Y-2823326D02*
G01X3507898Y-2888350D01*
G01X3507898Y-2823326D02*
G01X3535584Y-2823326D01*
G01X3544982Y-2826374D01*
G01X3548030Y-2829422D01*
G01X3551078Y-2835772D01*
G01Y-2841868D01*
G01X3548030Y-2847964D01*
G01X3544982Y-2851012D01*
G01X3535584Y-2854314D01*
G01X3507898Y-2854314D02*
G01X3535584Y-2854314D01*
G01X3544982Y-2857362D01*
G01X3548030Y-2860410D01*
G01X3551078Y-2866506D01*
G01Y-2875904D01*
G01X3548030Y-2882000D01*
G01X3544982Y-2885302D01*
G01X3535584Y-2888350D01*
G01X3507898D01*
G01X3581304Y-2835772D02*
G01X3587400Y-2832470D01*
G01X3596544Y-2823326D01*
G01Y-2888350D01*
G01X2088642Y-2542540D02*
G01X2085594Y-2536190D01*
G01X2079244Y-2530094D01*
G01X2073148Y-2527046D01*
G01X2060702D01*
G01X2054606Y-2530094D01*
G01X2048256Y-2536190D01*
G01X2045208Y-2542540D01*
G01X2042160Y-2551684D01*
G01Y-2567178D01*
G01X2045208Y-2576576D01*
G01X2048256Y-2582672D01*
G01X2054606Y-2589022D01*
G01X2060702Y-2592070D01*
G01X2073148D01*
G01X2079244Y-2589022D01*
G01X2085594Y-2582672D01*
G01X2088642Y-2576576D01*
G01X2118868Y-2539492D02*
G01X2124964Y-2536190D01*
G01X2134108Y-2527046D01*
G01Y-2592070D01*
G01X3500882Y-1744980D02*
G01X3497834Y-1738630D01*
G01X3491484Y-1732534D01*
G01X3485388Y-1729486D01*
G01X3472942D01*
G01X3466846Y-1732534D01*
G01X3460496Y-1738630D01*
G01X3457448Y-1744980D01*
G01X3454400Y-1754124D01*
G01Y-1769618D01*
G01X3457448Y-1779016D01*
G01X3460496Y-1785112D01*
G01X3466846Y-1791462D01*
G01X3472942Y-1794510D01*
G01X3485388D01*
G01X3491484Y-1791462D01*
G01X3497834Y-1785112D01*
G01X3500882Y-1779016D01*
G01X3534156Y-1744980D02*
G01X3534156Y-1741932D01*
G01X3537204Y-1735582D01*
G01X3540252Y-1732534D01*
G01X3546348Y-1729486D01*
G01X3558794D01*
G01X3565144Y-1732534D01*
G01X3568192Y-1735582D01*
G01X3571240Y-1741932D01*
G01Y-1748028D01*
G01X3568192Y-1754124D01*
G01X3561842Y-1763522D01*
G01X3531108Y-1794510D01*
G01X3574288D01*
G01X2126742Y-1247140D02*
G01X2123694Y-1240790D01*
G01X2117344Y-1234694D01*
G01X2111248Y-1231646D01*
G01X2098802D01*
G01X2092706Y-1234694D01*
G01X2086356Y-1240790D01*
G01X2083308Y-1247140D01*
G01X2080260Y-1256284D01*
G01Y-1271778D01*
G01X2083308Y-1281176D01*
G01X2086356Y-1287272D01*
G01X2092706Y-1293622D01*
G01X2098802Y-1296670D01*
G01X2111248D01*
G01X2117344Y-1293622D01*
G01X2123694Y-1287272D01*
G01X2126742Y-1281176D01*
G01X2163064Y-1231646D02*
G01X2197100Y-1231646D01*
G01X2178558Y-1256284D01*
G01X2187702D01*
G01X2194052Y-1259332D01*
G01X2197100Y-1262634D01*
G01X2200148Y-1271778D01*
G01Y-1278128D01*
G01X2197100Y-1287272D01*
G01X2191004Y-1293622D01*
G01X2181606Y-1296670D01*
G01X2172208D01*
G01X2163064Y-1293622D01*
G01X2160016Y-1290320D01*
G01X2156968Y-1284224D01*
G01X1860042Y-2420620D02*
G01X1856994Y-2414270D01*
G01X1850644Y-2408174D01*
G01X1844548Y-2405126D01*
G01X1832102D01*
G01X1826006Y-2408174D01*
G01X1819656Y-2414270D01*
G01X1816608Y-2420620D01*
G01X1813560Y-2429764D01*
G01Y-2445258D01*
G01X1816608Y-2454656D01*
G01X1819656Y-2460752D01*
G01X1826006Y-2467102D01*
G01X1832102Y-2470150D01*
G01X1844548D01*
G01X1850644Y-2467102D01*
G01X1856994Y-2460752D01*
G01X1860042Y-2454656D01*
G01X1921002Y-2405126D02*
G01X1890268Y-2448306D01*
G01X1936496D01*
G01X1921002Y-2405126D02*
G01X1921002Y-2470150D01*
G01X3284022Y-2838820D02*
G01X3280974Y-2832470D01*
G01X3274624Y-2826374D01*
G01X3268528Y-2823326D01*
G01X3256082D01*
G01X3249986Y-2826374D01*
G01X3243636Y-2832470D01*
G01X3240588Y-2838820D01*
G01X3237540Y-2847964D01*
G01Y-2863458D01*
G01X3240588Y-2872856D01*
G01X3243636Y-2878952D01*
G01X3249986Y-2885302D01*
G01X3256082Y-2888350D01*
G01X3268528D01*
G01X3274624Y-2885302D01*
G01X3280974Y-2878952D01*
G01X3284022Y-2872856D01*
G01X3357428Y-2823326D02*
G01X3326440Y-2888350D01*
G01X3314248Y-2823326D02*
G01X3357428Y-2823326D01*
G01X3564104Y-2091261D02*
G01X3561056Y-2084911D01*
G01X3554706Y-2078815D01*
G01X3548610Y-2075767D01*
G01X3536164D01*
G01X3530068Y-2078815D01*
G01X3523718Y-2084911D01*
G01X3520670Y-2091261D01*
G01X3517622Y-2100405D01*
G01Y-2115899D01*
G01X3520670Y-2125297D01*
G01X3523718Y-2131393D01*
G01X3530068Y-2137743D01*
G01X3536164Y-2140791D01*
G01X3548610D01*
G01X3554706Y-2137743D01*
G01X3561056Y-2131393D01*
G01X3564104Y-2125297D01*
G01X3609570Y-2075767D02*
G01X3600426Y-2078815D01*
G01X3597378Y-2084911D01*
G01Y-2091261D01*
G01X3600426Y-2097357D01*
G01X3606522Y-2100405D01*
G01X3618968Y-2103453D01*
G01X3628366Y-2106755D01*
G01X3634462Y-2112851D01*
G01X3637510Y-2118947D01*
G01Y-2128345D01*
G01X3634462Y-2134441D01*
G01X3631414Y-2137743D01*
G01X3622016Y-2140791D01*
G01X3609570D01*
G01X3600426Y-2137743D01*
G01X3597378Y-2134441D01*
G01X3594330Y-2128345D01*
G01Y-2118947D01*
G01X3597378Y-2112851D01*
G01X3603474Y-2106755D01*
G01X3612872Y-2103453D01*
G01X3625064Y-2100405D01*
G01X3631414Y-2097357D01*
G01X3634462Y-2091261D01*
G01Y-2084911D01*
G01X3631414Y-2078815D01*
G01X3622016Y-2075767D01*
G01X3609570D01*
G01X5708724Y-697004D02*
G01X5705676Y-690654D01*
G01X5699326Y-684558D01*
G01X5693230Y-681510D01*
G01X5680784D01*
G01X5674688Y-684558D01*
G01X5668338Y-690654D01*
G01X5665290Y-697004D01*
G01X5662242Y-706148D01*
G01Y-721642D01*
G01X5665290Y-731040D01*
G01X5668338Y-737136D01*
G01X5674688Y-743486D01*
G01X5680784Y-746534D01*
G01X5693230D01*
G01X5699326Y-743486D01*
G01X5705676Y-737136D01*
G01X5708724Y-731040D01*
G01X5779082Y-703100D02*
G01X5776034Y-712498D01*
G01X5769684Y-718594D01*
G01X5760540Y-721642D01*
G01X5757492D01*
G01X5748094Y-718594D01*
G01X5741998Y-712498D01*
G01X5738950Y-703100D01*
G01Y-700052D01*
G01X5741998Y-690654D01*
G01X5748094Y-684558D01*
G01X5757492Y-681510D01*
G01X5760540D01*
G01X5769684Y-684558D01*
G01X5776034Y-690654D01*
G01X5779082Y-703100D01*
G01Y-718594D01*
G01X5776034Y-734088D01*
G01X5769684Y-743486D01*
G01X5760540Y-746534D01*
G01X5754190D01*
G01X5745046Y-743486D01*
G01X5741998Y-737136D01*
G01X2294462Y-3072230D02*
G01X2291414Y-3065880D01*
G01X2285064Y-3059784D01*
G01X2278968Y-3056736D01*
G01X2266522D01*
G01X2260426Y-3059784D01*
G01X2254076Y-3065880D01*
G01X2251028Y-3072230D01*
G01X2247980Y-3081374D01*
G01Y-3096868D01*
G01X2251028Y-3106266D01*
G01X2254076Y-3112362D01*
G01X2260426Y-3118712D01*
G01X2266522Y-3121760D01*
G01X2278968D01*
G01X2285064Y-3118712D01*
G01X2291414Y-3112362D01*
G01X2294462Y-3106266D01*
G01X2324688Y-3069182D02*
G01X2330784Y-3065880D01*
G01X2339928Y-3056736D01*
G01Y-3121760D01*
G01X2388696Y-3056736D02*
G01X2379298Y-3059784D01*
G01X2373202Y-3069182D01*
G01X2370154Y-3084422D01*
G01Y-3093820D01*
G01X2373202Y-3109314D01*
G01X2379298Y-3118712D01*
G01X2388696Y-3121760D01*
G01X2394792D01*
G01X2404190Y-3118712D01*
G01X2410286Y-3109314D01*
G01X2413334Y-3093820D01*
G01Y-3084422D01*
G01X2410286Y-3069182D01*
G01X2404190Y-3059784D01*
G01X2394792Y-3056736D01*
G01X2388696D01*
G01X2959942Y-3071300D02*
G01X2956894Y-3064950D01*
G01X2950544Y-3058854D01*
G01X2944448Y-3055806D01*
G01X2932002D01*
G01X2925906Y-3058854D01*
G01X2919556Y-3064950D01*
G01X2916508Y-3071300D01*
G01X2913460Y-3080444D01*
G01Y-3095938D01*
G01X2916508Y-3105336D01*
G01X2919556Y-3111432D01*
G01X2925906Y-3117782D01*
G01X2932002Y-3120830D01*
G01X2944448D01*
G01X2950544Y-3117782D01*
G01X2956894Y-3111432D01*
G01X2959942Y-3105336D01*
G01X2990168Y-3068252D02*
G01X2996264Y-3064950D01*
G01X3005408Y-3055806D01*
G01Y-3120830D01*
G01X3035634Y-3068252D02*
G01X3041730Y-3064950D01*
G01X3050874Y-3055806D01*
G01Y-3120830D01*
G01X3361242Y-1281260D02*
G01X3358194Y-1274910D01*
G01X3351844Y-1268814D01*
G01X3345748Y-1265766D01*
G01X3333302D01*
G01X3327206Y-1268814D01*
G01X3320856Y-1274910D01*
G01X3317808Y-1281260D01*
G01X3314760Y-1290404D01*
G01Y-1305898D01*
G01X3317808Y-1315296D01*
G01X3320856Y-1321392D01*
G01X3327206Y-1327742D01*
G01X3333302Y-1330790D01*
G01X3345748D01*
G01X3351844Y-1327742D01*
G01X3358194Y-1321392D01*
G01X3361242Y-1315296D01*
G01X3391468Y-1278212D02*
G01X3397564Y-1274910D01*
G01X3406708Y-1265766D01*
G01Y-1330790D01*
G01X3467668Y-1265766D02*
G01X3436934Y-1308946D01*
G01X3483162D01*
G01X3467668Y-1265766D02*
G01X3467668Y-1330790D01*
G01X3134102Y-1281260D02*
G01X3131054Y-1274910D01*
G01X3124704Y-1268814D01*
G01X3118608Y-1265766D01*
G01X3106162D01*
G01X3100066Y-1268814D01*
G01X3093716Y-1274910D01*
G01X3090668Y-1281260D01*
G01X3087620Y-1290404D01*
G01Y-1305898D01*
G01X3090668Y-1315296D01*
G01X3093716Y-1321392D01*
G01X3100066Y-1327742D01*
G01X3106162Y-1330790D01*
G01X3118608D01*
G01X3124704Y-1327742D01*
G01X3131054Y-1321392D01*
G01X3134102Y-1315296D01*
G01X3164328Y-1278212D02*
G01X3170424Y-1274910D01*
G01X3179568Y-1265766D01*
G01Y-1330790D01*
G01X3246878Y-1265766D02*
G01X3215890Y-1265766D01*
G01X3212842Y-1293452D01*
G01X3215890Y-1290404D01*
G01X3225034Y-1287356D01*
G01X3234432D01*
G01X3243830Y-1290404D01*
G01X3249926Y-1296754D01*
G01X3252974Y-1305898D01*
G01Y-1312248D01*
G01X3249926Y-1321392D01*
G01X3243830Y-1327742D01*
G01X3234432Y-1330790D01*
G01X3225034D01*
G01X3215890Y-1327742D01*
G01X3212842Y-1324440D01*
G01X3209794Y-1318344D01*
G01X2616280Y-3012626D02*
G01X2659714Y-3077650D01*
G01X2659714Y-3012626D02*
G01X2616280Y-3077650D01*
G01X2689940Y-3025072D02*
G01X2696036Y-3021770D01*
G01X2705180Y-3012626D01*
G01Y-3077650D01*
G01X1361440Y-2595626D02*
G01X1361440Y-2660650D01*
G01X1361440Y-2595626D02*
G01X1389380Y-2595626D01*
G01X1398524Y-2598674D01*
G01X1401572Y-2601722D01*
G01X1404874Y-2608072D01*
G01Y-2614168D01*
G01X1401572Y-2620264D01*
G01X1398524Y-2623312D01*
G01X1389380Y-2626614D01*
G01X1361440D01*
G01X1383030Y-2626614D02*
G01X1404874Y-2660650D01*
G01X1435100Y-2608072D02*
G01X1441196Y-2604770D01*
G01X1450340Y-2595626D01*
G01Y-2660650D01*
G01X4988057Y-587432D02*
G01X4988057Y-652456D01*
G01X4988057Y-587432D02*
G01X5015997Y-587432D01*
G01X5025141Y-590480D01*
G01X5028189Y-593528D01*
G01X5031491Y-599878D01*
G01Y-605974D01*
G01X5028189Y-612070D01*
G01X5025141Y-615118D01*
G01X5015997Y-618420D01*
G01X4988057D01*
G01X5009647Y-618420D02*
G01X5031491Y-652456D01*
G01X5098801Y-596576D02*
G01X5095753Y-590480D01*
G01X5086355Y-587432D01*
G01X5080259D01*
G01X5070861Y-590480D01*
G01X5064765Y-599878D01*
G01X5061717Y-615118D01*
G01Y-630612D01*
G01X5064765Y-643058D01*
G01X5070861Y-649408D01*
G01X5080259Y-652456D01*
G01X5083307D01*
G01X5092451Y-649408D01*
G01X5098801Y-643058D01*
G01X5101849Y-633914D01*
G01Y-630612D01*
G01X5098801Y-621468D01*
G01X5092451Y-615118D01*
G01X5083307Y-612070D01*
G01X5080259D01*
G01X5070861Y-615118D01*
G01X5064765Y-621468D01*
G01X5061717Y-630612D01*
G01X3792220Y-2549906D02*
G01X3792220Y-2614930D01*
G01X3792220Y-2549906D02*
G01X3820160Y-2549906D01*
G01X3829304Y-2552954D01*
G01X3832352Y-2556002D01*
G01X3835654Y-2562352D01*
G01Y-2568448D01*
G01X3832352Y-2574544D01*
G01X3829304Y-2577592D01*
G01X3820160Y-2580894D01*
G01X3792220D01*
G01X3813810Y-2580894D02*
G01X3835654Y-2614930D01*
G01X3871976Y-2549906D02*
G01X3906012Y-2549906D01*
G01X3887470Y-2574544D01*
G01X3896614D01*
G01X3902964Y-2577592D01*
G01X3906012Y-2580894D01*
G01X3909060Y-2590038D01*
G01Y-2596388D01*
G01X3906012Y-2605532D01*
G01X3899916Y-2611882D01*
G01X3890518Y-2614930D01*
G01X3881120D01*
G01X3871976Y-2611882D01*
G01X3868928Y-2608580D01*
G01X3865880Y-2602484D01*
G01X4720766Y-1320345D02*
G01X4785790Y-1320345D01*
G01X4720766Y-1320345D02*
G01X4720766Y-1292405D01*
G01X4723814Y-1283261D01*
G01X4726862Y-1280213D01*
G01X4733212Y-1276911D01*
G01X4739308D01*
G01X4745404Y-1280213D01*
G01X4748452Y-1283261D01*
G01X4751754Y-1292405D01*
G01Y-1320345D01*
G01X4751754Y-1298755D02*
G01X4785790Y-1276911D01*
G01X4742356Y-1206553D02*
G01X4751754Y-1209601D01*
G01X4757850Y-1215951D01*
G01X4760898Y-1225095D01*
G01Y-1228143D01*
G01X4757850Y-1237541D01*
G01X4751754Y-1243637D01*
G01X4742356Y-1246685D01*
G01X4739308D01*
G01X4729910Y-1243637D01*
G01X4723814Y-1237541D01*
G01X4720766Y-1228143D01*
G01Y-1225095D01*
G01X4723814Y-1215951D01*
G01X4729910Y-1209601D01*
G01X4742356Y-1206553D01*
G01X4757850D01*
G01X4773344Y-1209601D01*
G01X4782742Y-1215951D01*
G01X4785790Y-1225095D01*
G01Y-1231445D01*
G01X4782742Y-1240589D01*
G01X4776392Y-1243637D01*
G01X717620Y-1635767D02*
G01X717620Y-1700791D01*
G01X717620Y-1635767D02*
G01X745560Y-1635767D01*
G01X754704Y-1638815D01*
G01X757752Y-1641863D01*
G01X761054Y-1648213D01*
G01Y-1654309D01*
G01X757752Y-1660405D01*
G01X754704Y-1663453D01*
G01X745560Y-1666755D01*
G01X717620D01*
G01X739210Y-1666755D02*
G01X761054Y-1700791D01*
G01X822014Y-1635767D02*
G01X791280Y-1678947D01*
G01X837508D01*
G01X822014Y-1635767D02*
G01X822014Y-1700791D01*
G01X782320Y-2252726D02*
G01X782320Y-2317750D01*
G01X782320Y-2252726D02*
G01X810260Y-2252726D01*
G01X819404Y-2255774D01*
G01X822452Y-2258822D01*
G01X825754Y-2265172D01*
G01Y-2271268D01*
G01X822452Y-2277364D01*
G01X819404Y-2280412D01*
G01X810260Y-2283714D01*
G01X782320D01*
G01X803910Y-2283714D02*
G01X825754Y-2317750D01*
G01X893064Y-2252726D02*
G01X862076Y-2252726D01*
G01X859028Y-2280412D01*
G01X862076Y-2277364D01*
G01X871220Y-2274316D01*
G01X880618D01*
G01X890016Y-2277364D01*
G01X896112Y-2283714D01*
G01X899160Y-2292858D01*
G01Y-2299208D01*
G01X896112Y-2308352D01*
G01X890016Y-2314702D01*
G01X880618Y-2317750D01*
G01X871220D01*
G01X862076Y-2314702D01*
G01X859028Y-2311400D01*
G01X855980Y-2305304D01*
G01X3077042Y-2333760D02*
G01X3073994Y-2327410D01*
G01X3067644Y-2321314D01*
G01X3061548Y-2318266D01*
G01X3049102D01*
G01X3043006Y-2321314D01*
G01X3036656Y-2327410D01*
G01X3033608Y-2333760D01*
G01X3030560Y-2342904D01*
G01Y-2358398D01*
G01X3033608Y-2367796D01*
G01X3036656Y-2373892D01*
G01X3043006Y-2380242D01*
G01X3049102Y-2383290D01*
G01X3061548D01*
G01X3067644Y-2380242D01*
G01X3073994Y-2373892D01*
G01X3077042Y-2367796D01*
G01X3144352Y-2327410D02*
G01X3141304Y-2321314D01*
G01X3131906Y-2318266D01*
G01X3125810D01*
G01X3116412Y-2321314D01*
G01X3110316Y-2330712D01*
G01X3107268Y-2345952D01*
G01Y-2361446D01*
G01X3110316Y-2373892D01*
G01X3116412Y-2380242D01*
G01X3125810Y-2383290D01*
G01X3128858D01*
G01X3138002Y-2380242D01*
G01X3144352Y-2373892D01*
G01X3147400Y-2364748D01*
G01Y-2361446D01*
G01X3144352Y-2352302D01*
G01X3138002Y-2345952D01*
G01X3128858Y-2342904D01*
G01X3125810D01*
G01X3116412Y-2345952D01*
G01X3110316Y-2352302D01*
G01X3107268Y-2361446D01*
G01X4504106Y-3211264D02*
G01X4501058Y-3204914D01*
G01X4494708Y-3198818D01*
G01X4488612Y-3195770D01*
G01X4476166D01*
G01X4470070Y-3198818D01*
G01X4463720Y-3204914D01*
G01X4460672Y-3211264D01*
G01X4457624Y-3220408D01*
G01Y-3235902D01*
G01X4460672Y-3245300D01*
G01X4463720Y-3251396D01*
G01X4470070Y-3257746D01*
G01X4476166Y-3260794D01*
G01X4488612D01*
G01X4494708Y-3257746D01*
G01X4501058Y-3251396D01*
G01X4504106Y-3245300D01*
G01X4534332Y-3208216D02*
G01X4540428Y-3204914D01*
G01X4549572Y-3195770D01*
G01Y-3260794D01*
G01X4582846Y-3211264D02*
G01X4582846Y-3208216D01*
G01X4585894Y-3201866D01*
G01X4588942Y-3198818D01*
G01X4595038Y-3195770D01*
G01X4607484D01*
G01X4613834Y-3198818D01*
G01X4616882Y-3201866D01*
G01X4619930Y-3208216D01*
G01Y-3214312D01*
G01X4616882Y-3220408D01*
G01X4610532Y-3229806D01*
G01X4579798Y-3260794D01*
G01X4622978D01*
G01X4044442Y-3086100D02*
G01X4041394Y-3079750D01*
G01X4035044Y-3073654D01*
G01X4028948Y-3070606D01*
G01X4016502D01*
G01X4010406Y-3073654D01*
G01X4004056Y-3079750D01*
G01X4001008Y-3086100D01*
G01X3997960Y-3095244D01*
G01Y-3110738D01*
G01X4001008Y-3120136D01*
G01X4004056Y-3126232D01*
G01X4010406Y-3132582D01*
G01X4016502Y-3135630D01*
G01X4028948D01*
G01X4035044Y-3132582D01*
G01X4041394Y-3126232D01*
G01X4044442Y-3120136D01*
G01X4074668Y-3083052D02*
G01X4080764Y-3079750D01*
G01X4089908Y-3070606D01*
G01Y-3135630D01*
G01X4126230Y-3070606D02*
G01X4160266Y-3070606D01*
G01X4141724Y-3095244D01*
G01X4150868D01*
G01X4157218Y-3098292D01*
G01X4160266Y-3101594D01*
G01X4163314Y-3110738D01*
G01Y-3117088D01*
G01X4160266Y-3126232D01*
G01X4154170Y-3132582D01*
G01X4144772Y-3135630D01*
G01X4135374D01*
G01X4126230Y-3132582D01*
G01X4123182Y-3129280D01*
G01X4120134Y-3123184D01*
G01X4983266Y-2582381D02*
G01X5048290Y-2582381D01*
G01X4983266Y-2582381D02*
G01X4983266Y-2554441D01*
G01X4986314Y-2545297D01*
G01X4989362Y-2542249D01*
G01X4995712Y-2538947D01*
G01X5001808D01*
G01X5007904Y-2542249D01*
G01X5010952Y-2545297D01*
G01X5014254Y-2554441D01*
G01Y-2582381D01*
G01X5014254Y-2560791D02*
G01X5048290Y-2538947D01*
G01X4995712Y-2508721D02*
G01X4992410Y-2502625D01*
G01X4983266Y-2493481D01*
G01X5048290D01*
G01X4983266Y-2444713D02*
G01X4986314Y-2454111D01*
G01X4995712Y-2460207D01*
G01X5010952Y-2463255D01*
G01X5020350D01*
G01X5035844Y-2460207D01*
G01X5045242Y-2454111D01*
G01X5048290Y-2444713D01*
G01Y-2438617D01*
G01X5045242Y-2429219D01*
G01X5035844Y-2423123D01*
G01X5020350Y-2420075D01*
G01X5010952D01*
G01X4995712Y-2423123D01*
G01X4986314Y-2429219D01*
G01X4983266Y-2438617D01*
G01Y-2444713D01*
G01X4983226Y-1696720D02*
G01X5048250Y-1696720D01*
G01X4983226Y-1696720D02*
G01X4983226Y-1668780D01*
G01X4986274Y-1659636D01*
G01X4989322Y-1656588D01*
G01X4995672Y-1653286D01*
G01X5001768D01*
G01X5007864Y-1656588D01*
G01X5010912Y-1659636D01*
G01X5014214Y-1668780D01*
G01Y-1696720D01*
G01X5014214Y-1675130D02*
G01X5048250Y-1653286D01*
G01X4995672Y-1623060D02*
G01X4992370Y-1616964D01*
G01X4983226Y-1607820D01*
G01X5048250D01*
G01X4995672Y-1577594D02*
G01X4992370Y-1571498D01*
G01X4983226Y-1562354D01*
G01X5048250D01*
G01X2013624Y-2778045D02*
G01X1948600Y-2778045D01*
G01X2013624Y-2778045D02*
G01X2013624Y-2805985D01*
G01X2010576Y-2815129D01*
G01X2007528Y-2818177D01*
G01X2001178Y-2821479D01*
G01X1995082D01*
G01X1988986Y-2818177D01*
G01X1985938Y-2815129D01*
G01X1982636Y-2805985D01*
G01Y-2778045D01*
G01X1982636Y-2799635D02*
G01X1948600Y-2821479D01*
G01X2001178Y-2851705D02*
G01X2004480Y-2857801D01*
G01X2013624Y-2866945D01*
G01X1948600D01*
G01X1998130Y-2900219D02*
G01X2001178Y-2900219D01*
G01X2007528Y-2903267D01*
G01X2010576Y-2906315D01*
G01X2013624Y-2912411D01*
G01Y-2924857D01*
G01X2010576Y-2931207D01*
G01X2007528Y-2934255D01*
G01X2001178Y-2937303D01*
G01X1995082D01*
G01X1988986Y-2934255D01*
G01X1979588Y-2927905D01*
G01X1948600Y-2897171D01*
G01Y-2940351D01*
G01X2015743Y-3018045D02*
G01X1950719Y-3018045D01*
G01X2015743Y-3018045D02*
G01X2015743Y-3045985D01*
G01X2012695Y-3055129D01*
G01X2009647Y-3058177D01*
G01X2003297Y-3061479D01*
G01X1997201D01*
G01X1991105Y-3058177D01*
G01X1988057Y-3055129D01*
G01X1984755Y-3045985D01*
G01Y-3018045D01*
G01X1984755Y-3039635D02*
G01X1950719Y-3061479D01*
G01X2003297Y-3091705D02*
G01X2006599Y-3097801D01*
G01X2015743Y-3106945D01*
G01X1950719D01*
G01X2015743Y-3143267D02*
G01X2015743Y-3177303D01*
G01X1991105Y-3158761D01*
G01Y-3167905D01*
G01X1988057Y-3174255D01*
G01X1984755Y-3177303D01*
G01X1975611Y-3180351D01*
G01X1969261D01*
G01X1960117Y-3177303D01*
G01X1953767Y-3171207D01*
G01X1950719Y-3161809D01*
G01Y-3152411D01*
G01X1953767Y-3143267D01*
G01X1957069Y-3140219D01*
G01X1963165Y-3137171D01*
G01X3045460Y-1414526D02*
G01X3045460Y-1461008D01*
G01X3048508Y-1470152D01*
G01X3054858Y-1476502D01*
G01X3064002Y-1479550D01*
G01X3070352D01*
G01X3079496Y-1476502D01*
G01X3085592Y-1470152D01*
G01X3088894Y-1461008D01*
G01Y-1414526D01*
G01X3119120Y-1426972D02*
G01X3125216Y-1423670D01*
G01X3134360Y-1414526D01*
G01Y-1479550D01*
G01X2124202Y-1028700D02*
G01X2121154Y-1022350D01*
G01X2114804Y-1016254D01*
G01X2108708Y-1013206D01*
G01X2096262D01*
G01X2090166Y-1016254D01*
G01X2083816Y-1022350D01*
G01X2080768Y-1028700D01*
G01X2077720Y-1037844D01*
G01Y-1053338D01*
G01X2080768Y-1062736D01*
G01X2083816Y-1068832D01*
G01X2090166Y-1075182D01*
G01X2096262Y-1078230D01*
G01X2108708D01*
G01X2114804Y-1075182D01*
G01X2121154Y-1068832D01*
G01X2124202Y-1062736D01*
G01X2191512Y-1013206D02*
G01X2160524Y-1013206D01*
G01X2157476Y-1040892D01*
G01X2160524Y-1037844D01*
G01X2169668Y-1034796D01*
G01X2179066D01*
G01X2188464Y-1037844D01*
G01X2194560Y-1044194D01*
G01X2197608Y-1053338D01*
G01Y-1059688D01*
G01X2194560Y-1068832D01*
G01X2188464Y-1075182D01*
G01X2179066Y-1078230D01*
G01X2169668D01*
G01X2160524Y-1075182D01*
G01X2157476Y-1071880D01*
G01X2154428Y-1065784D01*
G04 Text End*

G04 PolygonModel Start*
G54D12*
G01X3415601Y-2634686D02*
G01X3415601Y-2748986D01*
G01X3415601Y-2748986D02*
G01X3415601Y-2761686D01*
G01X3415601Y-2761686D02*
G01X3441001Y-2787086D01*
G01X3441001Y-2787086D02*
G01X3580701Y-2787086D01*
G01X3580701Y-2787086D02*
G01X3593401Y-2787086D01*
G01X3593401Y-2787086D02*
G01X3618801Y-2761686D01*
G01X3618801Y-2761686D02*
G01X3618801Y-2634686D01*
G01X3618801Y-2558486D02*
G01X3618801Y-2444186D01*
G01X3618801Y-2444186D02*
G01X3618801Y-2431486D01*
G01X3618801Y-2431486D02*
G01X3593401Y-2406086D01*
G01X3593401Y-2406086D02*
G01X3453701Y-2406086D01*
G01X3453701Y-2406086D02*
G01X3441001Y-2406086D01*
G01X3441001Y-2406086D02*
G01X3415601Y-2431486D01*
G01X3415601Y-2431486D02*
G01X3415601Y-2558486D01*
G54D11*
G01X2206778Y-2602860D02*
G01X2347778Y-2602860D01*
G01X2347778Y-2422139D02*
G01X2206778Y-2422139D01*
G01X2191538Y-2437379D02*
G01X2191538Y-2587620D01*
G01X2569017Y-2602860D02*
G01X2428017Y-2602860D01*
G01X2428017Y-2422139D02*
G01X2569017Y-2422139D01*
G01X2584257Y-2437379D02*
G01X2584257Y-2587620D01*
G01X2206778Y-2422139D02*
G03X2191538Y-2437379I0J-15240D01*
G01X2191538Y-2587620D02*
G03X2206778Y-2602860I15240J0D01*
G01X2569017Y-2422139D02*
G02X2584257Y-2437379I0J-15240D01*
G01X2584257Y-2587620D02*
G02X2569017Y-2602860I-15240J0D01*
G01X3417980Y-1793200D02*
G01X3417980Y-1652199D01*
G01X3237259Y-1652199D02*
G01X3237259Y-1793200D01*
G01X3252499Y-1808440D02*
G01X3402740Y-1808440D01*
G01X3417980Y-1430960D02*
G01X3417980Y-1571961D01*
G01X3237259Y-1571961D02*
G01X3237259Y-1430960D01*
G01X3252499Y-1415720D02*
G01X3402740Y-1415720D01*
G01X3237259Y-1793200D02*
G03X3252499Y-1808440I15240J0D01*
G01X3402740Y-1808440D02*
G03X3417980Y-1793200I0J15240D01*
G01X3237259Y-1430960D02*
G02X3252499Y-1415720I15240J0D01*
G01X3402740Y-1415720D02*
G02X3417980Y-1430960I0J-15240D01*
G01X2611040Y-1166936D02*
G01X2470039Y-1166936D01*
G01X2470039Y-1347657D02*
G01X2611040Y-1347657D01*
G01X2626280Y-1332417D02*
G01X2626280Y-1182176D01*
G01X2248800Y-1166936D02*
G01X2389801Y-1166936D01*
G01X2389801Y-1347657D02*
G01X2248800Y-1347657D01*
G01X2233560Y-1332417D02*
G01X2233560Y-1182176D01*
G01X2611040Y-1347657D02*
G03X2626280Y-1332417I0J15240D01*
G01X2626280Y-1182176D02*
G03X2611040Y-1166936I-15240J0D01*
G01X2248800Y-1347657D02*
G02X2233560Y-1332417I0J15240D01*
G01X2233560Y-1182176D02*
G02X2248800Y-1166936I15240J0D01*
G01X1964579Y-2098740D02*
G01X1964579Y-2239741D01*
G01X2145300Y-2239741D02*
G01X2145300Y-2098740D01*
G01X2130060Y-2083500D02*
G01X1979819Y-2083500D01*
G01X1964579Y-2460980D02*
G01X1964579Y-2319979D01*
G01X2145300Y-2319979D02*
G01X2145300Y-2460980D01*
G01X2130060Y-2476220D02*
G01X1979819Y-2476220D01*
G01X2145300Y-2098740D02*
G03X2130060Y-2083500I-15240J0D01*
G01X1979819Y-2083500D02*
G03X1964579Y-2098740I0J-15240D01*
G01X2145300Y-2460980D02*
G02X2130060Y-2476220I-15240J0D01*
G01X1979819Y-2476220D02*
G02X1964579Y-2460980I0J15240D01*
G01X3214560Y-2411440D02*
G01X3214560Y-2552441D01*
G01X3395281Y-2552441D02*
G01X3395281Y-2411440D01*
G01X3380041Y-2396200D02*
G01X3229800Y-2396200D01*
G01X3214560Y-2773680D02*
G01X3214560Y-2632680D01*
G01X3395281Y-2632680D02*
G01X3395281Y-2773680D01*
G01X3380041Y-2788920D02*
G01X3229800Y-2788920D01*
G01X3395281Y-2411440D02*
G03X3380041Y-2396200I-15240J0D01*
G01X3229800Y-2396200D02*
G03X3214560Y-2411440I0J-15240D01*
G01X3395281Y-2773680D02*
G02X3380041Y-2788920I-15240J0D01*
G01X3229800Y-2788920D02*
G02X3214560Y-2773680I0J15240D01*
G01X3183800Y-2370221D02*
G01X3324801Y-2370221D01*
G01X3324801Y-2189500D02*
G01X3183800Y-2189500D01*
G01X3168560Y-2204740D02*
G01X3168560Y-2354981D01*
G01X3546040Y-2370221D02*
G01X3405039Y-2370221D01*
G01X3405039Y-2189500D02*
G01X3546040Y-2189500D01*
G01X3561280Y-2204740D02*
G01X3561280Y-2354981D01*
G01X3183800Y-2189500D02*
G03X3168560Y-2204740I0J-15240D01*
G01X3168560Y-2354981D02*
G03X3183800Y-2370221I15240J0D01*
G01X3546040Y-2189500D02*
G02X3561280Y-2204740I0J-15240D01*
G01X3561280Y-2354981D02*
G02X3546040Y-2370221I-15240J0D01*
G01X5797741Y-633240D02*
G01X5797741Y-492239D01*
G01X5617020Y-492239D02*
G01X5617020Y-633240D01*
G01X5632260Y-648480D02*
G01X5782501Y-648480D01*
G01X5797741Y-271000D02*
G01X5797741Y-412001D01*
G01X5617020Y-412001D02*
G01X5617020Y-271000D01*
G01X5632260Y-255760D02*
G01X5782501Y-255760D01*
G01X5617020Y-633240D02*
G03X5632260Y-648480I15240J0D01*
G01X5782501Y-648480D02*
G03X5797741Y-633240I0J15240D01*
G01X5617020Y-271000D02*
G02X5632260Y-255760I15240J0D01*
G01X5782501Y-255760D02*
G02X5797741Y-271000I0J-15240D01*
G01X2242559Y-2648880D02*
G01X2242559Y-2789881D01*
G01X2423280Y-2789881D02*
G01X2423280Y-2648880D01*
G01X2408040Y-2633640D02*
G01X2257799Y-2633640D01*
G01X2242559Y-3011120D02*
G01X2242559Y-2870119D01*
G01X2423280Y-2870119D02*
G01X2423280Y-3011120D01*
G01X2408040Y-3026360D02*
G01X2257799Y-3026360D01*
G01X2423280Y-2648880D02*
G03X2408040Y-2633640I-15240J0D01*
G01X2257799Y-2633640D02*
G03X2242559Y-2648880I0J-15240D01*
G01X2423280Y-3011120D02*
G02X2408040Y-3026360I-15240J0D01*
G01X2257799Y-3026360D02*
G02X2242559Y-3011120I0J15240D01*
G01X3080265Y-3011120D02*
G01X3080265Y-2870119D01*
G01X2899544Y-2870119D02*
G01X2899544Y-3011120D01*
G01X2914784Y-3026360D02*
G01X3065025Y-3026360D01*
G01X3080265Y-2648880D02*
G01X3080265Y-2789881D01*
G01X2899544Y-2789881D02*
G01X2899544Y-2648880D01*
G01X2914784Y-2633640D02*
G01X3065025Y-2633640D01*
G01X2899544Y-3011120D02*
G03X2914784Y-3026360I15240J0D01*
G01X3065025Y-3026360D02*
G03X3080265Y-3011120I0J15240D01*
G01X2899544Y-2648880D02*
G02X2914784Y-2633640I15240J0D01*
G01X3065025Y-2633640D02*
G02X3080265Y-2648880I0J-15240D01*
G01X3306779Y-853006D02*
G01X3306779Y-994007D01*
G01X3487500Y-994007D02*
G01X3487500Y-853006D01*
G01X3472260Y-837766D02*
G01X3322019Y-837766D01*
G01X3306779Y-1215246D02*
G01X3306779Y-1074246D01*
G01X3487500Y-1074246D02*
G01X3487500Y-1215246D01*
G01X3472260Y-1230486D02*
G01X3322019Y-1230486D01*
G01X3487500Y-853006D02*
G03X3472260Y-837766I-15240J0D01*
G01X3322019Y-837766D02*
G03X3306779Y-853006I0J-15240D01*
G01X3487500Y-1215246D02*
G02X3472260Y-1230486I-15240J0D01*
G01X3322019Y-1230486D02*
G02X3306779Y-1215246I0J15240D01*
G01X3083664Y-853006D02*
G01X3083664Y-994007D01*
G01X3264385Y-994007D02*
G01X3264385Y-853006D01*
G01X3249145Y-837766D02*
G01X3098904Y-837766D01*
G01X3083664Y-1215246D02*
G01X3083664Y-1074246D01*
G01X3264385Y-1074246D02*
G01X3264385Y-1215246D01*
G01X3249145Y-1230486D02*
G01X3098904Y-1230486D01*
G01X3264385Y-853006D02*
G03X3249145Y-837766I-15240J0D01*
G01X3098904Y-837766D02*
G03X3083664Y-853006I0J-15240D01*
G01X3264385Y-1215246D02*
G02X3249145Y-1230486I-15240J0D01*
G01X3098904Y-1230486D02*
G02X3083664Y-1215246I0J15240D01*
G01X5510265Y-491459D02*
G01X5105023Y-491459D01*
G01X5105023Y-491459D02*
G01X5105023Y-425660D01*
G01X5510265Y-183220D02*
G01X5105023Y-183220D01*
G01X5105023Y-183220D02*
G01X5105023Y-249019D01*
G36*
G01X5502645Y-499079D02*
G01X5502645Y-420580D01*
G01X5533125D01*
G01Y-499079D01*
G01X5502645D01*
G37*
G36*
G01X5502645Y-175600D02*
G01X5502645Y-254099D01*
G01X5533125D01*
G01Y-175600D01*
G01X5502645D01*
G37*
G54D12*
G01X5046404Y-1047679D02*
G01X4960003Y-1047679D01*
G01X4960003Y-1047679D02*
G01X4960003Y-947677D01*
G01X5141400Y-907680D02*
G01X5078606Y-907680D01*
G01X5260002Y-1047679D02*
G01X5173602Y-1047679D01*
G01X5260002Y-1047679D02*
G01X5260002Y-947677D01*
G01X5726000Y-820001D02*
G01X5975999Y-820001D01*
G01X5975999Y-820001D02*
G01X5975999Y-1579999D01*
G01X5975999Y-1579999D02*
G01X5726000Y-1579999D01*
G01X5726000Y-1579999D02*
G01X5726000Y-820001D01*
G01X6005999Y-983183D02*
G01X6565630Y-983183D01*
G01X6005999Y-897092D02*
G01X6567898Y-897092D01*
G01X6005999Y-983183D02*
G01X6565630Y-983183D01*
G01X6565630Y-983183D02*
G01X6605998Y-942812D01*
G01X6005999Y-897092D02*
G01X6567898Y-897092D01*
G01X6567898Y-897092D02*
G01X6605998Y-935192D01*
G01X6005999Y-1237089D02*
G01X6565630Y-1237089D01*
G01X6565630Y-1237089D02*
G01X6605998Y-1196718D01*
G01X6005999Y-1150998D02*
G01X6567898Y-1150998D01*
G01X6567898Y-1150998D02*
G01X6605998Y-1189098D01*
G01X6005999Y-1497091D02*
G01X6565630Y-1497091D01*
G01X6005999Y-1411000D02*
G01X6567898Y-1411000D01*
G01X6005999Y-1497091D02*
G01X6565630Y-1497091D01*
G01X6565630Y-1497091D02*
G01X6605998Y-1456723D01*
G01X6005999Y-1411000D02*
G01X6567898Y-1411000D01*
G01X6567898Y-1411000D02*
G01X6605998Y-1449100D01*
G54D10*
G01X2433400Y-2948293D02*
G01X2433400Y-2999093D01*
G01X2433400Y-2999093D02*
G01X2484200Y-2999093D01*
G54D11*
G01X2459054Y-2976475D02*
G01X2459054Y-2643481D01*
G01X2459054Y-2643481D02*
G01X2865200Y-2643493D01*
G01X2865200Y-2643493D02*
G01X2865200Y-2808593D01*
G01X2865200Y-2808593D02*
G01X2865200Y-2973693D01*
G01X2865200Y-2973693D02*
G01X2459054Y-2976475D01*
G01X4204938Y-2103178D02*
G01X4204938Y-2728419D01*
G01X4880177Y-2103178D02*
G01X4880177Y-2728419D01*
G01X4204938Y-2728419D02*
G01X4880177Y-2728419D01*
G01X1708780Y-2723149D02*
G01X1837273Y-2723149D01*
G01X1837273Y-2723149D02*
G01X1837273Y-2539731D01*
G01X1837273Y-2539731D02*
G01X1708780Y-2539731D01*
G01X1613540Y-2723149D02*
G01X1485047Y-2723149D01*
G01X1485047Y-2723149D02*
G01X1485047Y-2539731D01*
G01X1485047Y-2539731D02*
G01X1613540Y-2539731D01*
G01X5260024Y-528291D02*
G01X5131531Y-528291D01*
G01X5131531Y-528291D02*
G01X5131531Y-711710D01*
G01X5131531Y-711710D02*
G01X5260024Y-711710D01*
G01X5355264Y-528291D02*
G01X5483758Y-528291D01*
G01X5483758Y-528291D02*
G01X5483758Y-711710D01*
G01X5483758Y-711710D02*
G01X5355264Y-711710D01*
G01X3941711Y-2282487D02*
G01X3941711Y-2153993D01*
G01X3941711Y-2153993D02*
G01X3758293Y-2153993D01*
G01X3758293Y-2153993D02*
G01X3758293Y-2282487D01*
G01X3941711Y-2377727D02*
G01X3941711Y-2506220D01*
G01X3941711Y-2506220D02*
G01X3758293Y-2506220D01*
G01X3758293Y-2506220D02*
G01X3758293Y-2377727D01*
G01X5047623Y-1352737D02*
G01X5176116Y-1352737D01*
G01X5176116Y-1352737D02*
G01X5176116Y-1169319D01*
G01X5176116Y-1169319D02*
G01X5047623Y-1169319D01*
G01X4952383Y-1352737D02*
G01X4823889Y-1352737D01*
G01X4823889Y-1352737D02*
G01X4823889Y-1169319D01*
G01X4823889Y-1169319D02*
G01X4952383Y-1169319D01*
G54D13*
G01X1643130Y-997931D02*
G01X1675901Y-997931D01*
G01X1675901Y-997931D02*
G01X1688601Y-997931D01*
G01X1688601Y-997931D02*
G01X1688601Y-1112231D01*
G01X1231401Y-1117418D02*
G01X1231401Y-997931D01*
G01X1231401Y-997931D02*
G01X1277301Y-997931D01*
G01X1277301Y-1302731D02*
G01X1231401Y-1302731D01*
G01X1231401Y-1302731D02*
G01X1231401Y-1183247D01*
G01X1688601Y-1188431D02*
G01X1688601Y-1302731D01*
G01X1688601Y-1302731D02*
G01X1643130Y-1302731D01*
G54D12*
G01X1681458Y-2248618D02*
G01X1591458Y-2248618D01*
G01X1377181Y-2248618D02*
G01X1467181Y-2248618D01*
G01X1681458Y-2187640D02*
G01X1681458Y-2248618D01*
G01X1681458Y-2060640D02*
G01X1681458Y-2185349D01*
G01X1681458Y-1933640D02*
G01X1681458Y-2058349D01*
G01X1681458Y-1806640D02*
G01X1681458Y-1931349D01*
G01X1681458Y-1743371D02*
G01X1681458Y-1804349D01*
G01X1377181Y-1743371D02*
G01X1681458Y-1743371D01*
G01X1377181Y-1804349D02*
G01X1377181Y-1743371D01*
G01X1377181Y-1931349D02*
G01X1377181Y-1806640D01*
G01X1377181Y-2058349D02*
G01X1377181Y-1933640D01*
G01X1377181Y-2185349D02*
G01X1377181Y-2060640D01*
G01X1377181Y-2248618D02*
G01X1377181Y-2187640D01*
G01X1591458Y-2248618D02*
G03X1467064Y-2248643I-62197J-13D01*
G01X1173033Y-4067496D02*
G01X1559456Y-4067496D01*
G01X1481862Y-3635699D02*
G01X1651645Y-3635699D01*
G01X1651645Y-3635699D02*
G01X1651645Y-3751884D01*
G01X1250633Y-3635696D02*
G01X1080849Y-3635696D01*
G01X1080849Y-3635696D02*
G01X1080849Y-3751881D01*
G36*
G01X1207846Y-3546796D02*
G01X1157046Y-3610296D01*
G01X1258646D01*
G01X1207846Y-3546796D01*
G37*
G01X3599987Y-3995000D02*
G01X3650071Y-3995000D01*
G01X3650071Y-3995000D02*
G01X3650071Y-3994982D01*
G01X3599987Y-3555001D02*
G01X3649969Y-3555001D01*
G01X3649969Y-3555001D02*
G01X3649969Y-3555019D01*
G01X2929988Y-3555001D02*
G01X3599987Y-3555001D01*
G01X2929988Y-3555001D02*
G01X2929988Y-3995000D01*
G01X2929988Y-3995000D02*
G01X3599987Y-3995000D01*
G01X3651419Y-3515001D02*
G01X2889986Y-3515001D01*
G01X2889986Y-3515001D02*
G01X2889986Y-4035000D01*
G01X2889986Y-4035000D02*
G01X3651419Y-4035000D01*
G01X3651419Y-4035000D02*
G03X3651419Y-3515001I0J259999D01*
G01X3650071Y-3994982D02*
G03X3649969Y-3555019I-51J219982D01*
G01X3599987Y-545000D02*
G01X3650071Y-545000D01*
G01X3650071Y-545000D02*
G01X3650071Y-544982D01*
G01X3599987Y-105001D02*
G01X3649969Y-105001D01*
G01X3649969Y-105001D02*
G01X3649969Y-105018D01*
G01X2929988Y-105001D02*
G01X3599987Y-105001D01*
G01X2929988Y-105001D02*
G01X2929988Y-545000D01*
G01X2929988Y-545000D02*
G01X3599987Y-545000D01*
G01X3651419Y-65001D02*
G01X2889986Y-65001D01*
G01X2889986Y-65001D02*
G01X2889986Y-585000D01*
G01X2889986Y-585000D02*
G01X3651419Y-585000D01*
G01X3651419Y-585000D02*
G03X3651419Y-65001I0J259999D01*
G01X3650071Y-544982D02*
G03X3649969Y-105018I-51J219982D01*
G54D14*
G01X4870124Y-3526253D02*
G01X4891287Y-3526253D01*
G01X4183135Y-3526253D02*
G01X4204299Y-3526253D01*
G01X4087212Y-3686252D02*
G01X4087212Y-3682044D01*
G01X4087212Y-3686252D02*
G01X4087212Y-3830484D01*
G01X4987210Y-3826252D02*
G01X4987210Y-3681244D01*
G01X4087136Y-4066374D02*
G01X4087136Y-4064088D01*
G01X4087136Y-4064088D02*
G01X4087136Y-4206328D01*
G01X4087136Y-4206328D02*
G01X4987312Y-4206328D01*
G01X4987312Y-4206328D02*
G01X4987312Y-4066374D01*
G01X4497209Y-3666253D02*
G01X4497209Y-3646253D01*
G01X4637209Y-3706252D02*
G01X4637209Y-3666253D01*
G01X4637209Y-3666253D02*
G01X4577209Y-3666253D01*
G01X4577209Y-3666253D02*
G01X4577209Y-3646253D01*
G01X4437209Y-3706252D02*
G01X4437209Y-3666253D01*
G01X4437209Y-3666253D02*
G01X4497209Y-3666253D01*
G01X4436208Y-3706252D02*
G01X4638209Y-3706252D01*
G54D12*
G01X4255444Y-4089577D02*
G01X4305228Y-3839387D01*
G01X4305228Y-3839387D02*
G01X4435276Y-3839387D01*
G01X4435276Y-3839387D02*
G01X4485314Y-4089577D01*
G01X4485314Y-4089577D02*
G01X4435784Y-4089577D01*
G01X4435784Y-4089577D02*
G01X4395906Y-3879519D01*
G01X4395906Y-3879519D02*
G01X4343074Y-3879519D01*
G01X4343074Y-3879519D02*
G01X4302942Y-4089577D01*
G01X4302942Y-4089577D02*
G01X4255444Y-4089577D01*
G01X4285416Y-3959529D02*
G01X4325294Y-3959529D01*
G01X4415352Y-3959498D02*
G01X4455352Y-3959498D01*
G01X4743030Y-3958990D02*
G01X4783030Y-3958990D01*
G01X4613094Y-3959021D02*
G01X4652972Y-3959021D01*
G01X4583122Y-4089069D02*
G01X4632906Y-3838879D01*
G01X4632906Y-3838879D02*
G01X4762954Y-3838879D01*
G01X4762954Y-3838879D02*
G01X4812992Y-4089069D01*
G01X4812992Y-4089069D02*
G01X4763462Y-4089069D01*
G01X4763462Y-4089069D02*
G01X4723584Y-3879011D01*
G01X4723584Y-3879011D02*
G01X4670752Y-3879011D01*
G01X4670752Y-3879011D02*
G01X4630620Y-4089069D01*
G01X4630620Y-4089069D02*
G01X4583122Y-4089069D01*
G54D11*
G01X791355Y-1921709D02*
G01X919849Y-1921709D01*
G01X919849Y-1921709D02*
G01X919849Y-1738291D01*
G01X919849Y-1738291D02*
G01X791355Y-1738291D01*
G01X696115Y-1921709D02*
G01X567622Y-1921709D01*
G01X567622Y-1921709D02*
G01X567622Y-1738291D01*
G01X567622Y-1738291D02*
G01X696115Y-1738291D01*
G01X567622Y-2227620D02*
G01X567622Y-2356114D01*
G01X567622Y-2356114D02*
G01X751040Y-2356114D01*
G01X751040Y-2356114D02*
G01X751040Y-2227620D01*
G01X567622Y-2132380D02*
G01X567622Y-2003887D01*
G01X567622Y-2003887D02*
G01X751040Y-2003887D01*
G01X751040Y-2003887D02*
G01X751040Y-2132380D01*
G01X2766820Y-2602860D02*
G01X2907821Y-2602860D01*
G01X2907821Y-2422139D02*
G01X2766820Y-2422139D01*
G01X2751580Y-2437379D02*
G01X2751580Y-2587620D01*
G01X3129060Y-2602860D02*
G01X2988059Y-2602860D01*
G01X2988059Y-2422139D02*
G01X3129060Y-2422139D01*
G01X3144300Y-2437379D02*
G01X3144300Y-2587620D01*
G01X2766820Y-2422139D02*
G03X2751580Y-2437379I0J-15240D01*
G01X2751580Y-2587620D02*
G03X2766820Y-2602860I15240J0D01*
G01X3129060Y-2422139D02*
G02X3144300Y-2437379I0J-15240D01*
G01X3144300Y-2587620D02*
G02X3129060Y-2602860I-15240J0D01*
G54D12*
G01X5726040Y-2520001D02*
G01X5976040Y-2520001D01*
G01X5976040Y-2520001D02*
G01X5976040Y-3280000D01*
G01X5976040Y-3280000D02*
G01X5726040Y-3280000D01*
G01X5726040Y-3280000D02*
G01X5726040Y-2520001D01*
G01X6006040Y-2683184D02*
G01X6565670Y-2683184D01*
G01X6006040Y-2597093D02*
G01X6567938Y-2597093D01*
G01X6006040Y-2683184D02*
G01X6565670Y-2683184D01*
G01X6565670Y-2683184D02*
G01X6606038Y-2642813D01*
G01X6006040Y-2597093D02*
G01X6567938Y-2597093D01*
G01X6567938Y-2597093D02*
G01X6606038Y-2635193D01*
G01X6006040Y-2937090D02*
G01X6565670Y-2937090D01*
G01X6565670Y-2937090D02*
G01X6606038Y-2896719D01*
G01X6006040Y-2850999D02*
G01X6567938Y-2850999D01*
G01X6567938Y-2850999D02*
G01X6606038Y-2889099D01*
G01X6006040Y-3197092D02*
G01X6565670Y-3197092D01*
G01X6006040Y-3111001D02*
G01X6567938Y-3111001D01*
G01X6006040Y-3197092D02*
G01X6565670Y-3197092D01*
G01X6565670Y-3197092D02*
G01X6606038Y-3156723D01*
G01X6006040Y-3111001D02*
G01X6567938Y-3111001D01*
G01X6567938Y-3111001D02*
G01X6606038Y-3149101D01*
G01X5726040Y-1670001D02*
G01X5976040Y-1670001D01*
G01X5976040Y-1670001D02*
G01X5976040Y-2429999D01*
G01X5976040Y-2429999D02*
G01X5726040Y-2429999D01*
G01X5726040Y-2429999D02*
G01X5726040Y-1670001D01*
G01X6006040Y-1833183D02*
G01X6565670Y-1833183D01*
G01X6006040Y-1747092D02*
G01X6567938Y-1747092D01*
G01X6006040Y-1833183D02*
G01X6565670Y-1833183D01*
G01X6565670Y-1833183D02*
G01X6606038Y-1792812D01*
G01X6006040Y-1747092D02*
G01X6567938Y-1747092D01*
G01X6567938Y-1747092D02*
G01X6606038Y-1785192D01*
G01X6006040Y-2087089D02*
G01X6565670Y-2087089D01*
G01X6565670Y-2087089D02*
G01X6606038Y-2046718D01*
G01X6006040Y-2000998D02*
G01X6567938Y-2000998D01*
G01X6567938Y-2000998D02*
G01X6606038Y-2039098D01*
G01X6006040Y-2347091D02*
G01X6565670Y-2347091D01*
G01X6006040Y-2261000D02*
G01X6567938Y-2261000D01*
G01X6006040Y-2347091D02*
G01X6565670Y-2347091D01*
G01X6565670Y-2347091D02*
G01X6606038Y-2306723D01*
G01X6006040Y-2261000D02*
G01X6567938Y-2261000D01*
G01X6567938Y-2261000D02*
G01X6606038Y-2299100D01*
G01X4748678Y-467002D02*
G01X4922160Y-467002D01*
G01X4922160Y-467002D02*
G01X4922160Y-327302D01*
G01X4795160Y-47902D02*
G01X4210960Y-47902D01*
G01X4257444Y-467002D02*
G01X4083960Y-467002D01*
G01X4083960Y-467002D02*
G01X4083960Y-323116D01*
G01X1637489Y-42691D02*
G01X962490Y-42691D01*
G01X962490Y-512690D02*
G01X962490Y-42691D01*
G01X1059223Y-512690D02*
G01X962490Y-512690D01*
G01X1184242Y-512690D02*
G01X1165751Y-512690D01*
G01X1309261Y-512690D02*
G01X1290744Y-512690D01*
G01X1637489Y-512690D02*
G01X1560619Y-512690D01*
G01X1637489Y-42691D02*
G01X1637489Y-512690D01*
G01X31128Y-936717D02*
G01X31128Y-1323140D01*
G01X462925Y-1245546D02*
G01X462925Y-1415329D01*
G01X462925Y-1415329D02*
G01X346740Y-1415329D01*
G01X462928Y-1014317D02*
G01X462928Y-844533D01*
G01X462928Y-844533D02*
G01X346743Y-844533D01*
G36*
G01X551828Y-971530D02*
G01X488328Y-920730D01*
G01Y-1022330D01*
G01X551828Y-971530D01*
G37*
G54D11*
G01X4449643Y-2785541D02*
G01X4449643Y-2926542D01*
G01X4630364Y-2926542D02*
G01X4630364Y-2785541D01*
G01X4615124Y-2770301D02*
G01X4464883Y-2770301D01*
G01X4449643Y-3147781D02*
G01X4449643Y-3006780D01*
G01X4630364Y-3006780D02*
G01X4630364Y-3147781D01*
G01X4615124Y-3163021D02*
G01X4464883Y-3163021D01*
G01X4630364Y-2785541D02*
G03X4615124Y-2770301I-15240J0D01*
G01X4464883Y-2770301D02*
G03X4449643Y-2785541I0J-15240D01*
G01X4630364Y-3147781D02*
G02X4615124Y-3163021I-15240J0D01*
G01X4464883Y-3163021D02*
G02X4449643Y-3147781I0J15240D01*
G01X4170364Y-3027125D02*
G01X4170364Y-2886125D01*
G01X3989643Y-2886125D02*
G01X3989643Y-3027125D01*
G01X4004883Y-3042365D02*
G01X4155124Y-3042365D01*
G01X4170364Y-2664886D02*
G01X4170364Y-2805886D01*
G01X3989643Y-2805886D02*
G01X3989643Y-2664886D01*
G01X4004883Y-2649646D02*
G01X4155124Y-2649646D01*
G01X3989643Y-3027125D02*
G03X4004883Y-3042365I15240J0D01*
G01X4155124Y-3042365D02*
G03X4170364Y-3027125I0J15240D01*
G01X3989643Y-2664886D02*
G02X4004883Y-2649646I15240J0D01*
G01X4155124Y-2649646D02*
G02X4170364Y-2664886I0J-15240D01*
G54D12*
G01X31128Y-1706533D02*
G01X31128Y-2381533D01*
G01X501127Y-2381533D02*
G01X31128Y-2381533D01*
G01X501127Y-2284799D02*
G01X501127Y-2381533D01*
G01X501127Y-2159781D02*
G01X501127Y-2178272D01*
G01X501127Y-2034762D02*
G01X501127Y-2053278D01*
G01X501127Y-1706533D02*
G01X501127Y-1783403D01*
G01X31128Y-1706533D02*
G01X501127Y-1706533D01*
G01X31108Y-2764877D02*
G01X31108Y-3151300D01*
G01X462905Y-3073706D02*
G01X462905Y-3243489D01*
G01X462905Y-3243489D02*
G01X346720Y-3243489D01*
G01X462908Y-2842477D02*
G01X462908Y-2672693D01*
G01X462908Y-2672693D02*
G01X346723Y-2672693D01*
G36*
G01X551808Y-2799690D02*
G01X488308Y-2748890D01*
G01Y-2850490D01*
G01X551808Y-2799690D01*
G37*
G01X5292822Y-4067496D02*
G01X5679244Y-4067496D01*
G01X5601650Y-3635699D02*
G01X5771434Y-3635699D01*
G01X5771434Y-3635699D02*
G01X5771434Y-3751884D01*
G01X5370421Y-3635696D02*
G01X5200637Y-3635696D01*
G01X5200637Y-3635696D02*
G01X5200637Y-3751881D01*
G36*
G01X5327635Y-3546796D02*
G01X5276835Y-3610296D01*
G01X5378435D01*
G01X5327635Y-3546796D01*
G37*
G54D11*
G01X5078793Y-2537621D02*
G01X5078793Y-2666115D01*
G01X5078793Y-2666115D02*
G01X5262211Y-2666115D01*
G01X5262211Y-2666115D02*
G01X5262211Y-2537621D01*
G01X5078793Y-2442381D02*
G01X5078793Y-2313888D01*
G01X5078793Y-2313888D02*
G01X5262211Y-2313888D01*
G01X5262211Y-2313888D02*
G01X5262211Y-2442381D01*
G01X5088294Y-1677480D02*
G01X5088294Y-1805974D01*
G01X5088294Y-1805974D02*
G01X5271712Y-1805974D01*
G01X5271712Y-1805974D02*
G01X5271712Y-1677480D01*
G01X5088294Y-1582240D02*
G01X5088294Y-1453747D01*
G01X5088294Y-1453747D02*
G01X5271712Y-1453747D01*
G01X5271712Y-1453747D02*
G01X5271712Y-1582240D01*
G54D12*
G01X5265004Y-2955996D02*
G01X5266002Y-3104004D01*
G01X5076003Y-2970004D02*
G01X5076003Y-3104004D01*
G01X5266002Y-3104004D02*
G01X5076000Y-3104004D01*
G01X5075002Y-2730993D02*
G01X5075007Y-2730993D01*
G01X5075007Y-2730993D02*
G01X5110000Y-2695999D01*
G01X5265004Y-2730993D02*
G01X5264999Y-2730993D01*
G01X5264999Y-2730993D02*
G01X5230005Y-2695999D01*
G01X5265004Y-2855996D02*
G01X5265004Y-2730993D01*
G01X5075002Y-2855996D02*
G01X5075002Y-2730993D01*
G01X5230005Y-2695999D02*
G01X5110000Y-2695999D01*
G01X5220003Y-2936004D02*
G01X5120003Y-2936004D01*
G01X5169497Y-2936004D02*
G01X5169497Y-2886004D01*
G01X5273875Y-2099993D02*
G01X5274873Y-2248002D01*
G01X5084873Y-2114001D02*
G01X5084873Y-2248002D01*
G01X5274873Y-2248002D02*
G01X5084871Y-2248002D01*
G01X5083873Y-1874990D02*
G01X5083878Y-1874990D01*
G01X5083878Y-1874990D02*
G01X5118871Y-1839996D01*
G01X5273875Y-1874990D02*
G01X5273870Y-1874990D01*
G01X5273870Y-1874990D02*
G01X5238876Y-1839996D01*
G01X5273875Y-1999993D02*
G01X5273875Y-1874990D01*
G01X5083873Y-1999993D02*
G01X5083873Y-1874990D01*
G01X5238876Y-1839996D02*
G01X5118871Y-1839996D01*
G01X5228874Y-2080001D02*
G01X5128874Y-2080001D01*
G01X5178368Y-2080001D02*
G01X5178368Y-2030001D01*
G01X4165003Y-2378577D02*
G01X4166002Y-2526586D01*
G01X3976002Y-2392586D02*
G01X3976002Y-2526586D01*
G01X4166002Y-2526586D02*
G01X3975999Y-2526586D01*
G01X3975001Y-2153574D02*
G01X3975006Y-2153574D01*
G01X3975006Y-2153574D02*
G01X4010000Y-2118580D01*
G01X4165003Y-2153574D02*
G01X4164998Y-2153574D01*
G01X4164998Y-2153574D02*
G01X4130005Y-2118580D01*
G01X4165003Y-2278578D02*
G01X4165003Y-2153574D01*
G01X3975001Y-2278578D02*
G01X3975001Y-2153574D01*
G01X4130005Y-2118580D02*
G01X4010000Y-2118580D01*
G01X4120002Y-2358585D02*
G01X4020002Y-2358585D01*
G01X4069497Y-2358585D02*
G01X4069497Y-2308585D01*
G54D11*
G01X1691770Y-2758716D02*
G01X1563277Y-2758716D01*
G01X1563277Y-2758716D02*
G01X1563277Y-2942134D01*
G01X1563277Y-2942134D02*
G01X1691770Y-2942134D01*
G01X1787010Y-2758716D02*
G01X1915503Y-2758716D01*
G01X1915503Y-2758716D02*
G01X1915503Y-2942134D01*
G01X1915503Y-2942134D02*
G01X1787010Y-2942134D01*
G01X1687887Y-3008716D02*
G01X1559394Y-3008716D01*
G01X1559394Y-3008716D02*
G01X1559394Y-3192135D01*
G01X1559394Y-3192135D02*
G01X1687887Y-3192135D01*
G01X1783127Y-3008716D02*
G01X1911621Y-3008716D01*
G01X1911621Y-3008716D02*
G01X1911621Y-3192135D01*
G01X1911621Y-3192135D02*
G01X1783127Y-3192135D01*
G01X2354909Y-586121D02*
G01X2354909Y-180879D01*
G01X2354909Y-180879D02*
G01X2420708Y-180879D01*
G01X2663148Y-586121D02*
G01X2663148Y-180879D01*
G01X2663148Y-180879D02*
G01X2597350Y-180879D01*
G36*
G01X2347289Y-578501D02*
G01X2425788Y-578501D01*
G01Y-608981D01*
G01X2347289D01*
G01Y-578501D01*
G37*
G36*
G01X2670768Y-578501D02*
G01X2592270Y-578501D01*
G01Y-608981D01*
G01X2670768D01*
G01Y-578501D01*
G37*
G54D10*
G01X5458126Y-2809877D02*
G01X5437504Y-2809877D01*
G01X5312884Y-2809877D02*
G01X5332506Y-2809877D01*
G54D11*
G01X5312884Y-2985122D02*
G01X5312884Y-2809877D01*
G01X5458126Y-2985122D02*
G01X5458126Y-2809877D01*
G01X5312884Y-2944678D02*
G01X5458126Y-2944678D01*
G36*
G01X5305264Y-2977500D02*
G01X5340504Y-2977500D01*
G01Y-3007980D01*
G01X5305264D01*
G01Y-2977500D01*
G37*
G36*
G01X5465746Y-2977500D02*
G01X5430507Y-2977500D01*
G01Y-3007980D01*
G01X5465746D01*
G01Y-2977500D01*
G37*
G54D10*
G01X5456854Y-1949877D02*
G01X5436232Y-1949877D01*
G01X5311612Y-1949877D02*
G01X5331233Y-1949877D01*
G54D11*
G01X5311612Y-2125121D02*
G01X5311612Y-1949877D01*
G01X5456854Y-2125121D02*
G01X5456854Y-1949877D01*
G01X5311612Y-2084677D02*
G01X5456854Y-2084677D01*
G36*
G01X5303992Y-2117499D02*
G01X5339232Y-2117499D01*
G01Y-2147979D01*
G01X5303992D01*
G01Y-2117499D01*
G37*
G36*
G01X5464474Y-2117499D02*
G01X5429234Y-2117499D01*
G01Y-2147979D01*
G01X5464474D01*
G01Y-2117499D01*
G37*
G54D12*
G01X1285314Y-3150425D02*
G01X1325314Y-3110425D01*
G01X1325314Y-3110425D02*
G01X1335314Y-3100425D01*
G01X1335314Y-3100425D02*
G01X1325314Y-3090400D01*
G01X1325314Y-3090400D02*
G01X1285314Y-3050400D01*
G01X1285314Y-3150425D02*
G01X1285314Y-3050400D01*
G01X1260991Y-2998698D02*
G01X1106051Y-2998698D01*
G01X1106051Y-2998698D02*
G01X1106051Y-3201898D01*
G01X1106051Y-3201898D02*
G01X1260991Y-3201898D01*
G01X1339731Y-2996158D02*
G01X1487051Y-2996158D01*
G01X1487051Y-2996158D02*
G01X1527691Y-3036798D01*
G01X1527691Y-3036798D02*
G01X1527691Y-3163798D01*
G01X1527691Y-3163798D02*
G01X1489591Y-3201898D01*
G01X1489591Y-3201898D02*
G01X1337191Y-3201898D01*
G01X1283690Y-2900425D02*
G01X1323690Y-2860425D01*
G01X1323690Y-2860425D02*
G01X1333690Y-2850425D01*
G01X1333690Y-2850425D02*
G01X1323690Y-2840400D01*
G01X1323690Y-2840400D02*
G01X1283690Y-2800400D01*
G01X1283690Y-2900425D02*
G01X1283690Y-2800400D01*
G01X1259367Y-2748698D02*
G01X1104427Y-2748698D01*
G01X1104427Y-2748698D02*
G01X1104427Y-2951898D01*
G01X1104427Y-2951898D02*
G01X1259367Y-2951898D01*
G01X1338107Y-2746158D02*
G01X1485427Y-2746158D01*
G01X1485427Y-2746158D02*
G01X1526067Y-2786798D01*
G01X1526067Y-2786798D02*
G01X1526067Y-2913798D01*
G01X1526067Y-2913798D02*
G01X1487967Y-2951898D01*
G01X1487967Y-2951898D02*
G01X1335567Y-2951898D01*
G54D13*
G01X2394350Y-1541260D02*
G01X3014110Y-1541260D01*
G01X3014110Y-1541260D02*
G01X3014110Y-2206740D01*
G01X3014110Y-2206740D02*
G01X2351170Y-2206740D01*
G01X2351170Y-2206740D02*
G01X2351170Y-1541260D01*
G01X2351170Y-1541260D02*
G01X2427370Y-1541260D01*
G54D15*
G01X2344912Y-2281269D02*
G03X2345166Y-2281269I127J-20000D01*
G54D11*
G01X2611040Y-954339D02*
G01X2470039Y-954339D01*
G01X2470039Y-1135060D02*
G01X2611040Y-1135060D01*
G01X2626280Y-1119820D02*
G01X2626280Y-969579D01*
G01X2248800Y-954339D02*
G01X2389801Y-954339D01*
G01X2389801Y-1135060D02*
G01X2248800Y-1135060D01*
G01X2233560Y-1119820D02*
G01X2233560Y-969579D01*
G01X2611040Y-1135060D02*
G03X2626280Y-1119820I0J15240D01*
G01X2626280Y-969579D02*
G03X2611040Y-954339I-15240J0D01*
G01X2248800Y-1135060D02*
G02X2233560Y-1119820I0J15240D01*
G01X2233560Y-969579D02*
G02X2248800Y-954339I15240J0D01*
G54D12*
G01X2058426Y-4067492D02*
G01X2444849Y-4067492D01*
G01X2367254Y-3635695D02*
G01X2537038Y-3635695D01*
G01X2537038Y-3635695D02*
G01X2537038Y-3751880D01*
G01X2136025Y-3635692D02*
G01X1966242Y-3635692D01*
G01X1966242Y-3635692D02*
G01X1966242Y-3751877D01*
G36*
G01X2093239Y-3546792D02*
G01X2042439Y-3610292D01*
G01X2144039D01*
G01X2093239Y-3546792D01*
G37*
G54D11*
G01X1867804Y-586161D02*
G01X1867804Y-180919D01*
G01X1867804Y-180919D02*
G01X1933603Y-180919D01*
G01X2176044Y-586161D02*
G01X2176044Y-180919D01*
G01X2176044Y-180919D02*
G01X2110245Y-180919D01*
G36*
G01X1860184Y-578541D02*
G01X1938683Y-578541D01*
G01Y-609021D01*
G01X1860184D01*
G01Y-578541D01*
G37*
G36*
G01X2183664Y-578541D02*
G01X2105165Y-578541D01*
G01Y-609021D01*
G01X2183664D01*
G01Y-578541D01*
G37*
G04 PolygonModel End*

G04 Circle Start*
G54D12*
G01X5217642Y-337337D02*
G03X5397641Y-337337I90000J0D01*
G03X5217642I-90000J0D01*
G01X1245625Y-972531D02*
G03X1267977Y-972531I11176J0D01*
G03X1245625I-11176J0D01*
G54D17*
G01X1791549Y-2261140D02*
G03X1821572Y-2261140I15011J0D01*
G03X1791549I-15011J0D01*
G54D12*
G01X4769760Y-505097D02*
G03X4795160Y-505097I12700J0D01*
G03X4769760I-12700J0D01*
G01X2419031Y-383498D02*
G03X2599031Y-383498I90000J0D01*
G03X2419031I-90000J0D01*
G01X2404866Y-2158277D02*
G03X2438953Y-2158277I17043J0D01*
G03X2404866I-17043J0D01*
G01X1931927Y-383537D02*
G03X2111926Y-383537I90000J0D01*
G03X1931927I-90000J0D01*
G04 Circle End*

M02*
