G04 Layer: TopSolderMaskLayer*
G04 EasyEDA Pro v2.1.40, 2023-11-27 11:39:20*
G04 Gerber Generator version 0.3*
G04 Scale: 100 percent, Rotated: No, Reflected: No*
G04 Dimensions in millimeters*
G04 Leading zeros omitted, absolute positions, 3 integers and 5 decimals*
%FSLAX35Y35*%
%MOMM*%
%AMRoundRect*1,1,$1,$2,$3*1,1,$1,$4,$5*1,1,$1,0-$2,0-$3*1,1,$1,0-$4,0-$5*20,1,$1,$2,$3,$4,$5,0*20,1,$1,$4,$5,0-$2,0-$3,0*20,1,$1,0-$2,0-$3,0-$4,0-$5,0*20,1,$1,0-$4,0-$5,$2,$3,0*4,1,4,$2,$3,$4,$5,0-$2,0-$3,0-$4,0-$5,$2,$3,0*%
%ADD10RoundRect,0.09387X-0.69237X-0.57013X-0.69237X0.57013*%
%ADD11RoundRect,0.09495X0.70833X-0.67833X-0.70833X-0.67833*%
%ADD12RoundRect,0.09495X0.67833X0.70833X0.67833X-0.70833*%
%ADD13RoundRect,0.09495X-0.70833X0.67833X0.70833X0.67833*%
%ADD14RoundRect,0.09495X-0.67833X-0.70833X-0.67833X0.70833*%
%ADD15R,1.23X1.35999*%
%ADD16R,0.8X1.0*%
%ADD17R,1.8X1.8*%
%ADD18C,1.8*%
%ADD19R,1.4X1.2*%
%ADD20R,1.06401X2.33601*%
%ADD21R,5.4912X5.82602*%
%ADD22RoundRect,0.09387X-0.57013X0.69237X0.57013X0.69237*%
%ADD23RoundRect,0.09387X0.57013X-0.69237X-0.57013X-0.69237*%
%ADD24R,0.8X0.25001*%
%ADD25R,0.25001X0.8*%
%ADD26R,0.8X0.25001*%
%ADD27R,0.25001X0.8*%
%ADD28O,2.045X0.58801*%
%ADD29RoundRect,0.0875X-0.30625X0.85625X0.30625X0.85625*%
%ADD30RoundRect,0.09167X-0.50417X1.35416X0.50417X1.35416*%
%ADD31C,3.90002*%
%ADD32RoundRect,0.09131X-0.40514X0.50514X0.40514X0.50514*%
%ADD33RoundRect,0.09017X-0.35571X0.50571X0.35571X0.50571*%
%ADD34O,1.1X1.9*%
%ADD35RoundRect,0.09387X0.69237X0.57013X0.69237X-0.57013*%
%ADD36RoundRect,0.08891X0.35556X-0.90556X-0.35556X-0.90556*%
%ADD37RoundRect,0.09169X0.50417X-1.35417X-0.50417X-1.35417*%
%ADD38RoundRect,0.09169X-0.50417X1.35417X0.50417X1.35417*%
%ADD39RoundRect,0.09169X0.50417X-0.50417X-0.50417X-0.50417*%
%ADD40C,1.10002*%
%ADD41RoundRect,0.0875X0.85625X0.30625X0.85625X-0.30625*%
%ADD42RoundRect,0.09167X1.35416X0.50417X1.35416X-0.50417*%
%ADD43RoundRect,0.09169X0.50417X0.50417X0.50417X-0.50417*%
%ADD44R,1.25001X1.0*%
%ADD45R,1.35999X1.23*%
%ADD46R,0.75001X1.0*%
%ADD47C,0.5*%
%ADD48R,1.0X1.39954*%
%ADD49O,0.37003X1.60002*%
%ADD50O,1.60002X0.37003*%
%ADD51C,4.5*%
%ADD52C,0.61*%
G75*


G04 Pad Start*
G54D10*
G01X3517196Y-2689182D03*
G01X3517196Y-2495939D03*
G54D11*
G01X2287898Y-2512500D03*
G01X2487897Y-2512500D03*
G54D12*
G01X3327620Y-1712080D03*
G01X3327620Y-1512080D03*
G54D13*
G01X2529920Y-1257297D03*
G01X2329920Y-1257297D03*
G54D14*
G01X2054940Y-2179860D03*
G01X2054940Y-2379860D03*
G01X3304920Y-2492560D03*
G01X3304920Y-2692560D03*
G54D11*
G01X3264920Y-2279860D03*
G01X3464920Y-2279860D03*
G54D12*
G01X5707380Y-552120D03*
G01X5707380Y-352120D03*
G54D14*
G01X2332920Y-2730000D03*
G01X2332920Y-2930000D03*
G54D12*
G01X2989904Y-2930000D03*
G01X2989904Y-2730000D03*
G54D14*
G01X3397140Y-934126D03*
G01X3397140Y-1134126D03*
G01X3174025Y-934126D03*
G01X3174025Y-1134126D03*
G54D15*
G01X5089153Y-337339D03*
G01X5526135Y-337339D03*
G54D16*
G01X5015002Y-862678D03*
G01X5109998Y-1092681D03*
G01X5205004Y-862678D03*
G54D17*
G01X5566000Y-1454000D03*
G54D18*
G01X5566000Y-1200000D03*
G01X5566000Y-946000D03*
G54D19*
G01X2551992Y-2896109D03*
G01X2772007Y-2896109D03*
G01X2772007Y-2721103D03*
G01X2551992Y-2721103D03*
G54D20*
G01X4313551Y-2943103D03*
G01X4771564Y-2943103D03*
G54D21*
G01X4542558Y-2246000D03*
G54D22*
G01X1761160Y-2631440D03*
G01X1561160Y-2631440D03*
G54D23*
G01X5207644Y-620000D03*
G01X5407644Y-620000D03*
G54D10*
G01X3850002Y-2230107D03*
G01X3850002Y-2430106D03*
G54D22*
G01X5100003Y-1261028D03*
G01X4900003Y-1261028D03*
G54D24*
G01X1268510Y-1150331D03*
G54D25*
G01X1310217Y-1270321D03*
G01X1360204Y-1270321D03*
G01X1410217Y-1270321D03*
G01X1460204Y-1270321D03*
G01X1510217Y-1270321D03*
G01X1560204Y-1270321D03*
G01X1610216Y-1270321D03*
G54D26*
G01X1651491Y-1150331D03*
G54D27*
G01X1610216Y-1030342D03*
G01X1560204Y-1030342D03*
G01X1510217Y-1030342D03*
G01X1460204Y-1030342D03*
G01X1410217Y-1030342D03*
G01X1360204Y-1030342D03*
G01X1310217Y-1030342D03*
G54D28*
G01X1252079Y-1805489D03*
G01X1252079Y-1932489D03*
G01X1252079Y-2059489D03*
G01X1252079Y-2186489D03*
G01X1806561Y-1805489D03*
G01X1806561Y-1932489D03*
G01X1806561Y-2059489D03*
G01X1806561Y-2186489D03*
G54D29*
G01X1303747Y-3589997D03*
G01X1428740Y-3589997D03*
G54D30*
G01X1118758Y-3909986D03*
G01X1613754Y-3910011D03*
G54D31*
G01X3150001Y-3775000D03*
G01X3650000Y-3775000D03*
G01X3150001Y-325000D03*
G01X3650000Y-325000D03*
G54D32*
G01X4267222Y-3553751D03*
G54D33*
G01X4387212Y-3553751D03*
G01X4487211Y-3553751D03*
G01X4587211Y-3553751D03*
G01X4687211Y-3553751D03*
G54D32*
G01X4807201Y-3553751D03*
G54D34*
G01X4969202Y-3946257D03*
G01X4105221Y-3946257D03*
G01X4969202Y-3566248D03*
G01X4105221Y-3566248D03*
G54D22*
G01X843735Y-1830000D03*
G01X643735Y-1830000D03*
G54D35*
G01X659331Y-2280000D03*
G01X659331Y-2080000D03*
G54D11*
G01X2847940Y-2512500D03*
G01X3047940Y-2512500D03*
G54D17*
G01X5566040Y-3154001D03*
G54D18*
G01X5566040Y-2900001D03*
G01X5566040Y-2646001D03*
G54D17*
G01X5566040Y-2304000D03*
G54D18*
G01X5566040Y-2050000D03*
G01X5566040Y-1796000D03*
G54D36*
G01X4690563Y-515003D03*
G01X4565569Y-515003D03*
G01X4440550Y-515003D03*
G01X4315557Y-515003D03*
G54D37*
G01X4873570Y-164991D03*
G54D38*
G01X4132550Y-164991D03*
G54D39*
G01X1487505Y-462688D03*
G54D40*
G01X1362512Y-462690D03*
G01X1237493Y-462690D03*
G01X1112499Y-462690D03*
G54D41*
G01X508627Y-1067431D03*
G01X508627Y-1192424D03*
G54D42*
G01X188638Y-882442D03*
G01X188613Y-1377438D03*
G54D14*
G01X4540004Y-2866661D03*
G01X4540004Y-3066661D03*
G54D12*
G01X4080004Y-2946005D03*
G01X4080004Y-2746006D03*
G54D43*
G01X451124Y-1856517D03*
G54D40*
G01X451127Y-1981511D03*
G01X451127Y-2106529D03*
G01X451127Y-2231523D03*
G54D41*
G01X508607Y-2895591D03*
G01X508607Y-3020584D03*
G54D42*
G01X188618Y-2710602D03*
G01X188593Y-3205598D03*
G54D29*
G01X5423535Y-3589997D03*
G01X5548528Y-3589997D03*
G54D30*
G01X5238547Y-3909986D03*
G01X5733542Y-3910011D03*
G54D35*
G01X5170502Y-2590001D03*
G01X5170502Y-2390002D03*
G01X5180003Y-1729860D03*
G01X5180003Y-1529860D03*
G54D44*
G01X5170013Y-3016006D03*
G01X5170013Y-2795991D03*
G01X5178884Y-2160003D03*
G01X5178884Y-1939988D03*
G01X4070012Y-2438587D03*
G01X4070012Y-2218573D03*
G54D23*
G01X1639390Y-2850425D03*
G01X1839390Y-2850425D03*
G01X1635507Y-3100425D03*
G01X1835507Y-3100425D03*
G54D45*
G01X2509029Y-165009D03*
G01X2509029Y-601991D03*
G54D46*
G01X5385505Y-2782742D03*
G01X5385505Y-3017261D03*
G01X5384233Y-1922742D03*
G01X5384233Y-2157260D03*
G54D47*
G01X1771001Y-1150331D03*
G01X809960Y-2076900D03*
G01X642579Y-1674865D03*
G01X2189857Y-2926046D03*
G01X3133985Y-2717300D03*
G54D48*
G01X1410343Y-3100425D03*
G01X1200285Y-3100425D03*
G01X1408719Y-2850425D03*
G01X1198661Y-2850425D03*
G54D49*
G01X2408905Y-2300263D03*
G01X2458917Y-2300263D03*
G01X2508904Y-2300263D03*
G01X2558917Y-2300263D03*
G01X2608904Y-2300263D03*
G01X2658917Y-2300263D03*
G01X2708904Y-2300263D03*
G01X2758917Y-2300263D03*
G01X2808904Y-2300263D03*
G01X2858916Y-2300263D03*
G01X2908904Y-2300263D03*
G01X2958916Y-2300263D03*
G54D50*
G01X3108903Y-2150276D03*
G01X3108903Y-2100263D03*
G01X3108903Y-2050276D03*
G01X3108903Y-2000263D03*
G01X3108903Y-1950276D03*
G01X3108903Y-1900264D03*
G01X3108903Y-1850276D03*
G01X3108903Y-1800264D03*
G01X3108903Y-1750277D03*
G01X3108903Y-1700264D03*
G01X3108903Y-1650277D03*
G01X3108903Y-1600264D03*
G54D49*
G01X2958916Y-1450277D03*
G01X2908904Y-1450277D03*
G01X2858916Y-1450277D03*
G01X2808904Y-1450277D03*
G01X2758917Y-1450277D03*
G01X2708904Y-1450277D03*
G01X2658917Y-1450277D03*
G01X2608904Y-1450277D03*
G01X2558917Y-1450277D03*
G01X2508904Y-1450277D03*
G01X2458917Y-1450277D03*
G01X2408905Y-1450277D03*
G54D50*
G01X2258918Y-1600264D03*
G01X2258918Y-1650277D03*
G01X2258918Y-1700264D03*
G01X2258918Y-1750277D03*
G01X2258918Y-1800264D03*
G01X2258918Y-1850276D03*
G01X2258918Y-1900264D03*
G01X2258918Y-1950276D03*
G01X2258918Y-2000263D03*
G01X2258918Y-2050276D03*
G01X2258918Y-2100263D03*
G01X2258918Y-2150276D03*
G54D13*
G01X2529920Y-1044700D03*
G01X2329920Y-1044700D03*
G54D29*
G01X2189139Y-3589993D03*
G01X2314133Y-3589993D03*
G54D30*
G01X2004151Y-3909982D03*
G01X2499146Y-3910007D03*
G54D45*
G01X2021924Y-165049D03*
G01X2021924Y-602031D03*
G04 Pad End*

G04 Via Start*
G54D51*
G01X400000Y-400000D03*
G01X6200000Y-400000D03*
G01X400000Y-3700000D03*
G01X6200000Y-3700000D03*
G54D52*
G01X1082040Y-1879941D03*
G01X993140Y-2016760D03*
G01X2880360Y-1968500D03*
G01X1310640Y-1358900D03*
G01X2931160Y-1864360D03*
G01X1651000Y-1358900D03*
G01X1727200Y-949960D03*
G01X1889760Y-1226820D03*
G01X2578100Y-1574800D03*
G01X1915160Y-2633980D03*
G01X2547620Y-2077720D03*
G01X2870200Y-1209040D03*
G01X2669540Y-1290320D03*
G01X858520Y-2128520D03*
G01X2085340Y-1851660D03*
G01X889000Y-2506980D03*
G01X2133600Y-1917700D03*
G01X3647440Y-1874520D03*
G01X3327400Y-1851660D03*
G01X3634740Y-1965960D03*
G01X3309620Y-1960880D03*
G01X3779520Y-1920240D03*
G01X2710180Y-2098040D03*
G01X3827780Y-2085340D03*
G01X3329940Y-2159000D03*
G01X2720340Y-1028700D03*
G01X1399540Y-734060D03*
G01X647700Y-2573020D03*
G01X647700Y-2438400D03*
G01X1198880Y-3281680D03*
G01X901700Y-1671320D03*
G01X1544320Y-1544320D03*
G01X1107440Y-612140D03*
G01X1630680Y-1793240D03*
G01X2410460Y-1714500D03*
G01X2339340Y-1452880D03*
G01X3111500Y-1546860D03*
G01X4691380Y-3108960D03*
G01X4777070Y-3108960D03*
G01X4427220Y-1910000D03*
G01X4536440Y-1910000D03*
G01X4640580Y-1910000D03*
G01X5057140Y-3368040D03*
G01X4899660Y-1615440D03*
G01X4739640Y-1386840D03*
G01X4371340Y-728980D03*
G01X3622040Y-1407160D03*
G01X3573780Y-1137920D03*
G01X4524632Y-1407160D03*
G01X3570993Y-924128D03*
G01X2676912Y-1138877D03*
G01X1894840Y-2288540D03*
G01X2811780Y-2159000D03*
G01X3093720Y-2268220D03*
G01X2943860Y-1681480D03*
G01X1445260Y-901700D03*
G01X1214120Y-911860D03*
G01X1572260Y-1358900D03*
G01X1587500Y-922020D03*
G01X1744980Y-802640D03*
G01X2954020Y-990600D03*
G01X2199640Y-647700D03*
G01X3025140Y-937260D03*
G01X2697480Y-645160D03*
G01X4389120Y-3444240D03*
G01X736600Y-3909060D03*
G01X162560Y-3413760D03*
G01X797560Y-279400D03*
G01X144780Y-683260D03*
G01X3454562Y-683260D03*
G01X3825240Y-688340D03*
G01X6362700Y-779780D03*
G01X6245860Y-3312160D03*
G01X5824220Y-3525520D03*
G01X5875020Y-149860D03*
G01X2733040Y-3881120D03*
G01X3939540Y-3530600D03*
G01X741680Y-1437640D03*
G01X195580Y-2524760D03*
G01X195580Y-1573076D03*
G01X3865347Y-3041661D03*
G01X4968240Y-2766060D03*
G01X1288094Y-2415799D03*
G01X1366247Y-3857954D03*
G01X2251640Y-3857954D03*
G01X2661920Y-3423920D03*
G01X1816100Y-3520440D03*
G01X764540Y-3373120D03*
G01X3718560Y-1645920D03*
G01X1744980Y-1557020D03*
G01X1795780Y-3863340D03*
G01X6245860Y-2473427D03*
G01X6245860Y-1618094D03*
G04 Via End*

M02*
