G04 Layer: TopLayer*
G04 EasyEDA Pro v2.1.40, 2023-11-27 11:39:20*
G04 Gerber Generator version 0.3*
G04 Scale: 100 percent, Rotated: No, Reflected: No*
G04 Dimensions in millimeters*
G04 Leading zeros omitted, absolute positions, 3 integers and 5 decimals*
%FSLAX35Y35*%
%MOMM*%
%ADD8191C,0.2032*%
%ADD10R,1.37701X1.13254*%
%ADD11R,1.41X1.35001*%
%ADD12R,1.35001X1.41*%
%ADD13R,1.41X1.35001*%
%ADD14R,1.35001X1.41*%
%ADD15R,1.23X1.35999*%
%ADD16R,0.8X1.0*%
%ADD17R,1.8X1.8*%
%ADD18C,1.8052*%
%ADD19C,1.8*%
%ADD20R,1.4X1.2*%
%ADD21R,1.06401X2.33601*%
%ADD22R,5.4912X5.82602*%
%ADD23R,1.13254X1.37701*%
%ADD24R,1.13254X1.37701*%
%ADD25R,0.8X0.25001*%
%ADD26R,0.25001X0.8*%
%ADD27R,0.8X0.25001*%
%ADD28R,0.25001X0.8*%
%ADD29O,2.045X0.58801*%
%ADD30R,0.6X1.7*%
%ADD31R,1.0X2.69999*%
%ADD32C,3.79999*%
%ADD33R,0.8X1.0*%
%ADD34R,0.7X1.0*%
%ADD35O,1.1X1.9*%
%ADD36R,1.37701X1.13254*%
%ADD37R,0.7X1.8*%
%ADD38R,1.0X2.69999*%
%ADD39R,1.0X1.0*%
%ADD40C,1.0*%
%ADD41R,1.7X0.6*%
%ADD42R,2.69999X1.0*%
%ADD43R,1.0X1.0*%
%ADD44R,1.25001X1.0*%
%ADD45R,1.35999X1.23*%
%ADD46R,0.75001X1.0*%
%ADD47C,0.5*%
%ADD48R,1.0X1.39954*%
%ADD49O,0.27X1.5*%
%ADD50O,1.5X0.27*%
%ADD51C,4.5*%
%ADD52C,0.61*%
%ADD53C,0.3048*%
%ADD54C,0.508*%
%ADD55C,0.305*%
G75*


G04 Copper Start*
G36*
G01X1032945Y-4044986D02*
G03X1038527Y-4064186I35814J0D01*
G01X350000D01*
G02X35814Y-3750000I0J314186D01*
G01Y-3286687D01*
G03X53593Y-3291412I17779J31090D01*
G01X323592D01*
G03X359406Y-3255598I0J35814D01*
G01Y-3255597D01*
G01Y-3184968D01*
G01X916399Y-3741961D01*
G03X952500Y-3756914I36101J36101D01*
G01X1037839D01*
G03X1032945Y-3774986I30920J-18072D01*
G01Y-4044986D01*
G37*
%LPC*%
G36*
G01X400000Y-3960814D02*
G03X660814Y-3700000I0J260814D01*
G03X400000Y-3439186I-260814J0D01*
G03X139186Y-3700000I0J-260814D01*
G03X400000Y-3960814I260814J0D01*
G37*
%LPD*%
G36*
G01X6564187Y-3750000D02*
G02X6250000Y-4064186I-314186J0D01*
G01X5813790D01*
G03X5819356Y-4045011I-30248J19175D01*
G01Y-3775012D01*
G01Y-3775011D01*
G03X5783542Y-3739197I-35814J0D01*
G01X5683542D01*
G03X5647728Y-3775011I0J-35814D01*
G01Y-3775012D01*
G01Y-4045011D01*
G03X5653294Y-4064186I35814J0D01*
G01X5318779D01*
G03X5324361Y-4044986I-30232J19201D01*
G01Y-3774986D01*
G03X5288547Y-3739172I-35814J0D01*
G01X5188547D01*
G03X5152733Y-3774986I0J-35814D01*
G01Y-4044986D01*
G03X5158315Y-4064186I35814J0D01*
G01X5015830D01*
G03X5060016Y-3986257I-46628J77929D01*
G01Y-3906257D01*
G03X4969202Y-3815443I-90814J0D01*
G03X4878388Y-3906257I0J-90814D01*
G01Y-3986257D01*
G03X4922574Y-4064186I90814J0D01*
G01X4151849D01*
G03X4196035Y-3986257I-46628J77929D01*
G01Y-3906257D01*
G03X4105221Y-3815443I-90814J0D01*
G03X4014407Y-3906257I0J-90814D01*
G01Y-3986257D01*
G03X4058593Y-4064186I90814J0D01*
G01X2579392D01*
G03X2584960Y-4045007I-30246J19179D01*
G01Y-3775008D01*
G03X2574221Y-3749436I-35814J0D01*
G03X2583721Y-3741961I-26601J43576D01*
G01X2985327Y-3340354D01*
G01X3161836D01*
G01X3106315Y-3395875D01*
G03X3088386Y-3439160I43285J-43285D01*
G01Y-3515848D01*
G01X3088161Y-3524254D01*
G01X3087735Y-3529532D01*
G01X3087110Y-3534148D01*
G01X3086312Y-3538195D01*
G01X3085706Y-3540543D01*
G01X3085029Y-3542694D01*
G01X3084328Y-3544548D01*
G01X3083613Y-3546154D01*
G01X3082882Y-3547562D01*
G01X3082126Y-3548826D01*
G01X3081326Y-3549996D01*
G01X3080457Y-3551120D01*
G01X3079487Y-3552236D01*
G01X3078482Y-3553274D01*
G01X3076637Y-3554971D01*
G01X3074637Y-3556603D01*
G01X3071498Y-3558886D01*
G01X3065972Y-3562447D01*
G01X3041339Y-3576605D01*
G01X3040290Y-3577232D01*
G01X3027586Y-3585122D01*
G01X3025964Y-3586192D01*
G01X3021073Y-3589610D01*
G01X3020194Y-3590225D01*
G01X3016773Y-3592616D01*
G01X3015248Y-3593743D01*
G01X3013257Y-3595298D01*
G03X3008800Y-3598778I136743J-179703D01*
G01X3007225Y-3600008D01*
G01X3005703Y-3601266D01*
G01X3004668Y-3602170D01*
G03X2998221Y-3607803I145332J-172830D01*
G01X2997584Y-3608361D01*
G01X2996166Y-3609668D01*
G01X2995553Y-3610265D01*
G03X2989460Y-3616197I154448J-164735D01*
G01X2989352Y-3616302D01*
G01X2988097Y-3617586D01*
G03X2980640Y-3625639I161903J-157414D01*
G03X2924187Y-3775000I169360J-149362D01*
G03X3150001Y-4000814I225814J0D01*
G03X3375814Y-3775000I0J225814D01*
G03X3319361Y-3625639I-225814J0D01*
G03X3289118Y-3597129I-169360J-149362D01*
G01X3251532Y-3564739D01*
G01X3236217Y-3550398D01*
G01X3226890Y-3540658D01*
G01X3220688Y-3533344D01*
G01X3216942Y-3528318D01*
G01X3215059Y-3525474D01*
G01X3213480Y-3522794D01*
G01X3212308Y-3520492D01*
G01X3211524Y-3518640D01*
G01X3210943Y-3516879D01*
G01X3210923Y-3516800D01*
G01X3210859Y-3516480D01*
G01X3210833Y-3516302D01*
G01X3210829Y-3516260D01*
G01X3210814Y-3515779D01*
G01Y-3464516D01*
G01X3243556Y-3431774D01*
G01X4323988D01*
G03X4322806Y-3444240I65132J-12466D01*
G03X4326148Y-3465028I66314J0D01*
G02X4324647Y-3472462I-122053J20788D01*
G03X4307222Y-3467937I-17425J-31289D01*
G01X4227222D01*
G03X4191763Y-3498722I0J-35814D01*
G03X4105221Y-3435434I-86542J-27525D01*
G03X4014407Y-3526248I0J-90814D01*
G01Y-3606248D01*
G03X4105221Y-3697061I90814J0D01*
G03X4195061Y-3619509I0J90814D01*
G03X4227222Y-3639565I32161J15758D01*
G01X4307222D01*
G03X4329717Y-3631619I0J35814D01*
G03X4352212Y-3639565I22495J27868D01*
G01X4422212D01*
G03X4437212Y-3636272I0J35814D01*
G03X4452212Y-3639565I15000J32521D01*
G01X4522211D01*
G03X4537211Y-3636272I0J35814D01*
G03X4552211Y-3639565I15000J32521D01*
G01X4622211D01*
G03X4637211Y-3636272I0J35814D01*
G03X4652211Y-3639565I15000J32521D01*
G01X4722211D01*
G03X4758025Y-3603751I0J35814D01*
G01Y-3503751D01*
G03X4722211Y-3467937I-35814J0D01*
G01X4652211D01*
G03X4637211Y-3471229I0J-35814D01*
G03X4622211Y-3467937I-15000J-32521D01*
G01X4552211D01*
G03X4537211Y-3471229I0J-35814D01*
G03X4522211Y-3467937I-15000J-32521D01*
G01X4452212D01*
G01X4451756Y-3467940D01*
G01X4451587Y-3466497D01*
G03X4455434Y-3444240I-62467J22257D01*
G03X4454252Y-3431774I-66314J0D01*
G01X5038822D01*
G03X5057140Y-3434354I18318J63734D01*
G03X5123454Y-3368040I0J66314D01*
G03X5122772Y-3358553I-66314J0D01*
G01X5335882Y-3571663D01*
G02X5357721Y-3613782I-55498J-55498D01*
G01Y-3674996D01*
G03X5393535Y-3710810I35814J0D01*
G01X5453535D01*
G03X5486032Y-3690050I0J35814D01*
G03X5518528Y-3710810I32497J15053D01*
G01X5578528D01*
G03X5614342Y-3674996I0J35814D01*
G01Y-3504997D01*
G03X5588420Y-3470576I-35814J0D01*
G02X5549005Y-3447344I25262J87909D01*
G01X5528375Y-3426714D01*
G01X5811520D01*
G03X5854805Y-3408785I0J61214D01*
G01X5900525Y-3363065D01*
G03X5918454Y-3319780I-43285J43285D01*
G01Y-1282700D01*
G03X5900525Y-1239415I-61214J0D01*
G01X5821785Y-1160675D01*
G03X5778500Y-1142746I-43285J-43285D01*
G01X5689100D01*
G01X5686239Y-1142655D01*
G01X5684348Y-1142461D01*
G01X5683802Y-1142370D01*
G01X5683265Y-1142249D01*
G01X5682916Y-1142149D01*
G01X5682706Y-1142075D01*
G01X5682585Y-1142024D01*
G01X5682500Y-1141981D01*
G01X5682401Y-1141925D01*
G01X5682246Y-1141824D01*
G01X5682171Y-1141769D01*
G01X5681406Y-1141136D01*
G01X5680631Y-1140407D01*
G01X5679121Y-1138806D01*
G01X5671543Y-1129619D01*
G01X5671396Y-1129442D01*
G01X5663707Y-1120241D01*
G01X5662351Y-1118711D01*
G01Y-1118710D01*
G01X5657362Y-1113390D01*
G01X5655999Y-1112013D01*
G01X5654604Y-1110677D01*
G03X5651314Y-1107530I-88603J-89323D01*
G01X5650614Y-1106887D01*
G01X5650442Y-1106733D01*
G01X5649218Y-1105640D01*
G03X5566000Y-1074186I-83218J-94360D01*
G03X5440186Y-1200000I0J-125814D01*
G03X5566000Y-1325814I125814J0D01*
G03X5649218Y-1294360I0J125814D01*
G03X5654657Y-1289270I-83218J94360D01*
G01X5666477Y-1278152D01*
G01X5673220Y-1272044D01*
G01X5675980Y-1269823D01*
G01X5677948Y-1268417D01*
G01X5679092Y-1267690D01*
G01X5680199Y-1267067D01*
G01X5681192Y-1266582D01*
G01X5682115Y-1266201D01*
G01X5683024Y-1265895D01*
G01X5683989Y-1265643D01*
G01X5685083Y-1265436D01*
G01X5686380Y-1265281D01*
G01X5688320Y-1265178D01*
G01X5688715Y-1265174D01*
G01X5753144D01*
G01X5796026Y-1308056D01*
G01Y-3294424D01*
G01X5786164Y-3304286D01*
G01X5516836D01*
G01X5492364Y-3279814D01*
G01X5656040D01*
G03X5691854Y-3244000I0J35814D01*
G01Y-3064001D01*
G03X5656040Y-3028187I-35814J0D01*
G01X5476041D01*
G03X5458820Y-3032599I0J-35814D01*
G01Y-2967261D01*
G01X5458789Y-2965775D01*
G03X5566040Y-3025814I107251J65774D01*
G03X5691854Y-2900001I0J125814D01*
G03X5573919Y-2774434I-125814J0D01*
G03X5567112Y-2774191I-7879J-125567D01*
G01X5564234Y-2774095D01*
G01X5563041Y-2774075D01*
G01X5562011Y-2774090D01*
G01X5562010D01*
G01X5542892Y-2774640D01*
G01X5534841Y-2774769D01*
G01X5532318Y-2774666D01*
G01X5530918Y-2774537D01*
G01X5529755Y-2774366D01*
G01X5528886Y-2774183D01*
G01X5528004Y-2773932D01*
G01X5527839Y-2773873D01*
G01X5527488Y-2773728D01*
G01X5527121Y-2773554D01*
G01X5526707Y-2773330D01*
G01X5526221Y-2773032D01*
G01X5525820Y-2772757D01*
G01X5524557Y-2771773D01*
G01X5522920Y-2770302D01*
G01X5522552Y-2769943D01*
G01X5512431Y-2759821D01*
G03X5566040Y-2771814I53610J113820D01*
G03X5691854Y-2646001I0J125814D01*
G03X5566040Y-2520187I-125814J0D01*
G03X5440227Y-2646001I0J-125814D01*
G03X5467754Y-2724542I125814J0D01*
G03X5457205Y-2722111I-18971J-58200D01*
G03X5423006Y-2696929I-34200J-10632D01*
G01X5348005D01*
G03X5312191Y-2732743I0J-35814D01*
G01Y-2832742D01*
G03X5348005Y-2868556I35814J0D01*
G01X5423006D01*
G03X5440450Y-2864021I0J35814D01*
G01X5440522Y-2864454D01*
G01X5440661Y-2865724D01*
G01X5440790Y-2868108D01*
G01X5440756Y-2874615D01*
G01X5440130Y-2894489D01*
G01X5440112Y-2895616D01*
G01X5440123Y-2896481D01*
G01X5440230Y-2900936D01*
G03X5440332Y-2905150I125810J935D01*
G01X5440377Y-2906210D01*
G01X5440402Y-2906651D01*
G01X5440474Y-2907879D01*
G03X5446974Y-2940649I125567J7879D01*
G03X5423006Y-2931447I-23968J-26611D01*
G01X5348005D01*
G03X5314642Y-2954240I0J-35814D01*
G02X5297823Y-2955381I-42837J506925D01*
G02X5254308Y-2937587I10890J88738D01*
G03X5232514Y-2930192I-21794J-28419D01*
G01X5107513D01*
G03X5071699Y-2966006I0J-35814D01*
G01Y-3066006D01*
G03X5107513Y-3101820I35814J0D01*
G01X5232514D01*
G03X5252575Y-3095674I0J35814D01*
G02X5297378Y-3079118I56139J-83020D01*
G02X5314642Y-3080281I-25573J-508088D01*
G03X5321630Y-3091489I33363J13021D01*
G02X5324291Y-3143461I-506070J-51972D01*
G01Y-3259525D01*
G03X5326432Y-3275570I61214J0D01*
G01X5230401Y-3179539D01*
G03X5194300Y-3164586I-36101J-36101D01*
G01X4851344D01*
G01X4874625Y-3139217D01*
G03X4884052Y-3115002I-26387J24215D01*
G01Y-2829509D01*
G03X4873563Y-2804184I-35814J0D01*
G01X4852240Y-2782861D01*
G03X4826915Y-2772372I-25324J-25324D01*
G01X4717436D01*
G03X4692112Y-2782861I0J-35814D01*
G01X4673653Y-2801320D01*
G03X4663163Y-2826644I25324J-25324D01*
G01Y-2933064D01*
G01X4650726Y-2945502D01*
G01X4464742D01*
G03X4439418Y-2955992I0J-35814D01*
G01X4419050Y-2976360D01*
G03X4408560Y-3001684I25324J-25324D01*
G01X4408561Y-3001859D01*
G01X4409197Y-3132256D01*
G01Y-3133760D01*
G03X4419686Y-3159084I35814J0D01*
G01X4425188Y-3164586D01*
G01X3658935D01*
G01X3757201Y-3066321D01*
G03X3772154Y-3030220I-36101J36101D01*
G01Y-2321399D01*
G03X3781152Y-2322548I8998J34665D01*
G01X3918853D01*
G03X3954120Y-2292970I0J35814D01*
G01X3955586Y-2292854D01*
G02X3995581Y-2302341I-24274J-191386D01*
G03X4007512Y-2304387I11931J33768D01*
G01X4132513D01*
G03X4168327Y-2268573I0J35814D01*
G01Y-2168573D01*
G03X4132513Y-2132759I-35814J0D01*
G01X4007512D01*
G03X3979782Y-2145909I0J-35814D01*
G02X3953597Y-2164792I-48470J39615D01*
G03X3918853Y-2137666I-34744J-8688D01*
G01X3868517D01*
G03X3893759Y-2092003I-40737J52326D01*
G01X3893835Y-2091830D01*
G01X3894155Y-2091217D01*
G01X3894235Y-2091086D01*
G01X4123247Y-1862074D01*
G01X4237345D01*
G01X4182491Y-1927899D01*
G03X4174190Y-1950827I27513J-22928D01*
G01Y-2502949D01*
G01X4150059Y-2527080D01*
G02X4160280Y-2511207I75993J-37708D01*
G03X4168327Y-2488587I-27767J22620D01*
G01Y-2388588D01*
G03X4132513Y-2352774I-35814J0D01*
G01X4007512D01*
G03X3971698Y-2388588I0J-35814D01*
G01Y-2488587D01*
G03X4002652Y-2524070I35814J0D01*
G02X4018790Y-2564787I-43298J-40717D01*
G01Y-2599305D01*
G02X4018562Y-2604509I-59436J0D01*
G01X4002544D01*
G03X3977219Y-2614999I0J-35814D01*
G01X3954999Y-2637219D01*
G03X3944510Y-2662543I25324J-25324D01*
G01Y-2808878D01*
G03X3954999Y-2834202I35814J0D01*
G01X3973083Y-2852285D01*
G03X3998407Y-2862775I25324J25324D01*
G01X4164618D01*
G03X4189942Y-2852285I0J35814D01*
G01X4207708Y-2834519D01*
G03X4218198Y-2809195I-25324J25324D01*
G01Y-2741306D01*
G01X4324735Y-2635817D01*
G01X4813680D01*
G03X4839004Y-2625328I0J35814D01*
G01X4897881Y-2566451D01*
G03X4908371Y-2541126I-25324J25324D01*
G01Y-1976060D01*
G01X5037178Y-2104867D01*
G02X5080569Y-2189984I-109380J-109380D01*
G01Y-2210003D01*
G03X5116383Y-2245817I35814J0D01*
G01X5241384D01*
G03X5274748Y-2223024I0J35814D01*
G02X5285352Y-2222239I42837J-506925D01*
G02X5327749Y-2237629I-14820J-106922D01*
G03X5346732Y-2243074I18983J30369D01*
G01X5421733D01*
G03X5440227Y-2237930I0J35814D01*
G01Y-2394000D01*
G03X5476041Y-2429814I35814J0D01*
G01X5656040D01*
G03X5691854Y-2394000I0J35814D01*
G01Y-2214000D01*
G03X5656040Y-2178186I-35814J0D01*
G01X5476041D01*
G03X5457547Y-2183330I0J-35814D01*
G01Y-2113705D01*
G03X5566040Y-2175814I108493J63705D01*
G03X5691854Y-2050000I0J125814D01*
G03X5573919Y-1924433I-125814J0D01*
G03X5567112Y-1924191I-7879J-125567D01*
G01X5564234Y-1924095D01*
G01X5563041Y-1924075D01*
G01X5562011Y-1924090D01*
G01X5542892Y-1924640D01*
G01X5534841Y-1924768D01*
G01X5532318Y-1924665D01*
G01X5530918Y-1924536D01*
G01X5529755Y-1924366D01*
G01X5528886Y-1924182D01*
G01X5528004Y-1923931D01*
G01X5527839Y-1923873D01*
G01X5527488Y-1923728D01*
G01X5527121Y-1923553D01*
G01X5526707Y-1923329D01*
G01X5526221Y-1923031D01*
G01X5525820Y-1922757D01*
G01X5524557Y-1921772D01*
G01X5522920Y-1920302D01*
G01X5522552Y-1919942D01*
G01X5512431Y-1909820D01*
G03X5566040Y-1921814I53610J113820D01*
G03X5691854Y-1796000I0J125814D01*
G03X5566040Y-1670186I-125814J0D01*
G03X5440227Y-1796000I0J-125814D01*
G03X5461406Y-1865862I125814J0D01*
G03X5456501Y-1864148I-22623J-56880D01*
G03X5421733Y-1836928I-34768J-8594D01*
G01X5346732D01*
G03X5310918Y-1872742I0J-35814D01*
G01Y-1972742D01*
G03X5346732Y-2008556I35814J0D01*
G01X5421733D01*
G03X5435341Y-2005870I0J35814D01*
G01X5435714Y-2006243D01*
G01X5437452Y-2008094D01*
G01X5438554Y-2009441D01*
G01X5438887Y-2009902D01*
G01X5439231Y-2010434D01*
G01X5439489Y-2010881D01*
G01X5439686Y-2011268D01*
G01X5439843Y-2011623D01*
G01X5439901Y-2011773D01*
G01X5440160Y-2012607D01*
G01X5440346Y-2013396D01*
G01X5440522Y-2014453D01*
G01X5440661Y-2015723D01*
G01X5440790Y-2018107D01*
G01X5440756Y-2024614D01*
G01X5440130Y-2044488D01*
G01X5440112Y-2045616D01*
G01X5440123Y-2046480D01*
G01X5440230Y-2050935D01*
G03X5440332Y-2055149I125810J935D01*
G01X5440377Y-2056209D01*
G01X5440402Y-2056650D01*
G01X5440474Y-2057879D01*
G03X5443588Y-2078887I125567J7879D01*
G03X5421733Y-2071446I-21854J-28373D01*
G01X5346732D01*
G03X5323962Y-2079617I0J-35814D01*
G02X5284103Y-2097686I-53429J64863D01*
G02X5274748Y-2096983I33482J507629D01*
G03X5241384Y-2074189I-33363J-13021D01*
G01X5221365D01*
G02X5136248Y-2030798I24262J152771D01*
G01X5131253Y-2025802D01*
G01X5241384D01*
G03X5277198Y-1989988I0J35814D01*
G01Y-1889989D01*
G03X5259461Y-1859071I-35814J0D01*
G02X5245210Y-1838572I43267J45283D01*
G02X5256762Y-1821416I54324J-24115D01*
G03X5284667Y-1786487I-7909J34930D01*
G01Y-1673233D01*
G03X5248853Y-1637419I-35814J0D01*
G01X5111152D01*
G03X5075338Y-1673233I0J-35814D01*
G01Y-1786487D01*
G03X5100181Y-1820579I35814J0D01*
G02X5112558Y-1838572I-41947J-42108D01*
G02X5098307Y-1859071I-57519J24783D01*
G03X5080569Y-1889989I18077J-30917D01*
G01Y-1975119D01*
G01X4960874Y-1855424D01*
G01Y-1640943D01*
G03X4965974Y-1615440I-61214J25503D01*
G03X4899660Y-1549126I-66314J0D01*
G03X4881599Y-1551633I0J-66314D01*
G01X5045700Y-1387532D01*
G02X5087819Y-1365693I55498J-55498D01*
G01X5156629D01*
G03X5192443Y-1329879I0J35814D01*
G01Y-1192178D01*
G03X5178760Y-1164020I-35814J0D01*
G03X5185812Y-1142680I-28762J21339D01*
G01Y-1042681D01*
G03X5149998Y-1006867I-35814J0D01*
G01X5069998D01*
G03X5034184Y-1042681I0J-35814D01*
G01Y-1142680D01*
G03X5037133Y-1156912I35814J0D01*
G03X5007562Y-1192178I6243J-35266D01*
G01Y-1260988D01*
G02X4992444Y-1295451I-77337J13379D01*
G01Y-1192178D01*
G03X4956630Y-1156364I-35814J0D01*
G01X4843376D01*
G03X4808535Y-1183887I0J-35814D01*
G02X4771472Y-1199814I-37063J35159D01*
G03X4728187Y-1217743I0J-61214D01*
G01X4696355Y-1249575D01*
G03X4678426Y-1292860I43285J-43285D01*
G01Y-1361337D01*
G03X4673326Y-1386840I61214J-25503D01*
G03X4739640Y-1453154I66314J0D01*
G03X4805954Y-1386840I0J66314D01*
G03X4800854Y-1361337I-66314J0D01*
G01Y-1331537D01*
G02X4808535Y-1338170I-29382J-41792D01*
G03X4843376Y-1365693I34841J8291D01*
G01X4923137D01*
G01X4528863Y-1759966D01*
G01X4390455D01*
G01X4641121Y-1509301D01*
G03X4656074Y-1473200I-36101J36101D01*
G01Y-927927D01*
G01X4768407Y-815594D01*
G01X5129190D01*
G01Y-912678D01*
G03X5165004Y-948492I35814J0D01*
G01X5245004D01*
G03X5280635Y-916289I0J35814D01*
G02X5290754Y-913743I10119J-18827D01*
G01X5442537D01*
G01X5441351Y-928921D01*
G03X5440186Y-946000I124649J-17079D01*
G03X5440433Y-953879I125814J0D01*
G03X5566000Y-1071814I125567J7879D01*
G03X5691814Y-946000I0J125814D01*
G03X5573879Y-820433I-125814J0D01*
G03X5566000Y-820186I-7879J-125567D01*
G03X5548125Y-821462I0J-125814D01*
G01X5531097Y-822879D01*
G01X5521518Y-823251D01*
G01X5518083Y-823189D01*
G01X5515232Y-822978D01*
G01X5514695Y-822898D01*
G03X5482679Y-811614I-32017J-39780D01*
G01X5290754D01*
G02X5284782Y-810763I0J21374D01*
G03X5299205Y-800641I-21678J46223D01*
G01X5353342Y-746504D01*
G02X5395460Y-724665I55498J-55498D01*
G01X5464271D01*
G03X5500085Y-688851I0J35814D01*
G01Y-620040D01*
G02X5521924Y-577922I77337J-13379D01*
G01X5562236Y-537610D01*
G03X5577189Y-501509I-36101J36101D01*
G01Y-451059D01*
G02X5579628Y-441153I21336J0D01*
G01X5587635D01*
G03X5606557Y-435746I0J35814D01*
G03X5639880Y-458434I33322J13125D01*
G01X5774880D01*
G01X5774881D01*
G03X5810695Y-422620I0J35814D01*
G01Y-281620D01*
G03X5774881Y-245806I-35814J0D01*
G01X5774880D01*
G01X5639880D01*
G03X5619184Y-252391I0J-35814D01*
G03X5587635Y-233526I-31549J-16949D01*
G01X5464635D01*
G03X5428821Y-269340I0J-35814D01*
G01Y-405339D01*
G03X5464635Y-441153I35814J0D01*
G01X5472642D01*
G02X5475081Y-451059I-18897J-9906D01*
G01Y-480362D01*
G01X5461946Y-493497D01*
G02X5419828Y-515336I-55498J55498D01*
G01X5351017D01*
G03X5315203Y-551150I0J-35814D01*
G01Y-619960D01*
G02X5300085Y-654423I-77337J13379D01*
G01Y-551150D01*
G03X5264271Y-515336I-35814J0D01*
G01X5151018D01*
G03X5115204Y-551150I0J-35814D01*
G01Y-619960D01*
G02X5104875Y-647446I-77337J13379D01*
G01X4712273D01*
G01X4710495D01*
G01X4717124Y-640817D01*
G01X4725563D01*
G03X4761377Y-605003I0J35814D01*
G01Y-425003D01*
G03X4725563Y-389189I-35814J0D01*
G01X4655563D01*
G03X4628066Y-402056I0J-35814D01*
G03X4600569Y-389189I-27497J-22947D01*
G01X4530569D01*
G03X4494755Y-425003I0J-35814D01*
G01Y-605003D01*
G03X4497729Y-619290I35814J0D01*
G01X4425831Y-691188D01*
G03X4396592Y-667662I-54491J-37792D01*
G01X4378138Y-649208D01*
G02X4384979Y-614890I209832J-23989D01*
G03X4386371Y-605003I-34422J9887D01*
G01Y-425003D01*
G03X4350557Y-389189I-35814J0D01*
G01X4280557D01*
G03X4244743Y-425003I0J-35814D01*
G01Y-605003D01*
G03X4246135Y-614890I35814J0D01*
G02X4254343Y-673197I-202990J-58307D01*
G03X4272272Y-716482I61214J0D01*
G01X4310022Y-754232D01*
G03X4331633Y-782092I61318J25252D01*
G01X2989554D01*
G03X2953453Y-797046I0J-51054D01*
G01X2834099Y-916399D01*
G03X2821242Y-938021I36101J-36101D01*
G01X2741201Y-857979D01*
G03X2705100Y-843026I-36101J-36101D01*
G01X1917700D01*
G03X1881599Y-857979I0J-51054D01*
G01X1793406Y-946173D01*
G03X1778565Y-908017I-66206J-3787D01*
G01X1778496Y-907841D01*
G01X1778290Y-907182D01*
G01X1778254Y-907033D01*
G01Y-892619D01*
G03X1769618Y-864207I-51054J0D01*
G03X1811294Y-802640I-24638J61567D01*
G03X1751643Y-736661I-66314J0D01*
G01X1751470Y-736585D01*
G01X1750857Y-736265D01*
G01X1750726Y-736185D01*
G01X1557165Y-542623D01*
G03X1573319Y-512688I-19660J29936D01*
G01Y-412688D01*
G03X1537505Y-376874I-35814J0D01*
G01X1437505D01*
G03X1409229Y-390708I0J-35814D01*
G03X1362512Y-376877I-46718J-71982D01*
G03X1276698Y-462690I0J-85814D01*
G03X1298151Y-519451I85814J0D01*
G03X1301623Y-523160I64360J56761D01*
G01X1302083Y-523648D01*
G01X1303807Y-525355D01*
G01X1308859Y-530031D01*
G01X1309352Y-530479D01*
G01X1311666Y-532542D01*
G03X1326411Y-564031I50845J4612D01*
G01X1673471Y-911091D01*
G03X1660886Y-949960I53729J-38869D01*
G03X1723413Y-1016166I66314J0D01*
G01X1689811Y-1049768D01*
G01X1558531D01*
G01Y-1046840D01*
G03X1561271Y-1030342I-48315J16499D01*
G01Y-844737D01*
G03X1546317Y-808636I-51054J0D01*
G01X1465995Y-728314D01*
G01X1465754Y-727889D01*
G01X1465519Y-727399D01*
G03X1399540Y-667746I-65979J-6661D01*
G03X1333226Y-734060I0J-66314D01*
G03X1392877Y-800039I66314J0D01*
G01X1393050Y-800115D01*
G01X1393663Y-800435D01*
G01X1393794Y-800515D01*
G01X1459163Y-865884D01*
G01Y-943577D01*
G03X1446318Y-921996I-48946J-14520D01*
G01X1166540Y-642219D01*
G03X1173754Y-612140I-59100J30079D01*
G03X1163553Y-576801I-66314J0D01*
G01Y-570616D01*
G01Y-533149D01*
G01X1171183Y-525512D01*
G01X1171998Y-524670D01*
G01X1173824Y-522719D01*
G03X1176860Y-519451I-61324J60028D01*
G03X1198313Y-462690I-64360J56761D01*
G03X1112499Y-376877I-85814J0D01*
G03X1026686Y-462690I0J-85814D01*
G03X1048139Y-519451I85814J0D01*
G03X1051175Y-522719I64360J56761D01*
G01X1053001Y-524670D01*
G01X1053816Y-525512D01*
G01X1061445Y-533149D01*
G01Y-564185D01*
G01X1059473Y-566315D01*
G01X1059135Y-566685D01*
G01X1058460Y-567435D01*
G01X1057704Y-568277D01*
G03X1041126Y-612140I49736J-43863D01*
G03X1056075Y-654083I66314J0D01*
G01X1056144Y-654259D01*
G01X1056350Y-654918D01*
G01X1056386Y-655067D01*
G01Y-655320D01*
G03X1071339Y-691421I51054J0D01*
G01X1337757Y-957839D01*
G03X1322718Y-954528I-15040J-32503D01*
G01X1297716D01*
G03X1261902Y-990342I0J-35814D01*
G01Y-1070342D01*
G03X1277847Y-1100138I35814J0D01*
G03X1268510Y-1099277I-9337J-50193D01*
G03X1252012Y-1102017I0J-51054D01*
G01X1228510D01*
G03X1192696Y-1137831I0J-35814D01*
G01Y-1138133D01*
G01Y-1153953D01*
G03X1178306Y-1189481I36664J-35529D01*
G01Y-1628140D01*
G03X1193259Y-1664241I51054J0D01*
G01X1271999Y-1742981D01*
G03X1308100Y-1757934I36101J36101D01*
G01X1574546D01*
G03X1564366Y-1793240I56134J-35306D01*
G03X1624062Y-1859223I66314J0D01*
G01X1624311Y-1859332D01*
G01X1624943Y-1859659D01*
G01X1625035Y-1859715D01*
G01X1646755Y-1881435D01*
G01X1603191D01*
G03X1567090Y-1896389I0J-51054D01*
G01X1500599Y-1962879D01*
G03X1485646Y-1998980I36101J-36101D01*
G01Y-2242820D01*
G03X1500599Y-2278921I51054J0D01*
G01X1640299Y-2418621D01*
G03X1676400Y-2433574I36101J36101D01*
G01X1941719D01*
G02X1951625Y-2436013I0J-21336D01*
G01Y-2450360D01*
G03X1987439Y-2486174I35814J0D01*
G01X2122440D01*
G03X2158254Y-2450360I0J35814D01*
G01Y-2419932D01*
G03X2162720Y-2415960I-31634J40072D01*
G01X2212960Y-2365721D01*
G03X2227914Y-2329620I-36101J36101D01*
G01Y-2201330D01*
G01X2258917D01*
G01X2258918D01*
G01X2349022D01*
G01X2350251Y-2203626D01*
G01X2352658Y-2208789D01*
G01X2354827Y-2214159D01*
G01X2356649Y-2219454D01*
G01X2358033Y-2224369D01*
G01X2358972Y-2228802D01*
G01X2359252Y-2230744D01*
G01X2359396Y-2232568D01*
G01X2359406Y-2233043D01*
G01Y-2287757D01*
G03X2357851Y-2300263I49499J-12506D01*
G01Y-2390503D01*
G03X2372804Y-2426603I51054J0D01*
G01X2382625Y-2436424D01*
G03X2381583Y-2444999I34772J-8575D01*
G01Y-2452877D01*
G01Y-2580000D01*
G03X2417397Y-2615814I35814J0D01*
G01X2558397D01*
G03X2594211Y-2580000I0J35814D01*
G01Y-2539773D01*
G01X2603326Y-2548887D01*
G01Y-2772574D01*
G01X2597444Y-2778456D01*
G02X2555326Y-2800295I-55498J55498D01*
G01X2481992D01*
G03X2446178Y-2836109I0J-35814D01*
G01Y-2876507D01*
G02X2441206Y-2878367I-9906J18897D01*
G02X2436234Y-2876507I4934J20758D01*
G01Y-2859499D01*
G03X2400420Y-2823685I-35814J0D01*
G01X2265419D01*
G03X2229605Y-2859499I0J-35814D01*
G01Y-2872553D01*
G02X2222594Y-2874795I-9906J18897D01*
G03X2189857Y-2865232I-32736J-51251D01*
G03X2129043Y-2926046I0J-60814D01*
G03X2189857Y-2986860I60814J0D01*
G03X2222594Y-2977297I0J60814D01*
G02X2229605Y-2979539I-2894J-21139D01*
G01Y-3000500D01*
G03X2265419Y-3036314I35814J0D01*
G01X2400420D01*
G03X2436234Y-3000500I0J35814D01*
G01Y-2983493D01*
G02X2444039Y-2981157I9906J-18897D01*
G02X2457036Y-2981796I-7767J-290810D01*
G03X2481992Y-2991923I24957J25687D01*
G01X2621992D01*
G03X2657806Y-2956109I0J35814D01*
G01Y-2882776D01*
G02X2679645Y-2840657I77337J-13379D01*
G01X2690480Y-2829822D01*
G03X2699892Y-2816854I-36101J36101D01*
G01X2702007Y-2816917D01*
G01X2842007D01*
G03X2877738Y-2783537I0J35814D01*
G02X2882205Y-2781781I9989J-18853D01*
G02X2886590Y-2783493I-5522J-20609D01*
G01Y-2800500D01*
G03X2922404Y-2836314I35814J0D01*
G01X3057405D01*
G03X3093219Y-2800500I0J35814D01*
G01Y-2783493D01*
G02X3103125Y-2781054I9906J-18897D01*
G01X3121285D01*
G03X3138914Y-2777914I0J51054D01*
G03X3194799Y-2717300I-4929J60614D01*
G03X3133985Y-2656486I-60814J0D01*
G03X3093761Y-2671690I0J-60814D01*
G01X3093219Y-2672174D01*
G01Y-2659500D01*
G03X3057405Y-2623686I-35814J0D01*
G01X2922404D01*
G03X2886590Y-2659500I0J-35814D01*
G01Y-2676507D01*
G02X2882205Y-2678219I-9906J18897D01*
G02X2877821Y-2676507I5522J20609D01*
G01Y-2661103D01*
G03X2842007Y-2625289I-35814J0D01*
G01X2781533D01*
G02X2779094Y-2615383I18897J9906D01*
G01Y-2459626D01*
G03X2764140Y-2423525I-51054J0D01*
G01X2740358Y-2399743D01*
G03X2757850Y-2367778I-31454J37980D01*
G01Y-2390503D01*
G03X2772803Y-2426603I51054J0D01*
G01X2790220Y-2444021D01*
G03X2826321Y-2458974I36101J36101D01*
G01X2941626D01*
G01Y-2462361D01*
G01Y-2580000D01*
G03X2977440Y-2615814I35814J0D01*
G01X3118440D01*
G03X3144609Y-2604450I0J35814D01*
G01X3179766Y-2639608D01*
G02X3201606Y-2681726I-55498J-55498D01*
G01Y-2763060D01*
G03X3237420Y-2798874I35814J0D01*
G01X3372421D01*
G03X3408235Y-2763060I0J35814D01*
G01Y-2746053D01*
G01X3410383Y-2745074D01*
G01X3412532Y-2746053D01*
G03X3448345Y-2781623I35813J245D01*
G01X3586046D01*
G03X3606546Y-2775175I0J35814D01*
G01Y-2968433D01*
G01X3537393Y-3037586D01*
G01X2192847D01*
G01X1969586Y-2814324D01*
G03X1933485Y-2799371I-36101J-36101D01*
G01X1931831Y-2799151D01*
G01Y-2781575D01*
G03X1896017Y-2745761I-35814J0D01*
G01X1782763D01*
G03X1746949Y-2781575I0J-35814D01*
G01Y-2919276D01*
G03X1782763Y-2955090I35814J0D01*
G01X1896017D01*
G03X1931792Y-2920933I0J35814D01*
G01X2109405Y-3098546D01*
G01X1937854D01*
G02X1927948Y-3096107I0J21336D01*
G01Y-3031575D01*
G03X1892134Y-2995761I-35814J0D01*
G01X1778880D01*
G03X1743066Y-3031575I0J-35814D01*
G01Y-3169276D01*
G03X1778880Y-3205090I35814J0D01*
G01X1892134D01*
G03X1905648Y-3202442I0J35814D01*
G02X1937854Y-3200654I32206J-289125D01*
G01X2631270D01*
G01X2359351Y-3472573D01*
G03X2344133Y-3469179I-15218J-32420D01*
G01X2342460D01*
G02X2300341Y-3447340I13379J77337D01*
G01X2217961Y-3364959D01*
G03X2181860Y-3350006I-36101J-36101D01*
G01X1554480D01*
G03X1518379Y-3364959I0J-51054D01*
G01X1435995Y-3447344D01*
G02X1430251Y-3452953I-239172J239172D01*
G02X1424045Y-3447344I52388J64203D01*
G01X1349281Y-3372579D01*
G03X1313180Y-3357626I-36101J-36101D01*
G01X952646D01*
G01X666258Y-3071238D01*
G03X695977Y-3056685I-6382J50654D01*
G01X1110521Y-2642141D01*
G03X1125474Y-2606040I-36101J36101D01*
G01Y-2140805D01*
G01X1137835Y-2128444D01*
G01X1139188Y-2127199D01*
G01X1140622Y-2126056D01*
G01X1142483Y-2124743D01*
G01X1146596Y-2122202D01*
G01X1151275Y-2119698D01*
G01X1152667Y-2119049D01*
G03X1179229Y-2124704I26562J59560D01*
G01X1324929D01*
G03X1390143Y-2059489I0J65215D01*
G03X1339784Y-1995989I-65214J0D01*
G03X1390143Y-1932489I-14855J63500D01*
G03X1324929Y-1867275I-65214J0D01*
G01X1179229D01*
G03X1149003Y-1874702I0J-65214D01*
G01X1148495Y-1874194D01*
G01X1148254Y-1873769D01*
G01X1148019Y-1873279D01*
G03X1133405Y-1837998I-65979J-6661D01*
G01X1133336Y-1837822D01*
G01X1133130Y-1837162D01*
G01X1133094Y-1837013D01*
G01Y-1130300D01*
G03X1118141Y-1094199I-51054J0D01*
G01X1055271Y-1031330D01*
G03X1019171Y-1016377I-36101J-36101D01*
G01X639347D01*
G02X614569Y-1008377I0J42377D01*
G03X593627Y-1001617I-20941J-29053D01*
G01X423628D01*
G03X387814Y-1037431I0J-35814D01*
G01Y-1097431D01*
G03X408574Y-1129927I35814J0D01*
G03X387814Y-1162424I15053J-32497D01*
G01Y-1222424D01*
G03X423628Y-1258238I35814J0D01*
G01X593627D01*
G03X614569Y-1251477I0J35814D01*
G02X639347Y-1243478I24779J-34377D01*
G01X858857D01*
G01X937006Y-1321627D01*
G01Y-1615186D01*
G03X901700Y-1605006I-35306J-56134D01*
G03X835721Y-1664657I0J-66314D01*
G01X835645Y-1664830D01*
G01X835325Y-1665443D01*
G01X835245Y-1665574D01*
G01X807634Y-1693184D01*
G03X792834Y-1725336I36101J-36101D01*
G01X787108D01*
G03X751294Y-1761150I0J-35814D01*
G01Y-1898851D01*
G03X787108Y-1934665I35814J0D01*
G01X789787D01*
G02X792226Y-1944571I-18897J-9906D01*
G01Y-1981200D01*
G03X806118Y-2016208I51054J0D01*
G03X772610Y-2028907I3842J-60692D01*
G02X763995Y-2026507I1291J21297D01*
G01Y-2023374D01*
G03X728181Y-1987560I-35814J0D01*
G01X590480D01*
G03X554666Y-2023374I0J-35814D01*
G01Y-2053036D01*
G02X544760Y-2055475I-9906J18897D01*
G01X521585D01*
G01X513949Y-2047846D01*
G01X513106Y-2047031D01*
G01X511155Y-2045205D01*
G01X509920Y-2044020D01*
G03X529521Y-2016415I-58793J62509D01*
G01X555910Y-1990026D01*
G01X589433Y-1956504D01*
G02X631552Y-1934665I55498J-55498D01*
G01X700362D01*
G03X736176Y-1898851I0J35814D01*
G01Y-1761150D01*
G03X700362Y-1725336I-35814J0D01*
G01X696072D01*
G02X693633Y-1715430I18897J9906D01*
G01Y-1708901D01*
G01Y-1707908D01*
G03X703393Y-1674865I-51054J33043D01*
G03X642579Y-1614051I-60814J0D01*
G03X609536Y-1623811I0J-60814D01*
G01X608543D01*
G01X390155D01*
G03X354054Y-1638764I0J-51054D01*
G01X220439Y-1772379D01*
G03X205486Y-1808480I36101J-36101D01*
G01Y-2265680D01*
G03X220439Y-2301781I51054J0D01*
G01X464279Y-2545621D01*
G03X500380Y-2560574I36101J36101D01*
G01X582564D01*
G03X581386Y-2573020I65136J-12446D01*
G03X647700Y-2639334I66314J0D01*
G03X714014Y-2573020I0J66314D01*
G03X712836Y-2560574I-66314J0D01*
G01X847254D01*
G01X849992Y-2560608D01*
G03X889000Y-2573294I39008J53628D01*
G03X939546Y-2549906I0J66314D01*
G01Y-2554413D01*
G01X649422Y-2844537D01*
G01X639327D01*
G02X622206Y-2844032I0J290913D01*
G03X593607Y-2829777I-28599J-21558D01*
G01X423607D01*
G03X394287Y-2845025I0J-35814D01*
G03X365229Y-2859490I7042J-50566D01*
G01X327119Y-2897599D01*
G03X312166Y-2933700I36101J-36101D01*
G01Y-3116580D01*
G03X312267Y-3119784I51054J0D01*
G01X53593D01*
G03X35814Y-3124508I0J-35814D01*
G01Y-2791677D01*
G03X53618Y-2796416I17804J31075D01*
G01X323618D01*
G03X359432Y-2760602I0J35814D01*
G01Y-2660603D01*
G03X323618Y-2624789I-35814J0D01*
G01X53618D01*
G03X35814Y-2629528I0J-35814D01*
G01Y-1458516D01*
G03X53613Y-1463252I17799J31078D01*
G01X323613D01*
G03X359427Y-1427438I0J35814D01*
G01Y-1327438D01*
G03X323613Y-1291624I-35814J0D01*
G01X53613D01*
G03X35814Y-1296360I0J-35814D01*
G01Y-963506D01*
G03X53638Y-968256I17824J31063D01*
G01X323638D01*
G03X359452Y-932442I0J35814D01*
G01Y-832443D01*
G03X323638Y-796629I-35814J0D01*
G01X53638D01*
G03X35814Y-801379I0J-35814D01*
G01Y-350000D01*
G02X350000Y-35814I314186J0D01*
G01X4046736D01*
G01Y-299991D01*
G03X4082550Y-335805I35814J0D01*
G01X4182550D01*
G03X4218364Y-299991I0J35814D01*
G01Y-35814D01*
G01X4787756D01*
G01Y-299991D01*
G03X4823570Y-335805I35814J0D01*
G01X4923570D01*
G03X4959384Y-299991I0J35814D01*
G01Y-35814D01*
G01X6250000D01*
G02X6564187Y-350000I0J-314186D01*
G01Y-3750000D01*
G37*
%LPC*%
G36*
G01X6200000Y-3960814D02*
G03X6460814Y-3700000I0J260814D01*
G03X6200000Y-3439186I-260814J0D01*
G03X5939186Y-3700000I0J-260814D01*
G03X6200000Y-3960814I260814J0D01*
G37*
G36*
G01X400000Y-660814D02*
G03X660814Y-400000I0J260814D01*
G03X400000Y-139186I-260814J0D01*
G03X139186Y-400000I0J-260814D01*
G03X400000Y-660814I260814J0D01*
G37*
G36*
G01X6200000Y-660814D02*
G03X6460814Y-400000I0J260814D01*
G03X6200000Y-139186I-260814J0D01*
G03X5939186Y-400000I0J-260814D01*
G03X6200000Y-660814I260814J0D01*
G37*
G36*
G01X2924187Y-325000D02*
G03X3150001Y-550814I225814J0D01*
G03X3375814Y-325000I0J225814D01*
G03X3150001Y-99186I-225814J0D01*
G03X2924187Y-325000I0J-225814D01*
G37*
G36*
G01X1198880Y-3347994D02*
G03X1265194Y-3281680I0J66314D01*
G03X1251392Y-3241182I-66314J0D01*
G01X1251344Y-3240307D01*
G01X1251339Y-3239918D01*
G01Y-3216122D01*
G02X1253874Y-3206036I21336J0D01*
G03X1286099Y-3170402I-3589J35634D01*
G01Y-3030448D01*
G03X1252180Y-2994685I-35814J0D01*
G02X1249715Y-2984728I18871J9956D01*
G01Y-2966122D01*
G02X1252250Y-2956036I21336J0D01*
G03X1284475Y-2920402I-3589J35634D01*
G01Y-2780448D01*
G03X1248661Y-2744634I-35814J0D01*
G01X1148661D01*
G03X1112847Y-2780448I0J-35814D01*
G01Y-2920402D01*
G03X1145072Y-2956036I35814J0D01*
G02X1147607Y-2966122I-18801J-10086D01*
G01Y-2984728D01*
G02X1144953Y-2995033I-21336J0D01*
G03X1114471Y-3030448I5332J-35415D01*
G01Y-3170402D01*
G03X1146697Y-3206036I35814J0D01*
G02X1149231Y-3216122I-18801J-10086D01*
G01Y-3237426D01*
G01X1149009Y-3237848D01*
G01X1148803Y-3238180D01*
G01X1148671Y-3238360D01*
G03X1132566Y-3281680I50209J-43320D01*
G03X1198880Y-3347994I66314J0D01*
G37*
G36*
G01X1458719Y-2956216D02*
G03X1494533Y-2920402I0J35814D01*
G01Y-2903918D01*
G02X1504439Y-2901479I9906J-18897D01*
G01X1537043D01*
G02X1546949Y-2903918I0J-21336D01*
G01Y-2919276D01*
G03X1582763Y-2955090I35814J0D01*
G01X1696017D01*
G03X1731831Y-2919276I0J35814D01*
G01Y-2781575D01*
G03X1696017Y-2745761I-35814J0D01*
G01X1582763D01*
G03X1546949Y-2781575I0J-35814D01*
G01Y-2796932D01*
G02X1537043Y-2799371I-9906J18897D01*
G01X1504439D01*
G02X1494533Y-2796932I0J21336D01*
G01Y-2780448D01*
G03X1458719Y-2744634I-35814J0D01*
G01X1358719D01*
G03X1322905Y-2780448I0J-35814D01*
G01Y-2920402D01*
G03X1358719Y-2956216I35814J0D01*
G01X1458719D01*
G37*
G36*
G01X1460343Y-3206216D02*
G03X1496157Y-3170402I0J35814D01*
G01Y-3153918D01*
G02X1506063Y-3151479I9906J-18897D01*
G01X1533161D01*
G02X1543067Y-3153918I0J-21336D01*
G01Y-3169276D01*
G03X1578881Y-3205090I35814J0D01*
G01X1692134D01*
G03X1727948Y-3169276I0J35814D01*
G01Y-3031575D01*
G03X1692134Y-2995761I-35814J0D01*
G01X1578881D01*
G03X1543067Y-3031575I0J-35814D01*
G01Y-3046932D01*
G02X1533161Y-3049371I-9906J18897D01*
G01X1506063D01*
G02X1496157Y-3046932I0J21336D01*
G01Y-3030448D01*
G03X1460343Y-2994634I-35814J0D01*
G01X1360343D01*
G03X1324529Y-3030448I0J-35814D01*
G01Y-3170402D01*
G03X1360343Y-3206216I35814J0D01*
G01X1460343D01*
G37*
G36*
G01X5232514Y-2881805D02*
G03X5268328Y-2845991I0J35814D01*
G01Y-2745991D01*
G03X5250590Y-2715074I-35814J0D01*
G02X5237290Y-2696675I43267J45283D01*
G02X5248081Y-2681362I53373J-26153D01*
G03X5275166Y-2646628I-8729J34734D01*
G01Y-2533374D01*
G03X5239352Y-2497560I-35814J0D01*
G01X5101651D01*
G03X5065837Y-2533374I0J-35814D01*
G01Y-2646628D01*
G03X5091588Y-2680999I35814J0D01*
G02X5102736Y-2696675I-42225J-41829D01*
G02X5089436Y-2715074I-56567J26884D01*
G03X5071699Y-2745991I18077J-30917D01*
G01Y-2845991D01*
G03X5107513Y-2881805I35814J0D01*
G01X5232514D01*
G37*
G36*
G01X2655536Y-696524D02*
G03X2697480Y-711474I41944J51364D01*
G03X2763794Y-645160I0J66314D01*
G03X2697480Y-578846I-66314J0D01*
G03X2655537Y-593795I0J-66314D01*
G01X2655361Y-593864D01*
G01X2654702Y-594070D01*
G01X2654553Y-594106D01*
G01X2622748D01*
G02X2612842Y-591667I0J21336D01*
G01Y-540491D01*
G03X2577028Y-504677I-35814J0D01*
G01X2441029D01*
G03X2405215Y-540491I0J-35814D01*
G01Y-663491D01*
G03X2441029Y-699305I35814J0D01*
G01X2577028D01*
G03X2581848Y-698979I0J35814D01*
G02X2622748Y-696214I40900J-301132D01*
G01X2654553D01*
G01X2655023Y-696344D01*
G01X2655536Y-696524D01*
G37*
G36*
G01X2157696Y-699064D02*
G03X2199640Y-714014I41944J51364D01*
G03X2265954Y-647700I0J66314D01*
G03X2199640Y-581386I-66314J0D01*
G03X2157697Y-596335I0J-66314D01*
G01X2157521Y-596404D01*
G01X2156862Y-596610D01*
G01X2156713Y-596646D01*
G01X2135644D01*
G02X2125738Y-594207I0J21336D01*
G01Y-540531D01*
G03X2089924Y-504717I-35814J0D01*
G01X1953924D01*
G03X1918110Y-540531I0J-35814D01*
G01Y-663531D01*
G03X1953924Y-699345I35814J0D01*
G01X2089924D01*
G01X2090849Y-699333D01*
G02X2135644Y-698754I44795J-1733709D01*
G01X2156713D01*
G01X2157183Y-698884D01*
G01X2157696Y-699064D01*
G37*
G36*
G01X1668719Y-2700291D02*
G03X1704533Y-2736105I35814J0D01*
G01X1817787D01*
G03X1853601Y-2700291I0J35814D01*
G01Y-2687473D01*
G02X1863507Y-2685034I9906J-18897D01*
G01X1872233D01*
G01X1872703Y-2685164D01*
G01X1873216Y-2685344D01*
G03X1915160Y-2700294I41944J51364D01*
G03X1981474Y-2633980I0J66314D01*
G03X1915160Y-2567666I-66314J0D01*
G03X1873217Y-2582615I0J-66314D01*
G01X1873041Y-2582684D01*
G01X1872382Y-2582890D01*
G01X1872233Y-2582926D01*
G01X1863507D01*
G02X1853601Y-2580487I0J21336D01*
G01Y-2562589D01*
G03X1817787Y-2526775I-35814J0D01*
G01X1704533D01*
G03X1668719Y-2562589I0J-35814D01*
G01Y-2700291D01*
G37*
G36*
G01X4878388Y-3606248D02*
G03X4969202Y-3697061I90814J0D01*
G03X5060016Y-3606248I0J90814D01*
G01Y-3526248D01*
G03X4969202Y-3435434I-90814J0D01*
G03X4878388Y-3526248I0J-90814D01*
G01Y-3606248D01*
G37*
%LPD*%
G36*
G01X581386Y-2438400D02*
G03X584495Y-2458466I66314J0D01*
G01X521527D01*
G01X307594Y-2244533D01*
G01Y-1829627D01*
G01X411302Y-1725919D01*
G01X580670D01*
G03X551295Y-1761150I6438J-35231D01*
G01Y-1829960D01*
G02X529455Y-1872079I-77337J13379D01*
G01X494228Y-1907306D01*
G03X451127Y-1895697I-43101J-74205D01*
G03X445753Y-1895865I0J-85814D01*
G03X365313Y-1981511I5374J-85645D01*
G03X392334Y-2044020I85814J0D01*
G03X365313Y-2106529I58793J-62509D01*
G03X392321Y-2169026I85814J0D01*
G03X365313Y-2231523I58806J-62497D01*
G03X451127Y-2317337I85814J0D01*
G03X507887Y-2295883I0J85814D01*
G03X511155Y-2292847I-56761J64360D01*
G01X513106Y-2291021D01*
G01X513949Y-2290207D01*
G01X521585Y-2282577D01*
G01X554666D01*
G01Y-2336627D01*
G03X590480Y-2372441I35814J0D01*
G01X605838D01*
G02X608277Y-2382347I-18897J-9906D01*
G01Y-2385019D01*
G01X607656Y-2385541D01*
G03X597964Y-2394537I40044J-52859D01*
G03X581386Y-2438400I49736J-43863D01*
G37*
G36*
G01X973647Y-3654806D02*
G01X414274Y-3095433D01*
G01Y-3085160D01*
G03X423607Y-3086398I9333J34576D01*
G01X516736D01*
G02X558855Y-3108237I-13379J-77337D01*
G01X895398Y-3444781D01*
G03X931499Y-3459734I36101J36101D01*
G01X1292033D01*
G01X1301482Y-3469183D01*
G01X1273747D01*
G03X1237933Y-3504997I0J-35814D01*
G01Y-3594647D01*
G02X1216094Y-3636765I-77337J13379D01*
G01X1198053Y-3654806D01*
G01X973647D01*
G37*
G36*
G01X1527940Y-4045011D02*
G03X1533506Y-4064186I35814J0D01*
G01X1198990D01*
G03X1204572Y-4044986I-30232J19201D01*
G01Y-3774986D01*
G03X1199678Y-3756914I-35814J0D01*
G01X1219200D01*
G03X1255301Y-3741961I0J51054D01*
G01X1266742Y-3730519D01*
G02X1295686Y-3713145I49247J-49247D01*
G02X1328060Y-3732650I-23124J-75002D01*
G01X1337371Y-3741961D01*
G03X1373472Y-3756914I36101J36101D01*
G01X1532849D01*
G03X1527940Y-3775011I30905J-18097D01*
G01Y-3775012D01*
G01Y-4045011D01*
G37*
G36*
G01X1344324Y-1146335D02*
G01X1344324Y-1137831D01*
G03X1325075Y-1106078I-35814J0D01*
G03X1358532Y-1070342I-2358J35736D01*
G01Y-990342D01*
G03X1355221Y-975302I-35814J0D01*
G01X1359163Y-979244D01*
G01Y-1030342D01*
G03X1361902Y-1046840I51054J0D01*
G01Y-1070342D01*
G03X1386354Y-1104305I35814J0D01*
G01X1344324Y-1146335D01*
G37*
G36*
G01X1458532Y-1049888D02*
G01X1458532Y-1046840D01*
G03X1460217Y-1040662I-48315J16499D01*
G03X1461902Y-1046840I50000J10321D01*
G01Y-1049768D01*
G03X1458532Y-1049888I136J-51054D01*
G37*
G36*
G01X1494554Y-3654806D02*
G01X1494554Y-3553467D01*
G02X1516393Y-3511348I77337J-13379D01*
G01X1575627Y-3452114D01*
G01X2160713D01*
G01X2177778Y-3469179D01*
G01X2159139D01*
G03X2123325Y-3504993I0J-35814D01*
G01Y-3577934D01*
G02X2101486Y-3620053I-77337J13379D01*
G01X2066733Y-3654806D01*
G01X1494554D01*
G37*
G36*
G01X1581512Y-1599223D02*
G03X1610634Y-1544320I-37192J54903D01*
G03X1595685Y-1502377I-66314J0D01*
G01X1595616Y-1502201D01*
G01X1595410Y-1501542D01*
G01X1595374Y-1501393D01*
G01Y-1488440D01*
G03X1580421Y-1452339I-51054J0D01*
G01X1559814Y-1431733D01*
G01Y-1424036D01*
G03X1572260Y-1425214I12446J65136D01*
G03X1611630Y-1412263I0J66314D01*
G03X1651000Y-1425214I39370J53363D01*
G03X1717314Y-1358900I0J66314D01*
G03X1701094Y-1315448I-66314J0D01*
G01X1698771Y-1312674D01*
G01Y-1307821D01*
G03X1683818Y-1271721I-51054J0D01*
G01X1680370Y-1268273D01*
G01X1658531Y-1246434D01*
G01Y-1230321D01*
G03X1643210Y-1200950I-35814J0D01*
G03X1651780Y-1201674I8570J50330D01*
G01X1736965D01*
G01X1738409D01*
G03X1771001Y-1211145I32592J51343D01*
G03X1803593Y-1201674I0J60814D01*
G01X1805037D01*
G01X1828398D01*
G03X1823446Y-1226820I61362J-25146D01*
G03X1878649Y-1292197I66314J0D01*
G01X1880878Y-1294426D01*
G01X2157610Y-1571158D01*
G03X2148115Y-1599223I39808J-29107D01*
G01X1581512D01*
G37*
G36*
G01X1951625Y-2329027D02*
G02X1941719Y-2331466I-9906J18897D01*
G01X1697547D01*
G01X1587754Y-2221673D01*
G01Y-2020127D01*
G01X1624338Y-1983543D01*
G01X1662849D01*
G01X1693135D01*
G03X1733711Y-1997704I40576J51054D01*
G01X1879411D01*
G03X1944625Y-1932489I0J65215D01*
G03X1937677Y-1903198I-65214J0D01*
G01X2033205Y-1998726D01*
G01X1963420D01*
G03X1927319Y-2013679I0J-51054D01*
G01X1901919Y-2039079D01*
G03X1886966Y-2075180I36101J-36101D01*
G01Y-2121714D01*
G03X1879411Y-2121275I-7555J-64775D01*
G01X1733711D01*
G03X1668497Y-2186489I0J-65214D01*
G03X1733711Y-2251704I65215J0D01*
G01X1879411D01*
G03X1919987Y-2237543I0J65215D01*
G01X1920691D01*
G03X1956791Y-2222590I0J51054D01*
G01X1956792D01*
G01X1974121Y-2205261D01*
G03X1989074Y-2169160I-36101J36101D01*
G01Y-2100834D01*
G01X2183455D01*
G03X2160083Y-2114175I12728J-49442D01*
G01X2140759Y-2133499D01*
G03X2125806Y-2169600I36101J-36101D01*
G01Y-2273704D01*
G03X2122440Y-2273546I-3365J-35656D01*
G01X1987439D01*
G03X1951625Y-2309360I0J-35814D01*
G01Y-2329027D01*
G37*
G36*
G01X1918337Y-4044982D02*
G03X1923922Y-4064186I35814J0D01*
G01X1694002D01*
G03X1699568Y-4045011I-30248J19175D01*
G01Y-3775012D01*
G01Y-3775011D01*
G03X1694659Y-3756914I-35814J0D01*
G01X1923229D01*
G03X1918337Y-3774982I30922J-18068D01*
G01Y-4044982D01*
G37*
G36*
G01X2413332Y-4045007D02*
G03X2418901Y-4064186I35814J0D01*
G01X2084381D01*
G03X2089965Y-4044982I-30230J19204D01*
G01Y-3774982D01*
G03X2085073Y-3756914I-35814J0D01*
G01X2087880D01*
G03X2123981Y-3741961I0J51054D01*
G01X2146953Y-3718988D01*
G03X2153039Y-3726333I42186J28755D01*
G01X2168666Y-3741961D01*
G03X2204767Y-3756914I36101J36101D01*
G01X2418239D01*
G03X2413332Y-3775008I30907J-18094D01*
G01Y-4045007D01*
G37*
G36*
G01X2456923Y-2135886D02*
G01X2455086Y-2135810D01*
G01X2453263Y-2135604D01*
G01X2451019Y-2135216D01*
G01X2446314Y-2134105D01*
G01X2441235Y-2132567D01*
G01X2435883Y-2130618D01*
G01X2430552Y-2128355D01*
G01X2425519Y-2125899D01*
G01X2421065Y-2123402D01*
G01X2417266Y-2120932D01*
G01X2415695Y-2119756D01*
G01X2414304Y-2118569D01*
G01X2413961Y-2118239D01*
G01X2409897Y-2114175D01*
G01X2409896D01*
G03X2373796Y-2099222I-36101J-36101D01*
G01X2326433D01*
G03X2369731Y-2050276I-6016J48946D01*
G03X2362921Y-2025270I-49314J0D01*
G03X2369720Y-2001330I-42504J25006D01*
G01X2399029D01*
G01X2481165Y-2083466D01*
G01X2481406Y-2083891D01*
G01X2481641Y-2084381D01*
G03X2515772Y-2135886I65979J6661D01*
G01X2456923D01*
G37*
G36*
G01X2379947Y-3654806D02*
G01X2379947Y-3616660D01*
G02X2401786Y-3574541I77337J-13379D01*
G01X2709633Y-3266694D01*
G01X2914585D01*
G01X2526473Y-3654806D01*
G01X2379947D01*
G37*
G36*
G01X2459772Y-1384546D02*
G03X2445005Y-1352804I-50868J-4359D01*
G01X2432639Y-1340437D01*
G03X2436234Y-1324797I-32219J15640D01*
G01Y-1189796D01*
G03X2407659Y-1154722I-35814J0D01*
G02X2404378Y-1150998I42911J41125D01*
G02X2407659Y-1147275I46192J-37402D01*
G03X2436234Y-1112200I-7239J35075D01*
G01Y-977199D01*
G03X2416372Y-945134I-35814J0D01*
G01X2683953D01*
G01X2703404Y-964585D01*
G03X2654026Y-1028700I16936J-64115D01*
G03X2707863Y-1093830I66314J0D01*
G01Y-1236200D01*
G03X2669540Y-1224006I-38323J-54120D01*
G03X2603226Y-1290320I0J-66314D01*
G03X2633930Y-1346262I66314J0D01*
G01X2633910Y-1346274D01*
G03X2608904Y-1339463I-25006J-42504D01*
G03X2583911Y-1346266I0J-49314D01*
G03X2558917Y-1339463I-24994J-42511D01*
G03X2533911Y-1346274I0J-49314D01*
G03X2508904Y-1339463I-25006J-42504D01*
G03X2459772Y-1384546I0J-49314D01*
G37*
G36*
G01X2876760Y-1902284D02*
G03X2817410Y-1947648I3600J-66216D01*
G01X2427295Y-1557534D01*
G03X2457850Y-1517793I-18390J45757D01*
G01Y-1532387D01*
G03X2472804Y-1568487I51054J0D01*
G01X2499246Y-1594930D01*
G01X2515217Y-1610901D01*
G03X2531272Y-1621754I36101J36101D01*
G03X2578100Y-1641114I46828J46954D01*
G03X2636456Y-1606298I0J66314D01*
G01X2651219Y-1621061D01*
G03X2687320Y-1636014I36101J36101D01*
G01X2964180D01*
G03X3000281Y-1621061I0J51054D01*
G01X3001950Y-1619391D01*
G03X3047403Y-1649578I45454J19127D01*
G01X3095688D01*
G03X3102782Y-1650950I13215J49314D01*
G01X3047403D01*
G03X2998089Y-1700264I0J-49314D01*
G03X3004900Y-1725270I49314J0D01*
G03X2998089Y-1750277I42504J-25006D01*
G03X3004892Y-1775270I49314J0D01*
G03X2998089Y-1800264I42511J-24994D01*
G03X3004900Y-1825270I49314J0D01*
G03X2998089Y-1850276I42504J-25006D01*
G03X2999072Y-1860070I49314J0D01*
G01X2997615Y-1858614D01*
G01X2997374Y-1858189D01*
G01X2997139Y-1857699D01*
G03X2931160Y-1798046I-65979J-6661D01*
G03X2864846Y-1864360I0J-66314D01*
G03X2876760Y-1902284I66314J0D01*
G37*
G36*
G01X3412531Y-2639067D02*
G01X3410383Y-2640046D01*
G01X3408235Y-2639067D01*
G01Y-2622060D01*
G03X3372421Y-2586246I-35814J0D01*
G01X3291087D01*
G02X3248968Y-2564407I13379J77337D01*
G01X3160961Y-2476399D01*
G03X3154254Y-2470757I-36101J-36101D01*
G01Y-2444999D01*
G03X3118440Y-2409185I-35814J0D01*
G01X3070626D01*
G02X3028507Y-2387346I13379J77337D01*
G01X3012981Y-2371819D01*
G03X3007909Y-2367378I-36101J-36101D01*
G03X3008230Y-2361763I-48993J5615D01*
G01Y-2238763D01*
G03X2958916Y-2189449I-49314J0D01*
G03X2933910Y-2196259I0J-49314D01*
G03X2908904Y-2189449I-25006J-42504D01*
G03X2883910Y-2196252I0J-49314D01*
G03X2858916Y-2189449I-24994J-42511D01*
G03X2833910Y-2196259I0J-49314D01*
G03X2808904Y-2189449I-25006J-42504D01*
G03X2761234Y-2226135I0J-49314D01*
G01Y-2140967D01*
G01X2761364Y-2140497D01*
G01X2761544Y-2139984D01*
G03X2776494Y-2098040I-51364J41944D01*
G03X2710180Y-2031726I-66314J0D01*
G03X2674874Y-2041906I0J-66314D01*
G01Y-1949515D01*
G01X2811735Y-2086377D01*
G03X2847836Y-2101330I36101J36101D01*
G01X2998101D01*
G03X3004900Y-2125270I49303J1067D01*
G03X2998089Y-2150276I42504J-25006D01*
G03X3047403Y-2199590I49314J0D01*
G01X3086660D01*
G03X3117627Y-2210054I30967J40590D01*
G01X3287013D01*
G01X3287483Y-2210184D01*
G01X3287996Y-2210364D01*
G03X3329940Y-2225314I41944J51364D01*
G03X3358605Y-2218798I0J66314D01*
G01Y-2347361D01*
G03X3394419Y-2383175I35814J0D01*
G01X3452493D01*
G02X3438960Y-2404750I-55948J20063D01*
G03X3412531Y-2439312I9386J-34562D01*
G01Y-2552565D01*
G03X3448345Y-2588379I35814J0D01*
G01X3586046D01*
G03X3606546Y-2581932I0J35814D01*
G01Y-2603188D01*
G03X3586046Y-2596741I-20500J-29367D01*
G01X3448345D01*
G03X3412531Y-2632555I0J-35814D01*
G01Y-2639067D01*
G37*
G36*
G01X3631513Y-1170545D02*
G03X3640094Y-1137920I-57733J32625D01*
G03X3573780Y-1071606I-66314J0D01*
G03X3548277Y-1076706I0J-66314D01*
G01X3540840D01*
G02X3500340Y-1060772I0J59436D01*
G03X3464640Y-1027812I-35700J-2854D01*
G01X3329639D01*
G03X3294564Y-1056387I0J-35814D01*
G02X3285582Y-1063471I-41125J42911D01*
G02X3276600Y-1056387I32143J49995D01*
G03X3241525Y-1027812I-35075J-7239D01*
G01X3106524D01*
G03X3076194Y-1044581I0J-35814D01*
G01Y-980187D01*
G01X3076324Y-979717D01*
G01X3076504Y-979204D01*
G03X3091454Y-937260I-51364J41944D01*
G03X3064917Y-884200I-66314J0D01*
G01X3919481D01*
G03X3911059Y-890999I27679J-42900D01*
G01X3631513Y-1170545D01*
G37*
G36*
G01X3393890Y-2176549D02*
G03X3396254Y-2159000I-63950J17549D01*
G03X3329940Y-2092686I-66314J0D01*
G03X3287997Y-2107635I0J-66314D01*
G01X3287821Y-2107704D01*
G01X3287162Y-2107910D01*
G01X3287013Y-2107946D01*
G01X3219115D01*
G03X3219717Y-2100263I-48712J7683D01*
G03X3212914Y-2075270I-49314J0D01*
G03X3219717Y-2050276I-42511J24994D01*
G03X3212907Y-2025270I-49314J0D01*
G03X3219717Y-2000263I-42504J25006D01*
G01X3219699Y-1998929D01*
G03X3253740Y-2011934I34041J38049D01*
G01X3266693D01*
G01X3267163Y-2012064D01*
G01X3267676Y-2012244D01*
G03X3309620Y-2027194I41944J51364D01*
G03X3375934Y-1960880I0J66314D01*
G03X3354590Y-1912144I-66314J0D01*
G03X3393714Y-1851660I-27190J60484D01*
G03X3327400Y-1785346I-66314J0D01*
G03X3285457Y-1800295I0J-66314D01*
G01X3285281Y-1800364D01*
G01X3284622Y-1800570D01*
G01X3284473Y-1800606D01*
G01X3219716D01*
G01X3219717Y-1800264D01*
G03X3212914Y-1775270I-49314J0D01*
G03X3219717Y-1750277I-42511J24994D01*
G03X3212907Y-1725270I-49314J0D01*
G03X3219717Y-1700264I-42504J25006D01*
G03X3170403Y-1650950I-49314J0D01*
G01X3115024D01*
G03X3122118Y-1649578I-6121J50686D01*
G01X3170403D01*
G03X3218645Y-1610491I0J49314D01*
G02X3250593Y-1617104I-34725J-248235D01*
G03X3260119Y-1618395I9527J34524D01*
G01X3305639D01*
G02X3390756Y-1661786I-24262J-152771D01*
G01X3499866Y-1770896D01*
G01Y-2155282D01*
G02X3441032Y-2176546I-70645J103441D01*
G01X3394419D01*
G01X3393890Y-2176549D01*
G37*
G36*
G01X3726087Y-1880966D02*
G01X3713895Y-1868774D01*
G01X3713654Y-1868349D01*
G01X3713419Y-1867859D01*
G03X3647440Y-1808206I-65979J-6661D01*
G03X3622294Y-1813158I0J-66314D01*
G01Y-1745540D01*
G03X3604365Y-1702255I-61214J0D01*
G01X3475404Y-1573294D01*
G01X3517120D01*
G03X3560405Y-1555365I0J61214D01*
G01X3647292Y-1468478D01*
G03X3688354Y-1407160I-25252J61318D01*
G03X3622040Y-1340846I-66314J0D01*
G03X3602747Y-1343715I0J-66314D01*
G01X3968307Y-978154D01*
G01X4358640D01*
G03X4394741Y-963201I0J51054D01*
G01X4473568Y-884373D01*
G01Y-1364249D01*
G01X4473437Y-1364725D01*
G01X4473262Y-1365223D01*
G03X4458318Y-1407160I51370J-41937D01*
G03X4524632Y-1473474I66314J0D01*
G03X4533086Y-1472933I0J66314D01*
G01X4314633Y-1691386D01*
G01X3957320D01*
G03X3921219Y-1706339I0J-51054D01*
G01X3773774Y-1853785D01*
G01X3773349Y-1854026D01*
G01X3772859Y-1854261D01*
G03X3726087Y-1880966I6661J-65979D01*
G37*
G54D8191*
G01X1032945Y-4044986D02*
G03X1038527Y-4064186I35814J0D01*
G01X350000D01*
G02X35814Y-3750000I0J314186D01*
G01Y-3286687D01*
G03X53593Y-3291412I17779J31090D01*
G01X323592D01*
G03X359406Y-3255598I0J35814D01*
G01Y-3255597D01*
G01Y-3184968D01*
G01X916399Y-3741961D01*
G03X952500Y-3756914I36101J36101D01*
G01X1037839D01*
G03X1032945Y-3774986I30920J-18072D01*
G01Y-4044986D01*
G01X400000Y-3960814D02*
G03X660814Y-3700000I0J260814D01*
G03X400000Y-3439186I-260814J0D01*
G03X139186Y-3700000I0J-260814D01*
G03X400000Y-3960814I260814J0D01*
G01X6564187Y-3750000D02*
G02X6250000Y-4064186I-314186J0D01*
G01X5813790D01*
G03X5819356Y-4045011I-30248J19175D01*
G01Y-3775012D01*
G01Y-3775011D01*
G03X5783542Y-3739197I-35814J0D01*
G01X5683542D01*
G03X5647728Y-3775011I0J-35814D01*
G01Y-3775012D01*
G01Y-4045011D01*
G03X5653294Y-4064186I35814J0D01*
G01X5318779D01*
G03X5324361Y-4044986I-30232J19201D01*
G01Y-3774986D01*
G03X5288547Y-3739172I-35814J0D01*
G01X5188547D01*
G03X5152733Y-3774986I0J-35814D01*
G01Y-4044986D01*
G03X5158315Y-4064186I35814J0D01*
G01X5015830D01*
G03X5060016Y-3986257I-46628J77929D01*
G01Y-3906257D01*
G03X4969202Y-3815443I-90814J0D01*
G03X4878388Y-3906257I0J-90814D01*
G01Y-3986257D01*
G03X4922574Y-4064186I90814J0D01*
G01X4151849D01*
G03X4196035Y-3986257I-46628J77929D01*
G01Y-3906257D01*
G03X4105221Y-3815443I-90814J0D01*
G03X4014407Y-3906257I0J-90814D01*
G01Y-3986257D01*
G03X4058593Y-4064186I90814J0D01*
G01X2579392D01*
G03X2584960Y-4045007I-30246J19179D01*
G01Y-3775008D01*
G03X2574221Y-3749436I-35814J0D01*
G03X2583721Y-3741961I-26601J43576D01*
G01X2985327Y-3340354D01*
G01X3161836D01*
G01X3106315Y-3395875D01*
G03X3088386Y-3439160I43285J-43285D01*
G01Y-3515848D01*
G01X3088161Y-3524254D01*
G01X3087735Y-3529532D01*
G01X3087110Y-3534148D01*
G01X3086312Y-3538195D01*
G01X3085706Y-3540543D01*
G01X3085029Y-3542694D01*
G01X3084328Y-3544548D01*
G01X3083613Y-3546154D01*
G01X3082882Y-3547562D01*
G01X3082126Y-3548826D01*
G01X3081326Y-3549996D01*
G01X3080457Y-3551120D01*
G01X3079487Y-3552236D01*
G01X3078482Y-3553274D01*
G01X3076637Y-3554971D01*
G01X3074637Y-3556603D01*
G01X3071498Y-3558886D01*
G01X3065972Y-3562447D01*
G01X3041339Y-3576605D01*
G01X3040290Y-3577232D01*
G01X3027586Y-3585122D01*
G01X3025964Y-3586192D01*
G01X3021073Y-3589610D01*
G01X3020194Y-3590225D01*
G01X3016773Y-3592616D01*
G01X3015248Y-3593743D01*
G01X3013257Y-3595298D01*
G03X3008800Y-3598778I136743J-179703D01*
G01X3007225Y-3600008D01*
G01X3005703Y-3601266D01*
G01X3004668Y-3602170D01*
G03X2998221Y-3607803I145332J-172830D01*
G01X2997584Y-3608361D01*
G01X2996166Y-3609668D01*
G01X2995553Y-3610265D01*
G03X2989460Y-3616197I154448J-164735D01*
G01X2989352Y-3616302D01*
G01X2988097Y-3617586D01*
G03X2980640Y-3625639I161903J-157414D01*
G03X2924187Y-3775000I169360J-149362D01*
G03X3150001Y-4000814I225814J0D01*
G03X3375814Y-3775000I0J225814D01*
G03X3319361Y-3625639I-225814J0D01*
G03X3289118Y-3597129I-169360J-149362D01*
G01X3251532Y-3564739D01*
G01X3236217Y-3550398D01*
G01X3226890Y-3540658D01*
G01X3220688Y-3533344D01*
G01X3216942Y-3528318D01*
G01X3215059Y-3525474D01*
G01X3213480Y-3522794D01*
G01X3212308Y-3520492D01*
G01X3211524Y-3518640D01*
G01X3210943Y-3516879D01*
G01X3210923Y-3516800D01*
G01X3210859Y-3516480D01*
G01X3210833Y-3516302D01*
G01X3210829Y-3516260D01*
G01X3210814Y-3515779D01*
G01Y-3464516D01*
G01X3243556Y-3431774D01*
G01X4323988D01*
G03X4322806Y-3444240I65132J-12466D01*
G03X4326148Y-3465028I66314J0D01*
G02X4324647Y-3472462I-122053J20788D01*
G03X4307222Y-3467937I-17425J-31289D01*
G01X4227222D01*
G03X4191763Y-3498722I0J-35814D01*
G03X4105221Y-3435434I-86542J-27525D01*
G03X4014407Y-3526248I0J-90814D01*
G01Y-3606248D01*
G03X4105221Y-3697061I90814J0D01*
G03X4195061Y-3619509I0J90814D01*
G03X4227222Y-3639565I32161J15758D01*
G01X4307222D01*
G03X4329717Y-3631619I0J35814D01*
G03X4352212Y-3639565I22495J27868D01*
G01X4422212D01*
G03X4437212Y-3636272I0J35814D01*
G03X4452212Y-3639565I15000J32521D01*
G01X4522211D01*
G03X4537211Y-3636272I0J35814D01*
G03X4552211Y-3639565I15000J32521D01*
G01X4622211D01*
G03X4637211Y-3636272I0J35814D01*
G03X4652211Y-3639565I15000J32521D01*
G01X4722211D01*
G03X4758025Y-3603751I0J35814D01*
G01Y-3503751D01*
G03X4722211Y-3467937I-35814J0D01*
G01X4652211D01*
G03X4637211Y-3471229I0J-35814D01*
G03X4622211Y-3467937I-15000J-32521D01*
G01X4552211D01*
G03X4537211Y-3471229I0J-35814D01*
G03X4522211Y-3467937I-15000J-32521D01*
G01X4452212D01*
G01X4451756Y-3467940D01*
G01X4451587Y-3466497D01*
G03X4455434Y-3444240I-62467J22257D01*
G03X4454252Y-3431774I-66314J0D01*
G01X5038822D01*
G03X5057140Y-3434354I18318J63734D01*
G03X5123454Y-3368040I0J66314D01*
G03X5122772Y-3358553I-66314J0D01*
G01X5335882Y-3571663D01*
G02X5357721Y-3613782I-55498J-55498D01*
G01Y-3674996D01*
G03X5393535Y-3710810I35814J0D01*
G01X5453535D01*
G03X5486032Y-3690050I0J35814D01*
G03X5518528Y-3710810I32497J15053D01*
G01X5578528D01*
G03X5614342Y-3674996I0J35814D01*
G01Y-3504997D01*
G03X5588420Y-3470576I-35814J0D01*
G02X5549005Y-3447344I25262J87909D01*
G01X5528375Y-3426714D01*
G01X5811520D01*
G03X5854805Y-3408785I0J61214D01*
G01X5900525Y-3363065D01*
G03X5918454Y-3319780I-43285J43285D01*
G01Y-1282700D01*
G03X5900525Y-1239415I-61214J0D01*
G01X5821785Y-1160675D01*
G03X5778500Y-1142746I-43285J-43285D01*
G01X5689100D01*
G01X5686239Y-1142655D01*
G01X5684348Y-1142461D01*
G01X5683802Y-1142370D01*
G01X5683265Y-1142249D01*
G01X5682916Y-1142149D01*
G01X5682706Y-1142075D01*
G01X5682585Y-1142024D01*
G01X5682500Y-1141981D01*
G01X5682401Y-1141925D01*
G01X5682246Y-1141824D01*
G01X5682171Y-1141769D01*
G01X5681406Y-1141136D01*
G01X5680631Y-1140407D01*
G01X5679121Y-1138806D01*
G01X5671543Y-1129619D01*
G01X5671396Y-1129442D01*
G01X5663707Y-1120241D01*
G01X5662351Y-1118711D01*
G01Y-1118710D01*
G01X5657362Y-1113390D01*
G01X5655999Y-1112013D01*
G01X5654604Y-1110677D01*
G03X5651314Y-1107530I-88603J-89323D01*
G01X5650614Y-1106887D01*
G01X5650442Y-1106733D01*
G01X5649218Y-1105640D01*
G03X5566000Y-1074186I-83218J-94360D01*
G03X5440186Y-1200000I0J-125814D01*
G03X5566000Y-1325814I125814J0D01*
G03X5649218Y-1294360I0J125814D01*
G03X5654657Y-1289270I-83218J94360D01*
G01X5666477Y-1278152D01*
G01X5673220Y-1272044D01*
G01X5675980Y-1269823D01*
G01X5677948Y-1268417D01*
G01X5679092Y-1267690D01*
G01X5680199Y-1267067D01*
G01X5681192Y-1266582D01*
G01X5682115Y-1266201D01*
G01X5683024Y-1265895D01*
G01X5683989Y-1265643D01*
G01X5685083Y-1265436D01*
G01X5686380Y-1265281D01*
G01X5688320Y-1265178D01*
G01X5688715Y-1265174D01*
G01X5753144D01*
G01X5796026Y-1308056D01*
G01Y-3294424D01*
G01X5786164Y-3304286D01*
G01X5516836D01*
G01X5492364Y-3279814D01*
G01X5656040D01*
G03X5691854Y-3244000I0J35814D01*
G01Y-3064001D01*
G03X5656040Y-3028187I-35814J0D01*
G01X5476041D01*
G03X5458820Y-3032599I0J-35814D01*
G01Y-2967261D01*
G01X5458789Y-2965775D01*
G03X5566040Y-3025814I107251J65774D01*
G03X5691854Y-2900001I0J125814D01*
G03X5573919Y-2774434I-125814J0D01*
G03X5567112Y-2774191I-7879J-125567D01*
G01X5564234Y-2774095D01*
G01X5563041Y-2774075D01*
G01X5562011Y-2774090D01*
G01X5562010D01*
G01X5542892Y-2774640D01*
G01X5534841Y-2774769D01*
G01X5532318Y-2774666D01*
G01X5530918Y-2774537D01*
G01X5529755Y-2774366D01*
G01X5528886Y-2774183D01*
G01X5528004Y-2773932D01*
G01X5527839Y-2773873D01*
G01X5527488Y-2773728D01*
G01X5527121Y-2773554D01*
G01X5526707Y-2773330D01*
G01X5526221Y-2773032D01*
G01X5525820Y-2772757D01*
G01X5524557Y-2771773D01*
G01X5522920Y-2770302D01*
G01X5522552Y-2769943D01*
G01X5512431Y-2759821D01*
G03X5566040Y-2771814I53610J113820D01*
G03X5691854Y-2646001I0J125814D01*
G03X5566040Y-2520187I-125814J0D01*
G03X5440227Y-2646001I0J-125814D01*
G03X5467754Y-2724542I125814J0D01*
G03X5457205Y-2722111I-18971J-58200D01*
G03X5423006Y-2696929I-34200J-10632D01*
G01X5348005D01*
G03X5312191Y-2732743I0J-35814D01*
G01Y-2832742D01*
G03X5348005Y-2868556I35814J0D01*
G01X5423006D01*
G03X5440450Y-2864021I0J35814D01*
G01X5440522Y-2864454D01*
G01X5440661Y-2865724D01*
G01X5440790Y-2868108D01*
G01X5440756Y-2874615D01*
G01X5440130Y-2894489D01*
G01X5440112Y-2895616D01*
G01X5440123Y-2896481D01*
G01X5440230Y-2900936D01*
G03X5440332Y-2905150I125810J935D01*
G01X5440377Y-2906210D01*
G01X5440402Y-2906651D01*
G01X5440474Y-2907879D01*
G03X5446974Y-2940649I125567J7879D01*
G03X5423006Y-2931447I-23968J-26611D01*
G01X5348005D01*
G03X5314642Y-2954240I0J-35814D01*
G02X5297823Y-2955381I-42837J506925D01*
G02X5254308Y-2937587I10890J88738D01*
G03X5232514Y-2930192I-21794J-28419D01*
G01X5107513D01*
G03X5071699Y-2966006I0J-35814D01*
G01Y-3066006D01*
G03X5107513Y-3101820I35814J0D01*
G01X5232514D01*
G03X5252575Y-3095674I0J35814D01*
G02X5297378Y-3079118I56139J-83020D01*
G02X5314642Y-3080281I-25573J-508088D01*
G03X5321630Y-3091489I33363J13021D01*
G02X5324291Y-3143461I-506070J-51972D01*
G01Y-3259525D01*
G03X5326432Y-3275570I61214J0D01*
G01X5230401Y-3179539D01*
G03X5194300Y-3164586I-36101J-36101D01*
G01X4851344D01*
G01X4874625Y-3139217D01*
G03X4884052Y-3115002I-26387J24215D01*
G01Y-2829509D01*
G03X4873563Y-2804184I-35814J0D01*
G01X4852240Y-2782861D01*
G03X4826915Y-2772372I-25324J-25324D01*
G01X4717436D01*
G03X4692112Y-2782861I0J-35814D01*
G01X4673653Y-2801320D01*
G03X4663163Y-2826644I25324J-25324D01*
G01Y-2933064D01*
G01X4650726Y-2945502D01*
G01X4464742D01*
G03X4439418Y-2955992I0J-35814D01*
G01X4419050Y-2976360D01*
G03X4408560Y-3001684I25324J-25324D01*
G01X4408561Y-3001859D01*
G01X4409197Y-3132256D01*
G01Y-3133760D01*
G03X4419686Y-3159084I35814J0D01*
G01X4425188Y-3164586D01*
G01X3658935D01*
G01X3757201Y-3066321D01*
G03X3772154Y-3030220I-36101J36101D01*
G01Y-2321399D01*
G03X3781152Y-2322548I8998J34665D01*
G01X3918853D01*
G03X3954120Y-2292970I0J35814D01*
G01X3955586Y-2292854D01*
G02X3995581Y-2302341I-24274J-191386D01*
G03X4007512Y-2304387I11931J33768D01*
G01X4132513D01*
G03X4168327Y-2268573I0J35814D01*
G01Y-2168573D01*
G03X4132513Y-2132759I-35814J0D01*
G01X4007512D01*
G03X3979782Y-2145909I0J-35814D01*
G02X3953597Y-2164792I-48470J39615D01*
G03X3918853Y-2137666I-34744J-8688D01*
G01X3868517D01*
G03X3893759Y-2092003I-40737J52326D01*
G01X3893835Y-2091830D01*
G01X3894155Y-2091217D01*
G01X3894235Y-2091086D01*
G01X4123247Y-1862074D01*
G01X4237345D01*
G01X4182491Y-1927899D01*
G03X4174190Y-1950827I27513J-22928D01*
G01Y-2502949D01*
G01X4150059Y-2527080D01*
G02X4160280Y-2511207I75993J-37708D01*
G03X4168327Y-2488587I-27767J22620D01*
G01Y-2388588D01*
G03X4132513Y-2352774I-35814J0D01*
G01X4007512D01*
G03X3971698Y-2388588I0J-35814D01*
G01Y-2488587D01*
G03X4002652Y-2524070I35814J0D01*
G02X4018790Y-2564787I-43298J-40717D01*
G01Y-2599305D01*
G02X4018562Y-2604509I-59436J0D01*
G01X4002544D01*
G03X3977219Y-2614999I0J-35814D01*
G01X3954999Y-2637219D01*
G03X3944510Y-2662543I25324J-25324D01*
G01Y-2808878D01*
G03X3954999Y-2834202I35814J0D01*
G01X3973083Y-2852285D01*
G03X3998407Y-2862775I25324J25324D01*
G01X4164618D01*
G03X4189942Y-2852285I0J35814D01*
G01X4207708Y-2834519D01*
G03X4218198Y-2809195I-25324J25324D01*
G01Y-2741306D01*
G01X4324735Y-2635817D01*
G01X4813680D01*
G03X4839004Y-2625328I0J35814D01*
G01X4897881Y-2566451D01*
G03X4908371Y-2541126I-25324J25324D01*
G01Y-1976060D01*
G01X5037178Y-2104867D01*
G02X5080569Y-2189984I-109380J-109380D01*
G01Y-2210003D01*
G03X5116383Y-2245817I35814J0D01*
G01X5241384D01*
G03X5274748Y-2223024I0J35814D01*
G02X5285352Y-2222239I42837J-506925D01*
G02X5327749Y-2237629I-14820J-106922D01*
G03X5346732Y-2243074I18983J30369D01*
G01X5421733D01*
G03X5440227Y-2237930I0J35814D01*
G01Y-2394000D01*
G03X5476041Y-2429814I35814J0D01*
G01X5656040D01*
G03X5691854Y-2394000I0J35814D01*
G01Y-2214000D01*
G03X5656040Y-2178186I-35814J0D01*
G01X5476041D01*
G03X5457547Y-2183330I0J-35814D01*
G01Y-2113705D01*
G03X5566040Y-2175814I108493J63705D01*
G03X5691854Y-2050000I0J125814D01*
G03X5573919Y-1924433I-125814J0D01*
G03X5567112Y-1924191I-7879J-125567D01*
G01X5564234Y-1924095D01*
G01X5563041Y-1924075D01*
G01X5562011Y-1924090D01*
G01X5542892Y-1924640D01*
G01X5534841Y-1924768D01*
G01X5532318Y-1924665D01*
G01X5530918Y-1924536D01*
G01X5529755Y-1924366D01*
G01X5528886Y-1924182D01*
G01X5528004Y-1923931D01*
G01X5527839Y-1923873D01*
G01X5527488Y-1923728D01*
G01X5527121Y-1923553D01*
G01X5526707Y-1923329D01*
G01X5526221Y-1923031D01*
G01X5525820Y-1922757D01*
G01X5524557Y-1921772D01*
G01X5522920Y-1920302D01*
G01X5522552Y-1919942D01*
G01X5512431Y-1909820D01*
G03X5566040Y-1921814I53610J113820D01*
G03X5691854Y-1796000I0J125814D01*
G03X5566040Y-1670186I-125814J0D01*
G03X5440227Y-1796000I0J-125814D01*
G03X5461406Y-1865862I125814J0D01*
G03X5456501Y-1864148I-22623J-56880D01*
G03X5421733Y-1836928I-34768J-8594D01*
G01X5346732D01*
G03X5310918Y-1872742I0J-35814D01*
G01Y-1972742D01*
G03X5346732Y-2008556I35814J0D01*
G01X5421733D01*
G03X5435341Y-2005870I0J35814D01*
G01X5435714Y-2006243D01*
G01X5437452Y-2008094D01*
G01X5438554Y-2009441D01*
G01X5438887Y-2009902D01*
G01X5439231Y-2010434D01*
G01X5439489Y-2010881D01*
G01X5439686Y-2011268D01*
G01X5439843Y-2011623D01*
G01X5439901Y-2011773D01*
G01X5440160Y-2012607D01*
G01X5440346Y-2013396D01*
G01X5440522Y-2014453D01*
G01X5440661Y-2015723D01*
G01X5440790Y-2018107D01*
G01X5440756Y-2024614D01*
G01X5440130Y-2044488D01*
G01X5440112Y-2045616D01*
G01X5440123Y-2046480D01*
G01X5440230Y-2050935D01*
G03X5440332Y-2055149I125810J935D01*
G01X5440377Y-2056209D01*
G01X5440402Y-2056650D01*
G01X5440474Y-2057879D01*
G03X5443588Y-2078887I125567J7879D01*
G03X5421733Y-2071446I-21854J-28373D01*
G01X5346732D01*
G03X5323962Y-2079617I0J-35814D01*
G02X5284103Y-2097686I-53429J64863D01*
G02X5274748Y-2096983I33482J507629D01*
G03X5241384Y-2074189I-33363J-13021D01*
G01X5221365D01*
G02X5136248Y-2030798I24262J152771D01*
G01X5131253Y-2025802D01*
G01X5241384D01*
G03X5277198Y-1989988I0J35814D01*
G01Y-1889989D01*
G03X5259461Y-1859071I-35814J0D01*
G02X5245210Y-1838572I43267J45283D01*
G02X5256762Y-1821416I54324J-24115D01*
G03X5284667Y-1786487I-7909J34930D01*
G01Y-1673233D01*
G03X5248853Y-1637419I-35814J0D01*
G01X5111152D01*
G03X5075338Y-1673233I0J-35814D01*
G01Y-1786487D01*
G03X5100181Y-1820579I35814J0D01*
G02X5112558Y-1838572I-41947J-42108D01*
G02X5098307Y-1859071I-57519J24783D01*
G03X5080569Y-1889989I18077J-30917D01*
G01Y-1975119D01*
G01X4960874Y-1855424D01*
G01Y-1640943D01*
G03X4965974Y-1615440I-61214J25503D01*
G03X4899660Y-1549126I-66314J0D01*
G03X4881599Y-1551633I0J-66314D01*
G01X5045700Y-1387532D01*
G02X5087819Y-1365693I55498J-55498D01*
G01X5156629D01*
G03X5192443Y-1329879I0J35814D01*
G01Y-1192178D01*
G03X5178760Y-1164020I-35814J0D01*
G03X5185812Y-1142680I-28762J21339D01*
G01Y-1042681D01*
G03X5149998Y-1006867I-35814J0D01*
G01X5069998D01*
G03X5034184Y-1042681I0J-35814D01*
G01Y-1142680D01*
G03X5037133Y-1156912I35814J0D01*
G03X5007562Y-1192178I6243J-35266D01*
G01Y-1260988D01*
G02X4992444Y-1295451I-77337J13379D01*
G01Y-1192178D01*
G03X4956630Y-1156364I-35814J0D01*
G01X4843376D01*
G03X4808535Y-1183887I0J-35814D01*
G02X4771472Y-1199814I-37063J35159D01*
G03X4728187Y-1217743I0J-61214D01*
G01X4696355Y-1249575D01*
G03X4678426Y-1292860I43285J-43285D01*
G01Y-1361337D01*
G03X4673326Y-1386840I61214J-25503D01*
G03X4739640Y-1453154I66314J0D01*
G03X4805954Y-1386840I0J66314D01*
G03X4800854Y-1361337I-66314J0D01*
G01Y-1331537D01*
G02X4808535Y-1338170I-29382J-41792D01*
G03X4843376Y-1365693I34841J8291D01*
G01X4923137D01*
G01X4528863Y-1759966D01*
G01X4390455D01*
G01X4641121Y-1509301D01*
G03X4656074Y-1473200I-36101J36101D01*
G01Y-927927D01*
G01X4768407Y-815594D01*
G01X5129190D01*
G01Y-912678D01*
G03X5165004Y-948492I35814J0D01*
G01X5245004D01*
G03X5280635Y-916289I0J35814D01*
G02X5290754Y-913743I10119J-18827D01*
G01X5442537D01*
G01X5441351Y-928921D01*
G03X5440186Y-946000I124649J-17079D01*
G03X5440433Y-953879I125814J0D01*
G03X5566000Y-1071814I125567J7879D01*
G03X5691814Y-946000I0J125814D01*
G03X5573879Y-820433I-125814J0D01*
G03X5566000Y-820186I-7879J-125567D01*
G03X5548125Y-821462I0J-125814D01*
G01X5531097Y-822879D01*
G01X5521518Y-823251D01*
G01X5518083Y-823189D01*
G01X5515232Y-822978D01*
G01X5514695Y-822898D01*
G03X5482679Y-811614I-32017J-39780D01*
G01X5290754D01*
G02X5284782Y-810763I0J21374D01*
G03X5299205Y-800641I-21678J46223D01*
G01X5353342Y-746504D01*
G02X5395460Y-724665I55498J-55498D01*
G01X5464271D01*
G03X5500085Y-688851I0J35814D01*
G01Y-620040D01*
G02X5521924Y-577922I77337J-13379D01*
G01X5562236Y-537610D01*
G03X5577189Y-501509I-36101J36101D01*
G01Y-451059D01*
G02X5579628Y-441153I21336J0D01*
G01X5587635D01*
G03X5606557Y-435746I0J35814D01*
G03X5639880Y-458434I33322J13125D01*
G01X5774880D01*
G01X5774881D01*
G03X5810695Y-422620I0J35814D01*
G01Y-281620D01*
G03X5774881Y-245806I-35814J0D01*
G01X5774880D01*
G01X5639880D01*
G03X5619184Y-252391I0J-35814D01*
G03X5587635Y-233526I-31549J-16949D01*
G01X5464635D01*
G03X5428821Y-269340I0J-35814D01*
G01Y-405339D01*
G03X5464635Y-441153I35814J0D01*
G01X5472642D01*
G02X5475081Y-451059I-18897J-9906D01*
G01Y-480362D01*
G01X5461946Y-493497D01*
G02X5419828Y-515336I-55498J55498D01*
G01X5351017D01*
G03X5315203Y-551150I0J-35814D01*
G01Y-619960D01*
G02X5300085Y-654423I-77337J13379D01*
G01Y-551150D01*
G03X5264271Y-515336I-35814J0D01*
G01X5151018D01*
G03X5115204Y-551150I0J-35814D01*
G01Y-619960D01*
G02X5104875Y-647446I-77337J13379D01*
G01X4712273D01*
G01X4710495D01*
G01X4717124Y-640817D01*
G01X4725563D01*
G03X4761377Y-605003I0J35814D01*
G01Y-425003D01*
G03X4725563Y-389189I-35814J0D01*
G01X4655563D01*
G03X4628066Y-402056I0J-35814D01*
G03X4600569Y-389189I-27497J-22947D01*
G01X4530569D01*
G03X4494755Y-425003I0J-35814D01*
G01Y-605003D01*
G03X4497729Y-619290I35814J0D01*
G01X4425831Y-691188D01*
G03X4396592Y-667662I-54491J-37792D01*
G01X4378138Y-649208D01*
G02X4384979Y-614890I209832J-23989D01*
G03X4386371Y-605003I-34422J9887D01*
G01Y-425003D01*
G03X4350557Y-389189I-35814J0D01*
G01X4280557D01*
G03X4244743Y-425003I0J-35814D01*
G01Y-605003D01*
G03X4246135Y-614890I35814J0D01*
G02X4254343Y-673197I-202990J-58307D01*
G03X4272272Y-716482I61214J0D01*
G01X4310022Y-754232D01*
G03X4331633Y-782092I61318J25252D01*
G01X2989554D01*
G03X2953453Y-797046I0J-51054D01*
G01X2834099Y-916399D01*
G03X2821242Y-938021I36101J-36101D01*
G01X2741201Y-857979D01*
G03X2705100Y-843026I-36101J-36101D01*
G01X1917700D01*
G03X1881599Y-857979I0J-51054D01*
G01X1793406Y-946173D01*
G03X1778565Y-908017I-66206J-3787D01*
G01X1778496Y-907841D01*
G01X1778290Y-907182D01*
G01X1778254Y-907033D01*
G01Y-892619D01*
G03X1769618Y-864207I-51054J0D01*
G03X1811294Y-802640I-24638J61567D01*
G03X1751643Y-736661I-66314J0D01*
G01X1751470Y-736585D01*
G01X1750857Y-736265D01*
G01X1750726Y-736185D01*
G01X1557165Y-542623D01*
G03X1573319Y-512688I-19660J29936D01*
G01Y-412688D01*
G03X1537505Y-376874I-35814J0D01*
G01X1437505D01*
G03X1409229Y-390708I0J-35814D01*
G03X1362512Y-376877I-46718J-71982D01*
G03X1276698Y-462690I0J-85814D01*
G03X1298151Y-519451I85814J0D01*
G03X1301623Y-523160I64360J56761D01*
G01X1302083Y-523648D01*
G01X1303807Y-525355D01*
G01X1308859Y-530031D01*
G01X1309352Y-530479D01*
G01X1311666Y-532542D01*
G03X1326411Y-564031I50845J4612D01*
G01X1673471Y-911091D01*
G03X1660886Y-949960I53729J-38869D01*
G03X1723413Y-1016166I66314J0D01*
G01X1689811Y-1049768D01*
G01X1558531D01*
G01Y-1046840D01*
G03X1561271Y-1030342I-48315J16499D01*
G01Y-844737D01*
G03X1546317Y-808636I-51054J0D01*
G01X1465995Y-728314D01*
G01X1465754Y-727889D01*
G01X1465519Y-727399D01*
G03X1399540Y-667746I-65979J-6661D01*
G03X1333226Y-734060I0J-66314D01*
G03X1392877Y-800039I66314J0D01*
G01X1393050Y-800115D01*
G01X1393663Y-800435D01*
G01X1393794Y-800515D01*
G01X1459163Y-865884D01*
G01Y-943577D01*
G03X1446318Y-921996I-48946J-14520D01*
G01X1166540Y-642219D01*
G03X1173754Y-612140I-59100J30079D01*
G03X1163553Y-576801I-66314J0D01*
G01Y-570616D01*
G01Y-533149D01*
G01X1171183Y-525512D01*
G01X1171998Y-524670D01*
G01X1173824Y-522719D01*
G03X1176860Y-519451I-61324J60028D01*
G03X1198313Y-462690I-64360J56761D01*
G03X1112499Y-376877I-85814J0D01*
G03X1026686Y-462690I0J-85814D01*
G03X1048139Y-519451I85814J0D01*
G03X1051175Y-522719I64360J56761D01*
G01X1053001Y-524670D01*
G01X1053816Y-525512D01*
G01X1061445Y-533149D01*
G01Y-564185D01*
G01X1059473Y-566315D01*
G01X1059135Y-566685D01*
G01X1058460Y-567435D01*
G01X1057704Y-568277D01*
G03X1041126Y-612140I49736J-43863D01*
G03X1056075Y-654083I66314J0D01*
G01X1056144Y-654259D01*
G01X1056350Y-654918D01*
G01X1056386Y-655067D01*
G01Y-655320D01*
G03X1071339Y-691421I51054J0D01*
G01X1337757Y-957839D01*
G03X1322718Y-954528I-15040J-32503D01*
G01X1297716D01*
G03X1261902Y-990342I0J-35814D01*
G01Y-1070342D01*
G03X1277847Y-1100138I35814J0D01*
G03X1268510Y-1099277I-9337J-50193D01*
G03X1252012Y-1102017I0J-51054D01*
G01X1228510D01*
G03X1192696Y-1137831I0J-35814D01*
G01Y-1138133D01*
G01Y-1153953D01*
G03X1178306Y-1189481I36664J-35529D01*
G01Y-1628140D01*
G03X1193259Y-1664241I51054J0D01*
G01X1271999Y-1742981D01*
G03X1308100Y-1757934I36101J36101D01*
G01X1574546D01*
G03X1564366Y-1793240I56134J-35306D01*
G03X1624062Y-1859223I66314J0D01*
G01X1624311Y-1859332D01*
G01X1624943Y-1859659D01*
G01X1625035Y-1859715D01*
G01X1646755Y-1881435D01*
G01X1603191D01*
G03X1567090Y-1896389I0J-51054D01*
G01X1500599Y-1962879D01*
G03X1485646Y-1998980I36101J-36101D01*
G01Y-2242820D01*
G03X1500599Y-2278921I51054J0D01*
G01X1640299Y-2418621D01*
G03X1676400Y-2433574I36101J36101D01*
G01X1941719D01*
G02X1951625Y-2436013I0J-21336D01*
G01Y-2450360D01*
G03X1987439Y-2486174I35814J0D01*
G01X2122440D01*
G03X2158254Y-2450360I0J35814D01*
G01Y-2419932D01*
G03X2162720Y-2415960I-31634J40072D01*
G01X2212960Y-2365721D01*
G03X2227914Y-2329620I-36101J36101D01*
G01Y-2201330D01*
G01X2258917D01*
G01X2258918D01*
G01X2349022D01*
G01X2350251Y-2203626D01*
G01X2352658Y-2208789D01*
G01X2354827Y-2214159D01*
G01X2356649Y-2219454D01*
G01X2358033Y-2224369D01*
G01X2358972Y-2228802D01*
G01X2359252Y-2230744D01*
G01X2359396Y-2232568D01*
G01X2359406Y-2233043D01*
G01Y-2287757D01*
G03X2357851Y-2300263I49499J-12506D01*
G01Y-2390503D01*
G03X2372804Y-2426603I51054J0D01*
G01X2382625Y-2436424D01*
G03X2381583Y-2444999I34772J-8575D01*
G01Y-2452877D01*
G01Y-2580000D01*
G03X2417397Y-2615814I35814J0D01*
G01X2558397D01*
G03X2594211Y-2580000I0J35814D01*
G01Y-2539773D01*
G01X2603326Y-2548887D01*
G01Y-2772574D01*
G01X2597444Y-2778456D01*
G02X2555326Y-2800295I-55498J55498D01*
G01X2481992D01*
G03X2446178Y-2836109I0J-35814D01*
G01Y-2876507D01*
G02X2441206Y-2878367I-9906J18897D01*
G02X2436234Y-2876507I4934J20758D01*
G01Y-2859499D01*
G03X2400420Y-2823685I-35814J0D01*
G01X2265419D01*
G03X2229605Y-2859499I0J-35814D01*
G01Y-2872553D01*
G02X2222594Y-2874795I-9906J18897D01*
G03X2189857Y-2865232I-32736J-51251D01*
G03X2129043Y-2926046I0J-60814D01*
G03X2189857Y-2986860I60814J0D01*
G03X2222594Y-2977297I0J60814D01*
G02X2229605Y-2979539I-2894J-21139D01*
G01Y-3000500D01*
G03X2265419Y-3036314I35814J0D01*
G01X2400420D01*
G03X2436234Y-3000500I0J35814D01*
G01Y-2983493D01*
G02X2444039Y-2981157I9906J-18897D01*
G02X2457036Y-2981796I-7767J-290810D01*
G03X2481992Y-2991923I24957J25687D01*
G01X2621992D01*
G03X2657806Y-2956109I0J35814D01*
G01Y-2882776D01*
G02X2679645Y-2840657I77337J-13379D01*
G01X2690480Y-2829822D01*
G03X2699892Y-2816854I-36101J36101D01*
G01X2702007Y-2816917D01*
G01X2842007D01*
G03X2877738Y-2783537I0J35814D01*
G02X2882205Y-2781781I9989J-18853D01*
G02X2886590Y-2783493I-5522J-20609D01*
G01Y-2800500D01*
G03X2922404Y-2836314I35814J0D01*
G01X3057405D01*
G03X3093219Y-2800500I0J35814D01*
G01Y-2783493D01*
G02X3103125Y-2781054I9906J-18897D01*
G01X3121285D01*
G03X3138914Y-2777914I0J51054D01*
G03X3194799Y-2717300I-4929J60614D01*
G03X3133985Y-2656486I-60814J0D01*
G03X3093761Y-2671690I0J-60814D01*
G01X3093219Y-2672174D01*
G01Y-2659500D01*
G03X3057405Y-2623686I-35814J0D01*
G01X2922404D01*
G03X2886590Y-2659500I0J-35814D01*
G01Y-2676507D01*
G02X2882205Y-2678219I-9906J18897D01*
G02X2877821Y-2676507I5522J20609D01*
G01Y-2661103D01*
G03X2842007Y-2625289I-35814J0D01*
G01X2781533D01*
G02X2779094Y-2615383I18897J9906D01*
G01Y-2459626D01*
G03X2764140Y-2423525I-51054J0D01*
G01X2740358Y-2399743D01*
G03X2757850Y-2367778I-31454J37980D01*
G01Y-2390503D01*
G03X2772803Y-2426603I51054J0D01*
G01X2790220Y-2444021D01*
G03X2826321Y-2458974I36101J36101D01*
G01X2941626D01*
G01Y-2462361D01*
G01Y-2580000D01*
G03X2977440Y-2615814I35814J0D01*
G01X3118440D01*
G03X3144609Y-2604450I0J35814D01*
G01X3179766Y-2639608D01*
G02X3201606Y-2681726I-55498J-55498D01*
G01Y-2763060D01*
G03X3237420Y-2798874I35814J0D01*
G01X3372421D01*
G03X3408235Y-2763060I0J35814D01*
G01Y-2746053D01*
G01X3410383Y-2745074D01*
G01X3412532Y-2746053D01*
G03X3448345Y-2781623I35813J245D01*
G01X3586046D01*
G03X3606546Y-2775175I0J35814D01*
G01Y-2968433D01*
G01X3537393Y-3037586D01*
G01X2192847D01*
G01X1969586Y-2814324D01*
G03X1933485Y-2799371I-36101J-36101D01*
G01X1931831Y-2799151D01*
G01Y-2781575D01*
G03X1896017Y-2745761I-35814J0D01*
G01X1782763D01*
G03X1746949Y-2781575I0J-35814D01*
G01Y-2919276D01*
G03X1782763Y-2955090I35814J0D01*
G01X1896017D01*
G03X1931792Y-2920933I0J35814D01*
G01X2109405Y-3098546D01*
G01X1937854D01*
G02X1927948Y-3096107I0J21336D01*
G01Y-3031575D01*
G03X1892134Y-2995761I-35814J0D01*
G01X1778880D01*
G03X1743066Y-3031575I0J-35814D01*
G01Y-3169276D01*
G03X1778880Y-3205090I35814J0D01*
G01X1892134D01*
G03X1905648Y-3202442I0J35814D01*
G02X1937854Y-3200654I32206J-289125D01*
G01X2631270D01*
G01X2359351Y-3472573D01*
G03X2344133Y-3469179I-15218J-32420D01*
G01X2342460D01*
G02X2300341Y-3447340I13379J77337D01*
G01X2217961Y-3364959D01*
G03X2181860Y-3350006I-36101J-36101D01*
G01X1554480D01*
G03X1518379Y-3364959I0J-51054D01*
G01X1435995Y-3447344D01*
G02X1430251Y-3452953I-239172J239172D01*
G02X1424045Y-3447344I52388J64203D01*
G01X1349281Y-3372579D01*
G03X1313180Y-3357626I-36101J-36101D01*
G01X952646D01*
G01X666258Y-3071238D01*
G03X695977Y-3056685I-6382J50654D01*
G01X1110521Y-2642141D01*
G03X1125474Y-2606040I-36101J36101D01*
G01Y-2140805D01*
G01X1137835Y-2128444D01*
G01X1139188Y-2127199D01*
G01X1140622Y-2126056D01*
G01X1142483Y-2124743D01*
G01X1146596Y-2122202D01*
G01X1151275Y-2119698D01*
G01X1152667Y-2119049D01*
G03X1179229Y-2124704I26562J59560D01*
G01X1324929D01*
G03X1390143Y-2059489I0J65215D01*
G03X1339784Y-1995989I-65214J0D01*
G03X1390143Y-1932489I-14855J63500D01*
G03X1324929Y-1867275I-65214J0D01*
G01X1179229D01*
G03X1149003Y-1874702I0J-65214D01*
G01X1148495Y-1874194D01*
G01X1148254Y-1873769D01*
G01X1148019Y-1873279D01*
G03X1133405Y-1837998I-65979J-6661D01*
G01X1133336Y-1837822D01*
G01X1133130Y-1837162D01*
G01X1133094Y-1837013D01*
G01Y-1130300D01*
G03X1118141Y-1094199I-51054J0D01*
G01X1055271Y-1031330D01*
G03X1019171Y-1016377I-36101J-36101D01*
G01X639347D01*
G02X614569Y-1008377I0J42377D01*
G03X593627Y-1001617I-20941J-29053D01*
G01X423628D01*
G03X387814Y-1037431I0J-35814D01*
G01Y-1097431D01*
G03X408574Y-1129927I35814J0D01*
G03X387814Y-1162424I15053J-32497D01*
G01Y-1222424D01*
G03X423628Y-1258238I35814J0D01*
G01X593627D01*
G03X614569Y-1251477I0J35814D01*
G02X639347Y-1243478I24779J-34377D01*
G01X858857D01*
G01X937006Y-1321627D01*
G01Y-1615186D01*
G03X901700Y-1605006I-35306J-56134D01*
G03X835721Y-1664657I0J-66314D01*
G01X835645Y-1664830D01*
G01X835325Y-1665443D01*
G01X835245Y-1665574D01*
G01X807634Y-1693184D01*
G03X792834Y-1725336I36101J-36101D01*
G01X787108D01*
G03X751294Y-1761150I0J-35814D01*
G01Y-1898851D01*
G03X787108Y-1934665I35814J0D01*
G01X789787D01*
G02X792226Y-1944571I-18897J-9906D01*
G01Y-1981200D01*
G03X806118Y-2016208I51054J0D01*
G03X772610Y-2028907I3842J-60692D01*
G02X763995Y-2026507I1291J21297D01*
G01Y-2023374D01*
G03X728181Y-1987560I-35814J0D01*
G01X590480D01*
G03X554666Y-2023374I0J-35814D01*
G01Y-2053036D01*
G02X544760Y-2055475I-9906J18897D01*
G01X521585D01*
G01X513949Y-2047846D01*
G01X513106Y-2047031D01*
G01X511155Y-2045205D01*
G01X509920Y-2044020D01*
G03X529521Y-2016415I-58793J62509D01*
G01X555910Y-1990026D01*
G01X589433Y-1956504D01*
G02X631552Y-1934665I55498J-55498D01*
G01X700362D01*
G03X736176Y-1898851I0J35814D01*
G01Y-1761150D01*
G03X700362Y-1725336I-35814J0D01*
G01X696072D01*
G02X693633Y-1715430I18897J9906D01*
G01Y-1708901D01*
G01Y-1707908D01*
G03X703393Y-1674865I-51054J33043D01*
G03X642579Y-1614051I-60814J0D01*
G03X609536Y-1623811I0J-60814D01*
G01X608543D01*
G01X390155D01*
G03X354054Y-1638764I0J-51054D01*
G01X220439Y-1772379D01*
G03X205486Y-1808480I36101J-36101D01*
G01Y-2265680D01*
G03X220439Y-2301781I51054J0D01*
G01X464279Y-2545621D01*
G03X500380Y-2560574I36101J36101D01*
G01X582564D01*
G03X581386Y-2573020I65136J-12446D01*
G03X647700Y-2639334I66314J0D01*
G03X714014Y-2573020I0J66314D01*
G03X712836Y-2560574I-66314J0D01*
G01X847254D01*
G01X849992Y-2560608D01*
G03X889000Y-2573294I39008J53628D01*
G03X939546Y-2549906I0J66314D01*
G01Y-2554413D01*
G01X649422Y-2844537D01*
G01X639327D01*
G02X622206Y-2844032I0J290913D01*
G03X593607Y-2829777I-28599J-21558D01*
G01X423607D01*
G03X394287Y-2845025I0J-35814D01*
G03X365229Y-2859490I7042J-50566D01*
G01X327119Y-2897599D01*
G03X312166Y-2933700I36101J-36101D01*
G01Y-3116580D01*
G03X312267Y-3119784I51054J0D01*
G01X53593D01*
G03X35814Y-3124508I0J-35814D01*
G01Y-2791677D01*
G03X53618Y-2796416I17804J31075D01*
G01X323618D01*
G03X359432Y-2760602I0J35814D01*
G01Y-2660603D01*
G03X323618Y-2624789I-35814J0D01*
G01X53618D01*
G03X35814Y-2629528I0J-35814D01*
G01Y-1458516D01*
G03X53613Y-1463252I17799J31078D01*
G01X323613D01*
G03X359427Y-1427438I0J35814D01*
G01Y-1327438D01*
G03X323613Y-1291624I-35814J0D01*
G01X53613D01*
G03X35814Y-1296360I0J-35814D01*
G01Y-963506D01*
G03X53638Y-968256I17824J31063D01*
G01X323638D01*
G03X359452Y-932442I0J35814D01*
G01Y-832443D01*
G03X323638Y-796629I-35814J0D01*
G01X53638D01*
G03X35814Y-801379I0J-35814D01*
G01Y-350000D01*
G02X350000Y-35814I314186J0D01*
G01X4046736D01*
G01Y-299991D01*
G03X4082550Y-335805I35814J0D01*
G01X4182550D01*
G03X4218364Y-299991I0J35814D01*
G01Y-35814D01*
G01X4787756D01*
G01Y-299991D01*
G03X4823570Y-335805I35814J0D01*
G01X4923570D01*
G03X4959384Y-299991I0J35814D01*
G01Y-35814D01*
G01X6250000D01*
G02X6564187Y-350000I0J-314186D01*
G01Y-3750000D01*
G01X6200000Y-3960814D02*
G03X6460814Y-3700000I0J260814D01*
G03X6200000Y-3439186I-260814J0D01*
G03X5939186Y-3700000I0J-260814D01*
G03X6200000Y-3960814I260814J0D01*
G01X400000Y-660814D02*
G03X660814Y-400000I0J260814D01*
G03X400000Y-139186I-260814J0D01*
G03X139186Y-400000I0J-260814D01*
G03X400000Y-660814I260814J0D01*
G01X6200000Y-660814D02*
G03X6460814Y-400000I0J260814D01*
G03X6200000Y-139186I-260814J0D01*
G03X5939186Y-400000I0J-260814D01*
G03X6200000Y-660814I260814J0D01*
G01X2924187Y-325000D02*
G03X3150001Y-550814I225814J0D01*
G03X3375814Y-325000I0J225814D01*
G03X3150001Y-99186I-225814J0D01*
G03X2924187Y-325000I0J-225814D01*
G01X1198880Y-3347994D02*
G03X1265194Y-3281680I0J66314D01*
G03X1251392Y-3241182I-66314J0D01*
G01X1251344Y-3240307D01*
G01X1251339Y-3239918D01*
G01Y-3216122D01*
G02X1253874Y-3206036I21336J0D01*
G03X1286099Y-3170402I-3589J35634D01*
G01Y-3030448D01*
G03X1252180Y-2994685I-35814J0D01*
G02X1249715Y-2984728I18871J9956D01*
G01Y-2966122D01*
G02X1252250Y-2956036I21336J0D01*
G03X1284475Y-2920402I-3589J35634D01*
G01Y-2780448D01*
G03X1248661Y-2744634I-35814J0D01*
G01X1148661D01*
G03X1112847Y-2780448I0J-35814D01*
G01Y-2920402D01*
G03X1145072Y-2956036I35814J0D01*
G02X1147607Y-2966122I-18801J-10086D01*
G01Y-2984728D01*
G02X1144953Y-2995033I-21336J0D01*
G03X1114471Y-3030448I5332J-35415D01*
G01Y-3170402D01*
G03X1146697Y-3206036I35814J0D01*
G02X1149231Y-3216122I-18801J-10086D01*
G01Y-3237426D01*
G01X1149009Y-3237848D01*
G01X1148803Y-3238180D01*
G01X1148671Y-3238360D01*
G03X1132566Y-3281680I50209J-43320D01*
G03X1198880Y-3347994I66314J0D01*
G01X1458719Y-2956216D02*
G03X1494533Y-2920402I0J35814D01*
G01Y-2903918D01*
G02X1504439Y-2901479I9906J-18897D01*
G01X1537043D01*
G02X1546949Y-2903918I0J-21336D01*
G01Y-2919276D01*
G03X1582763Y-2955090I35814J0D01*
G01X1696017D01*
G03X1731831Y-2919276I0J35814D01*
G01Y-2781575D01*
G03X1696017Y-2745761I-35814J0D01*
G01X1582763D01*
G03X1546949Y-2781575I0J-35814D01*
G01Y-2796932D01*
G02X1537043Y-2799371I-9906J18897D01*
G01X1504439D01*
G02X1494533Y-2796932I0J21336D01*
G01Y-2780448D01*
G03X1458719Y-2744634I-35814J0D01*
G01X1358719D01*
G03X1322905Y-2780448I0J-35814D01*
G01Y-2920402D01*
G03X1358719Y-2956216I35814J0D01*
G01X1458719D01*
G01X1460343Y-3206216D02*
G03X1496157Y-3170402I0J35814D01*
G01Y-3153918D01*
G02X1506063Y-3151479I9906J-18897D01*
G01X1533161D01*
G02X1543067Y-3153918I0J-21336D01*
G01Y-3169276D01*
G03X1578881Y-3205090I35814J0D01*
G01X1692134D01*
G03X1727948Y-3169276I0J35814D01*
G01Y-3031575D01*
G03X1692134Y-2995761I-35814J0D01*
G01X1578881D01*
G03X1543067Y-3031575I0J-35814D01*
G01Y-3046932D01*
G02X1533161Y-3049371I-9906J18897D01*
G01X1506063D01*
G02X1496157Y-3046932I0J21336D01*
G01Y-3030448D01*
G03X1460343Y-2994634I-35814J0D01*
G01X1360343D01*
G03X1324529Y-3030448I0J-35814D01*
G01Y-3170402D01*
G03X1360343Y-3206216I35814J0D01*
G01X1460343D01*
G01X5232514Y-2881805D02*
G03X5268328Y-2845991I0J35814D01*
G01Y-2745991D01*
G03X5250590Y-2715074I-35814J0D01*
G02X5237290Y-2696675I43267J45283D01*
G02X5248081Y-2681362I53373J-26153D01*
G03X5275166Y-2646628I-8729J34734D01*
G01Y-2533374D01*
G03X5239352Y-2497560I-35814J0D01*
G01X5101651D01*
G03X5065837Y-2533374I0J-35814D01*
G01Y-2646628D01*
G03X5091588Y-2680999I35814J0D01*
G02X5102736Y-2696675I-42225J-41829D01*
G02X5089436Y-2715074I-56567J26884D01*
G03X5071699Y-2745991I18077J-30917D01*
G01Y-2845991D01*
G03X5107513Y-2881805I35814J0D01*
G01X5232514D01*
G01X2655536Y-696524D02*
G03X2697480Y-711474I41944J51364D01*
G03X2763794Y-645160I0J66314D01*
G03X2697480Y-578846I-66314J0D01*
G03X2655537Y-593795I0J-66314D01*
G01X2655361Y-593864D01*
G01X2654702Y-594070D01*
G01X2654553Y-594106D01*
G01X2622748D01*
G02X2612842Y-591667I0J21336D01*
G01Y-540491D01*
G03X2577028Y-504677I-35814J0D01*
G01X2441029D01*
G03X2405215Y-540491I0J-35814D01*
G01Y-663491D01*
G03X2441029Y-699305I35814J0D01*
G01X2577028D01*
G03X2581848Y-698979I0J35814D01*
G02X2622748Y-696214I40900J-301132D01*
G01X2654553D01*
G01X2655023Y-696344D01*
G01X2655536Y-696524D01*
G01X2157696Y-699064D02*
G03X2199640Y-714014I41944J51364D01*
G03X2265954Y-647700I0J66314D01*
G03X2199640Y-581386I-66314J0D01*
G03X2157697Y-596335I0J-66314D01*
G01X2157521Y-596404D01*
G01X2156862Y-596610D01*
G01X2156713Y-596646D01*
G01X2135644D01*
G02X2125738Y-594207I0J21336D01*
G01Y-540531D01*
G03X2089924Y-504717I-35814J0D01*
G01X1953924D01*
G03X1918110Y-540531I0J-35814D01*
G01Y-663531D01*
G03X1953924Y-699345I35814J0D01*
G01X2089924D01*
G01X2090849Y-699333D01*
G02X2135644Y-698754I44795J-1733709D01*
G01X2156713D01*
G01X2157183Y-698884D01*
G01X2157696Y-699064D01*
G01X1668719Y-2700291D02*
G03X1704533Y-2736105I35814J0D01*
G01X1817787D01*
G03X1853601Y-2700291I0J35814D01*
G01Y-2687473D01*
G02X1863507Y-2685034I9906J-18897D01*
G01X1872233D01*
G01X1872703Y-2685164D01*
G01X1873216Y-2685344D01*
G03X1915160Y-2700294I41944J51364D01*
G03X1981474Y-2633980I0J66314D01*
G03X1915160Y-2567666I-66314J0D01*
G03X1873217Y-2582615I0J-66314D01*
G01X1873041Y-2582684D01*
G01X1872382Y-2582890D01*
G01X1872233Y-2582926D01*
G01X1863507D01*
G02X1853601Y-2580487I0J21336D01*
G01Y-2562589D01*
G03X1817787Y-2526775I-35814J0D01*
G01X1704533D01*
G03X1668719Y-2562589I0J-35814D01*
G01Y-2700291D01*
G01X4878388Y-3606248D02*
G03X4969202Y-3697061I90814J0D01*
G03X5060016Y-3606248I0J90814D01*
G01Y-3526248D01*
G03X4969202Y-3435434I-90814J0D01*
G03X4878388Y-3526248I0J-90814D01*
G01Y-3606248D01*
G01X581386Y-2438400D02*
G03X584495Y-2458466I66314J0D01*
G01X521527D01*
G01X307594Y-2244533D01*
G01Y-1829627D01*
G01X411302Y-1725919D01*
G01X580670D01*
G03X551295Y-1761150I6438J-35231D01*
G01Y-1829960D01*
G02X529455Y-1872079I-77337J13379D01*
G01X494228Y-1907306D01*
G03X451127Y-1895697I-43101J-74205D01*
G03X445753Y-1895865I0J-85814D01*
G03X365313Y-1981511I5374J-85645D01*
G03X392334Y-2044020I85814J0D01*
G03X365313Y-2106529I58793J-62509D01*
G03X392321Y-2169026I85814J0D01*
G03X365313Y-2231523I58806J-62497D01*
G03X451127Y-2317337I85814J0D01*
G03X507887Y-2295883I0J85814D01*
G03X511155Y-2292847I-56761J64360D01*
G01X513106Y-2291021D01*
G01X513949Y-2290207D01*
G01X521585Y-2282577D01*
G01X554666D01*
G01Y-2336627D01*
G03X590480Y-2372441I35814J0D01*
G01X605838D01*
G02X608277Y-2382347I-18897J-9906D01*
G01Y-2385019D01*
G01X607656Y-2385541D01*
G03X597964Y-2394537I40044J-52859D01*
G03X581386Y-2438400I49736J-43863D01*
G01X973647Y-3654806D02*
G01X414274Y-3095433D01*
G01Y-3085160D01*
G03X423607Y-3086398I9333J34576D01*
G01X516736D01*
G02X558855Y-3108237I-13379J-77337D01*
G01X895398Y-3444781D01*
G03X931499Y-3459734I36101J36101D01*
G01X1292033D01*
G01X1301482Y-3469183D01*
G01X1273747D01*
G03X1237933Y-3504997I0J-35814D01*
G01Y-3594647D01*
G02X1216094Y-3636765I-77337J13379D01*
G01X1198053Y-3654806D01*
G01X973647D01*
G01X1527940Y-4045011D02*
G03X1533506Y-4064186I35814J0D01*
G01X1198990D01*
G03X1204572Y-4044986I-30232J19201D01*
G01Y-3774986D01*
G03X1199678Y-3756914I-35814J0D01*
G01X1219200D01*
G03X1255301Y-3741961I0J51054D01*
G01X1266742Y-3730519D01*
G02X1295686Y-3713145I49247J-49247D01*
G02X1328060Y-3732650I-23124J-75002D01*
G01X1337371Y-3741961D01*
G03X1373472Y-3756914I36101J36101D01*
G01X1532849D01*
G03X1527940Y-3775011I30905J-18097D01*
G01Y-3775012D01*
G01Y-4045011D01*
G01X1344324Y-1146335D02*
G01X1344324Y-1137831D01*
G03X1325075Y-1106078I-35814J0D01*
G03X1358532Y-1070342I-2358J35736D01*
G01Y-990342D01*
G03X1355221Y-975302I-35814J0D01*
G01X1359163Y-979244D01*
G01Y-1030342D01*
G03X1361902Y-1046840I51054J0D01*
G01Y-1070342D01*
G03X1386354Y-1104305I35814J0D01*
G01X1344324Y-1146335D01*
G01X1458532Y-1049888D02*
G01X1458532Y-1046840D01*
G03X1460217Y-1040662I-48315J16499D01*
G03X1461902Y-1046840I50000J10321D01*
G01Y-1049768D01*
G03X1458532Y-1049888I136J-51054D01*
G01X1494554Y-3654806D02*
G01X1494554Y-3553467D01*
G02X1516393Y-3511348I77337J-13379D01*
G01X1575627Y-3452114D01*
G01X2160713D01*
G01X2177778Y-3469179D01*
G01X2159139D01*
G03X2123325Y-3504993I0J-35814D01*
G01Y-3577934D01*
G02X2101486Y-3620053I-77337J13379D01*
G01X2066733Y-3654806D01*
G01X1494554D01*
G01X1581512Y-1599223D02*
G03X1610634Y-1544320I-37192J54903D01*
G03X1595685Y-1502377I-66314J0D01*
G01X1595616Y-1502201D01*
G01X1595410Y-1501542D01*
G01X1595374Y-1501393D01*
G01Y-1488440D01*
G03X1580421Y-1452339I-51054J0D01*
G01X1559814Y-1431733D01*
G01Y-1424036D01*
G03X1572260Y-1425214I12446J65136D01*
G03X1611630Y-1412263I0J66314D01*
G03X1651000Y-1425214I39370J53363D01*
G03X1717314Y-1358900I0J66314D01*
G03X1701094Y-1315448I-66314J0D01*
G01X1698771Y-1312674D01*
G01Y-1307821D01*
G03X1683818Y-1271721I-51054J0D01*
G01X1680370Y-1268273D01*
G01X1658531Y-1246434D01*
G01Y-1230321D01*
G03X1643210Y-1200950I-35814J0D01*
G03X1651780Y-1201674I8570J50330D01*
G01X1736965D01*
G01X1738409D01*
G03X1771001Y-1211145I32592J51343D01*
G03X1803593Y-1201674I0J60814D01*
G01X1805037D01*
G01X1828398D01*
G03X1823446Y-1226820I61362J-25146D01*
G03X1878649Y-1292197I66314J0D01*
G01X1880878Y-1294426D01*
G01X2157610Y-1571158D01*
G03X2148115Y-1599223I39808J-29107D01*
G01X1581512D01*
G01X1951625Y-2329027D02*
G02X1941719Y-2331466I-9906J18897D01*
G01X1697547D01*
G01X1587754Y-2221673D01*
G01Y-2020127D01*
G01X1624338Y-1983543D01*
G01X1662849D01*
G01X1693135D01*
G03X1733711Y-1997704I40576J51054D01*
G01X1879411D01*
G03X1944625Y-1932489I0J65215D01*
G03X1937677Y-1903198I-65214J0D01*
G01X2033205Y-1998726D01*
G01X1963420D01*
G03X1927319Y-2013679I0J-51054D01*
G01X1901919Y-2039079D01*
G03X1886966Y-2075180I36101J-36101D01*
G01Y-2121714D01*
G03X1879411Y-2121275I-7555J-64775D01*
G01X1733711D01*
G03X1668497Y-2186489I0J-65214D01*
G03X1733711Y-2251704I65215J0D01*
G01X1879411D01*
G03X1919987Y-2237543I0J65215D01*
G01X1920691D01*
G03X1956791Y-2222590I0J51054D01*
G01X1956792D01*
G01X1974121Y-2205261D01*
G03X1989074Y-2169160I-36101J36101D01*
G01Y-2100834D01*
G01X2183455D01*
G03X2160083Y-2114175I12728J-49442D01*
G01X2140759Y-2133499D01*
G03X2125806Y-2169600I36101J-36101D01*
G01Y-2273704D01*
G03X2122440Y-2273546I-3365J-35656D01*
G01X1987439D01*
G03X1951625Y-2309360I0J-35814D01*
G01Y-2329027D01*
G01X1918337Y-4044982D02*
G03X1923922Y-4064186I35814J0D01*
G01X1694002D01*
G03X1699568Y-4045011I-30248J19175D01*
G01Y-3775012D01*
G01Y-3775011D01*
G03X1694659Y-3756914I-35814J0D01*
G01X1923229D01*
G03X1918337Y-3774982I30922J-18068D01*
G01Y-4044982D01*
G01X2413332Y-4045007D02*
G03X2418901Y-4064186I35814J0D01*
G01X2084381D01*
G03X2089965Y-4044982I-30230J19204D01*
G01Y-3774982D01*
G03X2085073Y-3756914I-35814J0D01*
G01X2087880D01*
G03X2123981Y-3741961I0J51054D01*
G01X2146953Y-3718988D01*
G03X2153039Y-3726333I42186J28755D01*
G01X2168666Y-3741961D01*
G03X2204767Y-3756914I36101J36101D01*
G01X2418239D01*
G03X2413332Y-3775008I30907J-18094D01*
G01Y-4045007D01*
G01X2456923Y-2135886D02*
G01X2455086Y-2135810D01*
G01X2453263Y-2135604D01*
G01X2451019Y-2135216D01*
G01X2446314Y-2134105D01*
G01X2441235Y-2132567D01*
G01X2435883Y-2130618D01*
G01X2430552Y-2128355D01*
G01X2425519Y-2125899D01*
G01X2421065Y-2123402D01*
G01X2417266Y-2120932D01*
G01X2415695Y-2119756D01*
G01X2414304Y-2118569D01*
G01X2413961Y-2118239D01*
G01X2409897Y-2114175D01*
G01X2409896D01*
G03X2373796Y-2099222I-36101J-36101D01*
G01X2326433D01*
G03X2369731Y-2050276I-6016J48946D01*
G03X2362921Y-2025270I-49314J0D01*
G03X2369720Y-2001330I-42504J25006D01*
G01X2399029D01*
G01X2481165Y-2083466D01*
G01X2481406Y-2083891D01*
G01X2481641Y-2084381D01*
G03X2515772Y-2135886I65979J6661D01*
G01X2456923D01*
G01X2379947Y-3654806D02*
G01X2379947Y-3616660D01*
G02X2401786Y-3574541I77337J-13379D01*
G01X2709633Y-3266694D01*
G01X2914585D01*
G01X2526473Y-3654806D01*
G01X2379947D01*
G01X2459772Y-1384546D02*
G03X2445005Y-1352804I-50868J-4359D01*
G01X2432639Y-1340437D01*
G03X2436234Y-1324797I-32219J15640D01*
G01Y-1189796D01*
G03X2407659Y-1154722I-35814J0D01*
G02X2404378Y-1150998I42911J41125D01*
G02X2407659Y-1147275I46192J-37402D01*
G03X2436234Y-1112200I-7239J35075D01*
G01Y-977199D01*
G03X2416372Y-945134I-35814J0D01*
G01X2683953D01*
G01X2703404Y-964585D01*
G03X2654026Y-1028700I16936J-64115D01*
G03X2707863Y-1093830I66314J0D01*
G01Y-1236200D01*
G03X2669540Y-1224006I-38323J-54120D01*
G03X2603226Y-1290320I0J-66314D01*
G03X2633930Y-1346262I66314J0D01*
G01X2633910Y-1346274D01*
G03X2608904Y-1339463I-25006J-42504D01*
G03X2583911Y-1346266I0J-49314D01*
G03X2558917Y-1339463I-24994J-42511D01*
G03X2533911Y-1346274I0J-49314D01*
G03X2508904Y-1339463I-25006J-42504D01*
G03X2459772Y-1384546I0J-49314D01*
G01X2876760Y-1902284D02*
G03X2817410Y-1947648I3600J-66216D01*
G01X2427295Y-1557534D01*
G03X2457850Y-1517793I-18390J45757D01*
G01Y-1532387D01*
G03X2472804Y-1568487I51054J0D01*
G01X2499246Y-1594930D01*
G01X2515217Y-1610901D01*
G03X2531272Y-1621754I36101J36101D01*
G03X2578100Y-1641114I46828J46954D01*
G03X2636456Y-1606298I0J66314D01*
G01X2651219Y-1621061D01*
G03X2687320Y-1636014I36101J36101D01*
G01X2964180D01*
G03X3000281Y-1621061I0J51054D01*
G01X3001950Y-1619391D01*
G03X3047403Y-1649578I45454J19127D01*
G01X3095688D01*
G03X3102782Y-1650950I13215J49314D01*
G01X3047403D01*
G03X2998089Y-1700264I0J-49314D01*
G03X3004900Y-1725270I49314J0D01*
G03X2998089Y-1750277I42504J-25006D01*
G03X3004892Y-1775270I49314J0D01*
G03X2998089Y-1800264I42511J-24994D01*
G03X3004900Y-1825270I49314J0D01*
G03X2998089Y-1850276I42504J-25006D01*
G03X2999072Y-1860070I49314J0D01*
G01X2997615Y-1858614D01*
G01X2997374Y-1858189D01*
G01X2997139Y-1857699D01*
G03X2931160Y-1798046I-65979J-6661D01*
G03X2864846Y-1864360I0J-66314D01*
G03X2876760Y-1902284I66314J0D01*
G01X3412531Y-2639067D02*
G01X3410383Y-2640046D01*
G01X3408235Y-2639067D01*
G01Y-2622060D01*
G03X3372421Y-2586246I-35814J0D01*
G01X3291087D01*
G02X3248968Y-2564407I13379J77337D01*
G01X3160961Y-2476399D01*
G03X3154254Y-2470757I-36101J-36101D01*
G01Y-2444999D01*
G03X3118440Y-2409185I-35814J0D01*
G01X3070626D01*
G02X3028507Y-2387346I13379J77337D01*
G01X3012981Y-2371819D01*
G03X3007909Y-2367378I-36101J-36101D01*
G03X3008230Y-2361763I-48993J5615D01*
G01Y-2238763D01*
G03X2958916Y-2189449I-49314J0D01*
G03X2933910Y-2196259I0J-49314D01*
G03X2908904Y-2189449I-25006J-42504D01*
G03X2883910Y-2196252I0J-49314D01*
G03X2858916Y-2189449I-24994J-42511D01*
G03X2833910Y-2196259I0J-49314D01*
G03X2808904Y-2189449I-25006J-42504D01*
G03X2761234Y-2226135I0J-49314D01*
G01Y-2140967D01*
G01X2761364Y-2140497D01*
G01X2761544Y-2139984D01*
G03X2776494Y-2098040I-51364J41944D01*
G03X2710180Y-2031726I-66314J0D01*
G03X2674874Y-2041906I0J-66314D01*
G01Y-1949515D01*
G01X2811735Y-2086377D01*
G03X2847836Y-2101330I36101J36101D01*
G01X2998101D01*
G03X3004900Y-2125270I49303J1067D01*
G03X2998089Y-2150276I42504J-25006D01*
G03X3047403Y-2199590I49314J0D01*
G01X3086660D01*
G03X3117627Y-2210054I30967J40590D01*
G01X3287013D01*
G01X3287483Y-2210184D01*
G01X3287996Y-2210364D01*
G03X3329940Y-2225314I41944J51364D01*
G03X3358605Y-2218798I0J66314D01*
G01Y-2347361D01*
G03X3394419Y-2383175I35814J0D01*
G01X3452493D01*
G02X3438960Y-2404750I-55948J20063D01*
G03X3412531Y-2439312I9386J-34562D01*
G01Y-2552565D01*
G03X3448345Y-2588379I35814J0D01*
G01X3586046D01*
G03X3606546Y-2581932I0J35814D01*
G01Y-2603188D01*
G03X3586046Y-2596741I-20500J-29367D01*
G01X3448345D01*
G03X3412531Y-2632555I0J-35814D01*
G01Y-2639067D01*
G01X3631513Y-1170545D02*
G03X3640094Y-1137920I-57733J32625D01*
G03X3573780Y-1071606I-66314J0D01*
G03X3548277Y-1076706I0J-66314D01*
G01X3540840D01*
G02X3500340Y-1060772I0J59436D01*
G03X3464640Y-1027812I-35700J-2854D01*
G01X3329639D01*
G03X3294564Y-1056387I0J-35814D01*
G02X3285582Y-1063471I-41125J42911D01*
G02X3276600Y-1056387I32143J49995D01*
G03X3241525Y-1027812I-35075J-7239D01*
G01X3106524D01*
G03X3076194Y-1044581I0J-35814D01*
G01Y-980187D01*
G01X3076324Y-979717D01*
G01X3076504Y-979204D01*
G03X3091454Y-937260I-51364J41944D01*
G03X3064917Y-884200I-66314J0D01*
G01X3919481D01*
G03X3911059Y-890999I27679J-42900D01*
G01X3631513Y-1170545D01*
G01X3393890Y-2176549D02*
G03X3396254Y-2159000I-63950J17549D01*
G03X3329940Y-2092686I-66314J0D01*
G03X3287997Y-2107635I0J-66314D01*
G01X3287821Y-2107704D01*
G01X3287162Y-2107910D01*
G01X3287013Y-2107946D01*
G01X3219115D01*
G03X3219717Y-2100263I-48712J7683D01*
G03X3212914Y-2075270I-49314J0D01*
G03X3219717Y-2050276I-42511J24994D01*
G03X3212907Y-2025270I-49314J0D01*
G03X3219717Y-2000263I-42504J25006D01*
G01X3219699Y-1998929D01*
G03X3253740Y-2011934I34041J38049D01*
G01X3266693D01*
G01X3267163Y-2012064D01*
G01X3267676Y-2012244D01*
G03X3309620Y-2027194I41944J51364D01*
G03X3375934Y-1960880I0J66314D01*
G03X3354590Y-1912144I-66314J0D01*
G03X3393714Y-1851660I-27190J60484D01*
G03X3327400Y-1785346I-66314J0D01*
G03X3285457Y-1800295I0J-66314D01*
G01X3285281Y-1800364D01*
G01X3284622Y-1800570D01*
G01X3284473Y-1800606D01*
G01X3219716D01*
G01X3219717Y-1800264D01*
G03X3212914Y-1775270I-49314J0D01*
G03X3219717Y-1750277I-42511J24994D01*
G03X3212907Y-1725270I-49314J0D01*
G03X3219717Y-1700264I-42504J25006D01*
G03X3170403Y-1650950I-49314J0D01*
G01X3115024D01*
G03X3122118Y-1649578I-6121J50686D01*
G01X3170403D01*
G03X3218645Y-1610491I0J49314D01*
G02X3250593Y-1617104I-34725J-248235D01*
G03X3260119Y-1618395I9527J34524D01*
G01X3305639D01*
G02X3390756Y-1661786I-24262J-152771D01*
G01X3499866Y-1770896D01*
G01Y-2155282D01*
G02X3441032Y-2176546I-70645J103441D01*
G01X3394419D01*
G01X3393890Y-2176549D01*
G01X3726087Y-1880966D02*
G01X3713895Y-1868774D01*
G01X3713654Y-1868349D01*
G01X3713419Y-1867859D01*
G03X3647440Y-1808206I-65979J-6661D01*
G03X3622294Y-1813158I0J-66314D01*
G01Y-1745540D01*
G03X3604365Y-1702255I-61214J0D01*
G01X3475404Y-1573294D01*
G01X3517120D01*
G03X3560405Y-1555365I0J61214D01*
G01X3647292Y-1468478D01*
G03X3688354Y-1407160I-25252J61318D01*
G03X3622040Y-1340846I-66314J0D01*
G03X3602747Y-1343715I0J-66314D01*
G01X3968307Y-978154D01*
G01X4358640D01*
G03X4394741Y-963201I0J51054D01*
G01X4473568Y-884373D01*
G01Y-1364249D01*
G01X4473437Y-1364725D01*
G01X4473262Y-1365223D01*
G03X4458318Y-1407160I51370J-41937D01*
G03X4524632Y-1473474I66314J0D01*
G03X4533086Y-1472933I0J66314D01*
G01X4314633Y-1691386D01*
G01X3957320D01*
G03X3921219Y-1706339I0J-51054D01*
G01X3773774Y-1853785D01*
G01X3773349Y-1854026D01*
G01X3772859Y-1854261D01*
G03X3726087Y-1880966I6661J-65979D01*
G04 Copper End*

G04 PolygonModel Start*
G36*
G01X4210004Y-1950827D02*
G01X4210004Y-2517783D01*
G01X4087464Y-2640323D01*
G01X4002544D01*
G01X3980324Y-2662543D01*
G01Y-2808878D01*
G01X3998407Y-2826961D01*
G01X4164618D01*
G01X4182384Y-2809195D01*
G01Y-2726367D01*
G01X4310004Y-2600003D01*
G01X4813680D01*
G01X4872557Y-2541126D01*
G01Y-1950889D01*
G01X4799684Y-1859523D01*
G01X4286090D01*
G01X4210004Y-1950827D01*
G37*
G36*
G01X4444374Y-3001684D02*
G01X4464742Y-2981316D01*
G01X4665561D01*
G01X4698977Y-2947899D01*
G01Y-2826644D01*
G01X4717436Y-2808186D01*
G01X4826915D01*
G01X4848238Y-2829509D01*
G01Y-3115002D01*
G01X4807081Y-3159850D01*
G01X4471101D01*
G01X4445011Y-3133760D01*
G01Y-3132168D01*
G01X4444374Y-3001684D01*
G37*
G04 PolygonModel End*

G04 Tear Start*
G36*
G01X3402625Y-2677320D02*
G01X3402625Y-2707800D01*
G02X3448345Y-2730660I0J-57150D01*
G01Y-2654460D01*
G02X3402625Y-2677320I-45720J34290D01*
G37*
G36*
G01X3542596Y-2363112D02*
G01X3491796Y-2363112D01*
G02X3453696Y-2439312I-95250J0D01*
G01X3580696D01*
G02X3542596Y-2363112I57150J76200D01*
G37*
G36*
G01X2452625Y-2412671D02*
G01X2409520Y-2412671D01*
G02X2417397Y-2452877I-25961J-25961D01*
G01X2489500Y-2444999D01*
G02X2452625Y-2412671I227621J296824D01*
G37*
G36*
G01X3416081Y-1636462D02*
G01X3449002Y-1597541D01*
G02X3395120Y-1489778I134704J134704D01*
G01X3308318Y-1582581D01*
G02X3416081Y-1636462I-26941J-188585D01*
G37*
G36*
G01X3183919Y-1521460D02*
G01X3183919Y-1572260D01*
G02X3260119Y-1582581I0J-286466D01*
G01Y-1483360D01*
G02X3183919Y-1521460I-76200J57150D01*
G37*
G36*
G01X3471320Y-1537480D02*
G01X3471320Y-1486680D01*
G02X3395120Y-1448580I0J95250D01*
G01Y-1575580D01*
G02X3471320Y-1537480I76200J-57150D01*
G37*
G36*
G01X2447944Y-1335424D02*
G01X2469496Y-1356976D01*
G02X2534004Y-1324797I80373J-80373D01*
G01X2459420Y-1291619D01*
G02X2447944Y-1335424I-43190J-12091D01*
G37*
G36*
G01X2355320Y-1113596D02*
G01X2304520Y-1113596D01*
G02X2266420Y-1189796I-95250J0D01*
G01X2393420D01*
G02X2355320Y-1113596I57150J76200D01*
G37*
G36*
G01X2154769Y-2135724D02*
G01X2154769Y-2092619D01*
G02X2105699Y-2109360I-41574J41574D01*
G01X2122440Y-2200382D01*
G02X2154769Y-2135724I113151J-16164D01*
G37*
G36*
G01X1955110Y-2258137D02*
G01X1973663Y-2282689D01*
G02X2038321Y-2250360I80822J-80822D01*
G01X1987439Y-2193479D01*
G02X1955110Y-2258137I-113151J16164D01*
G37*
G36*
G01X1941719Y-2367280D02*
G01X1941719Y-2397760D01*
G02X1987439Y-2420620I0J-57150D01*
G01Y-2344420D01*
G02X1941719Y-2367280I-45720J34290D01*
G37*
G36*
G01X3223644Y-2589731D02*
G01X3205091Y-2614283D01*
G02X3237420Y-2678941I-80822J-80822D01*
G01X3288302Y-2622060D01*
G02X3223644Y-2589731I16164J113151D01*
G37*
G36*
G01X3418141Y-2707800D02*
G01X3418141Y-2677320D01*
G02X3372421Y-2654460I0J57150D01*
G01Y-2730660D01*
G02X3418141Y-2707800I45720J-34290D01*
G37*
G36*
G01X3579041Y-2201660D02*
G01X3543119Y-2165739D01*
G02X3442618Y-2212360I-113899J113898D01*
G01X3535420Y-2299162D01*
G02X3579041Y-2201660I149496J-8373D01*
G37*
G36*
G01X5594160Y-322099D02*
G01X5594160Y-352579D01*
G02X5639880Y-375439I0J-57150D01*
G01Y-299239D01*
G02X5594160Y-322099I-45720J34290D01*
G37*
G36*
G01X2446140Y-2945240D02*
G01X2446140Y-2914760D01*
G02X2400420Y-2891900I0J57150D01*
G01Y-2968100D01*
G02X2446140Y-2945240I45720J-34290D01*
G37*
G36*
G01X2219699Y-2910806D02*
G01X2219699Y-2941286D01*
G02X2265419Y-2964146I0J-57150D01*
G01Y-2887946D01*
G02X2219699Y-2910806I-45720J34290D01*
G37*
G36*
G01X2876684Y-2714760D02*
G01X2876684Y-2745240D01*
G02X2922404Y-2768100I0J-57150D01*
G01Y-2691900D01*
G02X2876684Y-2714760I-45720J34290D01*
G37*
G36*
G01X3103125Y-2745240D02*
G01X3103125Y-2714760D01*
G02X3057405Y-2691900I0J57150D01*
G01Y-2768100D01*
G02X3103125Y-2745240I45720J-34290D01*
G37*
G36*
G01X3540840Y-1163320D02*
G01X3540840Y-1112520D01*
G02X3464640Y-1074420I0J95250D01*
G01Y-1201420D01*
G02X3540840Y-1163320I76200J-57150D01*
G37*
G36*
G01X3253439Y-1108726D02*
G01X3253439Y-1159526D01*
G02X3329639Y-1197626I0J-95250D01*
G01Y-1070626D01*
G02X3253439Y-1108726I-76200J57150D01*
G37*
G36*
G01X3317725Y-1159526D02*
G01X3317725Y-1108726D01*
G02X3241525Y-1070626I0J95250D01*
G01Y-1197626D01*
G02X3317725Y-1159526I76200J-57150D01*
G37*
G36*
G01X5510895Y-451059D02*
G01X5541375Y-451059D01*
G02X5564235Y-405339I57150J0D01*
G01X5488035D01*
G02X5510895Y-451059I-34290J-45720D01*
G37*
G36*
G01X5633355Y-352579D02*
G01X5633355Y-322099D01*
G02X5587635Y-299239I0J57150D01*
G01Y-375439D01*
G02X5633355Y-352579I45720J-34290D01*
G37*
G36*
G01X5094747Y-1188430D02*
G01X5125248Y-1188430D01*
G02X5148123Y-1142680I57188J-0D01*
G01X5071873D01*
G02X5094747Y-1188430I-34312J-45750D01*
G37*
G36*
G01X5290754Y-877928D02*
G01X5290754Y-847429D01*
G02X5245004Y-824553I0J57188D01*
G01Y-900804D01*
G02X5290754Y-877928I45750J-34313D01*
G37*
G36*
G01X5688529Y-1229360D02*
G01X5688529Y-1178560D01*
G01X5683843Y-1178411D01*
G01X5679554Y-1177972D01*
G01X5676897Y-1177525D01*
G01X5674390Y-1176961D01*
G01X5672024Y-1176283D01*
G01X5669787Y-1175495D01*
G01X5667669Y-1174602D01*
G01X5665660Y-1173607D01*
G01X5663749Y-1172516D01*
G01X5661926Y-1171331D01*
G01X5660180Y-1170059D01*
G01X5657685Y-1167993D01*
G01X5655305Y-1165751D01*
G01X5652251Y-1162514D01*
G01X5643915Y-1152408D01*
G01X5636226Y-1143208D01*
G01X5631237Y-1137887D01*
G01X5626736Y-1133579D01*
G01X5625530Y-1132500D01*
G01Y-1267500D01*
G01X5642184Y-1251834D01*
G01X5649954Y-1244796D01*
G01X5654327Y-1241279D01*
G01X5657916Y-1238713D01*
G01X5660686Y-1236953D01*
G01X5663540Y-1235346D01*
G01X5666494Y-1233903D01*
G01X5669563Y-1232638D01*
G01X5672764Y-1231561D01*
G01X5676111Y-1230684D01*
G01X5679621Y-1230019D01*
G01X5683308Y-1229579D01*
G01X5687190Y-1229374D01*
G01X5688529Y-1229360D01*
G37*
G36*
G01X5493462Y-851895D02*
G01X5471896Y-873462D01*
G01X5473133Y-874859D01*
G01X5474231Y-876424D01*
G01X5475197Y-878149D01*
G01X5476038Y-880022D01*
G01X5476760Y-882033D01*
G01X5477370Y-884173D01*
G01X5478282Y-888796D01*
G01X5478827Y-893811D01*
G01X5479061Y-899136D01*
G01X5478945Y-907529D01*
G01X5476950Y-933070D01*
G01X5476119Y-945485D01*
G01X5476096Y-949717D01*
G01X5476177Y-951636D01*
G01X5571636Y-856177D01*
G01X5567664Y-856078D01*
G01X5560793Y-856346D01*
G01X5533277Y-858636D01*
G01X5521891Y-859077D01*
G01X5516440Y-858979D01*
G01X5511260Y-858596D01*
G01X5506431Y-857875D01*
G01X5504173Y-857370D01*
G01X5502033Y-856760D01*
G01X5500022Y-856038D01*
G01X5498149Y-855197D01*
G01X5496425Y-854231D01*
G01X5494859Y-853132D01*
G01X5493462Y-851895D01*
G37*
G36*
G01X2436272Y-2914760D02*
G01X2436272Y-2945240D01*
G02X2481992Y-2948454I1J-326727D01*
G01Y-2891900D01*
G02X2436272Y-2914760I-45720J34290D01*
G37*
G36*
G01X2654321Y-2815333D02*
G01X2622768Y-2803780D01*
G02X2558111Y-2836109I-80822J80822D01*
G01X2621992Y-2879991D01*
G02X2654321Y-2815333I113151J-16164D01*
G37*
G36*
G01X2887727Y-2745240D02*
G01X2887727Y-2714760D01*
G02X2842007Y-2691900I0J57150D01*
G01Y-2768100D01*
G02X2887727Y-2745240I45720J-34290D01*
G37*
G36*
G01X2743280Y-2615383D02*
G01X2712800Y-2615383D01*
G02X2702007Y-2661103I-102238J0D01*
G01X2766140D01*
G02X2743280Y-2615383I34290J45720D01*
G37*
G36*
G01X1863507Y-2649220D02*
G01X1863507Y-2618740D01*
G02X1817787Y-2595880I0J57150D01*
G01Y-2672080D01*
G02X1863507Y-2649220I45720J-34290D01*
G37*
G36*
G01X5118689Y-687403D02*
G01X5139921Y-709276D01*
G02X5192675Y-688851I49495J-49495D01*
G01X5151018Y-622746D01*
G02X5118689Y-687403I-113151J16164D01*
G37*
G36*
G01X5318688Y-687403D02*
G01X5328017Y-721180D01*
G02X5392675Y-688851I80822J-80822D01*
G01X5351017Y-622746D01*
G02X5318688Y-687403I-113151J16164D01*
G37*
G36*
G01X5496600Y-552597D02*
G01X5487271Y-518821D01*
G02X5422613Y-551150I-80822J80822D01*
G01X5464271Y-617255D01*
G02X5496600Y-552597I113151J-16164D01*
G37*
G36*
G01X3995053Y-2255507D02*
G01X3995053Y-2204707D01*
G02X3918853Y-2199349I0J544544D01*
G01Y-2260865D01*
G02X3995053Y-2255507I76200J-539186D01*
G37*
G36*
G01X5011047Y-1328431D02*
G01X5020376Y-1362208D01*
G02X5085034Y-1329879I80822J-80822D01*
G01X5043376Y-1263773D01*
G02X5011047Y-1328431I-113151J16164D01*
G37*
G36*
G01X5125248Y-1146427D02*
G01X5094747Y-1146427D01*
G02X5071873Y-1192178I-57188J-0D01*
G01X5148123D01*
G02X5125248Y-1146427I34313J45750D01*
G37*
G36*
G01X4771472Y-1235628D02*
G01X4771472Y-1286428D01*
G02X4843376Y-1324528I0J-86901D01*
G01Y-1197528D01*
G02X4771472Y-1235628I-71904J48801D01*
G37*
G36*
G01X1218584Y-1178705D02*
G01X1245233Y-1195161D01*
G03X1268638Y-1162832I-89249J89248D01*
G01X1228510Y-1138133D01*
G02X1218584Y-1178705I-38391J-12107D01*
G37*
G36*
G01X1636941Y-1318598D02*
G01X1655046Y-1293598D01*
G03X1622717Y-1270193I-89248J-89249D01*
G01X1598019Y-1310321D01*
G02X1636941Y-1318598I13087J-34112D01*
G37*
G36*
G01X1560204Y-1015102D02*
G01X1560204Y-1045582D01*
G02X1597716Y-1068442I0J-42208D01*
G01Y-992242D01*
G02X1560204Y-1015102I-37512J19348D01*
G37*
G36*
G01X1610216Y-1045582D02*
G01X1610216Y-1015102D01*
G02X1572705Y-992242I0J42208D01*
G01Y-1068442D01*
G02X1610216Y-1045582I37512J-19348D01*
G37*
G36*
G01X1134589Y-1917249D02*
G01X1134589Y-1947729D01*
G01X1138027Y-1947561D01*
G01X1144096Y-1946780D01*
G01X1146803Y-1946540D01*
G01X1148091Y-1946539D01*
G01X1149342Y-1946649D01*
G01X1150562Y-1946893D01*
G01X1151753Y-1947295D01*
G01X1152922Y-1947878D01*
G01X1154074Y-1948664D01*
G01X1155212Y-1949679D01*
G01X1156342Y-1950944D01*
G01Y-1914035D01*
G01X1155212Y-1915300D01*
G01X1154074Y-1916314D01*
G01X1152922Y-1917101D01*
G01X1151753Y-1917683D01*
G01X1150562Y-1918085D01*
G01X1149342Y-1918329D01*
G01X1148091Y-1918439D01*
G01X1146803D01*
G01X1144096Y-1918199D01*
G01X1138027Y-1917417D01*
G01X1134589Y-1917249D01*
G37*
G36*
G01X1134589Y-2044249D02*
G01X1134589Y-2074729D01*
G01X1138027Y-2074561D01*
G01X1144096Y-2073780D01*
G01X1146803Y-2073540D01*
G01X1148091Y-2073539D01*
G01X1149342Y-2073649D01*
G01X1150562Y-2073893D01*
G01X1151753Y-2074295D01*
G01X1152922Y-2074878D01*
G01X1154074Y-2075664D01*
G01X1155212Y-2076679D01*
G01X1156342Y-2077944D01*
G01Y-2041035D01*
G01X1155212Y-2042300D01*
G01X1154074Y-2043314D01*
G01X1152922Y-2044101D01*
G01X1151753Y-2044683D01*
G01X1150562Y-2045085D01*
G01X1149342Y-2045329D01*
G01X1148091Y-2045439D01*
G01X1146803D01*
G01X1144096Y-2045199D01*
G01X1138027Y-2044417D01*
G01X1134589Y-2044249D01*
G37*
G36*
G01X1912169Y-1820729D02*
G01X1912169Y-1790249D01*
G01X1909412Y-1790145D01*
G01X1908049Y-1789979D01*
G01X1906725Y-1789704D01*
G01X1905465Y-1789297D01*
G01X1904292Y-1788732D01*
G01X1903228Y-1787986D01*
G01X1902297Y-1787035D01*
G01Y-1823944D01*
G01X1903228Y-1822992D01*
G01X1904292Y-1822246D01*
G01X1905465Y-1821682D01*
G01X1906725Y-1821274D01*
G01X1908049Y-1820999D01*
G01X1909412Y-1820833D01*
G01X1912169Y-1820729D01*
G37*
G36*
G01X1662849Y-1917249D02*
G01X1662849Y-1947729D01*
G01X1666971Y-1947571D01*
G01X1670841Y-1947143D01*
G01X1674482Y-1946512D01*
G01X1681162Y-1944917D01*
G01X1688609Y-1943000D01*
G01X1691376Y-1942476D01*
G01X1694055Y-1942194D01*
G01X1695368Y-1942164D01*
G01X1696668Y-1942220D01*
G01X1697956Y-1942371D01*
G01X1699236Y-1942625D01*
G01X1700510Y-1942990D01*
G01X1701781Y-1943474D01*
G01X1703052Y-1944088D01*
G01X1704325Y-1944838D01*
G01X1705604Y-1945734D01*
G01X1706890Y-1946784D01*
G01X1708187Y-1947997D01*
G01X1709498Y-1949380D01*
G01X1710824Y-1950944D01*
G01Y-1914035D01*
G01X1709498Y-1915598D01*
G01X1708187Y-1916982D01*
G01X1706890Y-1918194D01*
G01X1705604Y-1919244D01*
G01X1704325Y-1920140D01*
G01X1703052Y-1920890D01*
G01X1701781Y-1921504D01*
G01X1700510Y-1921989D01*
G01X1699236Y-1922354D01*
G01X1697956Y-1922608D01*
G01X1696668Y-1922758D01*
G01X1695368Y-1922814D01*
G01X1694055Y-1922785D01*
G01X1691376Y-1922502D01*
G01X1688609Y-1921978D01*
G01X1679560Y-1919642D01*
G01X1674482Y-1918466D01*
G01X1670841Y-1917836D01*
G01X1666971Y-1917407D01*
G01X1662849Y-1917249D01*
G37*
G36*
G01X1729834Y-1870760D02*
G01X1689318Y-1873349D01*
G01X1692810Y-1877091D01*
G01X1696104Y-1881147D01*
G01X1699128Y-1885470D01*
G01X1700962Y-1888476D01*
G01X1702626Y-1891567D01*
G01X1704100Y-1894727D01*
G01X1705363Y-1897943D01*
G01X1706396Y-1901201D01*
G01X1707177Y-1904487D01*
G01X1707687Y-1907788D01*
G01X1707906Y-1911088D01*
G01X1707812Y-1914375D01*
G01X1707643Y-1916009D01*
G01X1707387Y-1917634D01*
G01X1707043Y-1919249D01*
G01X1706608Y-1920852D01*
G01X1706081Y-1922441D01*
G01X1794491Y-1903089D01*
G01X1790176Y-1902903D01*
G01X1785813Y-1902362D01*
G01X1781421Y-1901490D01*
G01X1777018Y-1900310D01*
G01X1772621Y-1898846D01*
G01X1768249Y-1897122D01*
G01X1761777Y-1894098D01*
G01X1755462Y-1890622D01*
G01X1749363Y-1886773D01*
G01X1743541Y-1882630D01*
G01X1738057Y-1878275D01*
G01X1732972Y-1873787D01*
G01X1729834Y-1870760D01*
G37*
G36*
G01X1920691Y-2201729D02*
G01X1920691Y-2171249D01*
G01X1917836Y-2171363D01*
G01X1912707Y-2171854D01*
G01X1910391Y-2171948D01*
G01X1909286Y-2171896D01*
G01X1908213Y-2171754D01*
G01X1907170Y-2171505D01*
G01X1906153Y-2171131D01*
G01X1905160Y-2170615D01*
G01X1904188Y-2169939D01*
G01X1903234Y-2169084D01*
G01X1902297Y-2168035D01*
G01Y-2204944D01*
G01X1903234Y-2203894D01*
G01X1904188Y-2203040D01*
G01X1905160Y-2202363D01*
G01X1906153Y-2201847D01*
G01X1907170Y-2201473D01*
G01X1908213Y-2201224D01*
G01X1909286Y-2201082D01*
G01X1910391Y-2201030D01*
G01X1912707Y-2201125D01*
G01X1917836Y-2201615D01*
G01X1920691Y-2201729D01*
G37*
G36*
G01X1241418Y-3662089D02*
G01X1241418Y-3705195D01*
G02X1303945Y-3674996I74571J-74571D01*
G01X1273747Y-3597432D01*
G02X1241418Y-3662089I-113151J16164D01*
G37*
G36*
G01X1353384Y-3707325D02*
G01X1366076Y-3676911D01*
G02X1333747Y-3612253I80822J80822D01*
G01X1288727Y-3674996D01*
G02X1353384Y-3707325I-16164J-113151D01*
G37*
G36*
G01X1398721Y-3472668D02*
G01X1366411Y-3483464D01*
G02X1398740Y-3548122I-80822J-80822D01*
G01X1458740Y-3504997D01*
G02X1398721Y-3472668I23899J116247D01*
G37*
G36*
G01X1491069Y-3486024D02*
G01X1461319Y-3472668D01*
G02X1424444Y-3504997I-264496J264495D01*
G01X1458740Y-3550681D01*
G02X1491069Y-3486024I113151J-16164D01*
G37*
G36*
G01X3175000Y-3516328D02*
G01X3124200Y-3516328D01*
G01X3123936Y-3526176D01*
G01X3123355Y-3533379D01*
G01X3122456Y-3540021D01*
G01X3121249Y-3546139D01*
G01X3120149Y-3550404D01*
G01X3118887Y-3554410D01*
G01X3117466Y-3558171D01*
G01X3115893Y-3561703D01*
G01X3114171Y-3565021D01*
G01X3112305Y-3568140D01*
G01X3110299Y-3571076D01*
G01X3108158Y-3573843D01*
G01X3105886Y-3576458D01*
G01X3103488Y-3578934D01*
G01X3100101Y-3582048D01*
G01X3096510Y-3584979D01*
G01X3091747Y-3588443D01*
G01X3084607Y-3593044D01*
G01X3059186Y-3607655D01*
G01X3046482Y-3615546D01*
G01X3037291Y-3621970D01*
G01X3029268Y-3628235D01*
G01X3021149Y-3635330D01*
G01X3014335Y-3641963D01*
G01X3007501Y-3649327D01*
G01X3292500D01*
G01X3286340Y-3642833D01*
G01X3274988Y-3632230D01*
G01X3227592Y-3591387D01*
G01X3211025Y-3575873D01*
G01X3200274Y-3564646D01*
G01X3192645Y-3555648D01*
G01X3187632Y-3548923D01*
G01X3184677Y-3544461D01*
G01X3182064Y-3540024D01*
G01X3179820Y-3535617D01*
G01X3177971Y-3531247D01*
G01X3176544Y-3526920D01*
G01X3175997Y-3524774D01*
G01X3175566Y-3522641D01*
G01X3175254Y-3520522D01*
G01X3175064Y-3518417D01*
G01X3175000Y-3516328D01*
G37*
G36*
G01X4414520Y-3444240D02*
G01X4363720Y-3444240D01*
G02X4352212Y-3503751I-159625J0D01*
G01X4422212D01*
G02X4414520Y-3444240I226375J59511D01*
G37*
G36*
G01X858975Y-1729285D02*
G01X828495Y-1729285D01*
G02X805635Y-1761150I-33638J0D01*
G01X881835D01*
G02X858975Y-1729285I10778J31865D01*
G37*
G36*
G01X828040Y-1944571D02*
G01X858520Y-1944571D01*
G02X881380Y-1898851I57150J0D01*
G01X805180D01*
G02X828040Y-1944571I-34290J-45720D01*
G37*
G36*
G01X657819Y-1715430D02*
G01X627339Y-1715430D01*
G02X604479Y-1761150I-57150J0D01*
G01X680679D01*
G02X657819Y-1715430I34290J45720D01*
G37*
G36*
G01X554780Y-1897403D02*
G01X564109Y-1931180D01*
G02X628766Y-1898851I80822J-80822D01*
G01X587109Y-1832745D01*
G02X554780Y-1897403I-113151J16164D01*
G37*
G36*
G01X644091Y-2382347D02*
G01X674571Y-2382347D01*
G02X697431Y-2336627I57150J0D01*
G01X621231D01*
G02X644091Y-2382347I-34290J-45720D01*
G37*
G36*
G01X773901Y-2295240D02*
G01X773901Y-2264760D01*
G02X728181Y-2241900I0J57150D01*
G01Y-2318100D01*
G02X773901Y-2295240I45720J-34290D01*
G37*
G36*
G01X544760Y-2091289D02*
G01X544760Y-2121769D01*
G02X590480Y-2124984I1J-326727D01*
G01Y-2068429D01*
G02X544760Y-2091289I-45720J34290D01*
G37*
G36*
G01X773901Y-2095240D02*
G01X773901Y-2064760D01*
G02X728181Y-2041900I0J57150D01*
G01Y-2118100D01*
G02X773901Y-2095240I45720J-34290D01*
G37*
G36*
G01X3003183Y-2412671D02*
G01X2966104Y-2418696D01*
G02X2977440Y-2462361I-31475J-31475D01*
G01X3067841Y-2444999D01*
G02X3003183Y-2412671I16164J113151D01*
G37*
G36*
G01X5497360Y-2795399D02*
G01X5461439Y-2831320D01*
G01X5464395Y-2834470D01*
G01X5466955Y-2837596D01*
G01X5468453Y-2839671D01*
G01X5469795Y-2841743D01*
G01X5470988Y-2843813D01*
G01X5472041Y-2845884D01*
G01X5472961Y-2847959D01*
G01X5473757Y-2850040D01*
G01X5474735Y-2853180D01*
G01X5475479Y-2856349D01*
G01X5476014Y-2859555D01*
G01X5476369Y-2862808D01*
G01X5476609Y-2867232D01*
G01X5476567Y-2875273D01*
G01X5475926Y-2895617D01*
G01X5476132Y-2904156D01*
G01X5476217Y-2905637D01*
G01X5571676Y-2810177D01*
G01X5563040Y-2809889D01*
G01X5543693Y-2810446D01*
G01X5534396Y-2810594D01*
G01X5529943Y-2810412D01*
G01X5526673Y-2810111D01*
G01X5523453Y-2809639D01*
G01X5520272Y-2808968D01*
G01X5517124Y-2808071D01*
G01X5515039Y-2807334D01*
G01X5512961Y-2806477D01*
G01X5510888Y-2805492D01*
G01X5508818Y-2804370D01*
G01X5506747Y-2803103D01*
G01X5504674Y-2801684D01*
G01X5501554Y-2799251D01*
G01X5498413Y-2796430D01*
G01X5497360Y-2795399D01*
G37*
G36*
G01X5497360Y-1945398D02*
G01X5461439Y-1981319D01*
G01X5464395Y-1984469D01*
G01X5466955Y-1987595D01*
G01X5468453Y-1989671D01*
G01X5469795Y-1991742D01*
G01X5470988Y-1993812D01*
G01X5472041Y-1995883D01*
G01X5472961Y-1997958D01*
G01X5473757Y-2000040D01*
G01X5474735Y-2003179D01*
G01X5475479Y-2006348D01*
G01X5476014Y-2009554D01*
G01X5476369Y-2012807D01*
G01X5476609Y-2017231D01*
G01X5476567Y-2025273D01*
G01X5475926Y-2045616D01*
G01X5476132Y-2054156D01*
G01X5476217Y-2055636D01*
G01X5571676Y-1960177D01*
G01X5563040Y-1959889D01*
G01X5543693Y-1960445D01*
G01X5534396Y-1960594D01*
G01X5529943Y-1960412D01*
G01X5526673Y-1960111D01*
G01X5523453Y-1959638D01*
G01X5520272Y-1958967D01*
G01X5517124Y-1958070D01*
G01X5515039Y-1957334D01*
G01X5512961Y-1956477D01*
G01X5510888Y-1955491D01*
G01X5508818Y-1954369D01*
G01X5506747Y-1953103D01*
G01X5504674Y-1951683D01*
G01X5501554Y-1949251D01*
G01X5498413Y-1946430D01*
G01X5497360Y-1945398D01*
G37*
G36*
G01X4550329Y-623651D02*
G01X4580809Y-623651D01*
G02X4584024Y-605003I55694J0D01*
G01X4547115D01*
G02X4550329Y-623651I-52480J-18648D01*
G37*
G36*
G01X4290157Y-673197D02*
G01X4340957Y-673197D01*
G02X4350557Y-605003I247013J0D01*
G01X4280557D01*
G02X4290157Y-673197I-237413J-68194D01*
G37*
G36*
G01X1472265Y-545165D02*
G01X1502745Y-545165D01*
G02X1525605Y-512688I34500J0D01*
G01X1449405D01*
G02X1472265Y-545165I-11640J-32477D01*
G37*
G36*
G01X1347272Y-527930D02*
G01X1377752Y-527930D01*
G01X1377879Y-524935D01*
G01X1378251Y-522235D01*
G01X1378524Y-520984D01*
G01X1378852Y-519795D01*
G01X1379233Y-518661D01*
G01X1379665Y-517580D01*
G01X1380145Y-516546D01*
G01X1380673Y-515555D01*
G01X1381860Y-513685D01*
G01X1383211Y-511935D01*
G01X1384708Y-510269D01*
G01X1387193Y-507851D01*
G01X1394837Y-501044D01*
G01X1397927Y-498018D01*
G01X1400012Y-495762D01*
G01X1325012D01*
G01X1328133Y-499070D01*
G01X1333185Y-503747D01*
G01X1338688Y-508652D01*
G01X1340315Y-510269D01*
G01X1341813Y-511935D01*
G01X1343163Y-513685D01*
G01X1344351Y-515555D01*
G01X1344878Y-516546D01*
G01X1345359Y-517580D01*
G01X1345790Y-518661D01*
G01X1346171Y-519795D01*
G01X1346499Y-520984D01*
G01X1346772Y-522235D01*
G01X1347144Y-524935D01*
G01X1347272Y-527930D01*
G37*
G36*
G01X1097259Y-530762D02*
G01X1127739Y-530762D01*
G01X1127867Y-527735D01*
G01X1128239Y-524945D01*
G01X1128840Y-522365D01*
G01X1129652Y-519969D01*
G01X1130660Y-517730D01*
G01X1131848Y-515621D01*
G01X1133198Y-513615D01*
G01X1134696Y-511685D01*
G01X1137181Y-508874D01*
G01X1145847Y-500199D01*
G01X1149999Y-495762D01*
G01X1075000D01*
G01X1079152Y-500199D01*
G01X1087818Y-508874D01*
G01X1090303Y-511685D01*
G01X1091800Y-513615D01*
G01X1093151Y-515621D01*
G01X1094338Y-517730D01*
G01X1095347Y-519969D01*
G01X1096159Y-522365D01*
G01X1096760Y-524945D01*
G01X1097132Y-527735D01*
G01X1097259Y-530762D01*
G37*
G36*
G01X639347Y-1082671D02*
G01X639347Y-1052191D01*
G02X593627Y-1037431I0J78191D01*
G01Y-1097431D01*
G02X639347Y-1082671I45720J-63431D01*
G37*
G36*
G01X639347Y-1207664D02*
G01X639347Y-1177184D01*
G02X593627Y-1162424I0J78191D01*
G01Y-1222424D01*
G02X639347Y-1207664I45720J-63431D01*
G37*
G36*
G01X4105404Y-2599305D02*
G01X4054604Y-2599305D01*
G02X4016504Y-2675505I-95250J0D01*
G01X4143504D01*
G02X4105404Y-2599305I57150J76200D01*
G37*
G36*
G01X530586Y-1964702D02*
G01X509034Y-1943149D01*
G01X507707Y-1944319D01*
G01X506300Y-1945267D01*
G01X504819Y-1946003D01*
G01X503267Y-1946542D01*
G01X501648Y-1946894D01*
G01X499966Y-1947074D01*
G01X498226Y-1947092D01*
G01X496432Y-1946962D01*
G01X494588Y-1946696D01*
G01X492698Y-1946306D01*
G01X488798Y-1945205D01*
G01X482708Y-1942938D01*
G01X467968Y-1936510D01*
G01X461696Y-1934076D01*
G01X457613Y-1932808D01*
G01X455614Y-1932318D01*
G01X453649Y-1931941D01*
G01X451721Y-1931689D01*
G01X449835Y-1931574D01*
G01X447996Y-1931609D01*
G01X501029Y-1984642D01*
G01X501388Y-1982745D01*
G01X502181Y-1981035D01*
G01X503358Y-1979491D01*
G01X504867Y-1978092D01*
G01X506660Y-1976816D01*
G01X508684Y-1975640D01*
G01X513227Y-1973507D01*
G01X522877Y-1969504D01*
G01X525112Y-1968433D01*
G01X527176Y-1967289D01*
G01X529017Y-1966053D01*
G01X530586Y-1964702D01*
G37*
G36*
G01X519199Y-2121769D02*
G01X519199Y-2091289D01*
G01X516171Y-2091162D01*
G01X513381Y-2090790D01*
G01X510802Y-2090189D01*
G01X508406Y-2089377D01*
G01X506167Y-2088368D01*
G01X504057Y-2087181D01*
G01X502051Y-2085830D01*
G01X500121Y-2084333D01*
G01X497310Y-2081848D01*
G01X488636Y-2073182D01*
G01X484199Y-2069029D01*
G01Y-2144029D01*
G01X488636Y-2139877D01*
G01X497310Y-2131211D01*
G01X500121Y-2128726D01*
G01X502051Y-2127228D01*
G01X504057Y-2125878D01*
G01X506167Y-2124690D01*
G01X508406Y-2123682D01*
G01X510802Y-2122870D01*
G01X513381Y-2122269D01*
G01X516171Y-2121897D01*
G01X519199Y-2121769D01*
G37*
G36*
G01X519199Y-2246763D02*
G01X519199Y-2216283D01*
G01X516171Y-2216155D01*
G01X513381Y-2215783D01*
G01X510802Y-2215182D01*
G01X508406Y-2214370D01*
G01X506167Y-2213362D01*
G01X504057Y-2212174D01*
G01X502051Y-2210824D01*
G01X500121Y-2209327D01*
G01X497310Y-2206841D01*
G01X488636Y-2198175D01*
G01X484199Y-2194023D01*
G01Y-2269023D01*
G01X488636Y-2264871D01*
G01X497310Y-2256204D01*
G01X500121Y-2253719D01*
G01X502051Y-2252222D01*
G01X504057Y-2250871D01*
G01X506167Y-2249684D01*
G01X508406Y-2248676D01*
G01X510802Y-2247863D01*
G01X513381Y-2247263D01*
G01X516171Y-2246891D01*
G01X519199Y-2246763D01*
G37*
G36*
G01X639327Y-2910831D02*
G01X639327Y-2880351D01*
G02X593607Y-2877136I-1J326727D01*
G01Y-2914045D01*
G02X639327Y-2910831I45719J-323512D01*
G37*
G36*
G01X401329Y-2880351D02*
G01X401329Y-2910831D01*
G02X423607Y-2914045I0J-78802D01*
G01Y-2877136D01*
G02X401329Y-2880351I-22278J75587D01*
G37*
G36*
G01X639327Y-3035824D02*
G01X639327Y-3005344D01*
G02X593607Y-3002129I-1J326727D01*
G01Y-3039039D01*
G02X639327Y-3035824I45719J-323512D01*
G37*
G36*
G01X584179Y-3082913D02*
G01X625936Y-3081565D01*
G02X593607Y-3016907I80823J80822D01*
G01X519521Y-3050584D01*
G02X584179Y-3082913I-16164J-113151D01*
G37*
G36*
G01X5361206Y-3503234D02*
G01X5361206Y-3546339D01*
G02X5393535Y-3610997I-80822J-80822D01*
G01X5395298Y-3504997D01*
G02X5361206Y-3503234I-16068J19787D01*
G37*
G36*
G01X5523681Y-3472668D02*
G01X5486200Y-3478292D01*
G02X5518528Y-3542950I-80822J-80822D01*
G01X5578528Y-3504997D01*
G02X5523681Y-3472668I35153J122330D01*
G37*
G36*
G01X5144613Y-2722828D02*
G01X5195413Y-2722828D01*
G02X5233513Y-2646628I95250J0D01*
G01X5106513D01*
G02X5144613Y-2722828I-57150J-76200D01*
G37*
G36*
G01X5153484Y-1862687D02*
G01X5204284Y-1862687D01*
G02X5242384Y-1786487I95250J0D01*
G01X5115384D01*
G02X5153484Y-1862687I-57150J-76200D01*
G37*
G36*
G01X5308714Y-3042661D02*
G01X5308714Y-2991861D01*
G02X5232514Y-2966006I0J125217D01*
G01Y-3066006D01*
G02X5308714Y-3042661I76200J-112688D01*
G37*
G36*
G01X5195413Y-2669791D02*
G01X5144613Y-2669791D01*
G02X5108498Y-2745991I-98445J-0D01*
G01X5231529D01*
G02X5195413Y-2669791I62329J76200D01*
G37*
G36*
G01X5317584Y-2185403D02*
G01X5317584Y-2134603D01*
G02X5241384Y-2129245I0J544544D01*
G01Y-2190761D01*
G02X5317584Y-2185403I76200J-539186D01*
G37*
G36*
G01X5110923Y-2056122D02*
G01X5062502Y-2079542D01*
G02X5116383Y-2187305I-134704J-134704D01*
G01X5218687Y-2110003D01*
G02X5110923Y-2056122I26941J188585D01*
G37*
G36*
G01X5204284Y-1813789D02*
G01X5153484Y-1813789D01*
G02X5117368Y-1889989I-98445J-0D01*
G01X5240400D01*
G02X5204284Y-1813789I62329J76200D01*
G37*
G36*
G01X4054604Y-2564787D02*
G01X4105404Y-2564787D01*
G02X4132513Y-2488587I120648J0D01*
G01X4016504D01*
G02X4054604Y-2564787I-57150J-76200D01*
G37*
G36*
G01X3931312Y-2204707D02*
G01X3931312Y-2255507D01*
G02X4007512Y-2268573I0J-228733D01*
G01Y-2168573D01*
G02X3931312Y-2204707I-76200J62279D01*
G37*
G36*
G01X1537043Y-2835185D02*
G01X1537043Y-2865665D01*
G02X1582763Y-2888525I0J-57150D01*
G01Y-2812325D01*
G02X1537043Y-2835185I-45720J34290D01*
G37*
G36*
G01X1933485Y-2865665D02*
G01X1933485Y-2835185D01*
G02X1896017Y-2812325I0J42136D01*
G01Y-2888525D01*
G02X1933485Y-2865665I37469J-19276D01*
G37*
G36*
G01X1533161Y-3085185D02*
G01X1533161Y-3115665D01*
G02X1578881Y-3138525I0J-57150D01*
G01Y-3062325D01*
G02X1533161Y-3085185I-45720J34290D01*
G37*
G36*
G01X1937854Y-3164840D02*
G01X1937854Y-3134360D01*
G02X1892134Y-3111500I0J57150D01*
G01Y-3168055D01*
G02X1937854Y-3164840I45719J-323512D01*
G37*
G36*
G01X2622748Y-660400D02*
G01X2622748Y-629920D01*
G02X2577028Y-607060I0J57150D01*
G01Y-663491D01*
G02X2622748Y-660400I45720J-336621D01*
G37*
G36*
G01X5448782Y-2808142D02*
G01X5448782Y-2757342D01*
G02X5423006Y-2732743I0J25805D01*
G01Y-2832742D01*
G02X5448782Y-2808142I25776J-1205D01*
G37*
G36*
G01X5271805Y-2991861D02*
G01X5271805Y-3042661D01*
G02X5348005Y-3048019I-0J-544544D01*
G01Y-2986503D01*
G02X5271805Y-2991861I-76200J539186D01*
G37*
G36*
G01X5360105Y-3143461D02*
G01X5410905Y-3143461D01*
G02X5416263Y-3067261I544544J-0D01*
G01X5354747D01*
G02X5360105Y-3143461I-539186J-76200D01*
G37*
G36*
G01X5438782Y-1948142D02*
G01X5438782Y-1897342D01*
G02X5421733Y-1891984I0J29805D01*
G01Y-1953500D01*
G02X5438782Y-1948142I17049J-24447D01*
G37*
G36*
G01X5270532Y-2134603D02*
G01X5270532Y-2185403D01*
G02X5346732Y-2207260I0J-143758D01*
G01Y-2107260D01*
G02X5270532Y-2134603I-76200J92506D01*
G37*
G36*
G01X1736965Y-1135380D02*
G01X1736965Y-1165860D01*
G01X1744176Y-1165672D01*
G01X1746364Y-1165753D01*
G01X1748472Y-1166049D01*
G01X1750514Y-1166646D01*
G01X1752506Y-1167628D01*
G01X1754465Y-1169081D01*
G01Y-1131581D01*
G01X1752563Y-1132997D01*
G01X1750571Y-1134016D01*
G01X1748493Y-1134701D01*
G01X1746334Y-1135117D01*
G01X1744097Y-1135328D01*
G01X1736965Y-1135380D01*
G37*
G36*
G01X1805037Y-1165860D02*
G01X1805037Y-1135380D01*
G01X1797905Y-1135328D01*
G01X1795668Y-1135117D01*
G01X1793509Y-1134701D01*
G01X1791431Y-1134016D01*
G01X1789439Y-1132997D01*
G01X1787537Y-1131581D01*
G01Y-1169081D01*
G01X1789496Y-1167628D01*
G01X1791488Y-1166646D01*
G01X1793530Y-1166049D01*
G01X1795638Y-1165753D01*
G01X1797826Y-1165672D01*
G01X1805037Y-1165860D01*
G37*
G36*
G01X823251Y-2111743D02*
G01X844803Y-2090191D01*
G01X839684Y-2085169D01*
G01X838223Y-2083500D01*
G01X836967Y-2081740D01*
G01X835963Y-2079830D01*
G01X835261Y-2077714D01*
G01X834911Y-2075334D01*
G01X808394Y-2101851D01*
G01X810774Y-2102202D01*
G01X812890Y-2102903D01*
G01X814799Y-2103907D01*
G01X816560Y-2105163D01*
G01X818228Y-2106624D01*
G01X823251Y-2111743D01*
G37*
G36*
G01X775924Y-2064760D02*
G01X775924Y-2095240D01*
G01X777454Y-2095183D01*
G01X778860Y-2095027D01*
G01X780155Y-2094795D01*
G01X782471Y-2094201D01*
G01X785473Y-2093333D01*
G01X786405Y-2093144D01*
G01X787326Y-2093045D01*
G01X788250Y-2093059D01*
G01X789192Y-2093209D01*
G01X790167Y-2093520D01*
G01X791187Y-2094015D01*
G01X792268Y-2094717D01*
G01X793424Y-2095650D01*
G01Y-2058150D01*
G01X791800Y-2059384D01*
G01X789810Y-2060579D01*
G01X787557Y-2061696D01*
G01X785143Y-2062696D01*
G01X782670Y-2063541D01*
G01X780241Y-2064193D01*
G01X777958Y-2064612D01*
G01X775924Y-2064760D01*
G37*
G36*
G01X627339Y-1708901D02*
G01X657819Y-1708901D01*
G01X657751Y-1701730D01*
G01X657897Y-1699517D01*
G01X658253Y-1697384D01*
G01X658894Y-1695324D01*
G01X659895Y-1693331D01*
G01X661329Y-1691401D01*
G01X623829D01*
G01X625264Y-1693331D01*
G01X626264Y-1695324D01*
G01X626905Y-1697384D01*
G01X627261Y-1699517D01*
G01X627407Y-1701730D01*
G01X627339Y-1708901D01*
G37*
G36*
G01X608543Y-1659625D02*
G01X608543Y-1690105D01*
G01X615714Y-1690037D01*
G01X617927Y-1690183D01*
G01X620060Y-1690539D01*
G01X622120Y-1691180D01*
G01X624113Y-1692181D01*
G01X626043Y-1693615D01*
G01Y-1656115D01*
G01X624113Y-1657550D01*
G01X622120Y-1658550D01*
G01X620060Y-1659191D01*
G01X617927Y-1659547D01*
G01X615714Y-1659693D01*
G01X608543Y-1659625D01*
G37*
G36*
G01X2223893Y-2941286D02*
G01X2223893Y-2910806D01*
G01X2216722Y-2910874D01*
G01X2214510Y-2910727D01*
G01X2212376Y-2910371D01*
G01X2210316Y-2909731D01*
G01X2208324Y-2908730D01*
G01X2206393Y-2907296D01*
G01Y-2944796D01*
G01X2208324Y-2943361D01*
G01X2210316Y-2942361D01*
G01X2212376Y-2941720D01*
G01X2214510Y-2941364D01*
G01X2216722Y-2941217D01*
G01X2223893Y-2941286D01*
G37*
G36*
G01X3099949Y-2714760D02*
G01X3099949Y-2745240D01*
G01X3101239Y-2745086D01*
G01X3102491Y-2744656D01*
G01X3103708Y-2743996D01*
G01X3104892Y-2743155D01*
G01X3106047Y-2742179D01*
G01X3109354Y-2738914D01*
G01X3111452Y-2736929D01*
G01X3112477Y-2736136D01*
G01X3113488Y-2735538D01*
G01X3114489Y-2735184D01*
G01X3115481Y-2735119D01*
G01X3116467Y-2735393D01*
G01X3117449Y-2736050D01*
G01Y-2698550D01*
G01X3116563Y-2699400D01*
G01X3114653Y-2701551D01*
G01X3109274Y-2708175D01*
G01X3106967Y-2710700D01*
G01X3105798Y-2711817D01*
G01X3104622Y-2712797D01*
G01X3103446Y-2713612D01*
G01X3102272Y-2714230D01*
G01X3101105Y-2714623D01*
G01X3099949Y-2714760D01*
G37*
G36*
G01X1506063Y-3115665D02*
G01X1506063Y-3085185D01*
G02X1460343Y-3062325I0J57150D01*
G01Y-3138525D01*
G02X1506063Y-3115665I45720J-34290D01*
G37*
G36*
G01X1185045Y-3216122D02*
G01X1215525Y-3216122D01*
G02X1238385Y-3170402I57150J0D01*
G01X1162185D01*
G02X1185045Y-3216122I-34290J-45720D01*
G37*
G36*
G01X1213901Y-2984728D02*
G01X1183421Y-2984728D01*
G02X1160561Y-3030448I-57150J0D01*
G01X1236761D01*
G02X1213901Y-2984728I34290J45720D01*
G37*
G36*
G01X1504439Y-2865665D02*
G01X1504439Y-2835185D01*
G02X1458719Y-2812325I0J57150D01*
G01Y-2888525D01*
G02X1504439Y-2865665I45720J-34290D01*
G37*
G36*
G01X1183421Y-2966122D02*
G01X1213901Y-2966122D01*
G02X1236761Y-2920402I57150J0D01*
G01X1160561D01*
G02X1183421Y-2966122I-34290J-45720D01*
G37*
G36*
G01X3126740Y-1546860D02*
G01X3096260Y-1546860D01*
G01X3096096Y-1554303D01*
G01X3095695Y-1559745D01*
G01X3094977Y-1564956D01*
G01X3094288Y-1568254D01*
G01X3093407Y-1571376D01*
G01X3092312Y-1574294D01*
G01X3091678Y-1575667D01*
G01X3090984Y-1576978D01*
G01X3090225Y-1578223D01*
G01X3089401Y-1579399D01*
G01X3088508Y-1580502D01*
G01X3087543Y-1581528D01*
G01X3086504Y-1582473D01*
G01X3085389Y-1583335D01*
G01X3084195Y-1584109D01*
G01X3082919Y-1584791D01*
G01X3081558Y-1585379D01*
G01X3080111Y-1585868D01*
G01X3078574Y-1586255D01*
G01X3076945Y-1586535D01*
G01X3075221Y-1586706D01*
G01X3073400Y-1586764D01*
G01X3149600D01*
G01X3147779Y-1586706D01*
G01X3146055Y-1586535D01*
G01X3144426Y-1586255D01*
G01X3142889Y-1585868D01*
G01X3141442Y-1585379D01*
G01X3140081Y-1584791D01*
G01X3138805Y-1584109D01*
G01X3137611Y-1583335D01*
G01X3136496Y-1582473D01*
G01X3135457Y-1581528D01*
G01X3134492Y-1580502D01*
G01X3133599Y-1579399D01*
G01X3132775Y-1578223D01*
G01X3132016Y-1576978D01*
G01X3131322Y-1575667D01*
G01X3130688Y-1574294D01*
G01X3129593Y-1571376D01*
G01X3128712Y-1568254D01*
G01X3128023Y-1564956D01*
G01X3127305Y-1559745D01*
G01X3126904Y-1554303D01*
G01X3126740Y-1546860D01*
G37*
G36*
G01X3004745Y-1426001D02*
G01X3004745Y-1382896D01*
G01X2983260Y-1403706D01*
G01X2974630Y-1411157D01*
G01X2968711Y-1415692D01*
G01X2965327Y-1417984D01*
G01X2962104Y-1419893D01*
G01X2960060Y-1420927D01*
G01X2958111Y-1421752D01*
G01X2956267Y-1422354D01*
G01X2955386Y-1422567D01*
G01X2954535Y-1422717D01*
G01X2953714Y-1422805D01*
G01X2952924Y-1422827D01*
G01X2952168Y-1422782D01*
G01X2951445Y-1422668D01*
G01X2950758Y-1422482D01*
G01X2950106Y-1422224D01*
G01X2949492Y-1421891D01*
G01X2948916Y-1421482D01*
G01X2948380Y-1420993D01*
G01X2947885Y-1420425D01*
G01X2947431Y-1419774D01*
G01X2947020Y-1419038D01*
G01X2946653Y-1418217D01*
G01X2946332Y-1417308D01*
G01X2946057Y-1416308D01*
G01X2945829Y-1415217D01*
G01X2945521Y-1412751D01*
G01X2945416Y-1409896D01*
G01X2972416Y-1462876D01*
G01X2972602Y-1458872D01*
G01X2972829Y-1457070D01*
G01X2973142Y-1455391D01*
G01X2973538Y-1453827D01*
G01X2974014Y-1452369D01*
G01X2974568Y-1451011D01*
G01X2975194Y-1449743D01*
G01X2975892Y-1448559D01*
G01X2976659Y-1447449D01*
G01X2977490Y-1446408D01*
G01X2978383Y-1445425D01*
G01X2979336Y-1444493D01*
G01X2981407Y-1442753D01*
G01X2983679Y-1441122D01*
G01X2992874Y-1435367D01*
G01X2997230Y-1432402D01*
G01X3000212Y-1430100D01*
G01X3003230Y-1427464D01*
G01X3004745Y-1426001D01*
G37*
G36*
G01X2349684Y-1437640D02*
G01X2349684Y-1468120D01*
G01X2364447Y-1468359D01*
G01X2370418Y-1468818D01*
G01X2374196Y-1469325D01*
G01X2377774Y-1470034D01*
G01X2381117Y-1470977D01*
G01X2382690Y-1471547D01*
G01X2384192Y-1472189D01*
G01X2385619Y-1472905D01*
G01X2386966Y-1473701D01*
G01X2388229Y-1474581D01*
G01X2389405Y-1475548D01*
G01X2390488Y-1476608D01*
G01X2391475Y-1477764D01*
G01X2392362Y-1479020D01*
G01X2393144Y-1480382D01*
G01X2393817Y-1481851D01*
G01X2394377Y-1483434D01*
G01X2394820Y-1485134D01*
G01X2395142Y-1486956D01*
G01X2395338Y-1488903D01*
G01X2395404Y-1490980D01*
G01Y-1414780D01*
G01X2395338Y-1416857D01*
G01X2395142Y-1418804D01*
G01X2394820Y-1420626D01*
G01X2394377Y-1422326D01*
G01X2393817Y-1423909D01*
G01X2393144Y-1425378D01*
G01X2392362Y-1426740D01*
G01X2391475Y-1427996D01*
G01X2390488Y-1429152D01*
G01X2389405Y-1430212D01*
G01X2388229Y-1431179D01*
G01X2386966Y-1432059D01*
G01X2385619Y-1432855D01*
G01X2384192Y-1433571D01*
G01X2382690Y-1434213D01*
G01X2381117Y-1434782D01*
G01X2377774Y-1435726D01*
G01X2374196Y-1436435D01*
G01X2370418Y-1436942D01*
G01X2364447Y-1437401D01*
G01X2349684Y-1437640D01*
G37*
G36*
G01X2234641Y-1554435D02*
G01X2191536Y-1554435D01*
G01X2212346Y-1575920D01*
G01X2219797Y-1584550D01*
G01X2224332Y-1590469D01*
G01X2226624Y-1593854D01*
G01X2228533Y-1597077D01*
G01X2229567Y-1599120D01*
G01X2230392Y-1601069D01*
G01X2230994Y-1602914D01*
G01X2231207Y-1603794D01*
G01X2231358Y-1604646D01*
G01X2231445Y-1605467D01*
G01X2231467Y-1606256D01*
G01X2231422Y-1607013D01*
G01X2231308Y-1607735D01*
G01X2231123Y-1608423D01*
G01X2230864Y-1609074D01*
G01X2230531Y-1609688D01*
G01X2230122Y-1610264D01*
G01X2229634Y-1610800D01*
G01X2229065Y-1611296D01*
G01X2228414Y-1611750D01*
G01X2227679Y-1612160D01*
G01X2226857Y-1612527D01*
G01X2225948Y-1612848D01*
G01X2224948Y-1613124D01*
G01X2223857Y-1613351D01*
G01X2221392Y-1613659D01*
G01X2218536Y-1613764D01*
G01X2320417Y-1586764D01*
G01X2315258Y-1586609D01*
G01X2309834Y-1586150D01*
G01X2302761Y-1585168D01*
G01X2295453Y-1583754D01*
G01X2286516Y-1581518D01*
G01X2277556Y-1578730D01*
G01X2268745Y-1575432D01*
G01X2261641Y-1572321D01*
G01X2254858Y-1568905D01*
G01X2249731Y-1565968D01*
G01X2244924Y-1562862D01*
G01X2240488Y-1559599D01*
G01X2237435Y-1557056D01*
G01X2234641Y-1554435D01*
G37*
G36*
G01X2304520Y-1188400D02*
G01X2355320Y-1188400D01*
G02X2393420Y-1112200I95250J0D01*
G01X2266420D01*
G02X2304520Y-1188400I-57150J-76200D01*
G37*
G36*
G01X2126811Y-3645377D02*
G01X2126811Y-3688482D01*
G02X2172629Y-3674993I35282J-35282D01*
G01X2159139Y-3580719D01*
G02X2126811Y-3645377I-113151J16164D01*
G37*
G36*
G01X2173899Y-3690233D02*
G01X2204379Y-3690233D01*
G02X2207594Y-3674993I37732J0D01*
G01X2170685D01*
G02X2173899Y-3690233I-34517J-15240D01*
G37*
G36*
G01X2275017Y-3472664D02*
G01X2251804Y-3492557D01*
G02X2284133Y-3557214I-80822J-80822D01*
G01X2339675Y-3504993D01*
G02X2275017Y-3472664I16164J113151D01*
G37*
G36*
G01X2376462Y-3549217D02*
G01X2376462Y-3506111D01*
G02X2344133I-16164J16164D01*
G01Y-3613874D01*
G02X2376462Y-3549217I113151J-16164D01*
G37*
G36*
G01X2135644Y-662940D02*
G01X2135644Y-632460D01*
G02X2089924Y-609600I0J57150D01*
G01Y-663531D01*
G02X2135644Y-662940I45719J-1769462D01*
G37*
G36*
G01X1097280Y-1838417D02*
G01X1066800Y-1838417D01*
G01X1066760Y-1839650D01*
G01X1066455Y-1842336D01*
G01X1065875Y-1845222D01*
G01X1065050Y-1848199D01*
G01X1064014Y-1851156D01*
G01X1062796Y-1853984D01*
G01X1061428Y-1856573D01*
G01X1060698Y-1857743D01*
G01X1059943Y-1858812D01*
G01X1059165Y-1859767D01*
G01X1104915D01*
G01X1103382Y-1857743D01*
G01X1101951Y-1855315D01*
G01X1100655Y-1852593D01*
G01X1099523Y-1849687D01*
G01X1098589Y-1846706D01*
G01X1097883Y-1843761D01*
G01X1097436Y-1840961D01*
G01X1097280Y-1838417D01*
G37*
G36*
G01X1100625Y-1920079D02*
G01X1122178Y-1898526D01*
G01X1121334Y-1897626D01*
G01X1119651Y-1895511D01*
G01X1118020Y-1893060D01*
G01X1116498Y-1890372D01*
G01X1115140Y-1887548D01*
G01X1114002Y-1884687D01*
G01X1113138Y-1881890D01*
G01X1112827Y-1880546D01*
G01X1112605Y-1879255D01*
G01X1112480Y-1878031D01*
G01X1080130Y-1910381D01*
G01X1082645Y-1910727D01*
G01X1085373Y-1911433D01*
G01X1088215Y-1912441D01*
G01X1091070Y-1913696D01*
G01X1093839Y-1915143D01*
G01X1096421Y-1916726D01*
G01X1098716Y-1918390D01*
G01X1100625Y-1920079D01*
G37*
G36*
G01X975360Y-2058284D02*
G01X1005840Y-2058284D01*
G01X1005898Y-2056840D01*
G01X1006069Y-2055395D01*
G01X1006343Y-2053952D01*
G01X1006715Y-2052514D01*
G01X1007175Y-2051086D01*
G01X1008335Y-2048269D01*
G01X1009764Y-2045529D01*
G01X1011401Y-2042893D01*
G01X1013187Y-2040387D01*
G01X1016015Y-2036934D01*
G01X970265D01*
G01X971171Y-2038051D01*
G01X971962Y-2039209D01*
G01X972648Y-2040405D01*
G01X973234Y-2041639D01*
G01X973729Y-2042905D01*
G01X974140Y-2044202D01*
G01X974476Y-2045528D01*
G01X974951Y-2048253D01*
G01X975216Y-2051058D01*
G01X975359Y-2056825D01*
G01X975360Y-2058284D01*
G37*
G36*
G01X2898945Y-2008638D02*
G01X2920498Y-1987085D01*
G01X2919654Y-1986186D01*
G01X2917971Y-1984070D01*
G01X2916340Y-1981619D01*
G01X2914818Y-1978932D01*
G01X2913460Y-1976107D01*
G01X2912322Y-1973246D01*
G01X2911458Y-1970449D01*
G01X2911147Y-1969105D01*
G01X2910925Y-1967815D01*
G01X2910800Y-1966590D01*
G01X2878450Y-1998940D01*
G01X2880965Y-1999287D01*
G01X2883693Y-1999992D01*
G01X2886535Y-2001000D01*
G01X2889390Y-2002255D01*
G01X2892159Y-2003702D01*
G01X2894741Y-2005286D01*
G01X2897036Y-2006949D01*
G01X2898945Y-2008638D01*
G37*
G36*
G01X1325457Y-1317376D02*
G01X1294977Y-1317376D01*
G01X1294846Y-1319982D01*
G01X1294463Y-1322796D01*
G01X1293844Y-1325723D01*
G01X1293005Y-1328668D01*
G01X1291961Y-1331537D01*
G01X1290730Y-1334233D01*
G01X1290048Y-1335486D01*
G01X1289326Y-1336661D01*
G01X1288564Y-1337745D01*
G01X1287765Y-1338726D01*
G01X1333515D01*
G01X1332009Y-1336744D01*
G01X1330552Y-1334317D01*
G01X1329190Y-1331568D01*
G01X1327971Y-1328623D01*
G01X1326942Y-1325607D01*
G01X1326148Y-1322644D01*
G01X1325638Y-1319859D01*
G01X1325457Y-1317376D01*
G37*
G36*
G01X2949745Y-1904498D02*
G01X2971298Y-1882945D01*
G01X2970454Y-1882046D01*
G01X2968771Y-1879930D01*
G01X2967140Y-1877479D01*
G01X2965618Y-1874792D01*
G01X2964260Y-1871967D01*
G01X2963122Y-1869106D01*
G01X2962258Y-1866309D01*
G01X2961947Y-1864965D01*
G01X2961725Y-1863675D01*
G01X2961600Y-1862450D01*
G01X2929250Y-1894800D01*
G01X2931765Y-1895147D01*
G01X2934493Y-1895852D01*
G01X2937335Y-1896860D01*
G01X2940190Y-1898115D01*
G01X2942959Y-1899562D01*
G01X2945541Y-1901146D01*
G01X2947836Y-1902809D01*
G01X2949745Y-1904498D01*
G37*
G36*
G01X1662957Y-1317376D02*
G01X1632477Y-1317376D01*
G01X1632561Y-1324725D01*
G01X1632460Y-1327480D01*
G01X1632150Y-1330137D01*
G01X1631888Y-1331430D01*
G01X1631540Y-1332700D01*
G01X1631095Y-1333947D01*
G01X1630543Y-1335173D01*
G01X1629871Y-1336378D01*
G01X1629068Y-1337562D01*
G01X1628125Y-1338726D01*
G01X1673875D01*
G01X1669866Y-1333939D01*
G01X1668022Y-1331427D01*
G01X1666369Y-1328825D01*
G01X1664972Y-1326126D01*
G01X1664390Y-1324738D01*
G01X1663895Y-1323323D01*
G01X1663497Y-1321881D01*
G01X1663202Y-1320409D01*
G01X1663020Y-1318908D01*
G01X1662957Y-1317376D01*
G37*
G36*
G01X1742440Y-908436D02*
G01X1711960Y-908436D01*
G01X1711920Y-909670D01*
G01X1711615Y-912355D01*
G01X1711035Y-915241D01*
G01X1710210Y-918218D01*
G01X1709174Y-921175D01*
G01X1707956Y-924003D01*
G01X1706588Y-926592D01*
G01X1705858Y-927762D01*
G01X1705103Y-928832D01*
G01X1704325Y-929786D01*
G01X1750075D01*
G01X1748542Y-927762D01*
G01X1747111Y-925335D01*
G01X1745815Y-922613D01*
G01X1744683Y-919706D01*
G01X1743749Y-916725D01*
G01X1743043Y-913780D01*
G01X1742596Y-910980D01*
G01X1742440Y-908436D01*
G37*
G36*
G01X1906202Y-1269102D02*
G01X1927755Y-1247549D01*
G01X1926736Y-1246444D01*
G01X1925814Y-1245269D01*
G01X1924984Y-1244032D01*
G01X1924240Y-1242738D01*
G01X1923578Y-1241393D01*
G01X1922992Y-1240002D01*
G01X1922029Y-1237109D01*
G01X1921309Y-1234106D01*
G01X1920792Y-1231040D01*
G01X1920306Y-1226428D01*
G01X1920200Y-1224910D01*
G01X1887850Y-1257260D01*
G01X1889320Y-1257414D01*
G01X1890716Y-1257680D01*
G01X1892044Y-1258052D01*
G01X1893311Y-1258521D01*
G01X1894525Y-1259082D01*
G01X1895690Y-1259725D01*
G01X1896815Y-1260444D01*
G01X1898969Y-1262080D01*
G01X1901040Y-1263930D01*
G01X1906202Y-1269102D01*
G37*
G36*
G01X2546123Y-1548053D02*
G01X2524571Y-1569606D01*
G01X2525819Y-1570587D01*
G01X2527275Y-1571295D01*
G01X2528898Y-1571774D01*
G01X2530651Y-1572065D01*
G01X2532495Y-1572213D01*
G01X2538180Y-1572226D01*
G01X2541712Y-1572309D01*
G01X2543284Y-1572501D01*
G01X2544676Y-1572853D01*
G01X2545848Y-1573406D01*
G01X2546762Y-1574205D01*
G01X2547379Y-1575292D01*
G01X2547660Y-1576710D01*
G01X2580010Y-1544360D01*
G01X2578056Y-1544376D01*
G01X2575967Y-1544629D01*
G01X2573769Y-1545076D01*
G01X2569139Y-1546368D01*
G01X2559618Y-1549297D01*
G01X2557323Y-1549840D01*
G01X2555111Y-1550217D01*
G01X2553005Y-1550383D01*
G01X2551029Y-1550295D01*
G01X2549207Y-1549907D01*
G01X2547564Y-1549175D01*
G01X2546123Y-1548053D01*
G37*
G36*
G01X1873636Y-2618740D02*
G01X1873636Y-2649220D01*
G01X1874870Y-2649260D01*
G01X1877555Y-2649565D01*
G01X1880441Y-2650145D01*
G01X1883418Y-2650970D01*
G01X1886375Y-2652006D01*
G01X1889203Y-2653224D01*
G01X1891792Y-2654592D01*
G01X1892962Y-2655322D01*
G01X1894032Y-2656077D01*
G01X1894986Y-2656855D01*
G01Y-2611105D01*
G01X1892962Y-2612638D01*
G01X1890535Y-2614069D01*
G01X1887813Y-2615365D01*
G01X1884906Y-2616497D01*
G01X1881925Y-2617431D01*
G01X1878980Y-2618137D01*
G01X1876180Y-2618584D01*
G01X1873636Y-2618740D01*
G37*
G36*
G01X2529035Y-2037582D02*
G01X2507482Y-2059135D01*
G01X2508326Y-2060034D01*
G01X2510009Y-2062150D01*
G01X2511640Y-2064601D01*
G01X2513162Y-2067288D01*
G01X2514520Y-2070113D01*
G01X2515658Y-2072974D01*
G01X2516522Y-2075771D01*
G01X2516833Y-2077115D01*
G01X2517055Y-2078405D01*
G01X2517180Y-2079630D01*
G01X2549530Y-2047280D01*
G01X2547015Y-2046933D01*
G01X2544287Y-2046228D01*
G01X2541445Y-2045220D01*
G01X2538590Y-2043965D01*
G01X2535821Y-2042518D01*
G01X2533239Y-2040934D01*
G01X2530944Y-2039271D01*
G01X2529035Y-2037582D01*
G37*
G36*
G01X2885440Y-1167516D02*
G01X2854960Y-1167516D01*
G01X2854920Y-1168750D01*
G01X2854615Y-1171435D01*
G01X2854035Y-1174321D01*
G01X2853210Y-1177298D01*
G01X2852174Y-1180255D01*
G01X2850956Y-1183083D01*
G01X2849588Y-1185672D01*
G01X2848858Y-1186842D01*
G01X2848103Y-1187912D01*
G01X2847325Y-1188866D01*
G01X2893075D01*
G01X2891542Y-1186842D01*
G01X2890111Y-1184415D01*
G01X2888815Y-1181693D01*
G01X2887683Y-1178786D01*
G01X2886749Y-1175805D01*
G01X2886043Y-1172860D01*
G01X2885596Y-1170060D01*
G01X2885440Y-1167516D01*
G37*
G36*
G01X2688125Y-1330458D02*
G01X2709678Y-1308905D01*
G01X2708834Y-1308006D01*
G01X2707151Y-1305890D01*
G01X2705520Y-1303439D01*
G01X2703998Y-1300752D01*
G01X2702640Y-1297927D01*
G01X2701502Y-1295066D01*
G01X2700638Y-1292269D01*
G01X2700327Y-1290925D01*
G01X2700105Y-1289635D01*
G01X2699980Y-1288410D01*
G01X2667630Y-1320760D01*
G01X2670145Y-1321107D01*
G01X2672873Y-1321812D01*
G01X2675715Y-1322820D01*
G01X2678570Y-1324075D01*
G01X2681339Y-1325522D01*
G01X2683921Y-1327106D01*
G01X2686216Y-1328769D01*
G01X2688125Y-1330458D01*
G37*
G36*
G01X841464Y-2086852D02*
G01X819912Y-2108404D01*
G01X820861Y-2109434D01*
G01X821747Y-2110552D01*
G01X822571Y-2111749D01*
G01X823332Y-2113016D01*
G01X824034Y-2114345D01*
G01X825259Y-2117150D01*
G01X826257Y-2120093D01*
G01X827035Y-2123101D01*
G01X827603Y-2126101D01*
G01X827969Y-2129022D01*
G01X828080Y-2130430D01*
G01X860430Y-2098080D01*
G01X859030Y-2097934D01*
G01X857665Y-2097681D01*
G01X856332Y-2097327D01*
G01X855031Y-2096878D01*
G01X853761Y-2096344D01*
G01X852520Y-2095731D01*
G01X850121Y-2094296D01*
G01X847826Y-2092633D01*
G01X845624Y-2090799D01*
G01X841464Y-2086852D01*
G37*
G36*
G01X2126864Y-1866900D02*
G01X2126864Y-1836420D01*
G01X2125630Y-1836380D01*
G01X2122945Y-1836075D01*
G01X2120059Y-1835495D01*
G01X2117082Y-1834670D01*
G01X2114125Y-1833634D01*
G01X2111297Y-1832416D01*
G01X2108708Y-1831048D01*
G01X2107538Y-1830318D01*
G01X2106468Y-1829563D01*
G01X2105514Y-1828785D01*
G01Y-1874535D01*
G01X2107538Y-1873002D01*
G01X2109965Y-1871571D01*
G01X2112687Y-1870275D01*
G01X2115594Y-1869143D01*
G01X2118575Y-1868209D01*
G01X2121520Y-1867503D01*
G01X2124320Y-1867056D01*
G01X2126864Y-1866900D01*
G37*
G36*
G01X847476Y-2494280D02*
G01X847476Y-2524760D01*
G01X853276Y-2524832D01*
G01X856113Y-2525014D01*
G01X858881Y-2525376D01*
G01X860232Y-2525644D01*
G01X861558Y-2525980D01*
G01X862855Y-2526391D01*
G01X864121Y-2526886D01*
G01X865355Y-2527472D01*
G01X866551Y-2528158D01*
G01X867709Y-2528949D01*
G01X868826Y-2529855D01*
G01Y-2484105D01*
G01X865373Y-2486933D01*
G01X862867Y-2488719D01*
G01X860231Y-2490356D01*
G01X857491Y-2491785D01*
G01X854674Y-2492945D01*
G01X853246Y-2493405D01*
G01X851808Y-2493777D01*
G01X850365Y-2494051D01*
G01X848920Y-2494222D01*
G01X847476Y-2494280D01*
G37*
G36*
G01X2179454Y-1911040D02*
G01X2157901Y-1889487D01*
G01X2156805Y-1890343D01*
G01X2155543Y-1890915D01*
G01X2154137Y-1891237D01*
G01X2152605Y-1891340D01*
G01X2150969Y-1891256D01*
G01X2149246Y-1891019D01*
G01X2145625Y-1890211D01*
G01X2138230Y-1888163D01*
G01X2134774Y-1887439D01*
G01X2133175Y-1887265D01*
G01X2131690Y-1887260D01*
G01X2164040Y-1919610D01*
G01X2164641Y-1917797D01*
G01X2166039Y-1916466D01*
G01X2168025Y-1915483D01*
G01X2172926Y-1914019D01*
G01X2175421Y-1913265D01*
G01X2177667Y-1912318D01*
G01X2179454Y-1911040D01*
G37*
G36*
G01X3666025Y-1914658D02*
G01X3687578Y-1893105D01*
G01X3686734Y-1892206D01*
G01X3685051Y-1890090D01*
G01X3683420Y-1887639D01*
G01X3681898Y-1884952D01*
G01X3680540Y-1882127D01*
G01X3679402Y-1879266D01*
G01X3678538Y-1876469D01*
G01X3678227Y-1875125D01*
G01X3678005Y-1873835D01*
G01X3677880Y-1872610D01*
G01X3645530Y-1904960D01*
G01X3648045Y-1905307D01*
G01X3650773Y-1906012D01*
G01X3653615Y-1907020D01*
G01X3656470Y-1908275D01*
G01X3659239Y-1909722D01*
G01X3661821Y-1911306D01*
G01X3664116Y-1912969D01*
G01X3666025Y-1914658D01*
G37*
G36*
G01X3285876Y-1836420D02*
G01X3285876Y-1866900D01*
G01X3287110Y-1866940D01*
G01X3289795Y-1867245D01*
G01X3292681Y-1867825D01*
G01X3295658Y-1868650D01*
G01X3298615Y-1869686D01*
G01X3301443Y-1870904D01*
G01X3304032Y-1872272D01*
G01X3305202Y-1873002D01*
G01X3306272Y-1873757D01*
G01X3307226Y-1874535D01*
G01Y-1828785D01*
G01X3305202Y-1830318D01*
G01X3302775Y-1831749D01*
G01X3300053Y-1833045D01*
G01X3297146Y-1834177D01*
G01X3294165Y-1835111D01*
G01X3291220Y-1835817D01*
G01X3288420Y-1836264D01*
G01X3285876Y-1836420D01*
G37*
G36*
G01X3646824Y-1999596D02*
G01X3668376Y-1978044D01*
G01X3667082Y-1976507D01*
G01X3666206Y-1974946D01*
G01X3665667Y-1973341D01*
G01X3665383Y-1971677D01*
G01X3665274Y-1969933D01*
G01X3665180Y-1964050D01*
G01X3632830Y-1996400D01*
G01X3638713Y-1996494D01*
G01X3640457Y-1996603D01*
G01X3642121Y-1996887D01*
G01X3643726Y-1997426D01*
G01X3645287Y-1998302D01*
G01X3646824Y-1999596D01*
G37*
G36*
G01X3268096Y-1945640D02*
G01X3268096Y-1976120D01*
G01X3269330Y-1976160D01*
G01X3272015Y-1976465D01*
G01X3274901Y-1977045D01*
G01X3277878Y-1977870D01*
G01X3280835Y-1978906D01*
G01X3283663Y-1980124D01*
G01X3286252Y-1981492D01*
G01X3287422Y-1982222D01*
G01X3288492Y-1982977D01*
G01X3289446Y-1983755D01*
G01Y-1938005D01*
G01X3287422Y-1939538D01*
G01X3284995Y-1940969D01*
G01X3282273Y-1942265D01*
G01X3279366Y-1943397D01*
G01X3276385Y-1944331D01*
G01X3273440Y-1945037D01*
G01X3270640Y-1945484D01*
G01X3268096Y-1945640D01*
G37*
G36*
G01X3819658Y-1901655D02*
G01X3798105Y-1880102D01*
G01X3797206Y-1880946D01*
G01X3795090Y-1882629D01*
G01X3792639Y-1884260D01*
G01X3789952Y-1885782D01*
G01X3787127Y-1887140D01*
G01X3784266Y-1888278D01*
G01X3781469Y-1889142D01*
G01X3780125Y-1889453D01*
G01X3778835Y-1889675D01*
G01X3777610Y-1889800D01*
G01X3809960Y-1922150D01*
G01X3810307Y-1919635D01*
G01X3811012Y-1916907D01*
G01X3812020Y-1914065D01*
G01X3813275Y-1911210D01*
G01X3814722Y-1908441D01*
G01X3816306Y-1905859D01*
G01X3817969Y-1903564D01*
G01X3819658Y-1901655D01*
G37*
G36*
G01X2694940Y-2139564D02*
G01X2725420Y-2139564D01*
G01X2725460Y-2138330D01*
G01X2725765Y-2135645D01*
G01X2726345Y-2132759D01*
G01X2727170Y-2129782D01*
G01X2728206Y-2126825D01*
G01X2729424Y-2123997D01*
G01X2730792Y-2121408D01*
G01X2731522Y-2120238D01*
G01X2732277Y-2119168D01*
G01X2733055Y-2118214D01*
G01X2687305D01*
G01X2688838Y-2120238D01*
G01X2690269Y-2122665D01*
G01X2691565Y-2125387D01*
G01X2692697Y-2128294D01*
G01X2693631Y-2131275D01*
G01X2694337Y-2134220D01*
G01X2694784Y-2137020D01*
G01X2694940Y-2139564D01*
G37*
G36*
G01X3867918Y-2066755D02*
G01X3846365Y-2045202D01*
G01X3845466Y-2046046D01*
G01X3843350Y-2047729D01*
G01X3840899Y-2049360D01*
G01X3838212Y-2050882D01*
G01X3835387Y-2052240D01*
G01X3832526Y-2053378D01*
G01X3829729Y-2054242D01*
G01X3828385Y-2054553D01*
G01X3827095Y-2054775D01*
G01X3825870Y-2054900D01*
G01X3858220Y-2087250D01*
G01X3858567Y-2084735D01*
G01X3859272Y-2082007D01*
G01X3860280Y-2079165D01*
G01X3861535Y-2076310D01*
G01X3862982Y-2073541D01*
G01X3864566Y-2070959D01*
G01X3866229Y-2068664D01*
G01X3867918Y-2066755D01*
G37*
G36*
G01X3288416Y-2143760D02*
G01X3288416Y-2174240D01*
G01X3289650Y-2174280D01*
G01X3292335Y-2174585D01*
G01X3295221Y-2175165D01*
G01X3298198Y-2175990D01*
G01X3301155Y-2177026D01*
G01X3303983Y-2178244D01*
G01X3306572Y-2179612D01*
G01X3307742Y-2180342D01*
G01X3308812Y-2181097D01*
G01X3309766Y-2181875D01*
G01Y-2136125D01*
G01X3307742Y-2137658D01*
G01X3305315Y-2139089D01*
G01X3302593Y-2140385D01*
G01X3299686Y-2141517D01*
G01X3296705Y-2142451D01*
G01X3293760Y-2143157D01*
G01X3290960Y-2143604D01*
G01X3288416Y-2143760D01*
G37*
G36*
G01X2738925Y-1068838D02*
G01X2760478Y-1047285D01*
G01X2759634Y-1046386D01*
G01X2757951Y-1044270D01*
G01X2756320Y-1041819D01*
G01X2754798Y-1039132D01*
G01X2753440Y-1036307D01*
G01X2752302Y-1033446D01*
G01X2751438Y-1030649D01*
G01X2751127Y-1029305D01*
G01X2750905Y-1028015D01*
G01X2750780Y-1026790D01*
G01X2718430Y-1059140D01*
G01X2720945Y-1059487D01*
G01X2723673Y-1060192D01*
G01X2726515Y-1061200D01*
G01X2729370Y-1062455D01*
G01X2732139Y-1063902D01*
G01X2734721Y-1065486D01*
G01X2737016Y-1067149D01*
G01X2738925Y-1068838D01*
G37*
G36*
G01X1418125Y-774198D02*
G01X1439678Y-752645D01*
G01X1438834Y-751746D01*
G01X1437151Y-749630D01*
G01X1435520Y-747179D01*
G01X1433998Y-744492D01*
G01X1432640Y-741667D01*
G01X1431502Y-738806D01*
G01X1430638Y-736009D01*
G01X1430327Y-734665D01*
G01X1430105Y-733375D01*
G01X1429980Y-732150D01*
G01X1397630Y-764500D01*
G01X1400145Y-764847D01*
G01X1402873Y-765552D01*
G01X1405715Y-766560D01*
G01X1408570Y-767815D01*
G01X1411339Y-769262D01*
G01X1413921Y-770846D01*
G01X1416216Y-772509D01*
G01X1418125Y-774198D01*
G37*
G36*
G01X674571Y-2396876D02*
G01X644091Y-2396876D01*
G01X643927Y-2398256D01*
G01X643461Y-2399660D01*
G01X642726Y-2401082D01*
G01X641758Y-2402516D01*
G01X640593Y-2403955D01*
G01X637811Y-2406820D01*
G01X633037Y-2410991D01*
G01X627036Y-2416039D01*
G01X625835Y-2417166D01*
G01X624825Y-2418226D01*
G01X670575D01*
G01X669518Y-2416181D01*
G01X669394Y-2413753D01*
G01X669959Y-2411044D01*
G01X670968Y-2408158D01*
G01X673345Y-2402259D01*
G01X674224Y-2399452D01*
G01X674571Y-2396876D01*
G37*
G36*
G01X1215525Y-3240156D02*
G01X1185045Y-3240156D01*
G01X1184993Y-3241466D01*
G01X1184842Y-3242825D01*
G01X1184598Y-3244225D01*
G01X1183859Y-3247104D01*
G01X1182828Y-3250022D01*
G01X1181559Y-3252901D01*
G01X1180105Y-3255660D01*
G01X1178518Y-3258218D01*
G01X1176851Y-3260497D01*
G01X1176005Y-3261506D01*
G01X1221755D01*
G01X1220906Y-3260462D01*
G01X1220131Y-3259343D01*
G01X1219426Y-3258159D01*
G01X1218789Y-3256914D01*
G01X1218217Y-3255619D01*
G01X1217259Y-3252905D01*
G01X1216533Y-3250076D01*
G01X1216018Y-3247194D01*
G01X1215695Y-3244320D01*
G01X1215543Y-3241514D01*
G01X1215525Y-3240156D01*
G37*
G36*
G01X861562Y-1689905D02*
G01X883115Y-1711458D01*
G01X884014Y-1710614D01*
G01X886130Y-1708931D01*
G01X888581Y-1707300D01*
G01X891268Y-1705778D01*
G01X894093Y-1704420D01*
G01X896954Y-1703282D01*
G01X899751Y-1702418D01*
G01X901095Y-1702107D01*
G01X902385Y-1701885D01*
G01X903610Y-1701760D01*
G01X871260Y-1669410D01*
G01X870913Y-1671925D01*
G01X870208Y-1674653D01*
G01X869200Y-1677495D01*
G01X867945Y-1680350D01*
G01X866498Y-1683119D01*
G01X864914Y-1685701D01*
G01X863251Y-1687996D01*
G01X861562Y-1689905D01*
G37*
G36*
G01X1559560Y-1502796D02*
G01X1529080Y-1502796D01*
G01X1529040Y-1504030D01*
G01X1528735Y-1506715D01*
G01X1528155Y-1509601D01*
G01X1527330Y-1512578D01*
G01X1526294Y-1515535D01*
G01X1525076Y-1518363D01*
G01X1523708Y-1520952D01*
G01X1522978Y-1522122D01*
G01X1522223Y-1523192D01*
G01X1521445Y-1524146D01*
G01X1567195D01*
G01X1565662Y-1522122D01*
G01X1564231Y-1519695D01*
G01X1562935Y-1516973D01*
G01X1561803Y-1514066D01*
G01X1560869Y-1511085D01*
G01X1560163Y-1508140D01*
G01X1559716Y-1505340D01*
G01X1559560Y-1502796D01*
G37*
G36*
G01X1092200Y-653664D02*
G01X1122680Y-653664D01*
G01X1122720Y-652430D01*
G01X1123025Y-649745D01*
G01X1123605Y-646859D01*
G01X1124430Y-643882D01*
G01X1125466Y-640925D01*
G01X1126684Y-638097D01*
G01X1128052Y-635508D01*
G01X1128782Y-634338D01*
G01X1129537Y-633268D01*
G01X1130315Y-632314D01*
G01X1084565D01*
G01X1086098Y-634338D01*
G01X1087529Y-636765D01*
G01X1088825Y-639487D01*
G01X1089957Y-642394D01*
G01X1090891Y-645375D01*
G01X1091597Y-648320D01*
G01X1092044Y-651120D01*
G01X1092200Y-653664D01*
G37*
G36*
G01X1127739Y-570616D02*
G01X1097259Y-570616D01*
G01X1097187Y-572358D01*
G01X1096974Y-573993D01*
G01X1096632Y-575533D01*
G01X1096168Y-576988D01*
G01X1095594Y-578370D01*
G01X1094916Y-579691D01*
G01X1094146Y-580960D01*
G01X1093292Y-582191D01*
G01X1091371Y-584578D01*
G01X1085753Y-590646D01*
G01X1084565Y-591966D01*
G01X1130315D01*
G01X1129282Y-590689D01*
G01X1128454Y-589442D01*
G01X1127814Y-588219D01*
G01X1127341Y-587010D01*
G01X1127017Y-585808D01*
G01X1126822Y-584603D01*
G01X1126736Y-583388D01*
G01X1126742Y-582155D01*
G01X1126947Y-579599D01*
G01X1127600Y-573896D01*
G01X1127739Y-570616D01*
G37*
G36*
G01X1649306Y-1833337D02*
G01X1670859Y-1811785D01*
G01X1670011Y-1810882D01*
G01X1668319Y-1808768D01*
G01X1666682Y-1806324D01*
G01X1665154Y-1803648D01*
G01X1663790Y-1800837D01*
G01X1662647Y-1797987D01*
G01X1661781Y-1795195D01*
G01X1661468Y-1793852D01*
G01X1661246Y-1792559D01*
G01X1661120Y-1791330D01*
G01X1628770Y-1823680D01*
G01X1631278Y-1824026D01*
G01X1634009Y-1824728D01*
G01X1636860Y-1825732D01*
G01X1639727Y-1826983D01*
G01X1642508Y-1828424D01*
G01X1645100Y-1830001D01*
G01X1647400Y-1831657D01*
G01X1649306Y-1833337D01*
G37*
G36*
G01X2429045Y-1754638D02*
G01X2450598Y-1733085D01*
G01X2449754Y-1732186D01*
G01X2448071Y-1730070D01*
G01X2446440Y-1727619D01*
G01X2444918Y-1724932D01*
G01X2443560Y-1722107D01*
G01X2442422Y-1719246D01*
G01X2441558Y-1716449D01*
G01X2441247Y-1715105D01*
G01X2441025Y-1713815D01*
G01X2440900Y-1712590D01*
G01X2408550Y-1744940D01*
G01X2411065Y-1745287D01*
G01X2413793Y-1745992D01*
G01X2416635Y-1747000D01*
G01X2419490Y-1748255D01*
G01X2422259Y-1749702D01*
G01X2424841Y-1751286D01*
G01X2427136Y-1752949D01*
G01X2429045Y-1754638D01*
G37*
G36*
G01X2380864Y-1468120D02*
G01X2380864Y-1437640D01*
G01X2379630Y-1437600D01*
G01X2376945Y-1437295D01*
G01X2374059Y-1436715D01*
G01X2371082Y-1435890D01*
G01X2368125Y-1434854D01*
G01X2365297Y-1433636D01*
G01X2362708Y-1432268D01*
G01X2361538Y-1431538D01*
G01X2360468Y-1430783D01*
G01X2359514Y-1430005D01*
G01Y-1475755D01*
G01X2361538Y-1474222D01*
G01X2363965Y-1472791D01*
G01X2366687Y-1471495D01*
G01X2369594Y-1470363D01*
G01X2372575Y-1469429D01*
G01X2375520Y-1468723D01*
G01X2378320Y-1468276D01*
G01X2380864Y-1468120D01*
G37*
G36*
G01X3096260Y-1588384D02*
G01X3126740Y-1588384D01*
G01X3126780Y-1587150D01*
G01X3127085Y-1584465D01*
G01X3127665Y-1581579D01*
G01X3128490Y-1578602D01*
G01X3129526Y-1575645D01*
G01X3130744Y-1572817D01*
G01X3132112Y-1570228D01*
G01X3132842Y-1569058D01*
G01X3133597Y-1567988D01*
G01X3134375Y-1567034D01*
G01X3088625D01*
G01X3090158Y-1569058D01*
G01X3091589Y-1571485D01*
G01X3092885Y-1574207D01*
G01X3094017Y-1577114D01*
G01X3094951Y-1580095D01*
G01X3095657Y-1583040D01*
G01X3096104Y-1585840D01*
G01X3096260Y-1588384D01*
G37*
G36*
G01X4539882Y-1365636D02*
G01X4509382Y-1365636D01*
G01X4509343Y-1366870D01*
G01X4509038Y-1369557D01*
G01X4508460Y-1372443D01*
G01X4507638Y-1375419D01*
G01X4506603Y-1378375D01*
G01X4505387Y-1381203D01*
G01X4504021Y-1383791D01*
G01X4503291Y-1384961D01*
G01X4502535Y-1386031D01*
G01X4501757Y-1386986D01*
G01X4547507D01*
G01X4546729Y-1386031D01*
G01X4545973Y-1384961D01*
G01X4544543Y-1382534D01*
G01X4543248Y-1379812D01*
G01X4542119Y-1376907D01*
G01X4541187Y-1373927D01*
G01X4540483Y-1370982D01*
G01X4540037Y-1368182D01*
G01X4539922Y-1366870D01*
G01X4539882Y-1365636D01*
G37*
G36*
G01X1936364Y-2303780D02*
G01X1936364Y-2273300D01*
G01X1935130Y-2273260D01*
G01X1932445Y-2272955D01*
G01X1929559Y-2272375D01*
G01X1926582Y-2271550D01*
G01X1923625Y-2270514D01*
G01X1920797Y-2269296D01*
G01X1918208Y-2267928D01*
G01X1917038Y-2267198D01*
G01X1915968Y-2266443D01*
G01X1915014Y-2265665D01*
G01Y-2311415D01*
G01X1917038Y-2309882D01*
G01X1919465Y-2308451D01*
G01X1922187Y-2307155D01*
G01X1925094Y-2306023D01*
G01X1928075Y-2305089D01*
G01X1931020Y-2304383D01*
G01X1933820Y-2303936D01*
G01X1936364Y-2303780D01*
G37*
G36*
G01X2985384Y-1696720D02*
G01X2985384Y-1666240D01*
G01X2984150Y-1666200D01*
G01X2981465Y-1665895D01*
G01X2978579Y-1665315D01*
G01X2975602Y-1664490D01*
G01X2972645Y-1663454D01*
G01X2969817Y-1662236D01*
G01X2967228Y-1660868D01*
G01X2966058Y-1660138D01*
G01X2964988Y-1659383D01*
G01X2964034Y-1658605D01*
G01Y-1704355D01*
G01X2966058Y-1702822D01*
G01X2968485Y-1701391D01*
G01X2971207Y-1700095D01*
G01X2974114Y-1698963D01*
G01X2977095Y-1698029D01*
G01X2980040Y-1697323D01*
G01X2982840Y-1696876D01*
G01X2985384Y-1696720D01*
G37*
G36*
G01X1444964Y-943224D02*
G01X1475444Y-943224D01*
G01X1475308Y-941824D01*
G01X1474929Y-940407D01*
G01X1474350Y-938979D01*
G01X1473613Y-937544D01*
G01X1471839Y-934678D01*
G01X1469073Y-930472D01*
G01X1468294Y-929118D01*
G01X1467658Y-927796D01*
G01X1467209Y-926512D01*
G01X1466990Y-925273D01*
G01X1467042Y-924083D01*
G01X1467410Y-922948D01*
G01X1468135Y-921874D01*
G01X1422385D01*
G01X1423569Y-923075D01*
G01X1424976Y-924279D01*
G01X1428294Y-926710D01*
G01X1435791Y-931749D01*
G01X1439308Y-934406D01*
G01X1440864Y-935780D01*
G01X1442230Y-937188D01*
G01X1443364Y-938633D01*
G01X1444225Y-940119D01*
G01X1444773Y-941648D01*
G01X1444964Y-943224D01*
G37*
G36*
G01X1255644Y-927100D02*
G01X1255644Y-896620D01*
G01X1254410Y-896580D01*
G01X1251725Y-896275D01*
G01X1248839Y-895695D01*
G01X1245862Y-894870D01*
G01X1242905Y-893834D01*
G01X1240077Y-892616D01*
G01X1237488Y-891248D01*
G01X1236318Y-890518D01*
G01X1235248Y-889763D01*
G01X1234294Y-888985D01*
G01Y-934735D01*
G01X1236318Y-933202D01*
G01X1238745Y-931771D01*
G01X1241467Y-930475D01*
G01X1244374Y-929343D01*
G01X1247355Y-928409D01*
G01X1250300Y-927703D01*
G01X1253100Y-927256D01*
G01X1255644Y-927100D01*
G37*
G36*
G01X1575444Y-1317376D02*
G01X1544964Y-1317376D01*
G01X1545061Y-1318648D01*
G01X1545333Y-1319983D01*
G01X1545745Y-1321370D01*
G01X1546867Y-1324253D01*
G01X1549397Y-1330118D01*
G01X1549902Y-1331536D01*
G01X1550291Y-1332911D01*
G01X1550533Y-1334232D01*
G01X1550596Y-1335485D01*
G01X1550446Y-1336660D01*
G01X1550054Y-1337744D01*
G01X1549385Y-1338726D01*
G01X1595135D01*
G01X1594103Y-1337648D01*
G01X1591490Y-1335321D01*
G01X1583443Y-1328749D01*
G01X1580376Y-1325930D01*
G01X1579019Y-1324502D01*
G01X1577828Y-1323067D01*
G01X1576839Y-1321632D01*
G01X1576088Y-1320201D01*
G01X1575611Y-1318781D01*
G01X1575444Y-1317376D01*
G37*
G36*
G01X1726395Y-762502D02*
G01X1704842Y-784055D01*
G01X1705686Y-784954D01*
G01X1707369Y-787070D01*
G01X1709000Y-789521D01*
G01X1710522Y-792208D01*
G01X1711880Y-795033D01*
G01X1713018Y-797894D01*
G01X1713882Y-800691D01*
G01X1714193Y-802035D01*
G01X1714415Y-803325D01*
G01X1714540Y-804550D01*
G01X1746890Y-772200D01*
G01X1744375Y-771853D01*
G01X1741647Y-771148D01*
G01X1738805Y-770140D01*
G01X1735950Y-768885D01*
G01X1733181Y-767438D01*
G01X1730599Y-765854D01*
G01X1728304Y-764191D01*
G01X1726395Y-762502D01*
G37*
G36*
G01X2938780Y-1032124D02*
G01X2969260Y-1032124D01*
G01X2969300Y-1030890D01*
G01X2969605Y-1028205D01*
G01X2970185Y-1025319D01*
G01X2971010Y-1022342D01*
G01X2972046Y-1019385D01*
G01X2973264Y-1016557D01*
G01X2974632Y-1013968D01*
G01X2975362Y-1012798D01*
G01X2976117Y-1011728D01*
G01X2976895Y-1010774D01*
G01X2931145D01*
G01X2932678Y-1012798D01*
G01X2934109Y-1015225D01*
G01X2935405Y-1017947D01*
G01X2936537Y-1020854D01*
G01X2937471Y-1023835D01*
G01X2938177Y-1026780D01*
G01X2938624Y-1029580D01*
G01X2938780Y-1032124D01*
G37*
G36*
G01X2158116Y-632460D02*
G01X2158116Y-662940D01*
G01X2159350Y-662980D01*
G01X2162035Y-663285D01*
G01X2164921Y-663865D01*
G01X2167898Y-664690D01*
G01X2170855Y-665726D01*
G01X2173683Y-666944D01*
G01X2176272Y-668312D01*
G01X2177442Y-669042D01*
G01X2178512Y-669797D01*
G01X2179466Y-670575D01*
G01Y-624825D01*
G01X2177442Y-626358D01*
G01X2175015Y-627789D01*
G01X2172293Y-629085D01*
G01X2169386Y-630217D01*
G01X2166405Y-631151D01*
G01X2163460Y-631857D01*
G01X2160660Y-632304D01*
G01X2158116Y-632460D01*
G37*
G36*
G01X3009900Y-978784D02*
G01X3040380Y-978784D01*
G01X3040420Y-977550D01*
G01X3040725Y-974865D01*
G01X3041305Y-971979D01*
G01X3042130Y-969002D01*
G01X3043166Y-966045D01*
G01X3044384Y-963217D01*
G01X3045752Y-960628D01*
G01X3046482Y-959458D01*
G01X3047237Y-958388D01*
G01X3048015Y-957434D01*
G01X3002265D01*
G01X3003798Y-959458D01*
G01X3005229Y-961885D01*
G01X3006525Y-964607D01*
G01X3007657Y-967514D01*
G01X3008591Y-970495D01*
G01X3009297Y-973440D01*
G01X3009744Y-976240D01*
G01X3009900Y-978784D01*
G37*
G36*
G01X2655956Y-629920D02*
G01X2655956Y-660400D01*
G01X2657190Y-660440D01*
G01X2659875Y-660745D01*
G01X2662761Y-661325D01*
G01X2665738Y-662150D01*
G01X2668695Y-663186D01*
G01X2671523Y-664404D01*
G01X2674112Y-665772D01*
G01X2675282Y-666502D01*
G01X2676352Y-667257D01*
G01X2677306Y-668035D01*
G01Y-622285D01*
G01X2675282Y-623818D01*
G01X2672855Y-625249D01*
G01X2670133Y-626545D01*
G01X2667226Y-627677D01*
G01X2664245Y-628611D01*
G01X2661300Y-629317D01*
G01X2658500Y-629764D01*
G01X2655956Y-629920D01*
G37*
G36*
G01X2314680Y-1309920D02*
G01X2345160Y-1309920D01*
G02X2347700Y-1275436I235350J0D01*
G01X2312140D01*
G02X2314680Y-1309920I-232810J-34484D01*
G37*
G36*
G01X2759352Y-2686895D02*
G01X2737799Y-2708447D01*
G01X2770128Y-2719224D01*
G01X2814861Y-2745240D01*
G01X2759352Y-2686895D01*
G37*
G36*
G01X1091483Y-2037936D02*
G01X1092462Y-2038978D01*
G01X1093378Y-2040078D01*
G01X1094230Y-2041234D01*
G01X1095019Y-2042441D01*
G01X1095745Y-2043695D01*
G01X1096409Y-2044993D01*
G01X1097545Y-2047703D01*
G01X1098429Y-2050539D01*
G01X1099060Y-2053470D01*
G01X1099439Y-2056464D01*
G01X1099565Y-2059489D01*
G01X1099439Y-2062515D01*
G01X1099060Y-2065509D01*
G01X1098429Y-2068440D01*
G01X1097545Y-2071276D01*
G01X1096409Y-2073986D01*
G01X1095745Y-2075283D01*
G01X1095019Y-2076538D01*
G01X1094230Y-2077745D01*
G01X1093378Y-2078900D01*
G01X1092462Y-2080001D01*
G01X1091483Y-2081042D01*
G01X1113036Y-2102594D01*
G01X1115871Y-2099985D01*
G01X1119119Y-2097397D01*
G01X1122730Y-2094849D01*
G01X1128719Y-2091149D01*
G01X1135249Y-2087655D01*
G01X1142152Y-2084437D01*
G01X1149264Y-2081563D01*
G01X1156416Y-2079102D01*
G01X1163444Y-2077124D01*
G01X1170180Y-2075696D01*
G01X1174427Y-2075085D01*
G01X1178422Y-2074770D01*
G01X1180309Y-2074729D01*
G01Y-2044249D01*
G01X1176459Y-2044089D01*
G01X1172332Y-2043623D01*
G01X1167978Y-2042871D01*
G01X1161126Y-2041253D01*
G01X1154038Y-2039106D01*
G01X1146881Y-2036500D01*
G01X1139820Y-2033504D01*
G01X1133022Y-2030186D01*
G01X1126654Y-2026616D01*
G01X1120882Y-2022862D01*
G01X1117446Y-2020291D01*
G01X1114399Y-2017690D01*
G01X1113036Y-2016384D01*
G01X1091483Y-2037936D01*
G37*
G36*
G01X1736965Y-1135380D02*
G01X1736965Y-1165860D01*
G01X1744176Y-1165672D01*
G01X1746364Y-1165753D01*
G01X1748472Y-1166049D01*
G01X1750514Y-1166646D01*
G01X1752506Y-1167628D01*
G01X1754465Y-1169081D01*
G01Y-1131581D01*
G01X1752563Y-1132997D01*
G01X1750571Y-1134016D01*
G01X1748493Y-1134701D01*
G01X1746334Y-1135117D01*
G01X1744097Y-1135328D01*
G01X1736965Y-1135380D01*
G37*
G36*
G01X1805037Y-1165860D02*
G01X1805037Y-1135380D01*
G01X1797905Y-1135328D01*
G01X1795668Y-1135117D01*
G01X1793509Y-1134701D01*
G01X1791431Y-1134016D01*
G01X1789439Y-1132997D01*
G01X1787537Y-1131581D01*
G01Y-1169081D01*
G01X1789496Y-1167628D01*
G01X1791488Y-1166646D01*
G01X1793530Y-1166049D01*
G01X1795638Y-1165753D01*
G01X1797826Y-1165672D01*
G01X1805037Y-1165860D01*
G37*
G36*
G01X1806561Y-1917249D02*
G01X1802268Y-1917064D01*
G01X1797972Y-1916523D01*
G01X1793683Y-1915651D01*
G01X1789414Y-1914471D01*
G01X1785176Y-1913007D01*
G01X1780980Y-1911282D01*
G01X1774794Y-1908259D01*
G01X1768771Y-1904783D01*
G01X1762952Y-1900933D01*
G01X1757375Y-1896791D01*
G01X1750386Y-1890950D01*
G01X1743994Y-1884920D01*
G01X1722442Y-1906473D01*
G01X1723855Y-1908046D01*
G01X1725130Y-1909787D01*
G01X1726167Y-1911581D01*
G01X1726866Y-1913311D01*
G01X1727127Y-1914859D01*
G01X1726852Y-1916109D01*
G01X1725939Y-1916945D01*
G01X1724290Y-1917249D01*
G01X1806561D01*
G37*
G36*
G01X2367355Y-2165387D02*
G01X2369964Y-2168222D01*
G01X2372552Y-2171470D01*
G01X2375100Y-2175081D01*
G01X2378800Y-2181071D01*
G01X2382294Y-2187600D01*
G01X2385512Y-2194504D01*
G01X2388386Y-2201615D01*
G01X2390847Y-2208768D01*
G01X2392825Y-2215795D01*
G01X2394253Y-2222532D01*
G01X2394864Y-2226779D01*
G01X2395180Y-2230773D01*
G01X2395220Y-2232660D01*
G01X2425700D01*
G01X2425744Y-2231232D01*
G01X2425875Y-2229806D01*
G01X2426089Y-2228386D01*
G01X2426385Y-2226975D01*
G01X2426758Y-2225574D01*
G01X2427207Y-2224188D01*
G01X2428320Y-2221468D01*
G01X2429700Y-2218838D01*
G01X2431326Y-2216319D01*
G01X2433175Y-2213934D01*
G01X2435225Y-2211705D01*
G01X2437454Y-2209655D01*
G01X2439839Y-2207806D01*
G01X2442358Y-2206180D01*
G01X2444988Y-2204799D01*
G01X2447708Y-2203687D01*
G01X2449094Y-2203238D01*
G01X2450495Y-2202865D01*
G01X2451906Y-2202569D01*
G01X2453326Y-2202355D01*
G01X2454752Y-2202224D01*
G01X2456180Y-2202180D01*
G01Y-2171700D01*
G01X2452330Y-2171540D01*
G01X2448204Y-2171074D01*
G01X2443849Y-2170322D01*
G01X2436997Y-2168704D01*
G01X2429909Y-2166557D01*
G01X2422752Y-2163951D01*
G01X2415691Y-2160955D01*
G01X2408894Y-2157637D01*
G01X2402526Y-2154067D01*
G01X2396753Y-2150312D01*
G01X2393318Y-2147742D01*
G01X2390270Y-2145140D01*
G01X2388907Y-2143835D01*
G01X2367355Y-2165387D01*
G37*
G36*
G01X3096260Y-1597667D02*
G01X3126740Y-1597667D01*
G02X3129280Y-1572260I128344J0D01*
G01X3093720Y-1564999D01*
G02X3096260Y-1597667I-208810J-32668D01*
G37*
G36*
G01X3310801Y-1564821D02*
G01X3312819Y-1562928D01*
G01X3314811Y-1561308D01*
G01X3316778Y-1559951D01*
G01X3318722Y-1558847D01*
G01X3320644Y-1557987D01*
G01X3321598Y-1557646D01*
G01X3322547Y-1557361D01*
G01X3323492Y-1557133D01*
G01X3324432Y-1556960D01*
G01X3325369Y-1556840D01*
G01X3326301Y-1556772D01*
G01X3327231Y-1556756D01*
G01X3328156Y-1556790D01*
G01X3329079Y-1556873D01*
G01X3330916Y-1557179D01*
G01X3332743Y-1557666D01*
G01X3334562Y-1558324D01*
G01X3336374Y-1559143D01*
G01X3338183Y-1560113D01*
G01X3339988Y-1561225D01*
G01X3342696Y-1563137D01*
G01X3345407Y-1565313D01*
G01X3349039Y-1568568D01*
G01X3356412Y-1576000D01*
G01X3370981Y-1591362D01*
G01X3406901Y-1555441D01*
G01X3405705Y-1554177D01*
G01X3403444Y-1551391D01*
G01X3402421Y-1549916D01*
G01X3401497Y-1548420D01*
G01X3400693Y-1546927D01*
G01X3400030Y-1545460D01*
G01X3399528Y-1544044D01*
G01X3399209Y-1542705D01*
G01X3399092Y-1541464D01*
G01X3399199Y-1540348D01*
G01X3399551Y-1539381D01*
G01X3400169Y-1538586D01*
G01X3401072Y-1537988D01*
G01X3402282Y-1537611D01*
G01X3403820Y-1537480D01*
G01Y-1486680D01*
G01X3353020Y-1512080D01*
G01X3274880Y-1528899D01*
G01X3310801Y-1564821D01*
G37*
G36*
G01X508607Y-3035824D02*
G01X512880Y-3036009D01*
G01X517121Y-3036550D01*
G01X521323Y-3037422D01*
G01X525480Y-3038602D01*
G01X529585Y-3040066D01*
G01X533632Y-3041791D01*
G01X537614Y-3043752D01*
G01X543450Y-3047087D01*
G01X549102Y-3050820D01*
G01X554547Y-3054874D01*
G01X561448Y-3060638D01*
G01X569419Y-3068153D01*
G01X590972Y-3046600D01*
G01X589558Y-3045027D01*
G01X588283Y-3043286D01*
G01X587247Y-3041492D01*
G01X586548Y-3039763D01*
G01X586286Y-3038214D01*
G01X586562Y-3036964D01*
G01X587474Y-3036129D01*
G01X589123Y-3035824D01*
G01X508607D01*
G37*
G36*
G01X1443980Y-3572520D02*
G01X1444147Y-3568523D01*
G01X1444633Y-3564272D01*
G01X1445417Y-3559813D01*
G01X1447106Y-3552836D01*
G01X1449345Y-3545653D01*
G01X1452064Y-3538419D01*
G01X1455190Y-3531292D01*
G01X1458651Y-3524428D01*
G01X1462375Y-3517984D01*
G01X1466291Y-3512117D01*
G01X1468973Y-3508602D01*
G01X1471687Y-3505461D01*
G01X1473049Y-3504044D01*
G01X1451496Y-3482491D01*
G01X1450459Y-3483466D01*
G01X1449362Y-3484379D01*
G01X1448211Y-3485228D01*
G01X1447008Y-3486015D01*
G01X1445758Y-3486738D01*
G01X1444465Y-3487399D01*
G01X1441765Y-3488531D01*
G01X1438939Y-3489412D01*
G01X1436018Y-3490041D01*
G01X1433035Y-3490419D01*
G01X1430020Y-3490545D01*
G01X1427005Y-3490419D01*
G01X1424022Y-3490041D01*
G01X1421101Y-3489412D01*
G01X1418275Y-3488531D01*
G01X1415575Y-3487399D01*
G01X1414282Y-3486738D01*
G01X1413032Y-3486015D01*
G01X1411829Y-3485228D01*
G01X1410678Y-3484379D01*
G01X1409581Y-3483466D01*
G01X1408544Y-3482491D01*
G01X1386991Y-3504044D01*
G01X1389734Y-3507027D01*
G01X1392390Y-3510385D01*
G01X1394947Y-3514075D01*
G01X1398570Y-3520135D01*
G01X1401899Y-3526698D01*
G01X1404893Y-3533617D01*
G01X1407510Y-3540746D01*
G01X1409708Y-3547941D01*
G01X1411445Y-3555055D01*
G01X1412678Y-3561942D01*
G01X1413199Y-3566335D01*
G01X1413466Y-3570519D01*
G01X1413500Y-3572520D01*
G01X1443980D01*
G37*
G36*
G01X1288507Y-3589997D02*
G01X1288321Y-3594230D01*
G01X1287781Y-3598359D01*
G01X1286909Y-3602390D01*
G01X1285729Y-3606324D01*
G01X1284265Y-3610165D01*
G01X1282541Y-3613918D01*
G01X1280580Y-3617585D01*
G01X1277246Y-3622934D01*
G01X1273513Y-3628110D01*
G01X1268052Y-3634763D01*
G01X1259210Y-3644268D01*
G01X1256183Y-3647324D01*
G01X1277736Y-3668877D01*
G01X1279584Y-3667242D01*
G01X1281623Y-3665825D01*
G01X1283825Y-3664626D01*
G01X1286164Y-3663645D01*
G01X1288612Y-3662882D01*
G01X1291141Y-3662338D01*
G01X1293725Y-3662011D01*
G01X1296336Y-3661902D01*
G01X1298947Y-3662011D01*
G01X1301531Y-3662338D01*
G01X1304060Y-3662882D01*
G01X1306508Y-3663645D01*
G01X1308846Y-3664626D01*
G01X1311049Y-3665825D01*
G01X1313088Y-3667242D01*
G01X1314936Y-3668877D01*
G01X1336488Y-3647324D01*
G01X1333971Y-3644579D01*
G01X1331694Y-3641635D01*
G01X1329645Y-3638511D01*
G01X1327813Y-3635227D01*
G01X1326190Y-3631799D01*
G01X1324763Y-3628248D01*
G01X1323522Y-3624591D01*
G01X1321987Y-3618949D01*
G01X1320812Y-3613174D01*
G01X1319960Y-3607328D01*
G01X1319265Y-3599533D01*
G01X1318987Y-3589997D01*
G01X1288507D01*
G37*
G36*
G01X4718047Y-713740D02*
G01X4712273Y-683260D01*
G03X4692111Y-687825I-0J-46809D01*
G01Y-709175D01*
G03X4718047Y-713740I25936J71396D01*
G37*
G04 Tear End*

G04 Pad Start*
G54D10*
G01X3517196Y-2689182D03*
G01X3517196Y-2495939D03*
G54D11*
G01X2287898Y-2512500D03*
G01X2487897Y-2512500D03*
G54D12*
G01X3327620Y-1712080D03*
G01X3327620Y-1512080D03*
G54D13*
G01X2529920Y-1257297D03*
G01X2329920Y-1257297D03*
G54D14*
G01X2054940Y-2179860D03*
G01X2054940Y-2379860D03*
G01X3304920Y-2492560D03*
G01X3304920Y-2692560D03*
G54D11*
G01X3264920Y-2279860D03*
G01X3464920Y-2279860D03*
G54D12*
G01X5707380Y-552120D03*
G01X5707380Y-352120D03*
G54D14*
G01X2332920Y-2730000D03*
G01X2332920Y-2930000D03*
G54D12*
G01X2989904Y-2930000D03*
G01X2989904Y-2730000D03*
G54D14*
G01X3397140Y-934126D03*
G01X3397140Y-1134126D03*
G01X3174025Y-934126D03*
G01X3174025Y-1134126D03*
G54D15*
G01X5089153Y-337339D03*
G01X5526135Y-337339D03*
G54D16*
G01X5015002Y-862678D03*
G01X5109998Y-1092681D03*
G01X5205004Y-862678D03*
G54D17*
G01X5566000Y-1454000D03*
G54D19*
G01X5566000Y-1200000D03*
G01X5566000Y-946000D03*
G54D20*
G01X2551992Y-2896109D03*
G01X2772007Y-2896109D03*
G01X2772007Y-2721103D03*
G01X2551992Y-2721103D03*
G54D21*
G01X4313551Y-2943103D03*
G01X4771564Y-2943103D03*
G54D22*
G01X4542558Y-2246000D03*
G54D23*
G01X1761160Y-2631440D03*
G01X1561160Y-2631440D03*
G54D24*
G01X5207644Y-620000D03*
G01X5407644Y-620000D03*
G54D10*
G01X3850002Y-2230107D03*
G01X3850002Y-2430106D03*
G54D23*
G01X5100003Y-1261028D03*
G01X4900003Y-1261028D03*
G54D25*
G01X1268510Y-1150331D03*
G54D26*
G01X1310217Y-1270321D03*
G01X1360204Y-1270321D03*
G01X1410217Y-1270321D03*
G01X1460204Y-1270321D03*
G01X1510217Y-1270321D03*
G01X1560204Y-1270321D03*
G01X1610216Y-1270321D03*
G54D27*
G01X1651491Y-1150331D03*
G54D28*
G01X1610216Y-1030342D03*
G01X1560204Y-1030342D03*
G01X1510217Y-1030342D03*
G01X1460204Y-1030342D03*
G01X1410217Y-1030342D03*
G01X1360204Y-1030342D03*
G01X1310217Y-1030342D03*
G54D29*
G01X1252079Y-1805489D03*
G01X1252079Y-1932489D03*
G01X1252079Y-2059489D03*
G01X1252079Y-2186489D03*
G01X1806561Y-1805489D03*
G01X1806561Y-1932489D03*
G01X1806561Y-2059489D03*
G01X1806561Y-2186489D03*
G54D30*
G01X1303747Y-3589997D03*
G01X1428740Y-3589997D03*
G54D31*
G01X1118758Y-3909986D03*
G01X1613754Y-3910011D03*
G54D32*
G01X3150001Y-3775000D03*
G01X3650000Y-3775000D03*
G01X3150001Y-325000D03*
G01X3650000Y-325000D03*
G54D33*
G01X4267222Y-3553751D03*
G54D34*
G01X4387212Y-3553751D03*
G01X4487211Y-3553751D03*
G01X4587211Y-3553751D03*
G01X4687211Y-3553751D03*
G54D33*
G01X4807201Y-3553751D03*
G54D35*
G01X4969202Y-3946257D03*
G01X4105221Y-3946257D03*
G01X4969202Y-3566248D03*
G01X4105221Y-3566248D03*
G54D23*
G01X843735Y-1830000D03*
G01X643735Y-1830000D03*
G54D36*
G01X659331Y-2280000D03*
G01X659331Y-2080000D03*
G54D11*
G01X2847940Y-2512500D03*
G01X3047940Y-2512500D03*
G54D17*
G01X5566040Y-3154001D03*
G54D19*
G01X5566040Y-2900001D03*
G01X5566040Y-2646001D03*
G54D17*
G01X5566040Y-2304000D03*
G54D19*
G01X5566040Y-2050000D03*
G01X5566040Y-1796000D03*
G54D37*
G01X4690563Y-515003D03*
G01X4565569Y-515003D03*
G01X4440550Y-515003D03*
G01X4315557Y-515003D03*
G54D38*
G01X4873570Y-164991D03*
G54D31*
G01X4132550Y-164991D03*
G54D39*
G01X1487505Y-462688D03*
G54D40*
G01X1362512Y-462690D03*
G01X1237493Y-462690D03*
G01X1112499Y-462690D03*
G54D41*
G01X508627Y-1067431D03*
G01X508627Y-1192424D03*
G54D42*
G01X188638Y-882442D03*
G01X188613Y-1377438D03*
G54D14*
G01X4540004Y-2866661D03*
G01X4540004Y-3066661D03*
G54D12*
G01X4080004Y-2946005D03*
G01X4080004Y-2746006D03*
G54D43*
G01X451124Y-1856517D03*
G54D40*
G01X451127Y-1981511D03*
G01X451127Y-2106529D03*
G01X451127Y-2231523D03*
G54D41*
G01X508607Y-2895591D03*
G01X508607Y-3020584D03*
G54D42*
G01X188618Y-2710602D03*
G01X188593Y-3205598D03*
G54D30*
G01X5423535Y-3589997D03*
G01X5548528Y-3589997D03*
G54D31*
G01X5238547Y-3909986D03*
G01X5733542Y-3910011D03*
G54D36*
G01X5170502Y-2590001D03*
G01X5170502Y-2390002D03*
G01X5180003Y-1729860D03*
G01X5180003Y-1529860D03*
G54D44*
G01X5170013Y-3016006D03*
G01X5170013Y-2795991D03*
G01X5178884Y-2160003D03*
G01X5178884Y-1939988D03*
G01X4070012Y-2438587D03*
G01X4070012Y-2218573D03*
G54D24*
G01X1639390Y-2850425D03*
G01X1839390Y-2850425D03*
G01X1635507Y-3100425D03*
G01X1835507Y-3100425D03*
G54D45*
G01X2509029Y-165009D03*
G01X2509029Y-601991D03*
G54D46*
G01X5385505Y-2782742D03*
G01X5385505Y-3017261D03*
G01X5384233Y-1922742D03*
G01X5384233Y-2157260D03*
G54D47*
G01X1771001Y-1150331D03*
G01X809960Y-2076900D03*
G01X642579Y-1674865D03*
G01X2189857Y-2926046D03*
G01X3133985Y-2717300D03*
G54D48*
G01X1410343Y-3100425D03*
G01X1200285Y-3100425D03*
G01X1408719Y-2850425D03*
G01X1198661Y-2850425D03*
G54D49*
G01X2408905Y-2300263D03*
G01X2458917Y-2300263D03*
G01X2508904Y-2300263D03*
G01X2558917Y-2300263D03*
G01X2608904Y-2300263D03*
G01X2658917Y-2300263D03*
G01X2708904Y-2300263D03*
G01X2758917Y-2300263D03*
G01X2808904Y-2300263D03*
G01X2858916Y-2300263D03*
G01X2908904Y-2300263D03*
G01X2958916Y-2300263D03*
G54D50*
G01X3108903Y-2150276D03*
G01X3108903Y-2100263D03*
G01X3108903Y-2050276D03*
G01X3108903Y-2000263D03*
G01X3108903Y-1950276D03*
G01X3108903Y-1900264D03*
G01X3108903Y-1850276D03*
G01X3108903Y-1800264D03*
G01X3108903Y-1750277D03*
G01X3108903Y-1700264D03*
G01X3108903Y-1650277D03*
G01X3108903Y-1600264D03*
G54D49*
G01X2958916Y-1450277D03*
G01X2908904Y-1450277D03*
G01X2858916Y-1450277D03*
G01X2808904Y-1450277D03*
G01X2758917Y-1450277D03*
G01X2708904Y-1450277D03*
G01X2658917Y-1450277D03*
G01X2608904Y-1450277D03*
G01X2558917Y-1450277D03*
G01X2508904Y-1450277D03*
G01X2458917Y-1450277D03*
G01X2408905Y-1450277D03*
G54D50*
G01X2258918Y-1600264D03*
G01X2258918Y-1650277D03*
G01X2258918Y-1700264D03*
G01X2258918Y-1750277D03*
G01X2258918Y-1800264D03*
G01X2258918Y-1850276D03*
G01X2258918Y-1900264D03*
G01X2258918Y-1950276D03*
G01X2258918Y-2000263D03*
G01X2258918Y-2050276D03*
G01X2258918Y-2100263D03*
G01X2258918Y-2150276D03*
G54D13*
G01X2529920Y-1044700D03*
G01X2329920Y-1044700D03*
G54D30*
G01X2189139Y-3589993D03*
G01X2314133Y-3589993D03*
G54D31*
G01X2004151Y-3909982D03*
G01X2499146Y-3910007D03*
G54D45*
G01X2021924Y-165049D03*
G01X2021924Y-602031D03*
G04 Pad End*

G04 Via Start*
G54D51*
G01X400000Y-400000D03*
G01X6200000Y-400000D03*
G01X400000Y-3700000D03*
G01X6200000Y-3700000D03*
G54D52*
G01X1082040Y-1879941D03*
G01X993140Y-2016760D03*
G01X2880360Y-1968500D03*
G01X1310640Y-1358900D03*
G01X2931160Y-1864360D03*
G01X1651000Y-1358900D03*
G01X1727200Y-949960D03*
G01X1889760Y-1226820D03*
G01X2578100Y-1574800D03*
G01X1915160Y-2633980D03*
G01X2547620Y-2077720D03*
G01X2870200Y-1209040D03*
G01X2669540Y-1290320D03*
G01X858520Y-2128520D03*
G01X2085340Y-1851660D03*
G01X889000Y-2506980D03*
G01X2133600Y-1917700D03*
G01X3647440Y-1874520D03*
G01X3327400Y-1851660D03*
G01X3634740Y-1965960D03*
G01X3309620Y-1960880D03*
G01X3779520Y-1920240D03*
G01X2710180Y-2098040D03*
G01X3827780Y-2085340D03*
G01X3329940Y-2159000D03*
G01X2720340Y-1028700D03*
G01X1399540Y-734060D03*
G01X647700Y-2573020D03*
G01X647700Y-2438400D03*
G01X1198880Y-3281680D03*
G01X901700Y-1671320D03*
G01X1544320Y-1544320D03*
G01X1107440Y-612140D03*
G01X1630680Y-1793240D03*
G01X2410460Y-1714500D03*
G01X2339340Y-1452880D03*
G01X3111500Y-1546860D03*
G01X4691380Y-3108960D03*
G01X4777070Y-3108960D03*
G01X4427220Y-1910000D03*
G01X4536440Y-1910000D03*
G01X4640580Y-1910000D03*
G01X5057140Y-3368040D03*
G01X4899660Y-1615440D03*
G01X4739640Y-1386840D03*
G01X4371340Y-728980D03*
G01X3622040Y-1407160D03*
G01X3573780Y-1137920D03*
G01X4524632Y-1407160D03*
G01X3570993Y-924128D03*
G01X2676912Y-1138877D03*
G01X1894840Y-2288540D03*
G01X2811780Y-2159000D03*
G01X3093720Y-2268220D03*
G01X2943860Y-1681480D03*
G01X1445260Y-901700D03*
G01X1214120Y-911860D03*
G01X1572260Y-1358900D03*
G01X1587500Y-922020D03*
G01X1744980Y-802640D03*
G01X2954020Y-990600D03*
G01X2199640Y-647700D03*
G01X3025140Y-937260D03*
G01X2697480Y-645160D03*
G01X4389120Y-3444240D03*
G01X736600Y-3909060D03*
G01X162560Y-3413760D03*
G01X797560Y-279400D03*
G01X144780Y-683260D03*
G01X3454562Y-683260D03*
G01X3825240Y-688340D03*
G01X6362700Y-779780D03*
G01X6245860Y-3312160D03*
G01X5824220Y-3525520D03*
G01X5875020Y-149860D03*
G01X2733040Y-3881120D03*
G01X3939540Y-3530600D03*
G01X741680Y-1437640D03*
G01X195580Y-2524760D03*
G01X195580Y-1573076D03*
G01X3865347Y-3041661D03*
G01X4968240Y-2766060D03*
G01X1288094Y-2415799D03*
G01X1366247Y-3857954D03*
G01X2251640Y-3857954D03*
G01X2661920Y-3423920D03*
G01X1816100Y-3520440D03*
G01X764540Y-3373120D03*
G01X3718560Y-1645920D03*
G01X1744980Y-1557020D03*
G01X1795780Y-3863340D03*
G01X6245860Y-2473427D03*
G01X6245860Y-1618094D03*
G04 Via End*

G04 Track Start*
G54D53*
G01X2408905Y-1450277D02*
G01X2408905Y-1388904D01*
G01X2329920Y-1309920D02*
G01X2329920Y-1257297D01*
G01X2408905Y-1388904D02*
G01X2329920Y-1309920D01*
G54D54*
G01X2329920Y-1257297D02*
G01X2329920Y-1044700D01*
G54D53*
G01X2487897Y-2512500D02*
G01X2487897Y-2469495D01*
G01X2408905Y-2390503D01*
G01Y-2300263D01*
G01X2258918Y-2150276D02*
G01X2196184Y-2150276D01*
G01X2176860Y-2169600D01*
G01Y-2329620D01*
G01X2126620Y-2379860D01*
G01X2054940D01*
G01X2551992Y-2896109D02*
G01X2654380Y-2793722D01*
G01Y-2527740D01*
G01X2608904Y-2482264D01*
G01Y-2300263D01*
G01X2658917Y-2300263D02*
G01X2658917Y-2390503D01*
G01X2728040Y-2459626D01*
G01X2728040Y-2677136D02*
G01X2772007Y-2721103D01*
G01X2728040Y-2459626D02*
G01X2728040Y-2677136D01*
G01X1806561Y-2186489D02*
G01X1920691Y-2186489D01*
G01X1938020Y-2169160D01*
G01Y-2075180D01*
G01X1963420Y-2049780D01*
G01X2258421D01*
G01X2258918Y-2050276D01*
G01X1676400Y-2382520D02*
G01X2052280Y-2382520D01*
G01X2054940Y-2379860D01*
G01X1252079Y-1932489D02*
G01X1134589Y-1932489D01*
G01X1082040Y-1879941D01*
G01Y-1130300D01*
G01X1019171Y-1067431D01*
G01X508627D01*
G01X1134589Y-2059489D02*
G01X988060Y-1912961D01*
G01Y-1300480D01*
G01X880004Y-1192424D01*
G01X508627D01*
G01X2808904Y-2300263D02*
G01X2808904Y-2390503D01*
G01X2826321Y-2407920D01*
G01X2976880D01*
G01X3047940Y-2478980D01*
G01Y-2512500D01*
G01X3124860D01*
G01X3304920Y-2692560D01*
G01X3513817D01*
G01X3517196Y-2689182D01*
G01X2989904Y-2730000D02*
G01X2780904Y-2730000D01*
G01X2772007Y-2721103D01*
G01X2912123Y-2000263D02*
G01X3108903Y-2000263D01*
G01X2880360Y-1968500D02*
G01X2912123Y-2000263D01*
G01X3108903Y-1950276D02*
G01X3017076Y-1950276D01*
G01X2931160Y-1864360D01*
G01X1651780Y-1150620D02*
G01X1651491Y-1150331D01*
G01X2808904Y-1450277D02*
G01X2808904Y-997884D01*
G01X2705100Y-894080D01*
G01X1917700D01*
G01X1361440Y-1269085D02*
G01X1360204Y-1270321D01*
G01X1361440Y-1201420D02*
G01X1361440Y-1269085D01*
G01X2158404Y-1800264D02*
G01X2258918Y-1800264D01*
G01X1308100Y-1706880D02*
G01X2065020Y-1706880D01*
G01X2158404Y-1800264D01*
G01X1535977Y-1650277D02*
G01X2258918Y-1650277D01*
G01X1268510Y-1150331D02*
G01X1229360Y-1189481D01*
G01Y-1628140D01*
G01X1308100Y-1706880D01*
G01X1310217Y-1353397D02*
G01X1310217Y-1270321D01*
G01X1889760Y-1231107D02*
G01X2258918Y-1600264D01*
G01X1889760Y-1226820D02*
G01X1889760Y-1231107D01*
G01X2508904Y-1450277D02*
G01X2508904Y-1532387D01*
G01X3108903Y-2050276D02*
G01X2847836Y-2050276D01*
G01X1948180Y-1150620D01*
G01X1651780D01*
G01X2508904Y-1532387D02*
G01X2551318Y-1574800D01*
G01X2578100D01*
G01X2547620Y-2077720D02*
G01X2420176Y-1950276D01*
G01X2258918D01*
G01X2551992Y-2896109D02*
G01X2518102Y-2930000D01*
G01X2332920D01*
G01X2189857Y-2926046D02*
G01X2328966Y-2926046D01*
G01X2332920Y-2930000D01*
G01X2870200Y-1209040D02*
G01X2870200Y-952500D01*
G01X2964180Y-1584960D02*
G01X3169920Y-1379220D01*
G01X2687320Y-1584960D02*
G01X2964180Y-1584960D01*
G01X2658917Y-1556557D02*
G01X2687320Y-1584960D01*
G01X2658917Y-1450277D02*
G01X2658917Y-1556557D01*
G01X659331Y-2080000D02*
G01X806860Y-2080000D01*
G01X809960Y-2076900D01*
G01X858520Y-2125460D01*
G01Y-2128520D01*
G01X2085340Y-1851660D02*
G01X2257534Y-1851660D01*
G01X2258918Y-1850276D01*
G01X451127Y-1981511D02*
G01X492225Y-1981511D01*
G01X643735Y-1830000D01*
G01X642579Y-1828844D01*
G01Y-1674865D01*
G01X390155D01*
G01X256540Y-1808480D01*
G01Y-2265680D01*
G01X1806561Y-1805489D02*
G01X1912169Y-1805489D01*
G01X2106943Y-2000263D01*
G01X2258918D01*
G01X2133600Y-1917700D02*
G01X2151241Y-1917700D01*
G01X2168678Y-1900264D01*
G01X2258918D01*
G01X659331Y-2080000D02*
G01X632802Y-2106529D01*
G01X451127D01*
G01X659331Y-2280000D02*
G01X610854Y-2231523D01*
G01X451127D01*
G01X3199143Y-1850276D02*
G01X3108903Y-1850276D01*
G01X1835507Y-3100425D02*
G01X1884682Y-3149600D01*
G01X3647440Y-1874520D02*
G01X3721100Y-1948180D01*
G01X1884682Y-3149600D02*
G01X3601720Y-3149600D01*
G01X3721100Y-3030220D01*
G01X3721100Y-1948180D02*
G01X3721100Y-3030220D01*
G01X1839390Y-2850425D02*
G01X1933485Y-2850425D01*
G01X2171700Y-3088640D01*
G01X3558540D01*
G01X3657600Y-2989580D01*
G01X3657600Y-1988820D02*
G01X3657600Y-2989580D01*
G01X3634740Y-1965960D02*
G01X3657600Y-1988820D01*
G01X3309620Y-1960880D02*
G01X3253740Y-1960880D01*
G01X3193124Y-1900264D01*
G01X3327400Y-1851660D02*
G01X3200526Y-1851660D01*
G01X3199143Y-1850276D01*
G01X3193124Y-1900264D02*
G01X3108903Y-1900264D01*
G01X2710180Y-2098040D02*
G01X2710180Y-2298987D01*
G01X2708904Y-2300263D01*
G01X3169920Y-1379220D02*
G01X3495040Y-1379220D01*
G01X5100003Y-1261028D02*
G01X4550011Y-1811020D01*
G01X4102100Y-1811020D02*
G01X3827780Y-2085340D01*
G01X3329940Y-2159000D02*
G01X3117627Y-2159000D01*
G01X3108903Y-2150276D01*
G01X4550011Y-1811020D02*
G01X4102100Y-1811020D01*
G01X2669540Y-1290320D02*
G01X2708904Y-1329684D01*
G01Y-1450277D01*
G01X2758917Y-1450277D02*
G01X2758917Y-1067277D01*
G01X2720340Y-1028700D01*
G01X1399540Y-734060D02*
G01X1510217Y-844737D01*
G01Y-1030342D01*
G01X889000Y-2506980D02*
G01X886460Y-2509520D01*
G01X500380D01*
G01X256540Y-2265680D01*
G01X647700Y-2438400D02*
G01X659331Y-2426769D01*
G01Y-2280000D01*
G01X816260D01*
G01X937260Y-2159000D01*
G01Y-2075180D01*
G01X843280Y-1981200D01*
G01Y-1830455D01*
G01X843735Y-1830000D01*
G01X1198661Y-2850425D02*
G01X1198661Y-3098801D01*
G01X1200285Y-3100425D01*
G01Y-3280275D01*
G01X1198880Y-3281680D01*
G01X1408719Y-2850425D02*
G01X1639390Y-2850425D01*
G01X1635507Y-3100425D02*
G01X1410343Y-3100425D01*
G01X843735Y-1830000D02*
G01X843735Y-1729285D01*
G01X901700Y-1671320D01*
G01X1544320Y-1544320D02*
G01X1544320Y-1488440D01*
G01X1508760Y-1452880D01*
G01X1460204Y-1270321D02*
G01X1453198Y-1277327D01*
G01Y-1567497D01*
G01X1535977Y-1650277D01*
G01X1508760Y-1452880D02*
G01X1508760Y-1271777D01*
G01X1510217Y-1270321D01*
G01X1610216Y-1270321D02*
G01X1647717Y-1307821D01*
G01X1770010Y-1932489D02*
G01X1630761Y-1793240D01*
G01X1806561Y-1932489D02*
G01X1770010Y-1932489D01*
G01X1536700Y-2242820D02*
G01X1676400Y-2382520D01*
G01X1770010Y-1932489D02*
G01X1603191Y-1932489D01*
G01X1536700Y-1998980D01*
G01Y-2242820D01*
G01X2258918Y-2150276D02*
G01X2373796Y-2150276D01*
G01X2410460Y-2186940D01*
G01Y-2298707D01*
G01X2408905Y-2300263D01*
G01X2410460Y-2186940D02*
G01X2565400Y-2186940D01*
G01X2623820Y-2128520D01*
G01Y-1927860D01*
G01X2410460Y-1714500D01*
G01X2339340Y-1452880D02*
G01X2406302Y-1452880D01*
G01X2408905Y-1450277D01*
G01X3133985Y-2717300D02*
G01X3121285Y-2730000D01*
G01X2989904D01*
G54D54*
G01X3517196Y-2495939D02*
G01X3517196Y-2332136D01*
G01X3464920Y-2279860D01*
G54D53*
G01X3111500Y-1546860D02*
G01X3111500Y-1597667D01*
G01X3108903Y-1600264D01*
G54D54*
G01X4080004Y-2746006D02*
G01X4080004Y-2448579D01*
G01X4070012Y-2438587D01*
G01X5385505Y-3017261D02*
G01X5171268Y-3017261D01*
G01X5170013Y-3016006D01*
G01X5566040Y-2900001D02*
G01X5448782Y-2782742D01*
G01X5385505D01*
G01X5170013Y-2795991D02*
G01X5170013Y-2590490D01*
G01X5170502Y-2590001D01*
G01X5178884Y-2160003D02*
G01X5381490Y-2160003D01*
G01X5384233Y-2157260D01*
G01X5384233Y-1922742D02*
G01X5438782Y-1922742D01*
G01X5566040Y-2050000D01*
G01X5385505Y-3017261D02*
G01X5385505Y-3259525D01*
G01X5857240Y-1282700D02*
G01X5778500Y-1203960D01*
G01X5569960D01*
G01X5566000Y-1200000D01*
G01X5178884Y-2160003D02*
G01X4899660Y-1880779D01*
G01Y-1615440D01*
G01X4739640Y-1386840D02*
G01X4739640Y-1292860D01*
G01X4771472Y-1261028D02*
G01X4900003Y-1261028D01*
G01X4739640Y-1292860D02*
G01X4771472Y-1261028D01*
G01X3174025Y-1134126D02*
G01X3397140Y-1134126D01*
G01X3573780Y-1137920D02*
G01X3400934Y-1137920D01*
G01X3397140Y-1134126D01*
G54D55*
G01X5109998Y-1092681D02*
G01X5109998Y-1251033D01*
G01X5100003Y-1261028D01*
G01X5205004Y-862678D02*
G01X5482679Y-862678D01*
G01X5566000Y-946000D01*
G54D54*
G01X5178884Y-1939988D02*
G01X5178884Y-1730979D01*
G01X5180003Y-1729860D01*
G01X3850002Y-2230107D02*
G01X4058478Y-2230107D01*
G01X4070012Y-2218573D01*
G01X3111500Y-1546860D02*
G01X3292840Y-1546860D01*
G01X3327620Y-1512080D01*
G01X3517120D01*
G01X3622040Y-1407160D01*
G54D53*
G01X2529920Y-1257297D02*
G01X2529920Y-1275000D01*
G01X2458720Y-1346200D01*
G01Y-1450080D01*
G01X2458917Y-1450277D01*
G01X2054940Y-2179860D02*
G01X2089081Y-2179860D01*
G01X2168678Y-2100263D01*
G01X2258918D01*
G01X1894840Y-2288540D02*
G01X1946260Y-2288540D01*
G01X2054940Y-2179860D01*
G01X2847940Y-2512500D02*
G01X2847940Y-2453640D01*
G01X2807383D01*
G01X2763184Y-2409440D01*
G01Y-2394770D01*
G01X2758917Y-2390503D01*
G01Y-2300263D01*
G54D54*
G01X3464920Y-2279860D02*
G01X3561080Y-2183700D01*
G01Y-1745540D01*
G01X3327620Y-1512080D01*
G54D53*
G01X2943860Y-1681480D02*
G01X2987460Y-1681480D01*
G01X3018663Y-1650277D01*
G01X3108903D01*
G01X1610216Y-1030342D02*
G01X1560204Y-1030342D01*
G01X1917700Y-894080D02*
G01X1710958Y-1100822D01*
G01X1462038D01*
G01X1361440Y-1201420D01*
G01X1445260Y-901700D02*
G01X1460204Y-916644D01*
G01Y-1030342D01*
G01X1310640Y-1353820D02*
G01X1310217Y-1353397D01*
G01X1572260Y-1358900D02*
G01X1560204Y-1346844D01*
G01Y-1270321D01*
G01X1647717Y-1355617D02*
G01X1647717Y-1307821D01*
G01X1651000Y-1358900D02*
G01X1647717Y-1355617D01*
G01X1727200Y-949960D02*
G01X1727200Y-892619D01*
G01X1362512Y-527930D01*
G01Y-462690D01*
G01X1107440Y-612140D02*
G01X1112499Y-607081D01*
G01Y-462690D01*
G01X1487505Y-462688D02*
G01X1487505Y-545165D01*
G01X1744980Y-802640D01*
G01X1360204Y-976664D02*
G01X1360204Y-1030342D01*
G01X1214120Y-911860D02*
G01X1295400Y-911860D01*
G01X1360204Y-976664D01*
G01X1107440Y-612140D02*
G01X1107440Y-655320D01*
G01X1410217Y-958097D02*
G01X1410217Y-1030342D01*
G01X1107440Y-655320D02*
G01X1410217Y-958097D01*
G54D55*
G01X4524632Y-1407160D02*
G01X4524632Y-855088D01*
G01X4681220Y-698500D01*
G54D53*
G01X4690563Y-595177D02*
G01X4690563Y-515003D01*
G01X4565569Y-515003D02*
G01X4565569Y-623651D01*
G01X3495040Y-1379220D02*
G01X3947160Y-927100D01*
G01X4358640D01*
G01X4690563Y-595177D01*
G01X4565569Y-623651D02*
G01X4356074Y-833146D01*
G01X2989554D01*
G01X2870200Y-952500D02*
G01X2989554Y-833146D01*
G54D54*
G01X4371340Y-728980D02*
G01X4315557Y-673197D01*
G01Y-515003D01*
G01X5385505Y-3259525D02*
G01X5491480Y-3365500D01*
G01X5811520D01*
G01X5857240Y-3319780D01*
G01Y-1282700D01*
G54D53*
G01X5194300Y-3215640D02*
G01X5438140Y-3459480D01*
G54D54*
G01X3149600Y-3439160D02*
G01X3149600Y-3774600D01*
G01X3150001Y-3775000D01*
G01X5057140Y-3368040D02*
G01X5054620Y-3370560D01*
G01X3218200D01*
G01X3149600Y-3439160D01*
G54D53*
G01X1252079Y-2059489D02*
G01X1134589Y-2059489D01*
G01X2908904Y-1450277D02*
G01X2908904Y-1360037D01*
G01X2954020Y-1314921D01*
G01Y-990600D01*
G01X2067593Y-647700D02*
G01X2021924Y-602031D01*
G01X2199640Y-647700D02*
G01X2067593Y-647700D01*
G01X2958916Y-1450277D02*
G01X3025140Y-1384053D01*
G01Y-937260D01*
G01X2697480Y-645160D02*
G01X2552198Y-645160D01*
G01X2509029Y-601991D01*
G01X1915160Y-2633980D02*
G01X1763700Y-2633980D01*
G01X1761160Y-2631440D01*
G01X508607Y-2895591D02*
G01X670569Y-2895591D01*
G01X990600Y-2575560D01*
G01Y-2019300D01*
G01X993140Y-2016760D01*
G01X659876Y-3020584D02*
G01X1074420Y-2606040D01*
G01Y-2119658D01*
G01X1134589Y-2059489D01*
G01X508607Y-2895591D02*
G01X401329Y-2895591D01*
G01X363220Y-2933700D01*
G01X543403Y-3020584D02*
G01X931499Y-3408680D01*
G01X508607Y-3020584D02*
G01X543403Y-3020584D01*
G01X659876D01*
G01X363220Y-2933700D02*
G01X363220Y-3116580D01*
G01X952500Y-3705860D02*
G01X1219200Y-3705860D01*
G01X1303747Y-3621313D01*
G01X363220Y-3116580D02*
G01X952500Y-3705860D01*
G01X2181860Y-3401060D02*
G01X2314133Y-3533333D01*
G01Y-3589993D01*
G01X931499Y-3408680D02*
G01X1313180Y-3408680D01*
G01X1428740Y-3524240D01*
G01X1428740Y-3589997D02*
G01X1428740Y-3526800D01*
G01X1554480Y-3401060D01*
G01X2181860D01*
G01X1428740Y-3524240D02*
G01X1428740Y-3526800D01*
G01X1303747Y-3636135D02*
G01X1373472Y-3705860D01*
G01X2087880D01*
G01X2189139Y-3604601D01*
G01Y-3589993D01*
G01X1303747Y-3589997D02*
G01X1303747Y-3621313D01*
G01Y-3636135D01*
G01X2314133Y-3589993D02*
G01X2688486Y-3215640D01*
G01X5194300Y-3215640D02*
G01X2688486Y-3215640D01*
G01X2189139Y-3690233D02*
G01X2204767Y-3705860D01*
G01X2547620D01*
G01X2964180Y-3289300D01*
G01X2189139Y-3604601D02*
G01X2189139Y-3690233D01*
G01X5125720Y-3289300D02*
G01X2964180Y-3289300D01*
G54D54*
G01X4389120Y-3444240D02*
G01X4389120Y-3551843D01*
G01X4387212Y-3553751D01*
G54D53*
G01X5125720Y-3289300D02*
G01X5423535Y-3587115D01*
G01Y-3589997D01*
G01X5438140Y-3459480D02*
G01X5488940Y-3459480D01*
G01X5548528Y-3519068D01*
G01Y-3589997D01*
G01X3779520Y-1920240D02*
G01X3957320Y-1742440D01*
G01X4335780D01*
G01X4605020Y-1473200D01*
G01Y-906780D01*
G01X4747260Y-764540D01*
G01X5526135Y-337339D02*
G01X5692599Y-337339D01*
G01X5707380Y-352120D01*
G01X5407644Y-620000D02*
G01X5526135Y-501509D01*
G01Y-337339D01*
G01X5207644Y-620000D02*
G01X5129145Y-698500D01*
G01X4681220D01*
G01X4747260Y-764540D02*
G01X5263104Y-764540D01*
G01X5407644Y-620000D01*
G04 Track End*

M02*
