G04 Layer: DrillDrawingLayer*
G04 EasyEDA Pro v2.1.40, 2023-11-27 11:39:20*
G04 Gerber Generator version 0.3*
G04 Scale: 100 percent, Rotated: No, Reflected: No*
G04 Dimensions in millimeters*
G04 Leading zeros omitted, absolute positions, 3 integers and 5 decimals*
%FSLAX35Y35*%
%MOMM*%
%ADD10C,0.254*%
G75*


G04 Image Start*
G36*
G01X380086Y-380086D02*
G01X380086Y-383692D01*
G01X383692D01*
G01X416306D01*
G01Y-416306D01*
G01X383692D01*
G01Y-383692D01*
G01X380086D01*
G01Y-419964D01*
G01X419964D01*
G01Y-380086D01*
G37*
G36*
G01X6180074Y-380086D02*
G01X6180074Y-383692D01*
G01X6183681D01*
G01X6216294D01*
G01Y-416306D01*
G01X6183681D01*
G01Y-383692D01*
G01X6180074D01*
G01Y-419964D01*
G01X6219952D01*
G01Y-380086D01*
G37*
G36*
G01X380086Y-3680054D02*
G01X380086Y-3683711D01*
G01X383692D01*
G01X416306D01*
G01Y-3716325D01*
G01X383692D01*
G01Y-3683711D01*
G01X380086D01*
G01Y-3719932D01*
G01X419964D01*
G01Y-3680054D01*
G37*
G36*
G01X6180074Y-3680054D02*
G01X6180074Y-3683711D01*
G01X6183681D01*
G01X6216294D01*
G01Y-3716325D01*
G01X6183681D01*
G01Y-3683711D01*
G01X6180074D01*
G01Y-3719932D01*
G01X6219952D01*
G01Y-3680054D01*
G37*
G36*
G01X3150006Y-3755085D02*
G01X3147974Y-3755187D01*
G01X3145993Y-3755492D01*
G01X3144063Y-3755949D01*
G01X3142234Y-3756609D01*
G01X3140507Y-3757473D01*
G01X3138830Y-3758489D01*
G01X3137306Y-3759606D01*
G01X3135884Y-3760876D01*
G01X3134614Y-3762299D01*
G01X3133446Y-3763874D01*
G01X3132480Y-3765499D01*
G01X3131617Y-3767226D01*
G01X3130956Y-3769055D01*
G01X3130448Y-3770986D01*
G01X3130144Y-3772967D01*
G01X3130042Y-3774999D01*
G01X3133395D01*
G01X3133446Y-3773322D01*
G01X3133700Y-3771646D01*
G01X3134106Y-3770071D01*
G01X3134665Y-3768547D01*
G01X3135376Y-3767074D01*
G01X3136189Y-3765702D01*
G01X3137154Y-3764432D01*
G01X3138221Y-3763264D01*
G01X3139440Y-3762197D01*
G01X3140710Y-3761232D01*
G01X3142082Y-3760368D01*
G01X3143504Y-3759708D01*
G01X3145028Y-3759149D01*
G01X3146654Y-3758743D01*
G01X3148279Y-3758489D01*
G01X3150006Y-3758387D01*
G01X3151683Y-3758489D01*
G01X3153308Y-3758743D01*
G01X3154934Y-3759149D01*
G01X3156458Y-3759708D01*
G01X3157880Y-3760368D01*
G01X3159252Y-3761232D01*
G01X3160573Y-3762197D01*
G01X3161741Y-3763264D01*
G01X3162808Y-3764432D01*
G01X3163773Y-3765702D01*
G01X3164586Y-3767074D01*
G01X3165297Y-3768547D01*
G01X3165856Y-3770071D01*
G01X3166262Y-3771646D01*
G01X3166516Y-3773322D01*
G01X3166618Y-3774999D01*
G01X3166516Y-3776675D01*
G01X3166262Y-3778352D01*
G01X3165856Y-3779926D01*
G01X3165297Y-3781450D01*
G01X3164586Y-3782924D01*
G01X3163773Y-3784295D01*
G01X3162808Y-3785565D01*
G01X3161741Y-3786734D01*
G01X3160573Y-3787800D01*
G01X3159252Y-3788766D01*
G01X3157880Y-3789629D01*
G01X3156458Y-3790290D01*
G01X3154934Y-3790848D01*
G01X3153308Y-3791255D01*
G01X3151683Y-3791509D01*
G01X3150006Y-3791610D01*
G01X3148279Y-3791509D01*
G01X3146654Y-3791255D01*
G01X3145028Y-3790848D01*
G01X3143504Y-3790290D01*
G01X3142082Y-3789629D01*
G01X3140710Y-3788766D01*
G01X3139440Y-3787800D01*
G01X3138221Y-3786734D01*
G01X3137154Y-3785565D01*
G01X3136189Y-3784295D01*
G01X3135376Y-3782924D01*
G01X3134665Y-3781450D01*
G01X3134106Y-3779926D01*
G01X3133700Y-3778352D01*
G01X3133446Y-3776675D01*
G01X3133395Y-3774999D01*
G01X3130042D01*
G01X3130144Y-3777031D01*
G01X3130448Y-3779012D01*
G01X3130956Y-3780942D01*
G01X3131617Y-3782771D01*
G01X3132480Y-3784498D01*
G01X3133446Y-3786124D01*
G01X3134614Y-3787699D01*
G01X3135884Y-3789121D01*
G01X3137306Y-3790391D01*
G01X3138830Y-3791560D01*
G01X3140507Y-3792525D01*
G01X3142234Y-3793388D01*
G01X3144063Y-3794049D01*
G01X3145993Y-3794557D01*
G01X3147974Y-3794862D01*
G01X3150006Y-3794963D01*
G01X3152038Y-3794862D01*
G01X3154020Y-3794557D01*
G01X3155899Y-3794049D01*
G01X3157728Y-3793388D01*
G01X3159506Y-3792525D01*
G01X3161132Y-3791560D01*
G01X3162656Y-3790391D01*
G01X3164078Y-3789121D01*
G01X3165399Y-3787699D01*
G01X3166516Y-3786124D01*
G01X3167532Y-3784498D01*
G01X3168345Y-3782771D01*
G01X3169006Y-3780942D01*
G01X3169514Y-3779012D01*
G01X3169818Y-3777031D01*
G01X3169920Y-3774999D01*
G01X3169818Y-3772967D01*
G01X3169514Y-3770986D01*
G01X3169006Y-3769055D01*
G01X3168345Y-3767226D01*
G01X3167532Y-3765499D01*
G01X3166516Y-3763874D01*
G01X3165399Y-3762299D01*
G01X3164078Y-3760876D01*
G01X3162656Y-3759606D01*
G01X3161132Y-3758489D01*
G01X3159506Y-3757473D01*
G01X3157728Y-3756609D01*
G01X3155899Y-3755949D01*
G01X3154020Y-3755492D01*
G01X3152038Y-3755187D01*
G37*
G36*
G01X3649980Y-3755085D02*
G01X3647948Y-3755187D01*
G01X3645967Y-3755492D01*
G01X3644036Y-3755949D01*
G01X3642208Y-3756609D01*
G01X3640480Y-3757473D01*
G01X3638855Y-3758489D01*
G01X3637280Y-3759606D01*
G01X3635908Y-3760876D01*
G01X3634588Y-3762299D01*
G01X3633470Y-3763874D01*
G01X3632454Y-3765499D01*
G01X3631590Y-3767226D01*
G01X3630930Y-3769055D01*
G01X3630473Y-3770986D01*
G01X3630168Y-3772967D01*
G01X3630066Y-3774999D01*
G01X3633368D01*
G01X3633470Y-3773322D01*
G01X3633724Y-3771646D01*
G01X3634130Y-3770071D01*
G01X3634689Y-3768547D01*
G01X3635400Y-3767074D01*
G01X3636213Y-3765702D01*
G01X3637178Y-3764432D01*
G01X3638245Y-3763264D01*
G01X3639414Y-3762197D01*
G01X3640684Y-3761232D01*
G01X3642055Y-3760368D01*
G01X3643528Y-3759708D01*
G01X3645052Y-3759149D01*
G01X3646627Y-3758743D01*
G01X3648304Y-3758489D01*
G01X3649980Y-3758387D01*
G01X3651707Y-3758489D01*
G01X3653333Y-3758743D01*
G01X3654908Y-3759149D01*
G01X3656432Y-3759708D01*
G01X3657905Y-3760368D01*
G01X3659276Y-3761232D01*
G01X3660546Y-3762197D01*
G01X3661715Y-3763264D01*
G01X3662782Y-3764432D01*
G01X3663747Y-3765702D01*
G01X3664610Y-3767074D01*
G01X3665271Y-3768547D01*
G01X3665830Y-3770071D01*
G01X3666287Y-3771646D01*
G01X3666541Y-3773322D01*
G01X3666592Y-3774999D01*
G01X3666541Y-3776675D01*
G01X3666287Y-3778352D01*
G01X3665830Y-3779926D01*
G01X3665271Y-3781450D01*
G01X3664610Y-3782924D01*
G01X3663747Y-3784295D01*
G01X3662782Y-3785565D01*
G01X3661715Y-3786734D01*
G01X3660546Y-3787800D01*
G01X3659276Y-3788766D01*
G01X3657905Y-3789629D01*
G01X3656432Y-3790290D01*
G01X3654908Y-3790848D01*
G01X3653333Y-3791255D01*
G01X3651707Y-3791509D01*
G01X3649980Y-3791610D01*
G01X3648304Y-3791509D01*
G01X3646627Y-3791255D01*
G01X3645052Y-3790848D01*
G01X3643528Y-3790290D01*
G01X3642055Y-3789629D01*
G01X3640684Y-3788766D01*
G01X3639414Y-3787800D01*
G01X3638245Y-3786734D01*
G01X3637178Y-3785565D01*
G01X3636213Y-3784295D01*
G01X3635400Y-3782924D01*
G01X3634689Y-3781450D01*
G01X3634130Y-3779926D01*
G01X3633724Y-3778352D01*
G01X3633470Y-3776675D01*
G01X3633368Y-3774999D01*
G01X3630066D01*
G01X3630168Y-3777031D01*
G01X3630473Y-3779012D01*
G01X3630930Y-3780942D01*
G01X3631590Y-3782771D01*
G01X3632454Y-3784498D01*
G01X3633470Y-3786124D01*
G01X3634588Y-3787699D01*
G01X3635908Y-3789121D01*
G01X3637280Y-3790391D01*
G01X3638855Y-3791560D01*
G01X3640480Y-3792525D01*
G01X3642208Y-3793388D01*
G01X3644036Y-3794049D01*
G01X3645967Y-3794557D01*
G01X3647948Y-3794862D01*
G01X3649980Y-3794963D01*
G01X3652012Y-3794862D01*
G01X3653993Y-3794557D01*
G01X3655924Y-3794049D01*
G01X3657752Y-3793388D01*
G01X3659480Y-3792525D01*
G01X3661156Y-3791560D01*
G01X3662680Y-3790391D01*
G01X3664102Y-3789121D01*
G01X3665372Y-3787699D01*
G01X3666541Y-3786124D01*
G01X3667506Y-3784498D01*
G01X3668370Y-3782771D01*
G01X3669030Y-3780942D01*
G01X3669538Y-3779012D01*
G01X3669843Y-3777031D01*
G01X3669944Y-3774999D01*
G01X3669843Y-3772967D01*
G01X3669538Y-3770986D01*
G01X3669030Y-3769055D01*
G01X3668370Y-3767226D01*
G01X3667506Y-3765499D01*
G01X3666541Y-3763874D01*
G01X3665372Y-3762299D01*
G01X3664102Y-3760876D01*
G01X3662680Y-3759606D01*
G01X3661156Y-3758489D01*
G01X3659480Y-3757473D01*
G01X3657752Y-3756609D01*
G01X3655924Y-3755949D01*
G01X3653993Y-3755492D01*
G01X3652012Y-3755187D01*
G37*
G36*
G01X3150006Y-305054D02*
G01X3147974Y-305156D01*
G01X3145993Y-305460D01*
G01X3144063Y-305968D01*
G01X3142234Y-306629D01*
G01X3140507Y-307492D01*
G01X3138830Y-308458D01*
G01X3137306Y-309626D01*
G01X3135884Y-310896D01*
G01X3134614Y-312318D01*
G01X3133446Y-313842D01*
G01X3132480Y-315519D01*
G01X3131617Y-317246D01*
G01X3130956Y-319075D01*
G01X3130448Y-321005D01*
G01X3130144Y-322986D01*
G01X3130042Y-325018D01*
G01X3133395D01*
G01X3133446Y-323291D01*
G01X3133700Y-321666D01*
G01X3134106Y-320040D01*
G01X3134665Y-318516D01*
G01X3135376Y-317094D01*
G01X3136189Y-315722D01*
G01X3137154Y-314452D01*
G01X3138221Y-313233D01*
G01X3139440Y-312166D01*
G01X3140710Y-311201D01*
G01X3142082Y-310388D01*
G01X3143504Y-309677D01*
G01X3145028Y-309118D01*
G01X3146654Y-308712D01*
G01X3148279Y-308458D01*
G01X3150006Y-308407D01*
G01X3151683Y-308458D01*
G01X3153308Y-308712D01*
G01X3154934Y-309118D01*
G01X3156458Y-309677D01*
G01X3157880Y-310388D01*
G01X3159252Y-311201D01*
G01X3160573Y-312166D01*
G01X3161741Y-313233D01*
G01X3162808Y-314452D01*
G01X3163773Y-315722D01*
G01X3164586Y-317094D01*
G01X3165297Y-318516D01*
G01X3165856Y-320040D01*
G01X3166262Y-321666D01*
G01X3166516Y-323291D01*
G01X3166618Y-325018D01*
G01X3166516Y-326695D01*
G01X3166262Y-328320D01*
G01X3165856Y-329946D01*
G01X3165297Y-331470D01*
G01X3164586Y-332892D01*
G01X3163773Y-334264D01*
G01X3162808Y-335585D01*
G01X3161741Y-336753D01*
G01X3160573Y-337820D01*
G01X3159252Y-338785D01*
G01X3157880Y-339598D01*
G01X3156458Y-340309D01*
G01X3154934Y-340868D01*
G01X3153308Y-341274D01*
G01X3151683Y-341528D01*
G01X3150006Y-341630D01*
G01X3148279Y-341528D01*
G01X3146654Y-341274D01*
G01X3145028Y-340868D01*
G01X3143504Y-340309D01*
G01X3142082Y-339598D01*
G01X3140710Y-338785D01*
G01X3139440Y-337820D01*
G01X3138221Y-336753D01*
G01X3137154Y-335585D01*
G01X3136189Y-334264D01*
G01X3135376Y-332892D01*
G01X3134665Y-331470D01*
G01X3134106Y-329946D01*
G01X3133700Y-328320D01*
G01X3133446Y-326695D01*
G01X3133395Y-325018D01*
G01X3130042D01*
G01X3130144Y-327050D01*
G01X3130448Y-329032D01*
G01X3130956Y-330911D01*
G01X3131617Y-332740D01*
G01X3132480Y-334518D01*
G01X3133446Y-336144D01*
G01X3134614Y-337668D01*
G01X3135884Y-339090D01*
G01X3137306Y-340411D01*
G01X3138830Y-341528D01*
G01X3140507Y-342544D01*
G01X3142234Y-343357D01*
G01X3144063Y-344018D01*
G01X3145993Y-344526D01*
G01X3147974Y-344830D01*
G01X3150006Y-344932D01*
G01X3152038Y-344830D01*
G01X3154020Y-344526D01*
G01X3155899Y-344018D01*
G01X3157728Y-343357D01*
G01X3159506Y-342544D01*
G01X3161132Y-341528D01*
G01X3162656Y-340411D01*
G01X3164078Y-339090D01*
G01X3165399Y-337668D01*
G01X3166516Y-336144D01*
G01X3167532Y-334518D01*
G01X3168345Y-332740D01*
G01X3169006Y-330911D01*
G01X3169514Y-329032D01*
G01X3169818Y-327050D01*
G01X3169920Y-325018D01*
G01X3169818Y-322986D01*
G01X3169514Y-321005D01*
G01X3169006Y-319075D01*
G01X3168345Y-317246D01*
G01X3167532Y-315519D01*
G01X3166516Y-313842D01*
G01X3165399Y-312318D01*
G01X3164078Y-310896D01*
G01X3162656Y-309626D01*
G01X3161132Y-308458D01*
G01X3159506Y-307492D01*
G01X3157728Y-306629D01*
G01X3155899Y-305968D01*
G01X3154020Y-305460D01*
G01X3152038Y-305156D01*
G37*
G36*
G01X3649980Y-305054D02*
G01X3647948Y-305156D01*
G01X3645967Y-305460D01*
G01X3644036Y-305968D01*
G01X3642208Y-306629D01*
G01X3640480Y-307492D01*
G01X3638855Y-308458D01*
G01X3637280Y-309626D01*
G01X3635908Y-310896D01*
G01X3634588Y-312318D01*
G01X3633470Y-313842D01*
G01X3632454Y-315519D01*
G01X3631590Y-317246D01*
G01X3630930Y-319075D01*
G01X3630473Y-321005D01*
G01X3630168Y-322986D01*
G01X3630066Y-325018D01*
G01X3633368D01*
G01X3633470Y-323291D01*
G01X3633724Y-321666D01*
G01X3634130Y-320040D01*
G01X3634689Y-318516D01*
G01X3635400Y-317094D01*
G01X3636213Y-315722D01*
G01X3637178Y-314452D01*
G01X3638245Y-313233D01*
G01X3639414Y-312166D01*
G01X3640684Y-311201D01*
G01X3642055Y-310388D01*
G01X3643528Y-309677D01*
G01X3645052Y-309118D01*
G01X3646627Y-308712D01*
G01X3648304Y-308458D01*
G01X3649980Y-308407D01*
G01X3651707Y-308458D01*
G01X3653333Y-308712D01*
G01X3654908Y-309118D01*
G01X3656432Y-309677D01*
G01X3657905Y-310388D01*
G01X3659276Y-311201D01*
G01X3660546Y-312166D01*
G01X3661715Y-313233D01*
G01X3662782Y-314452D01*
G01X3663747Y-315722D01*
G01X3664610Y-317094D01*
G01X3665271Y-318516D01*
G01X3665830Y-320040D01*
G01X3666287Y-321666D01*
G01X3666541Y-323291D01*
G01X3666592Y-325018D01*
G01X3666541Y-326695D01*
G01X3666287Y-328320D01*
G01X3665830Y-329946D01*
G01X3665271Y-331470D01*
G01X3664610Y-332892D01*
G01X3663747Y-334264D01*
G01X3662782Y-335585D01*
G01X3661715Y-336753D01*
G01X3660546Y-337820D01*
G01X3659276Y-338785D01*
G01X3657905Y-339598D01*
G01X3656432Y-340309D01*
G01X3654908Y-340868D01*
G01X3653333Y-341274D01*
G01X3651707Y-341528D01*
G01X3649980Y-341630D01*
G01X3648304Y-341528D01*
G01X3646627Y-341274D01*
G01X3645052Y-340868D01*
G01X3643528Y-340309D01*
G01X3642055Y-339598D01*
G01X3640684Y-338785D01*
G01X3639414Y-337820D01*
G01X3638245Y-336753D01*
G01X3637178Y-335585D01*
G01X3636213Y-334264D01*
G01X3635400Y-332892D01*
G01X3634689Y-331470D01*
G01X3634130Y-329946D01*
G01X3633724Y-328320D01*
G01X3633470Y-326695D01*
G01X3633368Y-325018D01*
G01X3630066D01*
G01X3630168Y-327050D01*
G01X3630473Y-329032D01*
G01X3630930Y-330911D01*
G01X3631590Y-332740D01*
G01X3632454Y-334518D01*
G01X3633470Y-336144D01*
G01X3634588Y-337668D01*
G01X3635908Y-339090D01*
G01X3637280Y-340411D01*
G01X3638855Y-341528D01*
G01X3640480Y-342544D01*
G01X3642208Y-343357D01*
G01X3644036Y-344018D01*
G01X3645967Y-344526D01*
G01X3647948Y-344830D01*
G01X3649980Y-344932D01*
G01X3652012Y-344830D01*
G01X3653993Y-344526D01*
G01X3655924Y-344018D01*
G01X3657752Y-343357D01*
G01X3659480Y-342544D01*
G01X3661156Y-341528D01*
G01X3662680Y-340411D01*
G01X3664102Y-339090D01*
G01X3665372Y-337668D01*
G01X3666541Y-336144D01*
G01X3667506Y-334518D01*
G01X3668370Y-332740D01*
G01X3669030Y-330911D01*
G01X3669538Y-329032D01*
G01X3669843Y-327050D01*
G01X3669944Y-325018D01*
G01X3669843Y-322986D01*
G01X3669538Y-321005D01*
G01X3669030Y-319075D01*
G01X3668370Y-317246D01*
G01X3667506Y-315519D01*
G01X3666541Y-313842D01*
G01X3665372Y-312318D01*
G01X3664102Y-310896D01*
G01X3662680Y-309626D01*
G01X3661156Y-308458D01*
G01X3659480Y-307492D01*
G01X3657752Y-306629D01*
G01X3655924Y-305968D01*
G01X3653993Y-305460D01*
G01X3652012Y-305156D01*
G37*
G36*
G01X4949241Y-3928974D02*
G01X4951171Y-3932326D01*
G01X4955032D01*
G01X4983378D01*
G01X4976317Y-3944620D01*
G01X4969205Y-3956863D01*
G01X4962093Y-3944620D01*
G01X4955032Y-3932326D01*
G01X4951171D01*
G01X4959248Y-3946246D01*
G01X4969205Y-3963518D01*
G01X4989119Y-3928974D01*
G37*
G36*
G01X4085285Y-3928974D02*
G01X4087216Y-3932326D01*
G01X4091026D01*
G01X4119423D01*
G01X4112311Y-3944620D01*
G01X4105199Y-3956863D01*
G01X4098138Y-3944620D01*
G01X4091026Y-3932326D01*
G01X4087216D01*
G01X4105199Y-3963518D01*
G01X4115206Y-3946246D01*
G01X4125163Y-3928974D01*
G37*
G36*
G01X4949241Y-3548990D02*
G01X4951171Y-3552292D01*
G01X4955032D01*
G01X4983378D01*
G01X4976317Y-3564585D01*
G01X4969205Y-3576879D01*
G01X4962093Y-3564585D01*
G01X4955032Y-3552292D01*
G01X4951171D01*
G01X4959248Y-3566262D01*
G01X4969205Y-3583534D01*
G01X4989119Y-3548990D01*
G37*
G36*
G01X4085285Y-3548990D02*
G01X4087165Y-3552292D01*
G01X4091026D01*
G01X4119423D01*
G01X4105199Y-3576879D01*
G01X4098138Y-3564585D01*
G01X4091026Y-3552292D01*
G01X4087165D01*
G01X4105199Y-3583534D01*
G01X4115206Y-3566262D01*
G01X4125163Y-3548990D01*
G37*
G36*
G01X1487526Y-439674D02*
G01X1481734Y-452730D01*
G01X1467561Y-451155D01*
G01X1475994Y-462686D01*
G01X1470660Y-469951D01*
G01X1474876D01*
G01X1478737Y-464718D01*
G01X1480210Y-462686D01*
G01X1478737Y-460654D01*
G01X1474876Y-455422D01*
G01X1481379Y-456133D01*
G01X1483868Y-456387D01*
G01X1484884Y-454101D01*
G01X1487526Y-448107D01*
G01X1490116Y-454101D01*
G01X1491132Y-456387D01*
G01X1493622Y-456133D01*
G01X1500124Y-455422D01*
G01X1496263Y-460654D01*
G01X1494790Y-462686D01*
G01X1496263Y-464718D01*
G01X1500124Y-469951D01*
G01X1493622Y-469290D01*
G01X1491132Y-468986D01*
G01X1490116Y-471272D01*
G01X1487526Y-477266D01*
G01X1484884Y-471272D01*
G01X1483868Y-468986D01*
G01X1481379Y-469290D01*
G01X1474876Y-469951D01*
G01X1470660D01*
G01X1467561Y-474218D01*
G01X1481734Y-472643D01*
G01X1487526Y-485699D01*
G01X1493266Y-472643D01*
G01X1507439Y-474218D01*
G01X1499006Y-462686D01*
G01X1507439Y-451155D01*
G01X1493266Y-452730D01*
G37*
G36*
G01X1362507Y-439674D02*
G01X1356766Y-452730D01*
G01X1342593Y-451155D01*
G01X1350975Y-462686D01*
G01X1345692Y-469951D01*
G01X1349908D01*
G01X1353769Y-464718D01*
G01X1355242Y-462686D01*
G01X1353769Y-460654D01*
G01X1349908Y-455422D01*
G01X1356411Y-456133D01*
G01X1358849Y-456387D01*
G01X1359865Y-454101D01*
G01X1362507Y-448107D01*
G01X1365148Y-454101D01*
G01X1366164Y-456387D01*
G01X1368654Y-456133D01*
G01X1375105Y-455422D01*
G01X1371244Y-460654D01*
G01X1369822Y-462686D01*
G01X1371295Y-464718D01*
G01X1375105Y-469951D01*
G01X1368654Y-469290D01*
G01X1366164Y-468986D01*
G01X1365148Y-471272D01*
G01X1362507Y-477266D01*
G01X1359865Y-471272D01*
G01X1358849Y-468986D01*
G01X1356411Y-469290D01*
G01X1349908Y-469951D01*
G01X1345692D01*
G01X1342593Y-474218D01*
G01X1356766Y-472643D01*
G01X1362507Y-485699D01*
G01X1368247Y-472643D01*
G01X1382471Y-474218D01*
G01X1374038Y-462686D01*
G01X1382471Y-451155D01*
G01X1368247Y-452730D01*
G37*
G36*
G01X1237488Y-439674D02*
G01X1231748Y-452730D01*
G01X1217574Y-451155D01*
G01X1225956Y-462686D01*
G01X1220673Y-469951D01*
G01X1224890D01*
G01X1228750Y-464718D01*
G01X1230224Y-462686D01*
G01X1228750Y-460654D01*
G01X1224890Y-455422D01*
G01X1231392Y-456133D01*
G01X1233830Y-456387D01*
G01X1234846Y-454101D01*
G01X1237488Y-448107D01*
G01X1240130Y-454101D01*
G01X1241146Y-456387D01*
G01X1243635Y-456133D01*
G01X1250086Y-455422D01*
G01X1246226Y-460654D01*
G01X1244803Y-462686D01*
G01X1246276Y-464718D01*
G01X1250086Y-469951D01*
G01X1243635Y-469290D01*
G01X1241146Y-468986D01*
G01X1240130Y-471272D01*
G01X1237488Y-477266D01*
G01X1234846Y-471272D01*
G01X1233830Y-468986D01*
G01X1231392Y-469290D01*
G01X1224890Y-469951D01*
G01X1220673D01*
G01X1217574Y-474218D01*
G01X1231748Y-472643D01*
G01X1237488Y-485699D01*
G01X1243228Y-472643D01*
G01X1257452Y-474218D01*
G01X1249020Y-462686D01*
G01X1257452Y-451155D01*
G01X1243228Y-452730D01*
G37*
G36*
G01X1112520Y-439674D02*
G01X1106729Y-452730D01*
G01X1092556Y-451155D01*
G01X1100988Y-462686D01*
G01X1095654Y-469951D01*
G01X1099871D01*
G01X1103732Y-464718D01*
G01X1105205Y-462686D01*
G01X1103732Y-460654D01*
G01X1099871Y-455422D01*
G01X1106373Y-456133D01*
G01X1108862Y-456387D01*
G01X1109878Y-454101D01*
G01X1112520Y-448107D01*
G01X1115111Y-454101D01*
G01X1116127Y-456387D01*
G01X1118616Y-456133D01*
G01X1125118Y-455422D01*
G01X1121258Y-460654D01*
G01X1119784Y-462686D01*
G01X1121258Y-464718D01*
G01X1125118Y-469951D01*
G01X1118616Y-469290D01*
G01X1116127Y-468986D01*
G01X1115111Y-471272D01*
G01X1112520Y-477266D01*
G01X1109878Y-471272D01*
G01X1108862Y-468986D01*
G01X1106373Y-469290D01*
G01X1099871Y-469951D01*
G01X1095654D01*
G01X1092556Y-474218D01*
G01X1106729Y-472643D01*
G01X1112520Y-485699D01*
G01X1118260Y-472643D01*
G01X1132434Y-474218D01*
G01X1124001Y-462686D01*
G01X1132434Y-451155D01*
G01X1118260Y-452730D01*
G37*
G36*
G01X451104Y-1833474D02*
G01X445364Y-1846529D01*
G01X431190Y-1845005D01*
G01X439623Y-1856537D01*
G01X434289Y-1863801D01*
G01X438506D01*
G01X442366Y-1858518D01*
G01X443840Y-1856537D01*
G01X442366Y-1854505D01*
G01X438506Y-1849222D01*
G01X445008Y-1849933D01*
G01X447497Y-1850187D01*
G01X448513Y-1847901D01*
G01X451104Y-1841957D01*
G01X454762Y-1850187D01*
G01X457251Y-1849933D01*
G01X463753Y-1849222D01*
G01X459892Y-1854505D01*
G01X458419Y-1856537D01*
G01X459892Y-1858518D01*
G01X463753Y-1863801D01*
G01X457251Y-1863090D01*
G01X454762Y-1862836D01*
G01X451104Y-1871066D01*
G01X448513Y-1865122D01*
G01X447497Y-1862836D01*
G01X445008Y-1863090D01*
G01X438506Y-1863801D01*
G01X434289D01*
G01X431190Y-1868018D01*
G01X445364Y-1866494D01*
G01X451104Y-1879549D01*
G01X456895Y-1866494D01*
G01X471068Y-1868018D01*
G01X462636Y-1856537D01*
G01X471068Y-1845005D01*
G01X456895Y-1846529D01*
G37*
G36*
G01X451104Y-1958492D02*
G01X445364Y-1971548D01*
G01X431190Y-1970024D01*
G01X439623Y-1981505D01*
G01X434289Y-1988820D01*
G01X438506D01*
G01X442366Y-1983537D01*
G01X443840Y-1981505D01*
G01X442366Y-1979473D01*
G01X438506Y-1974240D01*
G01X445008Y-1974952D01*
G01X447497Y-1975206D01*
G01X448513Y-1972920D01*
G01X451104Y-1966925D01*
G01X453746Y-1972920D01*
G01X454762Y-1975206D01*
G01X457251Y-1974952D01*
G01X463753Y-1974240D01*
G01X459892Y-1979524D01*
G01X458419Y-1981505D01*
G01X459892Y-1983537D01*
G01X463753Y-1988820D01*
G01X457251Y-1988109D01*
G01X454762Y-1987804D01*
G01X453746Y-1990090D01*
G01X451104Y-1996084D01*
G01X448513Y-1990090D01*
G01X447497Y-1987804D01*
G01X445008Y-1988109D01*
G01X438506Y-1988820D01*
G01X434289D01*
G01X431190Y-1993036D01*
G01X445364Y-1991462D01*
G01X451104Y-2004517D01*
G01X456895Y-1991462D01*
G01X471068Y-1993036D01*
G01X462636Y-1981505D01*
G01X471068Y-1970024D01*
G01X456895Y-1971548D01*
G37*
G36*
G01X451104Y-2083511D02*
G01X445364Y-2096567D01*
G01X431190Y-2095043D01*
G01X439623Y-2106524D01*
G01X434289Y-2113839D01*
G01X438506D01*
G01X442366Y-2108556D01*
G01X443840Y-2106524D01*
G01X442366Y-2104492D01*
G01X438506Y-2099259D01*
G01X445008Y-2099970D01*
G01X447497Y-2100224D01*
G01X448513Y-2097938D01*
G01X451104Y-2091944D01*
G01X453746Y-2097938D01*
G01X454762Y-2100224D01*
G01X457251Y-2099970D01*
G01X463753Y-2099259D01*
G01X459892Y-2104542D01*
G01X458419Y-2106524D01*
G01X459892Y-2108556D01*
G01X463753Y-2113839D01*
G01X457251Y-2113128D01*
G01X454762Y-2112823D01*
G01X453746Y-2115109D01*
G01X451104Y-2121103D01*
G01X448513Y-2115109D01*
G01X447497Y-2112823D01*
G01X445008Y-2113128D01*
G01X438506Y-2113839D01*
G01X434289D01*
G01X431190Y-2118055D01*
G01X445364Y-2116480D01*
G01X451104Y-2129536D01*
G01X456895Y-2116480D01*
G01X471068Y-2118055D01*
G01X462636Y-2106524D01*
G01X471068Y-2095043D01*
G01X456895Y-2096567D01*
G37*
G36*
G01X451104Y-2208479D02*
G01X445364Y-2221535D01*
G01X431190Y-2220011D01*
G01X439623Y-2231542D01*
G01X434289Y-2238807D01*
G01X438506D01*
G01X442366Y-2233524D01*
G01X443840Y-2231542D01*
G01X442366Y-2229510D01*
G01X438506Y-2224227D01*
G01X445008Y-2224938D01*
G01X447497Y-2225192D01*
G01X448513Y-2222906D01*
G01X451104Y-2216963D01*
G01X454762Y-2225192D01*
G01X457251Y-2224938D01*
G01X463753Y-2224227D01*
G01X459892Y-2229510D01*
G01X458419Y-2231542D01*
G01X459892Y-2233524D01*
G01X463753Y-2238807D01*
G01X457251Y-2238096D01*
G01X454762Y-2237842D01*
G01X451104Y-2246071D01*
G01X448513Y-2240128D01*
G01X447497Y-2237842D01*
G01X445008Y-2238096D01*
G01X438506Y-2238807D01*
G01X434289D01*
G01X431190Y-2243023D01*
G01X445364Y-2241499D01*
G01X451104Y-2254555D01*
G01X456895Y-2241499D01*
G01X471068Y-2243023D01*
G01X462636Y-2231542D01*
G01X471068Y-2220011D01*
G01X456895Y-2221535D01*
G37*
G36*
G01X5546039Y-1434084D02*
G01X5549138Y-1440840D01*
G01X5552846D01*
G01X5564632Y-1446225D01*
G01X5566004Y-1446886D01*
G01X5567375Y-1446225D01*
G01X5579161Y-1440840D01*
G01X5573776Y-1452626D01*
G01X5573116Y-1453998D01*
G01X5573776Y-1455369D01*
G01X5579161Y-1467155D01*
G01X5567375Y-1461770D01*
G01X5566004Y-1461110D01*
G01X5564632Y-1461770D01*
G01X5552846Y-1467155D01*
G01X5558231Y-1455369D01*
G01X5558892Y-1453998D01*
G01X5558231Y-1452626D01*
G01X5552846Y-1440840D01*
G01X5549138D01*
G01X5555234Y-1453998D01*
G01X5546039Y-1473962D01*
G01X5566004Y-1464767D01*
G01X5585917Y-1473962D01*
G01X5576773Y-1453998D01*
G01X5585917Y-1434084D01*
G01X5566004Y-1443228D01*
G37*
G36*
G01X5546039Y-1180084D02*
G01X5549138Y-1186840D01*
G01X5552846D01*
G01X5564632Y-1192225D01*
G01X5566004Y-1192886D01*
G01X5567375Y-1192225D01*
G01X5579161Y-1186840D01*
G01X5573776Y-1198626D01*
G01X5573116Y-1199998D01*
G01X5573776Y-1201369D01*
G01X5579161Y-1213155D01*
G01X5567375Y-1207770D01*
G01X5566004Y-1207110D01*
G01X5564632Y-1207770D01*
G01X5552846Y-1213155D01*
G01X5558231Y-1201369D01*
G01X5558892Y-1199998D01*
G01X5558231Y-1198626D01*
G01X5552846Y-1186840D01*
G01X5549138D01*
G01X5555234Y-1199998D01*
G01X5546039Y-1219962D01*
G01X5566004Y-1210767D01*
G01X5585917Y-1219962D01*
G01X5576773Y-1199998D01*
G01X5585917Y-1180084D01*
G01X5566004Y-1189228D01*
G37*
G36*
G01X5546039Y-926084D02*
G01X5549138Y-932840D01*
G01X5552846D01*
G01X5564632Y-938225D01*
G01X5566004Y-938886D01*
G01X5567375Y-938225D01*
G01X5579161Y-932840D01*
G01X5573776Y-944626D01*
G01X5573116Y-945998D01*
G01X5573776Y-947369D01*
G01X5579161Y-959155D01*
G01X5567375Y-953770D01*
G01X5566004Y-953110D01*
G01X5564632Y-953770D01*
G01X5552846Y-959155D01*
G01X5558231Y-947369D01*
G01X5558892Y-945998D01*
G01X5558231Y-944626D01*
G01X5552846Y-932840D01*
G01X5549138D01*
G01X5555234Y-945998D01*
G01X5546039Y-965962D01*
G01X5566004Y-956767D01*
G01X5585917Y-965962D01*
G01X5576773Y-945998D01*
G01X5585917Y-926084D01*
G01X5566004Y-935228D01*
G37*
G36*
G01X5546090Y-3134055D02*
G01X5549189Y-3140812D01*
G01X5552846D01*
G01X5564632Y-3146247D01*
G01X5566054Y-3146908D01*
G01X5567426Y-3146247D01*
G01X5579212Y-3140812D01*
G01X5573776Y-3152597D01*
G01X5573166Y-3154020D01*
G01X5573776Y-3155391D01*
G01X5579212Y-3167177D01*
G01X5567426Y-3161741D01*
G01X5566054Y-3161132D01*
G01X5564632Y-3161741D01*
G01X5552846Y-3167177D01*
G01X5558282Y-3155391D01*
G01X5558942Y-3154020D01*
G01X5558282Y-3152597D01*
G01X5552846Y-3140812D01*
G01X5549189D01*
G01X5555285Y-3154020D01*
G01X5546090Y-3173933D01*
G01X5566054Y-3164789D01*
G01X5585968Y-3173933D01*
G01X5576824Y-3154020D01*
G01X5585968Y-3134055D01*
G01X5566054Y-3143199D01*
G37*
G36*
G01X5546090Y-2880055D02*
G01X5549189Y-2886812D01*
G01X5552846D01*
G01X5564632Y-2892247D01*
G01X5566054Y-2892908D01*
G01X5567426Y-2892247D01*
G01X5579212Y-2886812D01*
G01X5573776Y-2898597D01*
G01X5573166Y-2900020D01*
G01X5573776Y-2901391D01*
G01X5579212Y-2913177D01*
G01X5567426Y-2907741D01*
G01X5566054Y-2907132D01*
G01X5564632Y-2907741D01*
G01X5552846Y-2913177D01*
G01X5558282Y-2901391D01*
G01X5558942Y-2900020D01*
G01X5558282Y-2898597D01*
G01X5552846Y-2886812D01*
G01X5549189D01*
G01X5555285Y-2900020D01*
G01X5546090Y-2919933D01*
G01X5566054Y-2910789D01*
G01X5585968Y-2919933D01*
G01X5576824Y-2900020D01*
G01X5585968Y-2880055D01*
G01X5566054Y-2889199D01*
G37*
G36*
G01X5546090Y-2626055D02*
G01X5549189Y-2632812D01*
G01X5552846D01*
G01X5564632Y-2638247D01*
G01X5566054Y-2638908D01*
G01X5567426Y-2638247D01*
G01X5579212Y-2632812D01*
G01X5573776Y-2644597D01*
G01X5573166Y-2646020D01*
G01X5573776Y-2647391D01*
G01X5579212Y-2659177D01*
G01X5567426Y-2653741D01*
G01X5566054Y-2653132D01*
G01X5564632Y-2653741D01*
G01X5552846Y-2659177D01*
G01X5558282Y-2647391D01*
G01X5558942Y-2646020D01*
G01X5558282Y-2644597D01*
G01X5552846Y-2632812D01*
G01X5549189D01*
G01X5555285Y-2646020D01*
G01X5546090Y-2665933D01*
G01X5566054Y-2656789D01*
G01X5585968Y-2665933D01*
G01X5576824Y-2646020D01*
G01X5585968Y-2626055D01*
G01X5566054Y-2635199D01*
G37*
G36*
G01X5546090Y-2284070D02*
G01X5549189Y-2290826D01*
G01X5552846D01*
G01X5564632Y-2296262D01*
G01X5566054Y-2296871D01*
G01X5567426Y-2296262D01*
G01X5579212Y-2290826D01*
G01X5573776Y-2302612D01*
G01X5573166Y-2303983D01*
G01X5573776Y-2305406D01*
G01X5579212Y-2317191D01*
G01X5567426Y-2311756D01*
G01X5566054Y-2311095D01*
G01X5564632Y-2311756D01*
G01X5552846Y-2317191D01*
G01X5558282Y-2305406D01*
G01X5558942Y-2303983D01*
G01X5558282Y-2302612D01*
G01X5552846Y-2290826D01*
G01X5549189D01*
G01X5555285Y-2303983D01*
G01X5546090Y-2323948D01*
G01X5566054Y-2314753D01*
G01X5585968Y-2323948D01*
G01X5576824Y-2303983D01*
G01X5585968Y-2284070D01*
G01X5566054Y-2293214D01*
G37*
G36*
G01X5546090Y-2030070D02*
G01X5549189Y-2036826D01*
G01X5552846D01*
G01X5564632Y-2042262D01*
G01X5566054Y-2042871D01*
G01X5567426Y-2042262D01*
G01X5579212Y-2036826D01*
G01X5573776Y-2048612D01*
G01X5573166Y-2049983D01*
G01X5573776Y-2051406D01*
G01X5579212Y-2063191D01*
G01X5567426Y-2057756D01*
G01X5566054Y-2057095D01*
G01X5564632Y-2057756D01*
G01X5552846Y-2063191D01*
G01X5558282Y-2051406D01*
G01X5558942Y-2049983D01*
G01X5558282Y-2048612D01*
G01X5552846Y-2036826D01*
G01X5549189D01*
G01X5555285Y-2049983D01*
G01X5546090Y-2069948D01*
G01X5566054Y-2060753D01*
G01X5585968Y-2069948D01*
G01X5576824Y-2049983D01*
G01X5585968Y-2030070D01*
G01X5566054Y-2039214D01*
G37*
G36*
G01X5546090Y-1776070D02*
G01X5549189Y-1782826D01*
G01X5552846D01*
G01X5564632Y-1788262D01*
G01X5566054Y-1788871D01*
G01X5567426Y-1788262D01*
G01X5579212Y-1782826D01*
G01X5573776Y-1794612D01*
G01X5573166Y-1795983D01*
G01X5573776Y-1797406D01*
G01X5579212Y-1809191D01*
G01X5567426Y-1803756D01*
G01X5566054Y-1803095D01*
G01X5564632Y-1803756D01*
G01X5552846Y-1809191D01*
G01X5558282Y-1797406D01*
G01X5558942Y-1795983D01*
G01X5558282Y-1794612D01*
G01X5552846Y-1782826D01*
G01X5549189D01*
G01X5555285Y-1795983D01*
G01X5546090Y-1815948D01*
G01X5566054Y-1806753D01*
G01X5585968Y-1815948D01*
G01X5576824Y-1795983D01*
G01X5585968Y-1776070D01*
G01X5566054Y-1785214D01*
G37*
G36*
G01X1072998Y-1859991D02*
G01X1072998Y-1870862D01*
G01X1062126D01*
G01Y-1885696D01*
G01X1065428D01*
G01Y-1874215D01*
G01X1076300D01*
G01Y-1863344D01*
G01X1087780D01*
G01Y-1874215D01*
G01X1098652D01*
G01Y-1885696D01*
G01X1087780D01*
G01Y-1896567D01*
G01X1076300D01*
G01Y-1885696D01*
G01X1065428D01*
G01X1062126D01*
G01Y-1888998D01*
G01X1072998D01*
G01Y-1899869D01*
G01X1091082D01*
G01Y-1888998D01*
G01X1102004D01*
G01Y-1870862D01*
G01X1091082D01*
G01Y-1859991D01*
G37*
G36*
G01X984098Y-1996846D02*
G01X984098Y-2007718D01*
G01X973226D01*
G01Y-2022500D01*
G01X976528D01*
G01Y-2011020D01*
G01X987400D01*
G01Y-2000148D01*
G01X998880D01*
G01Y-2011020D01*
G01X1009752D01*
G01Y-2022500D01*
G01X998880D01*
G01Y-2033372D01*
G01X987400D01*
G01Y-2022500D01*
G01X976528D01*
G01X973226D01*
G01Y-2025802D01*
G01X984098D01*
G01Y-2036724D01*
G01X1002182D01*
G01Y-2025802D01*
G01X1013104D01*
G01Y-2007718D01*
G01X1002182D01*
G01Y-1996846D01*
G37*
G36*
G01X2871318Y-1948536D02*
G01X2871318Y-1959458D01*
G01X2860396D01*
G01Y-1974240D01*
G01X2863748D01*
G01Y-1962760D01*
G01X2874620D01*
G01Y-1951888D01*
G01X2886100D01*
G01Y-1962760D01*
G01X2896972D01*
G01Y-1974240D01*
G01X2886100D01*
G01Y-1985112D01*
G01X2874620D01*
G01Y-1974240D01*
G01X2863748D01*
G01X2860396D01*
G01Y-1977542D01*
G01X2871318D01*
G01Y-1988464D01*
G01X2889402D01*
G01Y-1977542D01*
G01X2900324D01*
G01Y-1959458D01*
G01X2889402D01*
G01Y-1948536D01*
G37*
G36*
G01X1301598Y-1338936D02*
G01X1301598Y-1349858D01*
G01X1290726D01*
G01Y-1364640D01*
G01X1294028D01*
G01Y-1353160D01*
G01X1304900D01*
G01Y-1342288D01*
G01X1316380D01*
G01Y-1353160D01*
G01X1327252D01*
G01Y-1364640D01*
G01X1316380D01*
G01Y-1375512D01*
G01X1304900D01*
G01Y-1364640D01*
G01X1294028D01*
G01X1290726D01*
G01Y-1367942D01*
G01X1301598D01*
G01Y-1378864D01*
G01X1319682D01*
G01Y-1367942D01*
G01X1330604D01*
G01Y-1349858D01*
G01X1319682D01*
G01Y-1338936D01*
G37*
G36*
G01X2922118Y-1844446D02*
G01X2922118Y-1855318D01*
G01X2911196D01*
G01Y-1870100D01*
G01X2914548D01*
G01Y-1858620D01*
G01X2925420D01*
G01Y-1847748D01*
G01X2936900D01*
G01Y-1858620D01*
G01X2947772D01*
G01Y-1870100D01*
G01X2936900D01*
G01Y-1880972D01*
G01X2925420D01*
G01Y-1870100D01*
G01X2914548D01*
G01X2911196D01*
G01Y-1873402D01*
G01X2922118D01*
G01Y-1884324D01*
G01X2940202D01*
G01Y-1873402D01*
G01X2951124D01*
G01Y-1855318D01*
G01X2940202D01*
G01Y-1844446D01*
G37*
G36*
G01X1641958Y-1338936D02*
G01X1641958Y-1349858D01*
G01X1631086D01*
G01Y-1364640D01*
G01X1634388D01*
G01Y-1353160D01*
G01X1645260D01*
G01Y-1342288D01*
G01X1656740D01*
G01Y-1353160D01*
G01X1667612D01*
G01Y-1364640D01*
G01X1656740D01*
G01Y-1375512D01*
G01X1645260D01*
G01Y-1364640D01*
G01X1634388D01*
G01X1631086D01*
G01Y-1367942D01*
G01X1641958D01*
G01Y-1378864D01*
G01X1660042D01*
G01Y-1367942D01*
G01X1670964D01*
G01Y-1349858D01*
G01X1660042D01*
G01Y-1338936D01*
G37*
G36*
G01X1718158Y-930046D02*
G01X1718158Y-940918D01*
G01X1707286D01*
G01Y-955700D01*
G01X1710588D01*
G01Y-944220D01*
G01X1721460D01*
G01Y-933348D01*
G01X1732940D01*
G01Y-944220D01*
G01X1743812D01*
G01Y-955700D01*
G01X1732940D01*
G01Y-966572D01*
G01X1721460D01*
G01Y-955700D01*
G01X1710588D01*
G01X1707286D01*
G01Y-959002D01*
G01X1718158D01*
G01Y-969924D01*
G01X1736242D01*
G01Y-959002D01*
G01X1747164D01*
G01Y-940918D01*
G01X1736242D01*
G01Y-930046D01*
G37*
G36*
G01X1880718Y-1206906D02*
G01X1880718Y-1217778D01*
G01X1869846D01*
G01Y-1232560D01*
G01X1873148D01*
G01Y-1221080D01*
G01X1884020D01*
G01Y-1210208D01*
G01X1895500D01*
G01Y-1221080D01*
G01X1906372D01*
G01Y-1232560D01*
G01X1895500D01*
G01Y-1243432D01*
G01X1884020D01*
G01Y-1232560D01*
G01X1873148D01*
G01X1869846D01*
G01Y-1235862D01*
G01X1880718D01*
G01Y-1246784D01*
G01X1898802D01*
G01Y-1235862D01*
G01X1909724D01*
G01Y-1217778D01*
G01X1898802D01*
G01Y-1206906D01*
G37*
G36*
G01X2569058Y-1554836D02*
G01X2569058Y-1565758D01*
G01X2558186D01*
G01Y-1580540D01*
G01X2561488D01*
G01Y-1569060D01*
G01X2572360D01*
G01Y-1558188D01*
G01X2583840D01*
G01Y-1569060D01*
G01X2594712D01*
G01Y-1580540D01*
G01X2583840D01*
G01Y-1591412D01*
G01X2572360D01*
G01Y-1580540D01*
G01X2561488D01*
G01X2558186D01*
G01Y-1583842D01*
G01X2569058D01*
G01Y-1594764D01*
G01X2587142D01*
G01Y-1583842D01*
G01X2598064D01*
G01Y-1565758D01*
G01X2587142D01*
G01Y-1554836D01*
G37*
G36*
G01X1906118Y-2614016D02*
G01X1906118Y-2624938D01*
G01X1895246D01*
G01Y-2639720D01*
G01X1898548D01*
G01Y-2628240D01*
G01X1909420D01*
G01Y-2617368D01*
G01X1920900D01*
G01Y-2628240D01*
G01X1931772D01*
G01Y-2639720D01*
G01X1920900D01*
G01Y-2650592D01*
G01X1909420D01*
G01Y-2639720D01*
G01X1898548D01*
G01X1895246D01*
G01Y-2643022D01*
G01X1906118D01*
G01Y-2653944D01*
G01X1924202D01*
G01Y-2643022D01*
G01X1935124D01*
G01Y-2624938D01*
G01X1924202D01*
G01Y-2614016D01*
G37*
G36*
G01X2538578Y-2057806D02*
G01X2538578Y-2068678D01*
G01X2527706D01*
G01Y-2083460D01*
G01X2531008D01*
G01Y-2071980D01*
G01X2541880D01*
G01Y-2061108D01*
G01X2553360D01*
G01Y-2071980D01*
G01X2564232D01*
G01Y-2083460D01*
G01X2553360D01*
G01Y-2094332D01*
G01X2541880D01*
G01Y-2083460D01*
G01X2531008D01*
G01X2527706D01*
G01Y-2086762D01*
G01X2538578D01*
G01Y-2097684D01*
G01X2556662D01*
G01Y-2086762D01*
G01X2567584D01*
G01Y-2068678D01*
G01X2556662D01*
G01Y-2057806D01*
G37*
G36*
G01X2861158Y-1189076D02*
G01X2861158Y-1199998D01*
G01X2850236D01*
G01Y-1214780D01*
G01X2853588D01*
G01Y-1203300D01*
G01X2864460D01*
G01Y-1192428D01*
G01X2875940D01*
G01Y-1203300D01*
G01X2886812D01*
G01Y-1214780D01*
G01X2875940D01*
G01Y-1225652D01*
G01X2864460D01*
G01Y-1214780D01*
G01X2853588D01*
G01X2850236D01*
G01Y-1218082D01*
G01X2861158D01*
G01Y-1229004D01*
G01X2879242D01*
G01Y-1218082D01*
G01X2890164D01*
G01Y-1199998D01*
G01X2879242D01*
G01Y-1189076D01*
G37*
G36*
G01X2660498Y-1270406D02*
G01X2660498Y-1281278D01*
G01X2649626D01*
G01Y-1296060D01*
G01X2652928D01*
G01Y-1284580D01*
G01X2663800D01*
G01Y-1273708D01*
G01X2675280D01*
G01Y-1284580D01*
G01X2686152D01*
G01Y-1296060D01*
G01X2675280D01*
G01Y-1306932D01*
G01X2663800D01*
G01Y-1296060D01*
G01X2652928D01*
G01X2649626D01*
G01Y-1299362D01*
G01X2660498D01*
G01Y-1310284D01*
G01X2678582D01*
G01Y-1299362D01*
G01X2689504D01*
G01Y-1281278D01*
G01X2678582D01*
G01Y-1270406D01*
G37*
G36*
G01X849478Y-2108606D02*
G01X849478Y-2119478D01*
G01X838606D01*
G01Y-2134260D01*
G01X841908D01*
G01Y-2122780D01*
G01X852780D01*
G01Y-2111908D01*
G01X864260D01*
G01Y-2122780D01*
G01X875132D01*
G01Y-2134260D01*
G01X864260D01*
G01Y-2145132D01*
G01X852780D01*
G01Y-2134260D01*
G01X841908D01*
G01X838606D01*
G01Y-2137562D01*
G01X849478D01*
G01Y-2148484D01*
G01X867562D01*
G01Y-2137562D01*
G01X878484D01*
G01Y-2119478D01*
G01X867562D01*
G01Y-2108606D01*
G37*
G36*
G01X2076298Y-1831746D02*
G01X2076298Y-1842618D01*
G01X2065426D01*
G01Y-1857400D01*
G01X2068728D01*
G01Y-1845920D01*
G01X2079600D01*
G01Y-1835048D01*
G01X2091080D01*
G01Y-1845920D01*
G01X2101952D01*
G01Y-1857400D01*
G01X2091080D01*
G01Y-1868272D01*
G01X2079600D01*
G01Y-1857400D01*
G01X2068728D01*
G01X2065426D01*
G01Y-1860702D01*
G01X2076298D01*
G01Y-1871624D01*
G01X2094382D01*
G01Y-1860702D01*
G01X2105304D01*
G01Y-1842618D01*
G01X2094382D01*
G01Y-1831746D01*
G37*
G36*
G01X879958Y-2487016D02*
G01X879958Y-2497938D01*
G01X869086D01*
G01Y-2512720D01*
G01X872388D01*
G01Y-2501240D01*
G01X883260D01*
G01Y-2490368D01*
G01X894740D01*
G01Y-2501240D01*
G01X905612D01*
G01Y-2512720D01*
G01X894740D01*
G01Y-2523592D01*
G01X883260D01*
G01Y-2512720D01*
G01X872388D01*
G01X869086D01*
G01Y-2516022D01*
G01X879958D01*
G01Y-2526944D01*
G01X898042D01*
G01Y-2516022D01*
G01X908964D01*
G01Y-2497938D01*
G01X898042D01*
G01Y-2487016D01*
G37*
G36*
G01X2124558Y-1897736D02*
G01X2124558Y-1908658D01*
G01X2113686D01*
G01Y-1923440D01*
G01X2116988D01*
G01Y-1911960D01*
G01X2127860D01*
G01Y-1901088D01*
G01X2139340D01*
G01Y-1911960D01*
G01X2150212D01*
G01Y-1923440D01*
G01X2139340D01*
G01Y-1934312D01*
G01X2127860D01*
G01Y-1923440D01*
G01X2116988D01*
G01X2113686D01*
G01Y-1926742D01*
G01X2124558D01*
G01Y-1937664D01*
G01X2142642D01*
G01Y-1926742D01*
G01X2153564D01*
G01Y-1908658D01*
G01X2142642D01*
G01Y-1897736D01*
G37*
G36*
G01X3638398Y-1854606D02*
G01X3638398Y-1865478D01*
G01X3627526D01*
G01Y-1880260D01*
G01X3630828D01*
G01Y-1868780D01*
G01X3641700D01*
G01Y-1857908D01*
G01X3653180D01*
G01Y-1868780D01*
G01X3664052D01*
G01Y-1880260D01*
G01X3653180D01*
G01Y-1891132D01*
G01X3641700D01*
G01Y-1880260D01*
G01X3630828D01*
G01X3627526D01*
G01Y-1883562D01*
G01X3638398D01*
G01Y-1894484D01*
G01X3656482D01*
G01Y-1883562D01*
G01X3667404D01*
G01Y-1865478D01*
G01X3656482D01*
G01Y-1854606D01*
G37*
G36*
G01X3318358Y-1831746D02*
G01X3318358Y-1842618D01*
G01X3307436D01*
G01Y-1857400D01*
G01X3310788D01*
G01Y-1845920D01*
G01X3321660D01*
G01Y-1835048D01*
G01X3333140D01*
G01Y-1845920D01*
G01X3344012D01*
G01Y-1857400D01*
G01X3333140D01*
G01Y-1868272D01*
G01X3321660D01*
G01Y-1857400D01*
G01X3310788D01*
G01X3307436D01*
G01Y-1860702D01*
G01X3318358D01*
G01Y-1871624D01*
G01X3336442D01*
G01Y-1860702D01*
G01X3347364D01*
G01Y-1842618D01*
G01X3336442D01*
G01Y-1831746D01*
G37*
G36*
G01X3625698Y-1946046D02*
G01X3625698Y-1956918D01*
G01X3614826D01*
G01Y-1971700D01*
G01X3618128D01*
G01Y-1960220D01*
G01X3629000D01*
G01Y-1949348D01*
G01X3640480D01*
G01Y-1960220D01*
G01X3651352D01*
G01Y-1971700D01*
G01X3640480D01*
G01Y-1982572D01*
G01X3629000D01*
G01Y-1971700D01*
G01X3618128D01*
G01X3614826D01*
G01Y-1975002D01*
G01X3625698D01*
G01Y-1985924D01*
G01X3643782D01*
G01Y-1975002D01*
G01X3654704D01*
G01Y-1956918D01*
G01X3643782D01*
G01Y-1946046D01*
G37*
G36*
G01X3300578Y-1940916D02*
G01X3300578Y-1951838D01*
G01X3289656D01*
G01Y-1966620D01*
G01X3293008D01*
G01Y-1955140D01*
G01X3303880D01*
G01Y-1944268D01*
G01X3315360D01*
G01Y-1955140D01*
G01X3326232D01*
G01Y-1966620D01*
G01X3315360D01*
G01Y-1977492D01*
G01X3303880D01*
G01Y-1966620D01*
G01X3293008D01*
G01X3289656D01*
G01Y-1969922D01*
G01X3300578D01*
G01Y-1980844D01*
G01X3318662D01*
G01Y-1969922D01*
G01X3329584D01*
G01Y-1951838D01*
G01X3318662D01*
G01Y-1940916D01*
G37*
G36*
G01X3770478Y-1900276D02*
G01X3770478Y-1911198D01*
G01X3759606D01*
G01Y-1925980D01*
G01X3762908D01*
G01Y-1914500D01*
G01X3773780D01*
G01Y-1903628D01*
G01X3785260D01*
G01Y-1914500D01*
G01X3796132D01*
G01Y-1925980D01*
G01X3785260D01*
G01Y-1936852D01*
G01X3773780D01*
G01Y-1925980D01*
G01X3762908D01*
G01X3759606D01*
G01Y-1929282D01*
G01X3770478D01*
G01Y-1940204D01*
G01X3788562D01*
G01Y-1929282D01*
G01X3799484D01*
G01Y-1911198D01*
G01X3788562D01*
G01Y-1900276D01*
G37*
G36*
G01X2701138Y-2078076D02*
G01X2701138Y-2088998D01*
G01X2690216D01*
G01Y-2103780D01*
G01X2693568D01*
G01Y-2092300D01*
G01X2704440D01*
G01Y-2081428D01*
G01X2715920D01*
G01Y-2092300D01*
G01X2726792D01*
G01Y-2103780D01*
G01X2715920D01*
G01Y-2114652D01*
G01X2704440D01*
G01Y-2103780D01*
G01X2693568D01*
G01X2690216D01*
G01Y-2107082D01*
G01X2701138D01*
G01Y-2118004D01*
G01X2719222D01*
G01Y-2107082D01*
G01X2730144D01*
G01Y-2088998D01*
G01X2719222D01*
G01Y-2078076D01*
G37*
G36*
G01X3818738Y-2065376D02*
G01X3818738Y-2076298D01*
G01X3807866D01*
G01Y-2091080D01*
G01X3811168D01*
G01Y-2079600D01*
G01X3822040D01*
G01Y-2068728D01*
G01X3833520D01*
G01Y-2079600D01*
G01X3844392D01*
G01Y-2091080D01*
G01X3833520D01*
G01Y-2101952D01*
G01X3822040D01*
G01Y-2091080D01*
G01X3811168D01*
G01X3807866D01*
G01Y-2094382D01*
G01X3818738D01*
G01Y-2105304D01*
G01X3836822D01*
G01Y-2094382D01*
G01X3847744D01*
G01Y-2076298D01*
G01X3836822D01*
G01Y-2065376D01*
G37*
G36*
G01X3320898Y-2139036D02*
G01X3320898Y-2149958D01*
G01X3310026D01*
G01Y-2164740D01*
G01X3313328D01*
G01Y-2153260D01*
G01X3324200D01*
G01Y-2142388D01*
G01X3335680D01*
G01Y-2153260D01*
G01X3346552D01*
G01Y-2164740D01*
G01X3335680D01*
G01Y-2175612D01*
G01X3324200D01*
G01Y-2164740D01*
G01X3313328D01*
G01X3310026D01*
G01Y-2168042D01*
G01X3320898D01*
G01Y-2178964D01*
G01X3338982D01*
G01Y-2168042D01*
G01X3349904D01*
G01Y-2149958D01*
G01X3338982D01*
G01Y-2139036D01*
G37*
G36*
G01X2711298Y-1008736D02*
G01X2711298Y-1019658D01*
G01X2700426D01*
G01Y-1034440D01*
G01X2703728D01*
G01Y-1022960D01*
G01X2714600D01*
G01Y-1012088D01*
G01X2726080D01*
G01Y-1022960D01*
G01X2736952D01*
G01Y-1034440D01*
G01X2726080D01*
G01Y-1045312D01*
G01X2714600D01*
G01Y-1034440D01*
G01X2703728D01*
G01X2700426D01*
G01Y-1037742D01*
G01X2711298D01*
G01Y-1048664D01*
G01X2729382D01*
G01Y-1037742D01*
G01X2740304D01*
G01Y-1019658D01*
G01X2729382D01*
G01Y-1008736D01*
G37*
G36*
G01X1390498Y-714146D02*
G01X1390498Y-725018D01*
G01X1379626D01*
G01Y-739800D01*
G01X1382928D01*
G01Y-728320D01*
G01X1393800D01*
G01Y-717448D01*
G01X1405280D01*
G01Y-728320D01*
G01X1416152D01*
G01Y-739800D01*
G01X1405280D01*
G01Y-750672D01*
G01X1393800D01*
G01Y-739800D01*
G01X1382928D01*
G01X1379626D01*
G01Y-743102D01*
G01X1390498D01*
G01Y-754024D01*
G01X1408582D01*
G01Y-743102D01*
G01X1419504D01*
G01Y-725018D01*
G01X1408582D01*
G01Y-714146D01*
G37*
G36*
G01X638658Y-2553106D02*
G01X638658Y-2563978D01*
G01X627786D01*
G01Y-2578760D01*
G01X631088D01*
G01Y-2567280D01*
G01X641960D01*
G01Y-2556408D01*
G01X653440D01*
G01Y-2567280D01*
G01X664312D01*
G01Y-2578760D01*
G01X653440D01*
G01Y-2589632D01*
G01X641960D01*
G01Y-2578760D01*
G01X631088D01*
G01X627786D01*
G01Y-2582062D01*
G01X638658D01*
G01Y-2592984D01*
G01X656742D01*
G01Y-2582062D01*
G01X667614D01*
G01Y-2563978D01*
G01X656742D01*
G01Y-2553106D01*
G37*
G36*
G01X638658Y-2418436D02*
G01X638658Y-2429358D01*
G01X627786D01*
G01Y-2444140D01*
G01X631088D01*
G01Y-2432660D01*
G01X641960D01*
G01Y-2421788D01*
G01X653440D01*
G01Y-2432660D01*
G01X664312D01*
G01Y-2444140D01*
G01X653440D01*
G01Y-2455012D01*
G01X641960D01*
G01Y-2444140D01*
G01X631088D01*
G01X627786D01*
G01Y-2447442D01*
G01X638658D01*
G01Y-2458364D01*
G01X656742D01*
G01Y-2447442D01*
G01X667614D01*
G01Y-2429358D01*
G01X656742D01*
G01Y-2418436D01*
G37*
G36*
G01X1189838Y-3261716D02*
G01X1189838Y-3272638D01*
G01X1178966D01*
G01Y-3287420D01*
G01X1182268D01*
G01Y-3275940D01*
G01X1193140D01*
G01Y-3265068D01*
G01X1204620D01*
G01Y-3275940D01*
G01X1215492D01*
G01Y-3287420D01*
G01X1204620D01*
G01Y-3298292D01*
G01X1193140D01*
G01Y-3287420D01*
G01X1182268D01*
G01X1178966D01*
G01Y-3290722D01*
G01X1189838D01*
G01Y-3301594D01*
G01X1207922D01*
G01Y-3290722D01*
G01X1218844D01*
G01Y-3272638D01*
G01X1207922D01*
G01Y-3261716D01*
G37*
G36*
G01X892658Y-1651406D02*
G01X892658Y-1662278D01*
G01X881786D01*
G01Y-1677060D01*
G01X885088D01*
G01Y-1665580D01*
G01X895960D01*
G01Y-1654708D01*
G01X907440D01*
G01Y-1665580D01*
G01X918312D01*
G01Y-1677060D01*
G01X907440D01*
G01Y-1687932D01*
G01X895960D01*
G01Y-1677060D01*
G01X885088D01*
G01X881786D01*
G01Y-1680362D01*
G01X892658D01*
G01Y-1691284D01*
G01X910742D01*
G01Y-1680362D01*
G01X921664D01*
G01Y-1662278D01*
G01X910742D01*
G01Y-1651406D01*
G37*
G36*
G01X1535278Y-1524406D02*
G01X1535278Y-1535278D01*
G01X1524406D01*
G01Y-1550060D01*
G01X1527708D01*
G01Y-1538580D01*
G01X1538580D01*
G01Y-1527708D01*
G01X1550060D01*
G01Y-1538580D01*
G01X1560932D01*
G01Y-1550060D01*
G01X1550060D01*
G01Y-1560932D01*
G01X1538580D01*
G01Y-1550060D01*
G01X1527708D01*
G01X1524406D01*
G01Y-1553362D01*
G01X1535278D01*
G01Y-1564284D01*
G01X1553362D01*
G01Y-1553362D01*
G01X1564284D01*
G01Y-1535278D01*
G01X1553362D01*
G01Y-1524406D01*
G37*
G36*
G01X1098398Y-592176D02*
G01X1098398Y-603098D01*
G01X1087526D01*
G01Y-617880D01*
G01X1090828D01*
G01Y-606400D01*
G01X1101700D01*
G01Y-595528D01*
G01X1113180D01*
G01Y-606400D01*
G01X1124052D01*
G01Y-617880D01*
G01X1113180D01*
G01Y-628752D01*
G01X1101700D01*
G01Y-617880D01*
G01X1090828D01*
G01X1087526D01*
G01Y-621182D01*
G01X1098398D01*
G01Y-632104D01*
G01X1116482D01*
G01Y-621182D01*
G01X1127404D01*
G01Y-603098D01*
G01X1116482D01*
G01Y-592176D01*
G37*
G36*
G01X1621638Y-1773276D02*
G01X1621638Y-1784198D01*
G01X1610766D01*
G01Y-1798980D01*
G01X1614068D01*
G01Y-1787500D01*
G01X1624940D01*
G01Y-1776628D01*
G01X1636420D01*
G01Y-1787500D01*
G01X1647292D01*
G01Y-1798980D01*
G01X1636420D01*
G01Y-1809852D01*
G01X1624940D01*
G01Y-1798980D01*
G01X1614068D01*
G01X1610766D01*
G01Y-1802282D01*
G01X1621638D01*
G01Y-1813204D01*
G01X1639722D01*
G01Y-1802282D01*
G01X1650644D01*
G01Y-1784198D01*
G01X1639722D01*
G01Y-1773276D01*
G37*
G36*
G01X2401418Y-1694536D02*
G01X2401418Y-1705458D01*
G01X2390546D01*
G01Y-1720240D01*
G01X2393848D01*
G01Y-1708760D01*
G01X2404720D01*
G01Y-1697888D01*
G01X2416200D01*
G01Y-1708760D01*
G01X2427072D01*
G01Y-1720240D01*
G01X2416200D01*
G01Y-1731112D01*
G01X2404720D01*
G01Y-1720240D01*
G01X2393848D01*
G01X2390546D01*
G01Y-1723542D01*
G01X2401418D01*
G01Y-1734464D01*
G01X2419502D01*
G01Y-1723542D01*
G01X2430424D01*
G01Y-1705458D01*
G01X2419502D01*
G01Y-1694536D01*
G37*
G36*
G01X2330298Y-1432916D02*
G01X2330298Y-1443838D01*
G01X2319426D01*
G01Y-1458620D01*
G01X2322728D01*
G01Y-1447140D01*
G01X2333600D01*
G01Y-1436268D01*
G01X2345080D01*
G01Y-1447140D01*
G01X2355952D01*
G01Y-1458620D01*
G01X2345080D01*
G01Y-1469492D01*
G01X2333600D01*
G01Y-1458620D01*
G01X2322728D01*
G01X2319426D01*
G01Y-1461922D01*
G01X2330298D01*
G01Y-1472844D01*
G01X2348382D01*
G01Y-1461922D01*
G01X2359304D01*
G01Y-1443838D01*
G01X2348382D01*
G01Y-1432916D01*
G37*
G36*
G01X3102458Y-1526946D02*
G01X3102458Y-1537818D01*
G01X3091536D01*
G01Y-1552600D01*
G01X3094888D01*
G01Y-1541120D01*
G01X3105760D01*
G01Y-1530248D01*
G01X3117240D01*
G01Y-1541120D01*
G01X3128112D01*
G01Y-1552600D01*
G01X3117240D01*
G01Y-1563472D01*
G01X3105760D01*
G01Y-1552600D01*
G01X3094888D01*
G01X3091536D01*
G01Y-1555902D01*
G01X3102458D01*
G01Y-1566824D01*
G01X3120542D01*
G01Y-1555902D01*
G01X3131464D01*
G01Y-1537818D01*
G01X3120542D01*
G01Y-1526946D01*
G37*
G36*
G01X4682338Y-3088996D02*
G01X4682338Y-3099918D01*
G01X4671416D01*
G01Y-3114700D01*
G01X4674768D01*
G01Y-3103220D01*
G01X4685640D01*
G01Y-3092348D01*
G01X4697120D01*
G01Y-3103220D01*
G01X4707992D01*
G01Y-3114700D01*
G01X4697120D01*
G01Y-3125572D01*
G01X4685640D01*
G01Y-3114700D01*
G01X4674768D01*
G01X4671416D01*
G01Y-3118002D01*
G01X4682338D01*
G01Y-3128874D01*
G01X4700422D01*
G01Y-3118002D01*
G01X4711294D01*
G01Y-3099918D01*
G01X4700422D01*
G01Y-3088996D01*
G37*
G36*
G01X4767986Y-3088996D02*
G01X4767986Y-3099918D01*
G01X4757115D01*
G01Y-3114700D01*
G01X4760468D01*
G01Y-3103220D01*
G01X4771339D01*
G01Y-3092348D01*
G01X4782820D01*
G01Y-3103220D01*
G01X4793691D01*
G01Y-3114700D01*
G01X4782820D01*
G01Y-3125572D01*
G01X4771339D01*
G01Y-3114700D01*
G01X4760468D01*
G01X4757115D01*
G01Y-3118002D01*
G01X4767986D01*
G01Y-3128874D01*
G01X4786122D01*
G01Y-3118002D01*
G01X4796993D01*
G01Y-3099918D01*
G01X4786122D01*
G01Y-3088996D01*
G37*
G36*
G01X4418178Y-1890065D02*
G01X4418178Y-1900936D01*
G01X4407256D01*
G01Y-1915719D01*
G01X4410608D01*
G01Y-1904238D01*
G01X4421480D01*
G01Y-1893367D01*
G01X4432960D01*
G01Y-1904238D01*
G01X4443832D01*
G01Y-1915719D01*
G01X4432960D01*
G01Y-1926641D01*
G01X4421480D01*
G01Y-1915719D01*
G01X4410608D01*
G01X4407256D01*
G01Y-1919072D01*
G01X4418178D01*
G01Y-1929943D01*
G01X4436262D01*
G01Y-1919072D01*
G01X4447134D01*
G01Y-1900936D01*
G01X4436262D01*
G01Y-1890065D01*
G37*
G36*
G01X4527398Y-1890065D02*
G01X4527398Y-1900936D01*
G01X4516476D01*
G01Y-1915719D01*
G01X4519828D01*
G01Y-1904238D01*
G01X4530700D01*
G01Y-1893367D01*
G01X4542180D01*
G01Y-1904238D01*
G01X4553052D01*
G01Y-1915719D01*
G01X4542180D01*
G01Y-1926641D01*
G01X4530700D01*
G01Y-1915719D01*
G01X4519828D01*
G01X4516476D01*
G01Y-1919072D01*
G01X4527398D01*
G01Y-1929943D01*
G01X4545482D01*
G01Y-1919072D01*
G01X4556354D01*
G01Y-1900936D01*
G01X4545482D01*
G01Y-1890065D01*
G37*
G36*
G01X4631538Y-1890065D02*
G01X4631538Y-1900936D01*
G01X4620616D01*
G01Y-1915719D01*
G01X4623968D01*
G01Y-1904238D01*
G01X4634840D01*
G01Y-1893367D01*
G01X4646320D01*
G01Y-1904238D01*
G01X4657192D01*
G01Y-1915719D01*
G01X4646320D01*
G01Y-1926641D01*
G01X4634840D01*
G01Y-1915719D01*
G01X4623968D01*
G01X4620616D01*
G01Y-1919072D01*
G01X4631538D01*
G01Y-1929943D01*
G01X4649622D01*
G01Y-1919072D01*
G01X4660494D01*
G01Y-1900936D01*
G01X4649622D01*
G01Y-1890065D01*
G37*
G36*
G01X5048098Y-3348076D02*
G01X5048098Y-3358998D01*
G01X5037176D01*
G01Y-3373780D01*
G01X5040528D01*
G01Y-3362300D01*
G01X5051400D01*
G01Y-3351428D01*
G01X5062880D01*
G01Y-3362300D01*
G01X5073752D01*
G01Y-3373780D01*
G01X5062880D01*
G01Y-3384652D01*
G01X5051400D01*
G01Y-3373780D01*
G01X5040528D01*
G01X5037176D01*
G01Y-3377082D01*
G01X5048098D01*
G01Y-3387954D01*
G01X5066182D01*
G01Y-3377082D01*
G01X5077054D01*
G01Y-3358998D01*
G01X5066182D01*
G01Y-3348076D01*
G37*
G36*
G01X4890618Y-1595476D02*
G01X4890618Y-1606398D01*
G01X4879696D01*
G01Y-1621180D01*
G01X4883048D01*
G01Y-1609700D01*
G01X4893920D01*
G01Y-1598828D01*
G01X4905400D01*
G01Y-1609700D01*
G01X4916272D01*
G01Y-1621180D01*
G01X4905400D01*
G01Y-1632052D01*
G01X4893920D01*
G01Y-1621180D01*
G01X4883048D01*
G01X4879696D01*
G01Y-1624482D01*
G01X4890618D01*
G01Y-1635404D01*
G01X4908702D01*
G01Y-1624482D01*
G01X4919574D01*
G01Y-1606398D01*
G01X4908702D01*
G01Y-1595476D01*
G37*
G36*
G01X4730598Y-1366876D02*
G01X4730598Y-1377798D01*
G01X4719676D01*
G01Y-1392580D01*
G01X4723028D01*
G01Y-1381100D01*
G01X4733900D01*
G01Y-1370228D01*
G01X4745380D01*
G01Y-1381100D01*
G01X4756252D01*
G01Y-1392580D01*
G01X4745380D01*
G01Y-1403452D01*
G01X4733900D01*
G01Y-1392580D01*
G01X4723028D01*
G01X4719676D01*
G01Y-1395882D01*
G01X4730598D01*
G01Y-1406804D01*
G01X4748682D01*
G01Y-1395882D01*
G01X4759554D01*
G01Y-1377798D01*
G01X4748682D01*
G01Y-1366876D01*
G37*
G36*
G01X4362298Y-709016D02*
G01X4362298Y-719938D01*
G01X4351376D01*
G01Y-734720D01*
G01X4354728D01*
G01Y-723240D01*
G01X4365600D01*
G01Y-712368D01*
G01X4377080D01*
G01Y-723240D01*
G01X4387952D01*
G01Y-734720D01*
G01X4377080D01*
G01Y-745592D01*
G01X4365600D01*
G01Y-734720D01*
G01X4354728D01*
G01X4351376D01*
G01Y-738022D01*
G01X4362298D01*
G01Y-748944D01*
G01X4380382D01*
G01Y-738022D01*
G01X4391254D01*
G01Y-719938D01*
G01X4380382D01*
G01Y-709016D01*
G37*
G36*
G01X3612998Y-1387246D02*
G01X3612998Y-1398118D01*
G01X3602126D01*
G01Y-1412900D01*
G01X3605428D01*
G01Y-1401420D01*
G01X3616300D01*
G01Y-1390548D01*
G01X3627780D01*
G01Y-1401420D01*
G01X3638652D01*
G01Y-1412900D01*
G01X3627780D01*
G01Y-1423772D01*
G01X3616300D01*
G01Y-1412900D01*
G01X3605428D01*
G01X3602126D01*
G01Y-1416202D01*
G01X3612998D01*
G01Y-1427124D01*
G01X3631082D01*
G01Y-1416202D01*
G01X3642004D01*
G01Y-1398118D01*
G01X3631082D01*
G01Y-1387246D01*
G37*
G36*
G01X3564738Y-1118006D02*
G01X3564738Y-1128878D01*
G01X3553866D01*
G01Y-1143660D01*
G01X3557168D01*
G01Y-1132180D01*
G01X3568040D01*
G01Y-1121308D01*
G01X3579520D01*
G01Y-1132180D01*
G01X3590392D01*
G01Y-1143660D01*
G01X3579520D01*
G01Y-1154532D01*
G01X3568040D01*
G01Y-1143660D01*
G01X3557168D01*
G01X3553866D01*
G01Y-1146962D01*
G01X3564738D01*
G01Y-1157884D01*
G01X3582822D01*
G01Y-1146962D01*
G01X3593744D01*
G01Y-1128878D01*
G01X3582822D01*
G01Y-1118006D01*
G37*
G36*
G01X4515561Y-1387246D02*
G01X4515561Y-1398118D01*
G01X4504690D01*
G01Y-1412900D01*
G01X4507992D01*
G01Y-1401420D01*
G01X4518914D01*
G01Y-1390548D01*
G01X4530395D01*
G01Y-1401420D01*
G01X4541266D01*
G01Y-1412900D01*
G01X4530395D01*
G01Y-1423772D01*
G01X4518914D01*
G01Y-1412900D01*
G01X4507992D01*
G01X4504690D01*
G01Y-1416202D01*
G01X4515561D01*
G01Y-1427124D01*
G01X4533697D01*
G01Y-1416202D01*
G01X4544568D01*
G01Y-1398118D01*
G01X4533697D01*
G01Y-1387246D01*
G37*
G36*
G01X3561944Y-904189D02*
G01X3561944Y-915060D01*
G01X3551072D01*
G01Y-929843D01*
G01X3554374D01*
G01Y-918413D01*
G01X3565246D01*
G01Y-907491D01*
G01X3576726D01*
G01Y-918413D01*
G01X3587598D01*
G01Y-929894D01*
G01X3576726D01*
G01Y-940765D01*
G01X3565246D01*
G01Y-929843D01*
G01X3554374D01*
G01X3551072D01*
G01Y-933196D01*
G01X3561944D01*
G01Y-944067D01*
G01X3580079D01*
G01Y-933196D01*
G01X3590950D01*
G01Y-915060D01*
G01X3580079D01*
G01Y-904189D01*
G37*
G36*
G01X2667864Y-1118921D02*
G01X2667864Y-1129792D01*
G01X2656992D01*
G01Y-1144626D01*
G01X2660294D01*
G01Y-1133145D01*
G01X2671166D01*
G01Y-1122274D01*
G01X2682646D01*
G01Y-1133145D01*
G01X2693518D01*
G01Y-1144626D01*
G01X2682646D01*
G01Y-1155497D01*
G01X2671166D01*
G01Y-1144626D01*
G01X2660294D01*
G01X2656992D01*
G01Y-1147928D01*
G01X2667864D01*
G01Y-1158799D01*
G01X2685999D01*
G01Y-1147928D01*
G01X2696870D01*
G01Y-1129792D01*
G01X2685999D01*
G01Y-1118921D01*
G37*
G36*
G01X1885798Y-2268576D02*
G01X1885798Y-2279498D01*
G01X1874926D01*
G01Y-2294280D01*
G01X1878228D01*
G01Y-2282800D01*
G01X1889100D01*
G01Y-2271928D01*
G01X1900580D01*
G01Y-2282800D01*
G01X1911452D01*
G01Y-2294280D01*
G01X1900580D01*
G01Y-2305152D01*
G01X1889100D01*
G01Y-2294280D01*
G01X1878228D01*
G01X1874926D01*
G01Y-2297582D01*
G01X1885798D01*
G01Y-2308504D01*
G01X1903882D01*
G01Y-2297582D01*
G01X1914804D01*
G01Y-2279498D01*
G01X1903882D01*
G01Y-2268576D01*
G37*
G36*
G01X2802738Y-2139036D02*
G01X2802738Y-2149958D01*
G01X2791816D01*
G01Y-2164740D01*
G01X2795168D01*
G01Y-2153260D01*
G01X2806040D01*
G01Y-2142388D01*
G01X2817520D01*
G01Y-2153260D01*
G01X2828392D01*
G01Y-2164740D01*
G01X2817520D01*
G01Y-2175612D01*
G01X2806040D01*
G01Y-2164740D01*
G01X2795168D01*
G01X2791816D01*
G01Y-2168042D01*
G01X2802738D01*
G01Y-2178964D01*
G01X2820822D01*
G01Y-2168042D01*
G01X2831744D01*
G01Y-2149958D01*
G01X2820822D01*
G01Y-2139036D01*
G37*
G36*
G01X3084678Y-2248306D02*
G01X3084678Y-2259178D01*
G01X3073756D01*
G01Y-2273960D01*
G01X3077108D01*
G01Y-2262480D01*
G01X3087980D01*
G01Y-2251608D01*
G01X3099460D01*
G01Y-2262480D01*
G01X3110332D01*
G01Y-2273960D01*
G01X3099460D01*
G01Y-2284832D01*
G01X3087980D01*
G01Y-2273960D01*
G01X3077108D01*
G01X3073756D01*
G01Y-2277262D01*
G01X3084678D01*
G01Y-2288184D01*
G01X3102762D01*
G01Y-2277262D01*
G01X3113684D01*
G01Y-2259178D01*
G01X3102762D01*
G01Y-2248306D01*
G37*
G36*
G01X2934818Y-1661516D02*
G01X2934818Y-1672438D01*
G01X2923896D01*
G01Y-1687220D01*
G01X2927248D01*
G01Y-1675740D01*
G01X2938120D01*
G01Y-1664868D01*
G01X2949600D01*
G01Y-1675740D01*
G01X2960472D01*
G01Y-1687220D01*
G01X2949600D01*
G01Y-1698092D01*
G01X2938120D01*
G01Y-1687220D01*
G01X2927248D01*
G01X2923896D01*
G01Y-1690522D01*
G01X2934818D01*
G01Y-1701444D01*
G01X2952902D01*
G01Y-1690522D01*
G01X2963824D01*
G01Y-1672438D01*
G01X2952902D01*
G01Y-1661516D01*
G37*
G36*
G01X1436218Y-881736D02*
G01X1436218Y-892658D01*
G01X1425346D01*
G01Y-907440D01*
G01X1428648D01*
G01Y-895960D01*
G01X1439520D01*
G01Y-885088D01*
G01X1451000D01*
G01Y-895960D01*
G01X1461872D01*
G01Y-907440D01*
G01X1451000D01*
G01Y-918312D01*
G01X1439520D01*
G01Y-907440D01*
G01X1428648D01*
G01X1425346D01*
G01Y-910742D01*
G01X1436218D01*
G01Y-921664D01*
G01X1454302D01*
G01Y-910742D01*
G01X1465224D01*
G01Y-892658D01*
G01X1454302D01*
G01Y-881736D01*
G37*
G36*
G01X1205078Y-891946D02*
G01X1205078Y-902818D01*
G01X1194206D01*
G01Y-917600D01*
G01X1197508D01*
G01Y-906120D01*
G01X1208380D01*
G01Y-895248D01*
G01X1219860D01*
G01Y-906120D01*
G01X1230732D01*
G01Y-917600D01*
G01X1219860D01*
G01Y-928472D01*
G01X1208380D01*
G01Y-917600D01*
G01X1197508D01*
G01X1194206D01*
G01Y-920902D01*
G01X1205078D01*
G01Y-931824D01*
G01X1223162D01*
G01Y-920902D01*
G01X1234084D01*
G01Y-902818D01*
G01X1223162D01*
G01Y-891946D01*
G37*
G36*
G01X1563218Y-1338936D02*
G01X1563218Y-1349858D01*
G01X1552346D01*
G01Y-1364640D01*
G01X1555648D01*
G01Y-1353160D01*
G01X1566520D01*
G01Y-1342288D01*
G01X1578000D01*
G01Y-1353160D01*
G01X1588872D01*
G01Y-1364640D01*
G01X1578000D01*
G01Y-1375512D01*
G01X1566520D01*
G01Y-1364640D01*
G01X1555648D01*
G01X1552346D01*
G01Y-1367942D01*
G01X1563218D01*
G01Y-1378864D01*
G01X1581302D01*
G01Y-1367942D01*
G01X1592224D01*
G01Y-1349858D01*
G01X1581302D01*
G01Y-1338936D01*
G37*
G36*
G01X1578458Y-902106D02*
G01X1578458Y-912978D01*
G01X1567586D01*
G01Y-927760D01*
G01X1570888D01*
G01Y-916280D01*
G01X1581760D01*
G01Y-905408D01*
G01X1593240D01*
G01Y-916280D01*
G01X1604112D01*
G01Y-927760D01*
G01X1593240D01*
G01Y-938632D01*
G01X1581760D01*
G01Y-927760D01*
G01X1570888D01*
G01X1567586D01*
G01Y-931062D01*
G01X1578458D01*
G01Y-941984D01*
G01X1596542D01*
G01Y-931062D01*
G01X1607464D01*
G01Y-912978D01*
G01X1596542D01*
G01Y-902106D01*
G37*
G36*
G01X1735938Y-782676D02*
G01X1735938Y-793598D01*
G01X1725066D01*
G01Y-808380D01*
G01X1728368D01*
G01Y-796900D01*
G01X1739240D01*
G01Y-786028D01*
G01X1750720D01*
G01Y-796900D01*
G01X1761592D01*
G01Y-808380D01*
G01X1750720D01*
G01Y-819252D01*
G01X1739240D01*
G01Y-808380D01*
G01X1728368D01*
G01X1725066D01*
G01Y-811682D01*
G01X1735938D01*
G01Y-822604D01*
G01X1754022D01*
G01Y-811682D01*
G01X1764944D01*
G01Y-793598D01*
G01X1754022D01*
G01Y-782676D01*
G37*
G36*
G01X2944978Y-970636D02*
G01X2944978Y-981558D01*
G01X2934056D01*
G01Y-996340D01*
G01X2937408D01*
G01Y-984860D01*
G01X2948280D01*
G01Y-973988D01*
G01X2959760D01*
G01Y-984860D01*
G01X2970632D01*
G01Y-996340D01*
G01X2959760D01*
G01Y-1007212D01*
G01X2948280D01*
G01Y-996340D01*
G01X2937408D01*
G01X2934056D01*
G01Y-999642D01*
G01X2944978D01*
G01Y-1010564D01*
G01X2963062D01*
G01Y-999642D01*
G01X2973984D01*
G01Y-981558D01*
G01X2963062D01*
G01Y-970636D01*
G37*
G36*
G01X2190598Y-627786D02*
G01X2190598Y-638658D01*
G01X2179726D01*
G01Y-653440D01*
G01X2183028D01*
G01Y-641960D01*
G01X2193900D01*
G01Y-631088D01*
G01X2205380D01*
G01Y-641960D01*
G01X2216252D01*
G01Y-653440D01*
G01X2205380D01*
G01Y-664312D01*
G01X2193900D01*
G01Y-653440D01*
G01X2183028D01*
G01X2179726D01*
G01Y-656742D01*
G01X2190598D01*
G01Y-667664D01*
G01X2208682D01*
G01Y-656742D01*
G01X2219604D01*
G01Y-638658D01*
G01X2208682D01*
G01Y-627786D01*
G37*
G36*
G01X3016098Y-917346D02*
G01X3016098Y-928218D01*
G01X3005226D01*
G01Y-943000D01*
G01X3008528D01*
G01Y-931520D01*
G01X3019400D01*
G01Y-920648D01*
G01X3030880D01*
G01Y-931520D01*
G01X3041752D01*
G01Y-943000D01*
G01X3030880D01*
G01Y-953872D01*
G01X3019400D01*
G01Y-943000D01*
G01X3008528D01*
G01X3005226D01*
G01Y-946302D01*
G01X3016098D01*
G01Y-957224D01*
G01X3034182D01*
G01Y-946302D01*
G01X3045104D01*
G01Y-928218D01*
G01X3034182D01*
G01Y-917346D01*
G37*
G36*
G01X2688438Y-625246D02*
G01X2688438Y-636118D01*
G01X2677516D01*
G01Y-650900D01*
G01X2680868D01*
G01Y-639420D01*
G01X2691740D01*
G01Y-628548D01*
G01X2703220D01*
G01Y-639420D01*
G01X2714092D01*
G01Y-650900D01*
G01X2703220D01*
G01Y-661772D01*
G01X2691740D01*
G01Y-650900D01*
G01X2680868D01*
G01X2677516D01*
G01Y-654202D01*
G01X2688438D01*
G01Y-665124D01*
G01X2706522D01*
G01Y-654202D01*
G01X2717444D01*
G01Y-636118D01*
G01X2706522D01*
G01Y-625246D01*
G37*
G36*
G01X4380078Y-3424276D02*
G01X4380078Y-3435198D01*
G01X4369156D01*
G01Y-3449980D01*
G01X4372508D01*
G01Y-3438500D01*
G01X4383380D01*
G01Y-3427628D01*
G01X4394860D01*
G01Y-3438500D01*
G01X4405732D01*
G01Y-3449980D01*
G01X4394860D01*
G01Y-3460852D01*
G01X4383380D01*
G01Y-3449980D01*
G01X4372508D01*
G01X4369156D01*
G01Y-3453282D01*
G01X4380078D01*
G01Y-3464154D01*
G01X4398162D01*
G01Y-3453282D01*
G01X4409034D01*
G01Y-3435198D01*
G01X4398162D01*
G01Y-3424276D01*
G37*
G36*
G01X727558Y-3889096D02*
G01X727558Y-3900018D01*
G01X716686D01*
G01Y-3914800D01*
G01X719988D01*
G01Y-3903320D01*
G01X730860D01*
G01Y-3892448D01*
G01X742340D01*
G01Y-3903320D01*
G01X753212D01*
G01Y-3914800D01*
G01X742340D01*
G01Y-3925672D01*
G01X730860D01*
G01Y-3914800D01*
G01X719988D01*
G01X716686D01*
G01Y-3918102D01*
G01X727558D01*
G01Y-3928974D01*
G01X745642D01*
G01Y-3918102D01*
G01X756564D01*
G01Y-3900018D01*
G01X745642D01*
G01Y-3889096D01*
G37*
G36*
G01X153518Y-3393796D02*
G01X153518Y-3404718D01*
G01X142646D01*
G01Y-3419500D01*
G01X145948D01*
G01Y-3408020D01*
G01X156820D01*
G01Y-3397148D01*
G01X168300D01*
G01Y-3408020D01*
G01X179172D01*
G01Y-3419500D01*
G01X168300D01*
G01Y-3430372D01*
G01X156820D01*
G01Y-3419500D01*
G01X145948D01*
G01X142646D01*
G01Y-3422802D01*
G01X153518D01*
G01Y-3433674D01*
G01X171602D01*
G01Y-3422802D01*
G01X182524D01*
G01Y-3404718D01*
G01X171602D01*
G01Y-3393796D01*
G37*
G36*
G01X788518Y-259486D02*
G01X788518Y-270358D01*
G01X777646D01*
G01Y-285140D01*
G01X780948D01*
G01Y-273660D01*
G01X791820D01*
G01Y-262788D01*
G01X803300D01*
G01Y-273660D01*
G01X814172D01*
G01Y-285140D01*
G01X803300D01*
G01Y-296012D01*
G01X791820D01*
G01Y-285140D01*
G01X780948D01*
G01X777646D01*
G01Y-288442D01*
G01X788518D01*
G01Y-299364D01*
G01X806602D01*
G01Y-288442D01*
G01X817524D01*
G01Y-270358D01*
G01X806602D01*
G01Y-259486D01*
G37*
G36*
G01X135738Y-663346D02*
G01X135738Y-674218D01*
G01X124866D01*
G01Y-689000D01*
G01X128168D01*
G01Y-677520D01*
G01X139040D01*
G01Y-666648D01*
G01X150520D01*
G01Y-677520D01*
G01X161392D01*
G01Y-689000D01*
G01X150520D01*
G01Y-699872D01*
G01X139040D01*
G01Y-689000D01*
G01X128168D01*
G01X124866D01*
G01Y-692302D01*
G01X135738D01*
G01Y-703224D01*
G01X153822D01*
G01Y-692302D01*
G01X164694D01*
G01Y-674218D01*
G01X153822D01*
G01Y-663346D01*
G37*
G36*
G01X3445510Y-663346D02*
G01X3445510Y-674218D01*
G01X3434639D01*
G01Y-689000D01*
G01X3437941D01*
G01Y-677520D01*
G01X3448812D01*
G01Y-666648D01*
G01X3460293D01*
G01Y-677520D01*
G01X3471164D01*
G01Y-689000D01*
G01X3460293D01*
G01Y-699872D01*
G01X3448812D01*
G01Y-689000D01*
G01X3437941D01*
G01X3434639D01*
G01Y-692302D01*
G01X3445510D01*
G01Y-703224D01*
G01X3463646D01*
G01Y-692302D01*
G01X3474517D01*
G01Y-674218D01*
G01X3463646D01*
G01Y-663346D01*
G37*
G36*
G01X3816198Y-668376D02*
G01X3816198Y-679298D01*
G01X3805326D01*
G01Y-694080D01*
G01X3808628D01*
G01Y-682600D01*
G01X3819500D01*
G01Y-671728D01*
G01X3830980D01*
G01Y-682600D01*
G01X3841852D01*
G01Y-694080D01*
G01X3830980D01*
G01Y-704952D01*
G01X3819500D01*
G01Y-694080D01*
G01X3808628D01*
G01X3805326D01*
G01Y-697382D01*
G01X3816198D01*
G01Y-708304D01*
G01X3834282D01*
G01Y-697382D01*
G01X3845204D01*
G01Y-679298D01*
G01X3834282D01*
G01Y-668376D01*
G37*
G36*
G01X6353658Y-759816D02*
G01X6353658Y-770738D01*
G01X6342736D01*
G01Y-785520D01*
G01X6346088D01*
G01Y-774040D01*
G01X6356960D01*
G01Y-763168D01*
G01X6368440D01*
G01Y-774040D01*
G01X6379312D01*
G01Y-785520D01*
G01X6368440D01*
G01Y-796392D01*
G01X6356960D01*
G01Y-785520D01*
G01X6346088D01*
G01X6342736D01*
G01Y-788822D01*
G01X6353658D01*
G01Y-799744D01*
G01X6371742D01*
G01Y-788822D01*
G01X6382614D01*
G01Y-770738D01*
G01X6371742D01*
G01Y-759816D01*
G37*
G36*
G01X6236818Y-3292196D02*
G01X6236818Y-3303118D01*
G01X6225896D01*
G01Y-3317900D01*
G01X6229248D01*
G01Y-3306420D01*
G01X6240120D01*
G01Y-3295548D01*
G01X6251600D01*
G01Y-3306420D01*
G01X6262472D01*
G01Y-3317900D01*
G01X6251600D01*
G01Y-3328772D01*
G01X6240120D01*
G01Y-3317900D01*
G01X6229248D01*
G01X6225896D01*
G01Y-3321202D01*
G01X6236818D01*
G01Y-3332074D01*
G01X6254902D01*
G01Y-3321202D01*
G01X6265774D01*
G01Y-3303118D01*
G01X6254902D01*
G01Y-3292196D01*
G37*
G36*
G01X5815178Y-3505556D02*
G01X5815178Y-3516478D01*
G01X5804256D01*
G01Y-3531260D01*
G01X5807608D01*
G01Y-3519780D01*
G01X5818480D01*
G01Y-3508908D01*
G01X5829960D01*
G01Y-3519780D01*
G01X5840832D01*
G01Y-3531260D01*
G01X5829960D01*
G01Y-3542132D01*
G01X5818480D01*
G01Y-3531260D01*
G01X5807608D01*
G01X5804256D01*
G01Y-3534562D01*
G01X5815178D01*
G01Y-3545434D01*
G01X5833262D01*
G01Y-3534562D01*
G01X5844134D01*
G01Y-3516478D01*
G01X5833262D01*
G01Y-3505556D01*
G37*
G36*
G01X5865978Y-129946D02*
G01X5865978Y-140818D01*
G01X5855056D01*
G01Y-155600D01*
G01X5858408D01*
G01Y-144120D01*
G01X5869280D01*
G01Y-133248D01*
G01X5880760D01*
G01Y-144120D01*
G01X5891632D01*
G01Y-155600D01*
G01X5880760D01*
G01Y-166472D01*
G01X5869280D01*
G01Y-155600D01*
G01X5858408D01*
G01X5855056D01*
G01Y-158902D01*
G01X5865978D01*
G01Y-169824D01*
G01X5884062D01*
G01Y-158902D01*
G01X5894934D01*
G01Y-140818D01*
G01X5884062D01*
G01Y-129946D01*
G37*
G36*
G01X2723998Y-3861156D02*
G01X2723998Y-3872078D01*
G01X2713126D01*
G01Y-3886860D01*
G01X2716428D01*
G01Y-3875380D01*
G01X2727300D01*
G01Y-3864508D01*
G01X2738780D01*
G01Y-3875380D01*
G01X2749652D01*
G01Y-3886860D01*
G01X2738780D01*
G01Y-3897732D01*
G01X2727300D01*
G01Y-3886860D01*
G01X2716428D01*
G01X2713126D01*
G01Y-3890162D01*
G01X2723998D01*
G01Y-3901034D01*
G01X2742082D01*
G01Y-3890162D01*
G01X2753004D01*
G01Y-3872078D01*
G01X2742082D01*
G01Y-3861156D01*
G37*
G36*
G01X3930498Y-3510636D02*
G01X3930498Y-3521558D01*
G01X3919576D01*
G01Y-3536340D01*
G01X3922928D01*
G01Y-3524860D01*
G01X3933800D01*
G01Y-3513988D01*
G01X3945280D01*
G01Y-3524860D01*
G01X3956152D01*
G01Y-3536340D01*
G01X3945280D01*
G01Y-3547212D01*
G01X3933800D01*
G01Y-3536340D01*
G01X3922928D01*
G01X3919576D01*
G01Y-3539642D01*
G01X3930498D01*
G01Y-3550514D01*
G01X3948582D01*
G01Y-3539642D01*
G01X3959454D01*
G01Y-3521558D01*
G01X3948582D01*
G01Y-3510636D01*
G37*
G36*
G01X732638Y-1417676D02*
G01X732638Y-1428598D01*
G01X721766D01*
G01Y-1443380D01*
G01X725068D01*
G01Y-1431900D01*
G01X735940D01*
G01Y-1421028D01*
G01X747420D01*
G01Y-1431900D01*
G01X758292D01*
G01Y-1443380D01*
G01X747420D01*
G01Y-1454252D01*
G01X735940D01*
G01Y-1443380D01*
G01X725068D01*
G01X721766D01*
G01Y-1446682D01*
G01X732638D01*
G01Y-1457604D01*
G01X750722D01*
G01Y-1446682D01*
G01X761644D01*
G01Y-1428598D01*
G01X750722D01*
G01Y-1417676D01*
G37*
G36*
G01X186538Y-2504846D02*
G01X186538Y-2515718D01*
G01X175666D01*
G01Y-2530500D01*
G01X178968D01*
G01Y-2519020D01*
G01X189840D01*
G01Y-2508148D01*
G01X201320D01*
G01Y-2519020D01*
G01X212192D01*
G01Y-2530500D01*
G01X201320D01*
G01Y-2541372D01*
G01X189840D01*
G01Y-2530500D01*
G01X178968D01*
G01X175666D01*
G01Y-2533802D01*
G01X186538D01*
G01Y-2544724D01*
G01X204622D01*
G01Y-2533802D01*
G01X215544D01*
G01Y-2515718D01*
G01X204622D01*
G01Y-2504846D01*
G37*
G36*
G01X186538Y-1553159D02*
G01X186538Y-1564030D01*
G01X175666D01*
G01Y-1578813D01*
G01X178968D01*
G01Y-1567332D01*
G01X189840D01*
G01Y-1556461D01*
G01X201320D01*
G01Y-1567332D01*
G01X212192D01*
G01Y-1578813D01*
G01X201320D01*
G01Y-1589684D01*
G01X189840D01*
G01Y-1578813D01*
G01X178968D01*
G01X175666D01*
G01Y-1582166D01*
G01X186538D01*
G01Y-1593037D01*
G01X204622D01*
G01Y-1582115D01*
G01X215544D01*
G01Y-1564030D01*
G01X204622D01*
G01Y-1553159D01*
G37*
G36*
G01X3856279Y-3021736D02*
G01X3856279Y-3032608D01*
G01X3845408D01*
G01Y-3047390D01*
G01X3848710D01*
G01Y-3035910D01*
G01X3859632D01*
G01Y-3025038D01*
G01X3871062D01*
G01Y-3035910D01*
G01X3881984D01*
G01Y-3047390D01*
G01X3871062D01*
G01Y-3058262D01*
G01X3859632D01*
G01Y-3047390D01*
G01X3848710D01*
G01X3845408D01*
G01Y-3050743D01*
G01X3856279D01*
G01Y-3061614D01*
G01X3874414D01*
G01Y-3050743D01*
G01X3885286D01*
G01Y-3032608D01*
G01X3874414D01*
G01Y-3021736D01*
G37*
G36*
G01X4959198Y-2746146D02*
G01X4959198Y-2757018D01*
G01X4948276D01*
G01Y-2771800D01*
G01X4951628D01*
G01Y-2760320D01*
G01X4962500D01*
G01Y-2749448D01*
G01X4973980D01*
G01Y-2760320D01*
G01X4984852D01*
G01Y-2771800D01*
G01X4973980D01*
G01Y-2782672D01*
G01X4962500D01*
G01Y-2771800D01*
G01X4951628D01*
G01X4948276D01*
G01Y-2775102D01*
G01X4959198D01*
G01Y-2786024D01*
G01X4977282D01*
G01Y-2775102D01*
G01X4988154D01*
G01Y-2757018D01*
G01X4977282D01*
G01Y-2746146D01*
G37*
G36*
G01X1279042Y-2395880D02*
G01X1279042Y-2406752D01*
G01X1268171D01*
G01Y-2421534D01*
G01X1271473D01*
G01Y-2410054D01*
G01X1282344D01*
G01Y-2399182D01*
G01X1293825D01*
G01Y-2410054D01*
G01X1304696D01*
G01Y-2421534D01*
G01X1293825D01*
G01Y-2432406D01*
G01X1282344D01*
G01Y-2421534D01*
G01X1271473D01*
G01X1268171D01*
G01Y-2424887D01*
G01X1279042D01*
G01Y-2435758D01*
G01X1297178D01*
G01Y-2424836D01*
G01X1308049D01*
G01Y-2406752D01*
G01X1297178D01*
G01Y-2395880D01*
G37*
G36*
G01X1357173Y-3837991D02*
G01X1357173Y-3848913D01*
G01X1346302D01*
G01Y-3863696D01*
G01X1349654D01*
G01Y-3852215D01*
G01X1360526D01*
G01Y-3841344D01*
G01X1372006D01*
G01Y-3852215D01*
G01X1382878D01*
G01Y-3863696D01*
G01X1372006D01*
G01Y-3874567D01*
G01X1360526D01*
G01Y-3863696D01*
G01X1349654D01*
G01X1346302D01*
G01Y-3866998D01*
G01X1357173D01*
G01Y-3877869D01*
G01X1375308D01*
G01Y-3866998D01*
G01X1386180D01*
G01Y-3848913D01*
G01X1375308D01*
G01Y-3837991D01*
G37*
G36*
G01X2242566Y-3837991D02*
G01X2242566Y-3848913D01*
G01X2231695D01*
G01Y-3863696D01*
G01X2235048D01*
G01Y-3852215D01*
G01X2245919D01*
G01Y-3841344D01*
G01X2257400D01*
G01Y-3852215D01*
G01X2268271D01*
G01Y-3863696D01*
G01X2257400D01*
G01Y-3874567D01*
G01X2245919D01*
G01Y-3863696D01*
G01X2235048D01*
G01X2231695D01*
G01Y-3866998D01*
G01X2242566D01*
G01Y-3877869D01*
G01X2260702D01*
G01Y-3866998D01*
G01X2271573D01*
G01Y-3848913D01*
G01X2260702D01*
G01Y-3837991D01*
G37*
G36*
G01X2652878Y-3403956D02*
G01X2652878Y-3414878D01*
G01X2641956D01*
G01Y-3429660D01*
G01X2645308D01*
G01Y-3418180D01*
G01X2656180D01*
G01Y-3407308D01*
G01X2667660D01*
G01Y-3418180D01*
G01X2678532D01*
G01Y-3429660D01*
G01X2667660D01*
G01Y-3440532D01*
G01X2656180D01*
G01Y-3429660D01*
G01X2645308D01*
G01X2641956D01*
G01Y-3432962D01*
G01X2652878D01*
G01Y-3443834D01*
G01X2670962D01*
G01Y-3432962D01*
G01X2681884D01*
G01Y-3414878D01*
G01X2670962D01*
G01Y-3403956D01*
G37*
G36*
G01X1807058Y-3500476D02*
G01X1807058Y-3511398D01*
G01X1796186D01*
G01Y-3526180D01*
G01X1799488D01*
G01Y-3514700D01*
G01X1810360D01*
G01Y-3503828D01*
G01X1821840D01*
G01Y-3514700D01*
G01X1832712D01*
G01Y-3526180D01*
G01X1821840D01*
G01Y-3537052D01*
G01X1810360D01*
G01Y-3526180D01*
G01X1799488D01*
G01X1796186D01*
G01Y-3529482D01*
G01X1807058D01*
G01Y-3540354D01*
G01X1825142D01*
G01Y-3529482D01*
G01X1836064D01*
G01Y-3511398D01*
G01X1825142D01*
G01Y-3500476D01*
G37*
G36*
G01X755498Y-3353156D02*
G01X755498Y-3364078D01*
G01X744576D01*
G01Y-3378860D01*
G01X747928D01*
G01Y-3367380D01*
G01X758800D01*
G01Y-3356508D01*
G01X770280D01*
G01Y-3367380D01*
G01X781152D01*
G01Y-3378860D01*
G01X770280D01*
G01Y-3389732D01*
G01X758800D01*
G01Y-3378860D01*
G01X747928D01*
G01X744576D01*
G01Y-3382162D01*
G01X755498D01*
G01Y-3393034D01*
G01X773582D01*
G01Y-3382162D01*
G01X784504D01*
G01Y-3364078D01*
G01X773582D01*
G01Y-3353156D01*
G37*
G36*
G01X3709518Y-1626006D02*
G01X3709518Y-1636878D01*
G01X3698596D01*
G01Y-1651660D01*
G01X3701948D01*
G01Y-1640180D01*
G01X3712820D01*
G01Y-1629308D01*
G01X3724300D01*
G01Y-1640180D01*
G01X3735172D01*
G01Y-1651660D01*
G01X3724300D01*
G01Y-1662532D01*
G01X3712820D01*
G01Y-1651660D01*
G01X3701948D01*
G01X3698596D01*
G01Y-1654962D01*
G01X3709518D01*
G01Y-1665884D01*
G01X3727602D01*
G01Y-1654962D01*
G01X3738524D01*
G01Y-1636878D01*
G01X3727602D01*
G01Y-1626006D01*
G37*
G36*
G01X1735938Y-1537106D02*
G01X1735938Y-1547978D01*
G01X1725066D01*
G01Y-1562760D01*
G01X1728368D01*
G01Y-1551280D01*
G01X1739240D01*
G01Y-1540408D01*
G01X1750720D01*
G01Y-1551280D01*
G01X1761592D01*
G01Y-1562760D01*
G01X1750720D01*
G01Y-1573632D01*
G01X1739240D01*
G01Y-1562760D01*
G01X1728368D01*
G01X1725066D01*
G01Y-1566062D01*
G01X1735938D01*
G01Y-1576984D01*
G01X1754022D01*
G01Y-1566062D01*
G01X1764944D01*
G01Y-1547978D01*
G01X1754022D01*
G01Y-1537106D01*
G37*
G36*
G01X1786738Y-3843376D02*
G01X1786738Y-3854298D01*
G01X1775866D01*
G01Y-3869080D01*
G01X1779168D01*
G01Y-3857600D01*
G01X1790040D01*
G01Y-3846728D01*
G01X1801520D01*
G01Y-3857600D01*
G01X1812392D01*
G01Y-3869080D01*
G01X1801520D01*
G01Y-3879952D01*
G01X1790040D01*
G01Y-3869080D01*
G01X1779168D01*
G01X1775866D01*
G01Y-3872382D01*
G01X1786738D01*
G01Y-3883254D01*
G01X1804822D01*
G01Y-3872382D01*
G01X1815744D01*
G01Y-3854298D01*
G01X1804822D01*
G01Y-3843376D01*
G37*
G36*
G01X6236818Y-2453488D02*
G01X6236818Y-2464359D01*
G01X6225896D01*
G01Y-2479142D01*
G01X6229248D01*
G01Y-2467712D01*
G01X6240120D01*
G01Y-2456790D01*
G01X6251600D01*
G01Y-2467712D01*
G01X6262472D01*
G01Y-2479192D01*
G01X6251600D01*
G01Y-2490064D01*
G01X6240120D01*
G01Y-2479142D01*
G01X6229248D01*
G01X6225896D01*
G01Y-2482494D01*
G01X6236818D01*
G01Y-2493366D01*
G01X6254902D01*
G01Y-2482494D01*
G01X6265774D01*
G01Y-2464359D01*
G01X6254902D01*
G01Y-2453488D01*
G37*
G36*
G01X6236818Y-1598168D02*
G01X6236818Y-1609039D01*
G01X6225896D01*
G01Y-1623822D01*
G01X6229248D01*
G01Y-1612341D01*
G01X6240120D01*
G01Y-1601470D01*
G01X6251600D01*
G01Y-1612341D01*
G01X6262472D01*
G01Y-1623822D01*
G01X6251600D01*
G01Y-1634693D01*
G01X6240120D01*
G01Y-1623822D01*
G01X6229248D01*
G01X6225896D01*
G01Y-1627175D01*
G01X6236818D01*
G01Y-1638046D01*
G01X6254902D01*
G01Y-1627175D01*
G01X6265774D01*
G01Y-1609039D01*
G01X6254902D01*
G01Y-1598168D01*
G37*
G04 Image End*
G54D10*

M02*
